<svg xmlns="http://www.w3.org/2000/svg" viewBox="0 0 70.78887 116.18969"><title>Asset 5</title><g id="Layer_2" data-name="Layer 2"><g id="Layer_1-2" data-name="Layer 1"><path d="M23.32274,56.96261l-6.807,41.96489-.43217,1.8285a11.04073,11.04073,0,0,0,7.14165,12.99737,39.50782,39.50782,0,0,0,9.99709,1.97578C51.214,119.95132,51.8136,93.75294,51.8136,93.75294l1.12525-24.77323Z" fill="#ea9d7d"/><path d="M28.854,63.4476c1.29517,3.33942,3.15994,10.30372,12.01767,15.168,4.12295,2.26413,6.85946,1.978,11.53206,2.14442l.53516-11.78027S27.53615,59.94382,28.854,63.4476Z" fill="#2f170b"/><path d="M66.62481,22.21971s2.808,18.03735,2.17446,30.51743C68.34333,62.84821,64.08792,68.45594,59.053,70.821s-14.36256.29445-21.22437-2.11426c-5.80789-2.05078-9.3369-4.5815-10.63214-7.9209-1.31777-3.50379-3.59271-7.88121-3.59271-7.88121L22.46751,42.17451l8.96137-28.69472Z" fill="#ea9d7d"/><path d="M9.482,14.64663A43.18716,43.18716,0,0,0,.099,39.04479c-1.76687,26.201,20.69173,29.98829,20.69173,29.98829S23.04025,48.795,27.09551,45.39193c4.5445,1.38662,8.51891-.16316,8.491-7.69574.00123-8.54144-.97453-14.43679.20531-15.60341,1.62794-1.563,4.64788-.30231,15.76118,1.356s18.24949,1.18233,19.12974-.94807c.89617-.79278-3.99572-7.156-10.38961-13.48086C53.52538,2.41135,43.0537-.67475,34.78933.1234,26.15113.63786,18.44092,3.0348,9.482,14.64664Z" fill="#2f170b"/><ellipse cx="19.73931" cy="51.59227" rx="8.79396" ry="9.45764" transform="translate(-6.82517 3.15952) rotate(-7.80701)" fill="#ea9d7d"/></g></g></svg>