<svg xmlns="http://www.w3.org/2000/svg" viewBox="0 0 1109 792.52"><title>background 14</title><g id="background-7" data-name="background"><path d="M840.56436,712.07948c23.88162-15.851,129.4-90.34715,144.70891-214.7278C1006.752,322.84182,833.28463,191.29453,785.69662,155.20747,676.60228,72.47789,412.0095-64.37025,235.85091,71.09235,94.76582,179.58428,96.78728,410.7263,176.12526,552.38905,306.86638,785.83423,651.08783,837.83589,840.56436,712.07948Z" fill="#e0ecfc"/><rect x="387.3122" y="68.07583" width="310.20812" height="578.1469" rx="21.83334" fill="#7a97dd"/><rect x="412.46421" y="140.21319" width="259.9041" height="433.87217" rx="2.91111" fill="#e0ecfc"/><rect x="412.46421" y="140.21319" width="259.9041" height="433.87217" rx="2.91111" stroke-width="3" stroke="#000" stroke-linecap="round" stroke-linejoin="round" fill="none"/><rect x="514.38225" y="105.19251" width="58.68802" height="6.812"/><circle cx="498.70591" cy="108.59851" r="3.97367"/><circle cx="542.41626" cy="611.76971" r="17.94701"/><path d="M719.52814,165.19053h-238.944a17.46663,17.46663,0,0,0-17.46667,17.46668V295.14254a17.4667,17.4667,0,0,0,17.46667,17.46676h6.0262l-5.7643,20.26123L514.6444,312.6093H719.52814a17.4667,17.4667,0,0,0,17.46667-17.46676V182.65721A17.46663,17.46663,0,0,0,719.52814,165.19053Z" fill="#b3c8f3"/><path d="M503.98963,402.03859H359.36541a24.10419,24.10419,0,0,0-24.10409,24.10409h0a24.10416,24.10416,0,0,0,24.10409,24.10392h88.032l23.05614,21.65868L468.707,450.2466h35.28267a24.10416,24.10416,0,0,0,24.10409-24.10392h0A24.10419,24.10419,0,0,0,503.98963,402.03859Z" fill="#b3c8f3"/><circle cx="407.18054" cy="428.71897" r="3.275"/><circle cx="432.50722" cy="428.71897" r="3.275"/><circle cx="458.3579" cy="428.71897" r="3.275"/><line x1="563.90027" y1="208.15855" x2="712.19233" y2="208.15855" fill="none" stroke="#000" stroke-linecap="round" stroke-linejoin="round" stroke-width="3"/><line x1="563.90027" y1="221.78256" x2="712.19233" y2="221.78256" fill="none" stroke="#000" stroke-linecap="round" stroke-linejoin="round" stroke-width="3"/><line x1="494.73225" y1="259.10302" x2="712.19233" y2="259.10302" fill="none" stroke="#000" stroke-linecap="round" stroke-linejoin="round" stroke-width="3"/><line x1="494.73225" y1="274.18258" x2="603.46229" y2="274.18258" fill="none" stroke="#000" stroke-linecap="round" stroke-linejoin="round" stroke-width="3"/><path d="M319.58128,193.62638l-23.11241-23.55717c10.33554-8.83672,16.62011-20.44312,16.62011-33.16491,0-27.67159-29.68-50.1043-66.29149-50.1043S180.506,109.23271,180.506,136.9043c0,27.67228,29.68,50.105,66.29149,50.105a83.61014,83.61014,0,0,0,30.60926-5.66481Z" fill="#b3c8f3"/><line x1="213.42721" y1="119.72137" x2="279.94157" y2="119.72137" fill="none" stroke="#6986ed" stroke-linecap="round" stroke-miterlimit="10" stroke-width="3"/><line x1="213.42721" y1="134.16641" x2="279.94157" y2="134.16641" fill="none" stroke="#6986ed" stroke-linecap="round" stroke-miterlimit="10" stroke-width="3"/><line x1="213.42721" y1="148.61145" x2="279.94157" y2="148.61145" fill="none" stroke="#6986ed" stroke-linecap="round" stroke-miterlimit="10" stroke-width="3"/><polygon points="831.818 273.229 831.818 308.7 844.755 290.965 863.117 308.7 912.359 219.396 810.118 264.048 831.818 273.229" fill="#b3c8f3"/><polyline points="831.818 273.229 912.359 219.396 844.755 290.965" fill="none" stroke="#2f170b" stroke-linejoin="round" stroke-width="2"/><path d="M136.5792,340.97178c17.84885,32.04664,57.10987,92.26719,130.20034,139.10513,21.82553,13.98534,120.67433,74.20588,250.3874,58.97812,196.39744-23.0564,292.70135-199.01392,301.57612-215.88823" fill="none" stroke="#000" stroke-linecap="round" stroke-linejoin="round" stroke-width="3"/></g></svg>