<svg xmlns="http://www.w3.org/2000/svg" xmlns:xlink="http://www.w3.org/1999/xlink" viewBox="0 0 1109 792.52"><defs><clipPath id="clip-path"><rect id="SVGID" x="846.13391" y="370.43059" width="44.26248" height="44.26249" fill="none"/></clipPath></defs><title>background 20</title><g id="background"><path d="M867.39,672.25286c24.45446-18.80309,132.32669-106.35911,143.46583-233.0578,15.62845-177.76212-171.79849-288.78619-223.216-319.243C669.76628,50.12959,386.41515-55.17634,206.76758,102.13059c-143.87941,125.987-132.57485,357.74561-43.615,490.32548C309.7494,810.93356,673.36835,821.43075,867.39,672.25286Z" fill="#e0ecfc"/><rect x="905.21183" y="434.62066" width="84.34314" height="76.25281" rx="3.23591" stroke-width="2" stroke="#000" stroke-linecap="round" stroke-linejoin="round" fill="none"/><circle cx="431.48987" cy="107.4736" r="31.49987" fill="#7a97dd"/><rect x="197.02556" y="387.56183" width="144.94118" height="100.23529" rx="4.86351" stroke-width="2" stroke="#000" stroke-linecap="round" stroke-linejoin="round" fill="none"/><rect x="118.90792" y="182.62066" width="204" height="147.52941" rx="7" fill="#7a97dd"/><rect x="789.49615" y="124.7383" width="187.76471" height="147.52941" rx="6.71568" fill="#b3c8f3"/><rect x="785.26086" y="339.32654" width="164.82353" height="114" rx="5.53103" fill="#7a97dd"/><rect x="161.26086" y="404.50301" width="144.94118" height="100.23529" rx="4.86351" fill="#b3c8f3"/><rect x="373.79027" y="62.32654" width="193" height="90.29412" rx="5.32662" stroke-width="2" stroke="#000" stroke-linecap="round" stroke-linejoin="round" fill="none"/><rect x="144.31968" y="204.50301" width="152.82353" height="44.47059" fill="#e0ecfc"/><rect x="144.31968" y="261.32654" width="152.82353" height="44.47059" fill="#e0ecfc"/><path d="M963.54247,469.11447l-4.14445-.32635a12.71944,12.71944,0,0,0-1.1408-2.50819l2.46243-3.34644a.68606.68606,0,0,0-.07947-.89661l-3.50338-3.25837a.68432.68432,0,0,0-.90024-.02374l-3.1597,2.69845a12.45954,12.45954,0,0,0-2.57933-.96134l-.62455-4.111a.67475.67475,0,0,0-.68741-.57745l-4.78945.16829a.67475.67475,0,0,0-.64516.62428l-.33444,4.14474a12.45951,12.45951,0,0,0-2.50552,1.14l-3.34131-2.47a.68433.68433,0,0,0-.89635.08687l-3.25863,3.496a.67823.67823,0,0,0-.02374.90024l2.69123,3.16535a12.71669,12.71669,0,0,0-.96192,2.58207l-4.10327.61616a.6767.6767,0,0,0-.57715.69548l.168,4.78138a.66694.66694,0,0,0,.62426.64516l4.13667.33472a12.75918,12.75918,0,0,0,1.14069,2.5055l-2.46232,3.34915a.66766.66766,0,0,0,.08658.88825l3.49623,3.266a.68336.68336,0,0,0,.90017.02172l3.15977-2.69643a12.42291,12.42291,0,0,0,2.57938.962l.62453,4.111a.67434.67434,0,0,0,.6871.56937l4.78945-.16829a.67435.67435,0,0,0,.64547-.61619l.33446-4.14474a12.423,12.423,0,0,0,2.50547-1.14069l3.34124,2.468a.68336.68336,0,0,0,.89642-.08485l3.26578-3.50364a.67531.67531,0,0,0,.01662-.89187l-2.69133-3.16807a12.76142,12.76142,0,0,0,.962-2.57938l4.111-.62453a.66641.66641,0,0,0,.56937-.6871l-.168-4.78139a.67635.67635,0,0,0-.61648-.65353Zm-15.89854,11.0508a7.42279,7.42279,0,1,1,7.15754-7.67888,7.432,7.432,0,0,1-7.15754,7.67888Zm0,0" fill="#b3c8f3"/><path d="M447.64894,103.841l-4.14445-.32635a12.71918,12.71918,0,0,0-1.1408-2.50819L444.82611,97.66a.68606.68606,0,0,0-.07946-.89661L441.24327,93.505a.68433.68433,0,0,0-.90024-.02373l-3.1597,2.69845a12.45976,12.45976,0,0,0-2.57933-.96134l-.62455-4.111a.67477.67477,0,0,0-.68741-.57746l-4.78945.1683a.67474.67474,0,0,0-.64516.62427l-.33444,4.14475a12.459,12.459,0,0,0-2.50552,1.14l-3.34131-2.47a.68431.68431,0,0,0-.89635.08686l-3.25863,3.496a.67822.67822,0,0,0-.02374.90024l2.69123,3.16535a12.7171,12.7171,0,0,0-.96193,2.58207l-4.10326.61616a.67668.67668,0,0,0-.57715.69547l.168,4.78139a.66693.66693,0,0,0,.62426.64516l4.13667.33472a12.75883,12.75883,0,0,0,1.14069,2.50549l-2.46232,3.34916a.66766.66766,0,0,0,.08658.88825l3.49623,3.266a.68336.68336,0,0,0,.90017.02172l3.15977-2.69644a12.42235,12.42235,0,0,0,2.57938.962l.62452,4.11105a.67436.67436,0,0,0,.68711.56937l4.78945-.16829a.67434.67434,0,0,0,.64546-.61619l.33447-4.14475a12.42272,12.42272,0,0,0,2.50547-1.14069l3.34123,2.468a.68336.68336,0,0,0,.89643-.08484l3.26578-3.50364a.67533.67533,0,0,0,.01662-.89188l-2.69133-3.16807a12.7611,12.7611,0,0,0,.962-2.57937l4.111-.62453a.66642.66642,0,0,0,.56937-.6871l-.168-4.78139a.67634.67634,0,0,0-.61647-.65353Zm-15.89854,11.0508a7.42279,7.42279,0,1,1,7.15754-7.67888,7.432,7.432,0,0,1-7.15754,7.67888Zm0,0" fill="#b3c8f3"/><polygon points="441.49 204.328 441.49 249.148 431.49 249.148 433.03 212.608 441.49 204.328"/><polygon points="431.49 249.148 386.67 249.148 396.67 204.328 441.49 204.328 431.49 249.148" fill="#b3c8f3"/><rect x="197.37816" y="454.80091" width="13.27107" height="37.94647" fill="#e0ecfc"/><rect x="215.95196" y="438.15772" width="13.27107" height="54.58965" fill="none" stroke="#000" stroke-miterlimit="10" stroke-width="2"/><rect x="233.67186" y="443.70545" width="13.27107" height="49.04192" fill="none" stroke="#000" stroke-miterlimit="10" stroke-width="2"/><rect x="251.34692" y="424.2884" width="13.27107" height="68.45898" fill="#7a97dd"/><polyline points="188.795 416.494 188.795 492.747 278.668 492.747" fill="none" stroke="#000" stroke-miterlimit="10" stroke-width="2"/><circle cx="173.6138" cy="226.7383" r="14.47059" fill="#b3c8f3"/><circle cx="687.012" cy="202.25414" r="49.77828" fill="#7a97dd"/><polyline points="166.202 227.032 172.202 231.738 179.496 223.032" fill="none" stroke="#000" stroke-linecap="round" stroke-linejoin="round" stroke-width="3"/><circle cx="638.3648" cy="162.37706" r="21.40346" fill="#b3c8f3"/><circle cx="868.67262" cy="392.56183" r="35.76471" fill="#b3c8f3"/><polyline points="627.402 162.812 636.277 169.773 647.065 156.896" fill="none" stroke="#000" stroke-linecap="round" stroke-linejoin="round" stroke-width="3"/><circle cx="173.6138" cy="282.90253" r="14.47059" fill="#b3c8f3"/><polyline points="166.202 283.197 172.202 287.903 179.496 279.197" fill="none" stroke="#000" stroke-linecap="round" stroke-linejoin="round" stroke-width="3"/><line x1="199.84909" y1="222.50301" x2="273.49615" y2="222.50301" fill="none" stroke="#000" stroke-linecap="round" stroke-linejoin="round" stroke-width="2"/><path d="M247.4375,147.73832H173.79a3,3,0,0,1,0-6H247.4375a3,3,0,0,1,0,6Z" fill="#b3c8f3"/><path d="M179.49609,559.73832h-73.647a3,3,0,1,1,0-6h73.647a3,3,0,0,1,0,6Z" fill="#b3c8f3"/><path d="M1001.15088,311.97367h-73.647a3,3,0,0,1,0-6h73.647a3,3,0,0,1,0,6Z" fill="#b3c8f3"/><path d="M888.21,559.73832H814.5625a3,3,0,0,1,0-6H888.21a3,3,0,0,1,0,6Z" fill="#b3c8f3"/><line x1="199.84909" y1="232.26771" x2="242.43733" y2="232.26771" fill="none" stroke="#000" stroke-linecap="round" stroke-linejoin="round" stroke-width="2"/><line x1="476.55498" y1="86.7383" x2="550.20204" y2="86.7383" fill="none" stroke="#6986ed" stroke-linecap="round" stroke-miterlimit="10" stroke-width="3"/><line x1="476.55498" y1="103.50301" x2="519.14321" y2="103.50301" fill="none" stroke="#6986ed" stroke-linecap="round" stroke-miterlimit="10" stroke-width="3"/><line x1="199.84909" y1="276.7383" x2="273.49615" y2="276.7383" fill="none" stroke="#000" stroke-linecap="round" stroke-linejoin="round" stroke-width="2"/><line x1="199.84909" y1="286.50301" x2="242.43733" y2="286.50301" fill="none" stroke="#000" stroke-linecap="round" stroke-linejoin="round" stroke-width="2"/><rect x="811.37851" y="180.50301" width="29.29412" height="28.05882" fill="#7a97dd"/><rect x="811.37851" y="215.41477" width="29.29412" height="28.05882" fill="none" stroke="#000" stroke-miterlimit="10"/><rect x="848.49615" y="180.50301" width="29.29412" height="28.05882" fill="none" stroke="#000" stroke-miterlimit="10"/><rect x="848.49615" y="215.41477" width="29.29412" height="28.05882" fill="#7a97dd"/><rect x="885.49615" y="180.50301" width="29.29412" height="28.05882" fill="none" stroke="#000" stroke-miterlimit="10"/><rect x="885.49615" y="215.41477" width="29.29412" height="28.05882" fill="#7a97dd"/><rect x="922.6138" y="180.50301" width="29.29412" height="28.05882" fill="#7a97dd"/><rect x="922.6138" y="215.41477" width="29.29412" height="28.05882" fill="#7a97dd"/><path d="M970.54524,124.73847H796.21174a6.71527,6.71527,0,0,0-6.71557,6.71534V156.8957H977.26082V131.45381A6.71528,6.71528,0,0,0,970.54524,124.73847Z" fill="#7a97dd"/><path d="M704.17224,192.068h-2.145v-6.43509a15.01522,15.01522,0,1,0-30.03043,0V192.068h-2.145a4.28884,4.28884,0,0,0-4.29006,4.29v25.74037a4.2889,4.2889,0,0,0,4.29006,4.29013h34.32049a4.28894,4.28894,0,0,0,4.29006-4.29013V196.35794a4.28887,4.28887,0,0,0-4.29006-4.29ZM689.157,210.98714v6.82118a2.145,2.145,0,0,1-4.29007,0v-6.82118a6.43555,6.43555,0,1,1,4.29007,0Zm8.58012-18.91919H676.28684v-6.43509a10.72516,10.72516,0,1,1,21.45031,0Zm0,0" fill="#b3c8f3"/><path d="M687.01193,198.503a6.43483,6.43483,0,0,0-2.145,12.4841v6.82118a2.145,2.145,0,0,0,4.29007,0v-6.82118a6.43486,6.43486,0,0,0-2.1451-12.4841Zm0,0"/><g clip-path="url(#clip-path)"><path d="M872.64409,406.55793h-8.75788a.76245.76245,0,0,0-.76314.76315V409.551c.235,6.80574,10.04911,6.80574,10.28415,0v-2.22991a.76244.76244,0,0,0-.76313-.76315Zm0,0" fill="#7a97dd"/></g><path d="M868.26515,370.43059a.76441.76441,0,0,0-.76317.76312v4.44762a.76316.76316,0,0,0,1.52632,0v-4.44762a.7644.7644,0,0,0-.76315-.76312Zm14.33265,6.37912-3.14494,3.14493a.763.763,0,1,0,1.076,1.08214l3.14494-3.14188a.76412.76412,0,0,0-1.076-1.08519Zm6.69278,14.64632h-4.44226a.76315.76315,0,1,0,0,1.52629h4.44226a.76315.76315,0,1,0,0-1.52629Zm-8.76168,11.95085a.763.763,0,0,0-1.076,1.076l3.13653,3.14188a.76385.76385,0,1,0,1.08445-1.076Zm-24.52751,0-3.14493,3.14188a.7631.7631,0,0,0,1.076,1.076l3.145-3.14188a.763.763,0,0,0-1.076-1.076ZM851.682,391.456h-4.44229a.76315.76315,0,0,0,0,1.52629H851.682a.76315.76315,0,0,0,0-1.52629Zm2.25049-14.64632a.76411.76411,0,0,0-1.076,1.08519l3.14493,3.14188a.763.763,0,1,0,1.076-1.08214Zm0,0" fill="#7a97dd"/><path d="M878.75842,389.07425c-3.21974-12.30879-21.01629-10.13612-21.27576,2.55729a10.72713,10.72713,0,0,0,2.54891,6.95227,12.98492,12.98492,0,0,1,3.0915,8.39461c-.06258.55711.10378,1.12029.76314,1.14472h8.75788c.641,0,.8257-.58151.76313-1.13021a13.58614,13.58614,0,0,1,3.25252-8.59457,10.91766,10.91766,0,0,0,2.09868-9.32411Zm0,0" fill="#e0ecfc"/></g></svg>