<svg xmlns="http://www.w3.org/2000/svg" viewBox="0 0 1109 792.52"><title>background 2</title><g id="background-19" data-name="background"><path d="M664.358,762.82872c24.64146-2.97654,135.2515-19.5787,195.4665-109.858,84.48341-126.66469,1.43-295.90228-21.35477-342.32926C786.23668,204.208,634.74133-4.56866,445.76789,31.73167c-151.34855,29.073-239.67368,208.69283-233.38161,349.1506C222.75537,612.342,468.85517,786.44019,664.358,762.82872Z" fill="#e0ecfc"/><rect x="891.92886" y="606.27133" width="74.17045" height="30.01116" fill="#b3c8f3"/><rect x="398.87964" y="225.92872" width="74.17045" height="30.01116" fill="#b3c8f3"/><rect x="361.79441" y="315.96221" width="74.17045" height="30.01116" fill="#b3c8f3"/><path d="M276.516,457.724s5.6722-96.68381,21.50518-131.51637c0,0,12.66638,6.33319,2.63883,36.152s5.46943,52.17831-2.12357,74.59136c-7.11233,20.99422-22.02044,20.773-22.02044,20.773" fill="#8ec14c"/><path d="M267.32988,461.2879s-23.14083-32.95755-31.23324-64.27167,8.09241-55.2395,8.09241-55.2395S261.16552,367.34791,267.32988,461.2879Z" fill="#8ec14c"/><path d="M244.189,359.017q1.83216,10.72706,3.56348,21.44531c1.17822,7.144,2.3291,14.28785,3.55664,21.41651.60987,3.56445,1.22071,7.1289,1.89331,10.68017.60254,3.56617,1.36109,7.0979,2.0376,10.6482l1.12256,5.30151,1.24487,5.27149c.39429,1.76513.93653,3.48364,1.39942,5.23437.21337.88281.55078,1.71753.844,2.57275l.875,2.57593c-.74756-1.64331-1.60059-3.26733-2.22-4.97558-.60767-1.70948-1.29907-3.40259-1.84082-5.13721l-1.574-5.22363-1.37329-5.27564c-1.72973-7.0581-3.136-14.18579-4.3789-21.3352-1.19214-7.158-2.26172-14.334-3.12574-21.5354Q244.88673,369.88321,244.189,359.017Z" fill="#2f170b"/><path d="M259.03882,390.3295c1.73755,8.45313,3.19043,16.96143,4.43652,25.49878q1.89807,12.80274,3.18286,25.69092c.82227,8.5918,1.52954,17.20117,1.79859,25.8374a202.31232,202.31232,0,0,1-.51831,25.88892q-.063-3.23951-.06714-6.46607c-.03736-2.15234-.16187-4.30493-.23828-6.45459-.04419-2.14965-.21289-4.29834-.32935-6.446-.11938-2.14771-.22485-4.29541-.40552-6.44068-.58471-8.58422-1.37426-17.15625-2.229-25.72143-.8186-8.56934-1.78833-17.12622-2.7356-25.68848Z" fill="#2f170b"/><path d="M266.00338,489.28732s-31.578-50.66554-52.16087-69.929c0,0-7.52243,36.67973,19.98826,55.15154S266.00338,489.28732,266.00338,489.28732Z" fill="#8ec14c"/><path d="M271.369,439.14955s-22.95782-84.17867,0-132.997C271.369,306.15253,285.09091,355.23476,271.369,439.14955Z" fill="#8ec14c"/><path d="M271.3689,306.1525q.286,16.6355.27319,33.26221c.01929,11.0852-.06152,22.1687-.11523,33.25122l-.28858,33.24511-.10986,16.62061c-.00659,2.76953-.05322,5.54224.00512,8.30981l.06543,4.15455.16993,4.15356-.47144-4.13574c-.12183-1.38257-.19409-2.76685-.29346-4.15137-.20874-2.769-.31225-5.53979-.45581-8.311q-.33324-8.31519-.4707-16.63306c-.12891-5.54492-.12891-11.08936-.18335-16.634l.03394-16.63233c.0935-11.08764.25976-22.17358.55932-33.25732Q270.49792,322.7687,271.3689,306.1525Z" fill="#2f170b"/><path d="M276.989,451.27018c.88648-2.624,1.94825-5.158,3.07154-7.65992,1.11255-2.50756,2.32885-4.96167,3.56543-7.40527,1.26977-2.42676,2.56176-4.8418,3.95752-7.20361,1.38427-2.36743,2.832-4.7024,4.45629-6.94629-.884,2.62524-1.94506,5.15942-3.06909,7.66113-1.11279,2.50732-2.3291,4.96143-3.56787,7.404-1.272,2.42554-2.564,4.84058-3.9602,7.20215C280.05786,446.68961,278.61108,449.02506,276.989,451.27018Z" fill="#2f170b"/><path d="M278.33081,437.96207c.76025-2.90747,1.70264-5.7395,2.70947-8.54468.99512-2.81006,2.09815-5.57519,3.22217-8.33154,1.15845-2.74219,2.34033-5.47461,3.62964-8.16235,1.27759-2.69239,2.62085-5.35767,4.1477-7.94678-.758,2.90845-1.69946,5.74072-2.70654,8.5459-.9956,2.80981-2.09887,5.575-3.2251,8.33032-1.16088,2.74121-2.34252,5.47363-3.63232,8.16113C281.19751,432.70646,279.85522,435.37223,278.33081,437.96207Z" fill="#2f170b"/><path d="M273.9907,489.5889s11.01225-35.57394,58.863-70.23057c0,0,4.574-2.63883,2.63883,6.50911S329.12511,456.55326,273.9907,489.5889Z" fill="#8ec14c"/><path d="M276.989,486.38468c9.15747-10.96509,18.708-21.55615,28.28955-32.117l14.4751-15.74292,7.251-7.85693c2.41943-2.61816,4.84375-5.22827,7.08057-8.011A179.88656,179.88656,0,0,1,320.92163,439.56c-2.292,2.73877-4.67163,5.39722-7.01221,8.0918l-7.15332,7.96216c-4.81836,5.26294-9.67968,10.48535-14.63623,15.6184Q284.71473,478.95939,276.989,486.38468Z" fill="#2f170b"/><path d="M298.02124,326.20768a127.92514,127.92514,0,0,0-5.82642,20.27807c-1.52,6.87256-2.7788,13.80274-3.90991,20.75293-1.08056,6.95923-2.17236,13.917-3.125,20.89722-.95581,6.97949-1.82055,13.97241-2.64062,20.9707q-1.29237,10.49012-2.43994,21.00025l-2.198,21.03149q-1.10706,10.51684-2.09009,21.04761l-2.04736,21.05957c.239-7.05225.675-14.09326,1.07006-21.13794q.698-10.559,1.53541-21.10962c1.1289-14.06616,2.58764-28.105,4.18652-42.12988,1.77588-14.00245,3.67383-27.99976,6.24048-41.89234,1.31836-6.939,2.74707-13.86084,4.47021-20.71509.44019-1.71118.88526-3.42065,1.39331-5.1145.48047-1.70044.97754-3.39551,1.54468-5.07055A78.40179,78.40179,0,0,1,298.02124,326.20768Z" fill="#2f170b"/><polygon points="268.17 583.987 299.416 583.987 316.32 555.046 294.806 488.456 268.17 488.456 241.534 488.456 220.02 555.046 236.924 583.987 268.17 583.987" fill="#7a97dd"/><path d="M241.534,488.45623s20.48919-1.79281,33.80716,12.54962,16.64746,40.21,40.97837,54.04023" fill="none" stroke="#2f170b" stroke-miterlimit="10" stroke-width="2"/><path d="M236.92385,583.98714c15.6231-4.098,37.13668-38.16113,29.96558-59.16262-7.17111-21.00123-32.15212-15.32892-32.15265-15.32892" fill="none" stroke="#2f170b" stroke-miterlimit="10" stroke-width="2"/><path d="M305.7577,573.12936c-6.90908-9.93325-15.05919-28.16755-19.40358-29.35224-5.63457-1.53679-4.866,6.40284-7.42728,14.85457-2.06271,6.80677-11.59894,19.09026-19.24705,25.35545" fill="none" stroke="#2f170b" stroke-miterlimit="10" stroke-width="2"/><rect x="744.72098" y="65.64165" width="211.02243" height="454.02282" fill="#b3c8f3"/><rect x="719.35949" y="519.66475" width="261.7454" height="32.79791" fill="none" stroke="#2f170b" stroke-miterlimit="10" stroke-width="2"/><path d="M719.36467,536.06664s13.18348-4.18013,26.36695-2.41161,37.46037-.6431,40.19353-13.98735" fill="none" stroke="#2f170b" stroke-miterlimit="10" stroke-width="2"/><path d="M719.36467,552.4656s2.25084-13.82657,19.13212-12.86193,34.56643.80387,44.53442-1.12542,27.97469-18.81057,31.51172-18.81057h16.72051s9.16412,3.37626,41.31894,32.79792" fill="none" stroke="#2f170b" stroke-miterlimit="10" stroke-width="2"/><path d="M768.24,552.4656s30.06475-9.3249,40.67584-14.952,20.90063-4.66245,26.36695-1.447,18.0067,16.399,18.0067,16.399" fill="none" stroke="#2f170b" stroke-miterlimit="10" stroke-width="2"/><circle cx="822.34048" cy="543.70341" r="4.58206" fill="none" stroke="#2f170b" stroke-miterlimit="10" stroke-width="2"/><circle cx="863.33787" cy="528.88962" r="4.58206" fill="none" stroke="#2f170b" stroke-miterlimit="10" stroke-width="2"/><circle cx="913.01707" cy="532.50471" r="4.58206" fill="none" stroke="#2f170b" stroke-miterlimit="10" stroke-width="2"/><circle cx="964.12286" cy="530.25388" r="4.58206" fill="none" stroke="#2f170b" stroke-miterlimit="10" stroke-width="2"/><path d="M905.39637,519.66447a63.66354,63.66354,0,0,0,10.44067,4.02685c6.61425,1.93143,21.50086,6.30449,37.13453,1.27548a46.48024,46.48024,0,0,0,11.15129-5.30233" fill="none" stroke="#2f170b" stroke-miterlimit="10" stroke-width="2"/><path d="M944.91786,552.46238a17.66262,17.66262,0,0,0-4.00863-4.66459c-3.48023-2.75138-5.81252-1.85855-8.36347-4.81036-2.18653-2.551-3.57133-6.85112-1.93143-9.01943,1.91321-2.47806,7.14265-1.22081,10.2949-.47375,5.99473,1.42125,6.97866,3.55311,12.53609,5.63031a35.92641,35.92641,0,0,0,15.59723,1.93144c4.46416-.3462,8.78255-.67418,12.06234-2.387" fill="none" stroke="#2f170b" stroke-miterlimit="10" stroke-width="2"/><path d="M892.38653,552.46238a79.89306,79.89306,0,0,1-10.24023-7.23376c-4.6646-3.88109-5.90363-5.83074-5.63031-7.70751.47375-3.18869,4.95613-4.82858,5.39343-4.99257,4.88325-1.71278,9.80294.56485,11.97124,1.60345,12.64542,6.08584,20.53514,12.84585,30.77538,18.33039" fill="none" stroke="#2f170b" stroke-miterlimit="10" stroke-width="2"/><rect x="728.04388" y="45.92002" width="244.37662" height="473.74766" fill="none" stroke="#2f170b" stroke-miterlimit="10" stroke-width="2"/><line x1="850.23219" y1="65.64165" x2="850.23219" y2="519.66447" fill="none" stroke="#2f170b" stroke-miterlimit="10" stroke-width="2"/><line x1="744.72098" y1="156.63978" x2="955.49988" y2="156.63978" fill="none" stroke="#2f170b" stroke-miterlimit="10" stroke-width="2"/><line x1="744.72098" y1="257.71309" x2="955.49988" y2="257.71309" fill="none" stroke="#2f170b" stroke-miterlimit="10" stroke-width="2"/><line x1="744.72098" y1="345.97337" x2="955.49988" y2="345.97337" fill="none" stroke="#2f170b" stroke-miterlimit="10" stroke-width="2"/><line x1="744.72098" y1="447.04669" x2="955.49988" y2="447.04669" fill="none" stroke="#2f170b" stroke-miterlimit="10" stroke-width="2"/><rect x="324.70919" y="225.92872" width="74.17045" height="30.01116" fill="none" stroke="#2f170b" stroke-miterlimit="10" stroke-width="2"/><rect x="398.87964" y="285.95105" width="74.17045" height="30.01116" fill="none" stroke="#2f170b" stroke-miterlimit="10" stroke-width="2"/><rect x="361.79441" y="255.93988" width="74.17045" height="30.01116" fill="none" stroke="#2f170b" stroke-miterlimit="10" stroke-width="2"/><rect x="817.75842" y="606.27133" width="74.17045" height="30.01116" fill="none" stroke="#2f170b" stroke-miterlimit="10" stroke-width="2"/><rect x="854.84364" y="636.28249" width="74.17045" height="30.01116" fill="none" stroke="#2f170b" stroke-miterlimit="10" stroke-width="2"/><path d="M568.59748,521.47063S520.01142,511.08232,497.83,497.63987c0,0-32.29318-16.24935-56.61045-44.4673-4.38056-5.08322-11.42592-14.03681-10.35034-24.83266.16186-1.62165.89747-9.00364,6.10287-12.2669,6.23615-3.90946,15.3945.282,20.91643,3.08025C496.5034,438.7225,531.689,475.99579,531.689,475.99579,565.69191,509.0176,568.59748,521.47063,568.59748,521.47063Z" fill="#599e08"/><path d="M529.05359,489.04046c6.99135,5.48163,20.656,10.76228,27.0045,13.04417a312.31668,312.31668,0,0,0-24.369-26.08882,348.3538,348.3538,0,0,0-28.375-26.11189,11.03139,11.03139,0,0,0-1.2145,3.54351c-.89382,5.0715,1.878,9.606,3.62,12.196A94.7945,94.7945,0,0,0,529.05359,489.04046Z" fill="#2f170b"/><path d="M571.29232,547.15553s0-33.827,5.79222-50.50877c0,0,6.22159-23.81366,21.54716-44.02083,2.76077-3.64015,7.719-9.60547,15.05994-10.4262,1.10272-.12308,6.12229-.68418,9.036,2.317,3.49062,3.59544,2.00374,10.28965.92674,14.36445-7.532,28.49524-27.33938,57.22751-27.33938,57.22751C579.16981,543.44829,571.29232,547.15553,571.29232,547.15553Z" fill="#599e08"/><path d="M571.29232,572.75371s12.58789-28.29366,23.64037-40.09127c0,0,14.06556-17.60309,34.40383-28.80178,3.66376-2.01736,10.03083-5.16178,16.47633-3.11653.96815.3074,5.37544,1.706,6.69568,5.3005,1.58168,4.30626-2.15307,9.35215-4.57023,12.35963-16.90376,21.03121-44.16313,37.69271-44.16313,37.69271C579.2608,572.5843,571.29232,572.75371,571.29232,572.75371Z" fill="#599e08"/><line x1="571.29232" y1="547.15553" x2="616.93531" y2="442.07806" fill="none" stroke="#2f170b" stroke-miterlimit="10" stroke-width="2"/><polyline points="590.423 465.114 595.691 490.986 618.699 473.815" fill="none" stroke="#2f170b" stroke-miterlimit="10" stroke-width="2"/><polyline points="578.833 490.986 585.764 513.839 602.675 506.026" fill="none" stroke="#2f170b" stroke-miterlimit="10" stroke-width="2"/><line x1="568.59748" y1="521.47063" x2="431.69054" y2="423.64362" fill="none" stroke="#2f170b" stroke-miterlimit="10" stroke-width="2"/><polyline points="456.636 468.797 495.414 469.177 477.816 430.856" fill="none" stroke="#2f170b" stroke-miterlimit="10" stroke-width="2"/><polyline points="490.236 493.391 525.188 490.453 519.161 463.765" fill="none" stroke="#2f170b" stroke-miterlimit="10" stroke-width="2"/><path d="M571.29232,572.75371s51.05609-53.16863,80.39806-68.22043" fill="none" stroke="#2f170b" stroke-miterlimit="10" stroke-width="2"/><path d="M571.02263,583.49256s-12.58789-28.29365-23.64037-40.09127c0,0-14.06556-17.60308-34.40383-28.80178-3.66377-2.01735-10.03083-5.16178-16.47634-3.11652-.96814.3074-5.37543,1.706-6.69567,5.3005-1.58168,4.30626,2.15307,9.35214,4.57023,12.35962,16.90376,21.03122,44.16313,37.69272,44.16313,37.69272C563.05415,583.32316,571.02263,583.49256,571.02263,583.49256Z" fill="#599e08"/><path d="M571.02263,583.49256s-51.05609-53.16862-80.39806-68.22043" fill="none" stroke="#2f170b" stroke-miterlimit="10" stroke-width="2"/><path d="M564.06663,498.64993s-21.10112-6.93543-30.398-14.22432a94.7981,94.7981,0,0,1-23.334-23.417c-1.74206-2.59027-4.51376-7.125-3.62006-12.19631.13438-.76175.74554-4.2294,3.17558-5.56014,2.91123-1.59426,6.80233.77133,9.13795,2.32611,16.33293,10.873,30.46317,29.99336,30.46317,29.99336C563.26249,492.6284,564.06663,498.64993,564.06663,498.64993Z" fill="#599e08"/><path d="M564.06663,498.64993s-42.00562-33.7927-55.1757-54.63892" fill="none" stroke="#2f170b" stroke-miterlimit="10" stroke-width="2"/><path d="M554.529,426.037s25.2824,141.41943,14.06849,201.97843" fill="none" stroke="#2f170b" stroke-miterlimit="10" stroke-width="2"/><path d="M578.83271,423.08a21.78409,21.78409,0,0,0-21.78409-21.78409c-12.031,0-26.82336,17.98328-26.82336,30.01431s6.95071,23.16372,26.58645,18.29823C568.48957,446.71484,578.83271,435.111,578.83271,423.08Z" fill="#b3c8f3"/><path d="M567.38536,792.52h24.55891c2.73528-5.50567,6.77474-13.97644,11.1212-24.55939,11.74744-28.60341,17.62116-42.90536,16.21842-61.16623-1.12147-14.59909-6.41222-26.35134-10.19445-34.75336-6.48819-14.41253-12.35782-20.33458-18.07192-36.14384a122.56471,122.56471,0,0,1-6.024-24.09541H549.77694a122.56487,122.56487,0,0,1-6.024,24.09541c-5.71409,15.80926-11.58373,21.73131-18.07192,36.14384-3.78223,8.402-9.073,20.15427-10.19445,34.75336-1.40274,18.26087,4.471,32.56282,16.21843,61.16623,4.34645,10.58295,8.38591,19.05372,11.1212,24.55939Z" fill="#7a97dd"/><path d="M548.40639,619.53015a128.21569,128.21569,0,0,0,9.9453,16.82823,123.8846,123.8846,0,0,0,31.97267,31.74619,114.698,114.698,0,0,0,22.03721,11.442" fill="none" stroke="#2f170b" stroke-miterlimit="10" stroke-width="2"/><path d="M537.78166,649.44482a164.13872,164.13872,0,0,1,14.78009,11.70789c7.67069,6.8337,45.709,41.99674,54.29544,97.53288" fill="none" stroke="#2f170b" stroke-miterlimit="10" stroke-width="2"/><path d="M570.06942,792.51931c-1.86105-8.36-3.65317-15.11489-5.00219-19.92015-3.78118-13.5-7.1488-22.55909-3.93873-32.90811,1.57549-5.06127,3.48578-6.44968,4.86433-6.95187,4.79541-1.72319,10.97922,4.48031,13.66741,7.18819,9.03939,9.06894,14.75055,25.651,18.24618,40.01753" fill="none" stroke="#2f170b" stroke-miterlimit="10" stroke-width="2"/><path d="M553.25218,716.06184a45.6491,45.6491,0,0,0-28.47408-42.00722c-3.67381,8.228-8.25658,19.26815-9.29151,32.73976-1.21042,15.75829,3.00189,28.57649,11.72749,50.17365A45.54528,45.54528,0,0,0,553.25218,716.06184Z" fill="#b3c8f3"/><polygon points="355.043 792.52 274.436 598.404 290.765 591.622 374.188 792.52 355.043 792.52" fill="#2f170b"/><polygon points="182.798 792.52 163.653 792.52 247.076 591.622 263.405 598.404 182.798 792.52" fill="#2f170b"/><rect x="170.54946" y="583.49277" width="195.3783" height="24.48181" fill="#e56c01"/><path d="M170.55333,595.73587s9.84073-3.12023,19.68145-1.80014,27.96207-.48,30.00222-10.44077" fill="none" stroke="#e0ecfc" stroke-miterlimit="10"/><path d="M170.55333,607.97677s1.68012-10.32076,14.28105-9.60071,25.80191.6,33.24246-.84006,20.88154-14.041,23.52174-14.041H254.0795s6.84051,2.52019,30.84228,24.48181" fill="none" stroke="#e0ecfc" stroke-miterlimit="10"/><path d="M207.036,607.97677s22.44166-6.96051,30.36225-11.16082,15.60115-3.48026,19.68145-1.08008,13.441,12.2409,13.441,12.2409" fill="none" stroke="#e0ecfc" stroke-miterlimit="10"/><circle cx="247.41901" cy="601.43629" r="3.42025" fill="#e0ecfc"/><circle cx="278.02127" cy="590.37862" r="3.42025" fill="#e0ecfc"/><circle cx="315.10401" cy="593.07709" r="3.42025" fill="#e0ecfc"/><circle cx="353.25163" cy="591.39696" r="3.42025" fill="#e0ecfc"/><path d="M309.41559,583.49256a47.52051,47.52051,0,0,0,7.79337,3.00582c4.93717,1.44171,16.04919,4.706,27.71885.95207a34.69482,34.69482,0,0,0,8.32382-3.95789" fill="none" stroke="#e0ecfc" stroke-miterlimit="10"/><path d="M338.91617,607.97437a13.18428,13.18428,0,0,0-2.99222-3.48186c-2.5978-2.05375-4.33872-1.3873-6.24286-3.59066-1.63213-1.90414-2.6658-5.114-1.44171-6.7325,1.4281-1.84974,5.33159-.91127,7.68457-.35363,4.47473,1.06088,5.20918,2.6522,9.35749,4.20271a26.81705,26.81705,0,0,0,11.64246,1.44171c3.33224-.25842,6.55568-.50324,9.00386-1.78173" fill="none" stroke="#e0ecfc" stroke-miterlimit="10"/><path d="M299.70447,607.97437a59.63442,59.63442,0,0,1-7.64376-5.3996c-3.48186-2.897-4.40673-4.35232-4.20271-5.75322.35362-2.38018,3.69947-3.60427,4.02589-3.72668,3.64507-1.27849,7.31734.42163,8.93586,1.19689,9.4391,4.54274,15.32834,9.58871,22.9721,13.68261" fill="none" stroke="#e0ecfc" stroke-miterlimit="10"/></g></svg>