<svg xmlns="http://www.w3.org/2000/svg" viewBox="0 0 1109 792.52"><title>background 17</title><g id="background-4" data-name="background"><path d="M123.7232,583.36871C81.8425,420.58058,311.16465,253.79914,488.65244,124.71612,660.182-.03449,736.27191,4.675,771.80013,11.15779,870.12459,29.0991,953.274,114.54588,979.74793,202.67469c66.95156,222.88121-195.43975,573.31938-493.384,581.21664C339.79636,787.77556,156.17783,709.52079,123.7232,583.36871Z" fill="#e0ecfc"/><path d="M503.79173,759.66581c26.64294-25.15427,32.1125-58.64765,34.59854-73.87237,2.72638-16.696,6.74167-41.28457-6.54572-65.45591-3.13525-5.70356-12.07806-21.97083-29.9231-28.98835-12.94161-5.08844-21.90694-1.90753-43.01437,0-6.648.60117-37.77264,3.17837-60.7811-.93474-29.5082-5.27488-49.26505-22.2004-69.19709-39.27431-34.56049-29.606-67.32686-73.87278-126.23787-86.96381-19.347-4.29924-46.64688-5.67439-71.0672,9.35121-22.44233,13.808-30.64548,35.64188-41.14419,63.58642-13.089,34.839-14.47388,63.10574-15.89668,98.1845-2.02144,49.83547-2.72836,75.20409,12.1563,97.24975,9.91679,14.68823,25.59661,12.84209,52.02546,27.98564,17.2762,9.89912,242.70306,26.85678,288.70588,14.56058C467.513,764.3912,488.11247,774.46946,503.79173,759.66581Z" fill="#b3c8f3"/><path d="M398.12594,724.1325s44.88457,3.74038,74.80762-16.83172,17.76681-55.17062-11.22115-57.9759-129.04314-28.98795-162.70657-49.56005-86.96386-63.58648-92.57443-70.13214-26.18267-4.67548-29.923,13.09133-11.84091,73.87252,82.28838,76.67781S400.93122,663.35131,398.12594,724.1325Z" fill="#7a97dd"/><path d="M74.58287,635.29845c1.42288-35.07876,2.80771-63.34545,15.89676-98.1845,1.41353-3.76305,2.78567-7.40435,4.15639-10.94039-.02536.19279-21.46934,205.85852,28.95222,220.65938,92.03512,27.01621,360.15921,15.4887,392.14584-.78871-3.427,4.69526-28.93292,46.47577-70.38114,46.47577h-296c-34.82353,0-47.09362-3.00146-56.47059-18.04C67.94118,734.48,72.56151,685.13392,74.58287,635.29845Z" fill="#7a97dd"/><rect x="757.35395" y="214.4212" width="168.38916" height="18.57674" fill="#6986ed"/><rect x="786.41756" y="137.71725" width="16.77899" height="76.70396" fill="#b3c8f3"/><rect x="803.19655" y="122.736" width="15.88012" height="91.6852" fill="#7a97dd"/><rect x="819.07666" y="154.79586" width="14.68162" height="59.62534" fill="#fcd2e0"/><rect x="833.75828" y="137.71725" width="16.77899" height="76.70396" fill="#b3c8f3"/><rect x="850.53727" y="130.52625" width="15.88012" height="83.89495" fill="#fcd2e0"/><rect x="880.49975" y="130.52625" width="15.88012" height="83.89495" transform="translate(-3.33899 326.75609) rotate(-20.80155)" fill="#b3c8f3"/><polygon points="787.416 246.181 777.329 246.181 772.335 232.998 792.41 232.998 787.416 246.181" fill="#6986ed"/><polygon points="905.768 246.181 895.681 246.181 890.687 232.998 910.762 232.998 905.768 246.181" fill="#6986ed"/><line x1="794.80705" y1="151.26446" x2="794.80705" y2="203.34446" fill="none" stroke="#e0ecfc" stroke-miterlimit="10" stroke-width="8"/><line x1="826.41747" y1="165.06853" x2="826.41747" y2="204.14853" fill="none" stroke="#e0ecfc" stroke-miterlimit="10" stroke-width="8"/><line x1="842.14778" y1="151.26446" x2="842.14778" y2="203.34446" fill="none" stroke="#e0ecfc" stroke-miterlimit="10" stroke-width="8"/><rect x="761.36137" y="569.83037" width="74.17045" height="30.01116" fill="#b3c8f3"/><rect x="364.64903" y="279.52126" width="74.17045" height="30.01116" fill="#b3c8f3"/><rect x="327.56381" y="369.55475" width="74.17045" height="30.01116" fill="#b3c8f3"/><rect x="290.47859" y="279.52126" width="74.17045" height="30.01116" fill="none" stroke="#2f170b" stroke-miterlimit="10" stroke-width="2"/><rect x="364.64903" y="339.54358" width="74.17045" height="30.01116" fill="none" stroke="#2f170b" stroke-miterlimit="10" stroke-width="2"/><rect x="327.56381" y="309.53242" width="74.17045" height="30.01116" fill="none" stroke="#2f170b" stroke-miterlimit="10" stroke-width="2"/><rect x="687.19092" y="569.83037" width="74.17045" height="30.01116" fill="none" stroke="#2f170b" stroke-miterlimit="10" stroke-width="2"/><rect x="724.27614" y="599.84154" width="74.17045" height="30.01116" fill="none" stroke="#2f170b" stroke-miterlimit="10" stroke-width="2"/><line x1="962.56134" y1="424.24471" x2="962.56134" y2="788.99732" fill="none" stroke="#000" stroke-linecap="round" stroke-miterlimit="10" stroke-width="6"/><path d="M927.58227,774.43956h69.95813a19.00594,19.00594,0,0,1,19.00594,19.00594v0a0,0,0,0,1,0,0h-107.97a0,0,0,0,1,0,0v0A19.00594,19.00594,0,0,1,927.58227,774.43956Z" fill="#6986ed"/><path d="M1030.52859,557.56528H894.59408a6.8745,6.8745,0,0,1-6.81391-7.78516l15.34872-114.8445a6.87449,6.87449,0,0,1,6.81391-5.96383h105.23708a6.87449,6.87449,0,0,1,6.81391,5.96383l15.34871,114.8445A6.87449,6.87449,0,0,1,1030.52859,557.56528Z" fill="#b3c8f3"/></g></svg>