<svg xmlns="http://www.w3.org/2000/svg" viewBox="0 0 1109 792.52"><title>background 18</title><g id="background-3" data-name="background"><path d="M840.56436,712.07948c23.88162-15.851,129.4-90.34715,144.70891-214.7278C1006.752,322.84182,833.28463,191.29453,785.69662,155.20747,676.60228,72.47789,412.0095-64.37025,235.85091,71.09235,94.76582,179.58428,96.78728,410.7263,176.12526,552.38905,306.86638,785.83423,651.08783,837.83589,840.56436,712.07948Z" fill="#e0ecfc"/><path d="M121.21368,485.12147c.52585,28.65853,6.60982,157.68093,103.25476,237.45978C360.06429,834.51334,564.24366,758.9725,620.2563,738.24863,748.66464,690.74015,1006.30524,541.214,986.79369,319.85169,971.16676,142.56294,775.18531,19.99871,613.0835,10.733,345.95662-4.53546,117.04631,257.74807,121.21368,485.12147Z" fill="none" stroke="#000" stroke-miterlimit="10" stroke-width="3"/><rect x="741.28001" y="75.56358" width="140.70588" height="76.70588" fill="#7a97dd"/><polygon points="1048.341 367.722 959.871 367.722 941.518 385.473 937.282 367.722 922.694 367.722 922.694 299.225 1048.341 299.225 1048.341 367.722" fill="#b3c8f3"/><line x1="769.5153" y1="91.32829" x2="853.75059" y2="91.32829" fill="none" stroke="#000" stroke-linecap="round" stroke-miterlimit="10" stroke-width="2"/><line x1="769.5153" y1="106.38711" x2="853.75059" y2="106.38711" fill="none" stroke="#000" stroke-linecap="round" stroke-miterlimit="10" stroke-width="2"/><line x1="769.5153" y1="121.44594" x2="853.75059" y2="121.44594" fill="none" stroke="#000" stroke-linecap="round" stroke-miterlimit="10" stroke-width="2"/><line x1="769.5153" y1="136.50476" x2="853.75059" y2="136.50476" fill="none" stroke="#000" stroke-linecap="round" stroke-miterlimit="10" stroke-width="2"/><line x1="943.39993" y1="316.76758" x2="1027.63522" y2="316.76758" fill="none" stroke="#000" stroke-linecap="round" stroke-miterlimit="10" stroke-width="2"/><line x1="943.39993" y1="331.82641" x2="1027.63522" y2="331.82641" fill="none" stroke="#000" stroke-linecap="round" stroke-miterlimit="10" stroke-width="2"/><line x1="943.39993" y1="346.88523" x2="1027.63522" y2="346.88523" fill="none" stroke="#000" stroke-linecap="round" stroke-miterlimit="10" stroke-width="2"/><polygon points="444.305 237.106 532.776 237.106 551.128 254.858 555.364 237.106 569.952 237.106 569.952 168.609 444.305 168.609 444.305 237.106" fill="#b3c8f3"/><line x1="549.2461" y1="186.15182" x2="465.01081" y2="186.15182" fill="none" stroke="#000" stroke-linecap="round" stroke-miterlimit="10" stroke-width="2"/><line x1="549.2461" y1="201.21064" x2="465.01081" y2="201.21064" fill="none" stroke="#000" stroke-linecap="round" stroke-miterlimit="10" stroke-width="2"/><line x1="549.2461" y1="216.26947" x2="465.01081" y2="216.26947" fill="none" stroke="#000" stroke-linecap="round" stroke-miterlimit="10" stroke-width="2"/><rect x="643.94425" y="218.88001" width="31.79114" height="31.79114" transform="translate(359.27401 -397.81304) rotate(45)" fill="#b3c8f3"/><rect x="983.74355" y="143.54009" width="31.79114" height="31.79114" transform="translate(405.52555 -660.15398) rotate(45)" fill="none" stroke="#000" stroke-miterlimit="10"/><circle cx="609.01629" cy="117.55321" r="7.92441" fill="none" stroke="#000" stroke-miterlimit="10"/><circle cx="1048.3411" cy="455.42484" r="7.92441" fill="#b3c8f3"/><path d="M218.91077,546.87471s-35.29412-67.76471,41.64706-96C260.55783,450.87471,296.20489,520.75706,218.91077,546.87471Z" fill="#7a97dd"/><path d="M152.55783,519.34529s-5.49258,62.80944,35.37136,81.52237C187.92919,600.86766,226.32254,542.63941,152.55783,519.34529Z" fill="#7a97dd"/><path d="M255.96959,457.22765S199.499,570.87471,193.499,656.63941" fill="none" stroke="#b3c8f3" stroke-miterlimit="10" stroke-width="2"/><path d="M156.08724,522.87471s39.52941,18.70588,32.11765,133.7647" fill="none" stroke="#b3c8f3" stroke-miterlimit="10" stroke-width="2"/><path d="M197.59721,526.45214c-9.40577-62.58176-41.51-66.048-41.51-66.048-9.52941,47.64706,40.2353,66,40.2353,66Z"/><path d="M156.08724,460.40412s32.1042,3.46626,41.51,66.048c4.34808,28.93018,3.84548,70.49342-6.92173,130.18727" fill="none" stroke="#b3c8f3" stroke-miterlimit="10" stroke-width="2"/><path d="M161.99517,583.81532C133.24766,527.43691,101.699,534.32,101.699,534.32c6.05628,48.21175,59.072,49.85362,59.072,49.85362Z"/><path d="M101.699,534.32s31.54866-6.88306,60.29617,49.49535c13.28935,26.06251,25.98009,65.64408,34.67882,125.67424" fill="none" stroke="#b3c8f3" stroke-miterlimit="10" stroke-width="2"/><path d="M174.35314,632.54784c-19.53337-38.308-40.97007-33.63112-40.97007-33.63112,4.11512,32.75894,40.13823,33.87456,40.13823,33.87456Z"/><path d="M133.38307,598.91672s21.4367-4.67691,40.97007,33.63112c9.02985,17.709,17.653,44.60388,23.56358,85.3932" fill="none" stroke="#b3c8f3" stroke-miterlimit="10" stroke-width="2"/><path d="M220.74354,630.1292c28.6343-32.08013,48.17652-22.10481,48.17652-22.10481-12.31172,30.635-47.43395,22.55182-47.43395,22.55182Z"/><path d="M268.92006,608.02439s-19.54222-9.97532-48.17652,22.10481c-13.237,14.83-28.417,38.64721-44.50763,76.59186" fill="none" stroke="#b3c8f3" stroke-miterlimit="10" stroke-width="2"/><path d="M201.86535,623.37266c9.6795-41.89708,31.61079-42.54829,31.61079-42.54829,3.937,32.78083-30.74476,42.58314-30.74476,42.58314Z"/><path d="M233.47614,580.82437s-21.93129.65121-31.61079,42.54829c-4.47462,19.36811-6.331,47.55052-2.19226,88.55753" fill="none" stroke="#b3c8f3" stroke-miterlimit="10" stroke-width="2"/><path d="M240.35813,579.74239c37.273-51.14363,67.34271-39.37483,67.34271-39.37483-13.57829,46.65492-66.19024,39.92156-66.19024,39.92156Z"/><path d="M307.70084,540.36756s-30.06976-11.7688-67.34271,39.37483C223.12765,603.385,204.35784,640.472,186.30766,698.38127" fill="none" stroke="#b3c8f3" stroke-miterlimit="10" stroke-width="2"/><path d="M156.78136,656.64h80.91c13.76,15.4,22.4,37.58,22.4,62.23,0,31.68-14.26,59.27-35.34,73.65h-55.03c-21.08-14.38-35.34-41.97-35.34-73.65C134.38136,694.22,143.02136,672.04,156.78136,656.64Z" fill="#7a97dd"/><path d="M134.38136,718.86977c0,1.50293.04224,2.99218.10559,4.47558h125.4989c.06323-1.4834.10547-2.97265.10547-4.47558a99.12744,99.12744,0,0,0-8.354-40.23047H142.73549A99.12534,99.12534,0,0,0,134.38136,718.86977Z" fill="#b3c8f3"/></g></svg>