<svg xmlns="http://www.w3.org/2000/svg" viewBox="0 0 1109 792.52"><title>background 19</title><g id="background-2" data-name="background"><path d="M959.09924,578.47651c39.33569-152.89578-176.051-309.5422-342.75313-430.78106C455.24007,30.52571,383.77406,34.949,350.40482,41.03786c-92.34945,16.85105-170.446,97.10537-195.31117,179.87875-62.883,209.33711,183.56322,538.47975,463.40194,545.89711C756.15647,770.46191,928.61682,696.96255,959.09924,578.47651Z" fill="#e0ecfc"/><path d="M517.8288,25.60718c-110.33094-2.5716-204.83048,156.91614-238.02566,263.30845-6.37337,20.426-87.83191,295.42485,86.91663,417.08609,128.48251,89.45092,325.07137,46.99972,406.3684-56.3779C924.27142,457.37713,696.133,29.762,517.8288,25.60718Z" fill="none" stroke="#000" stroke-miterlimit="10" stroke-width="3"/><path d="M914.79483,600.59007s-25.54779,5.1879-27.659,31.86533" fill="none" stroke="#000" stroke-miterlimit="10" stroke-width="2"/><path d="M922.08288,605.87393s-16.9061,15.16227-18.05793,26.58175" fill="none" stroke="#000" stroke-miterlimit="10" stroke-width="2"/><path d="M933.00571,560.53264s-25.238,25.95753-40.496,71.923" fill="none" stroke="#000" stroke-miterlimit="10" stroke-width="2"/><path d="M908.5573,571.13644s-18.92641,35.122-19.50218,61.12736" fill="none" stroke="#000" stroke-miterlimit="10" stroke-width="2"/><path d="M868.99647,548.44143s-10.093,54.84209-1.0628,84.01425" fill="none" stroke="#000" stroke-miterlimit="10" stroke-width="2"/><path d="M875.42851,632.45568S865.25737,579.773,840.23237,554.631" fill="none" stroke="#000" stroke-miterlimit="10" stroke-width="2"/><path d="M832.3155,567.154s11.64844,45.34186,12.41066,65.30167" fill="none" stroke="#000" stroke-miterlimit="10" stroke-width="2"/><path d="M869.86272,632.4554s-21.20469-46.14852-39.27453-49.6501" fill="none" stroke="#000" stroke-miterlimit="10" stroke-width="2"/><path d="M996.43875,426.4702s-68.46381-6.39683-90.36758,62.50787c0,0-9.47411,30.05079.67058,88.39017C906.74175,577.36824,961.31249,459.89189,996.43875,426.4702Z"/><path d="M1000.4668,613.93408c16.64332,5.54883,32.16826,10.54167,44.65513,13.44433.86028.86666,1.715,1.74925,2.55775,2.67166,0,0,23.89519,21.59792,27.63743,43.47781,0,0-51.24347,8.92306-83.48661-5.75912-25.17128-11.4609-42.972-40.29-49.57069-52.38654C963.26907,618.4681,981.86953,607.73525,1000.4668,613.93408Z" fill="#7a97dd"/><path d="M1000.9095,621.76065c13.39119,4.46407,39.76042-3.56805,45.8354,5.98852,2.25659,3.54984,4.63833,5.92669,7.73861,9.22736l.05446.06054c-2.44673.36562-45.81163,6.69508-73.78062-.01752-15.61227-3.747-25.61895-7.40721-31.51708-9.97452-.75912-1.16378-6.15284-10.54842-6.82832-11.63732,7.76289.48679,19.88709,7.58686,27.14612,6.41508C980.283,620.09153,990.59676,618.32376,1000.9095,621.76065Z"/><path d="M912.94965,600.692s23.8119-39.6865,106.392-34.41695c25.49635,1.627,49.85576,12.01827,67.69729,30.30462A86.37537,86.37537,0,0,1,1109,634.08675s-2.30309,1.63136-12.09121-1.63135-24.15835-2.67978-32.79663-2.44749c-12.97893.349-36.87178-7.14871-63.64517-16.07317S946.9202,631.20789,912.94965,600.692Z"/><path d="M833.61807,583.94558S809.08024,553.248,740.1843,567.045c-21.27141,4.25979-40.5924,15.76611-53.53331,33.17736a73.344,73.344,0,0,0-14.22848,34.05309s2.12307,1.11172,9.99013-2.74367,20.02609-4.99407,27.32177-5.778c10.9617-1.17778,30.21812-10.19618,51.73685-20.7418S808.49069,613.477,833.61807,583.94558Z"/><path d="M1000.4668,613.93408c20.96465,6.989,40.13545,13.08269,53.71041,15.23978l.03665.01911s-45.11076,6.90936-73.89922,0-38.5487-13.53036-38.5487-13.53036l.646-.2549C963.35908,618.41871,981.91413,607.75118,1000.4668,613.93408Z" fill="#7a97dd"/><path d="M1076.18137,479.77912c.3935,1.90378-3.28341,2.82142-9.78812,12.09178-6.17971,8.80835-5.0231,11.26016-9.50056,16.69748-4.28868,5.2079-6.12794,3.90473-22.16746,13.53036-7.06548,4.24088-12.37535,7.45579-18.71277,12.66688-8.986,7.38889-7.42394,8.418-12.37854,11.22831-7.776,4.41134-11.617,1.87351-27.925,5.18241-3.41724.693-7.65175,1.90059-16.12157,4.31736-21.71421,6.19564-24.4735,8.86092-27.34908,7.19771-7.6613-4.43047-6.05146-33.25318,7.48448-53.54792C973.32085,458.76748,1074.20113,470.21085,1076.18137,479.77912Z"/><path d="M855.13738,385.60676c-1.79367.74964-.47594,4.30287-4.45745,14.90468-3.78354,10.07277-6.4603,10.50178-8.42177,17.26674-1.87865,6.47964.2352,7.26245,1.34183,25.9358.48685,8.22613.82979,14.42393.10482,22.59662-1.02791,11.58823-2.7591,10.87959-2.28263,16.55574.74715,8.90888,5.01,10.64731,11.48261,25.97714,1.3566,3.21208,2.74967,7.38924,5.53494,15.74512,7.14087,21.422,6.498,25.204,9.49394,26.63915,7.98138,3.82391,30.86607-13.77242,39.97986-36.40066C930.53658,458.65974,864.15368,381.84117,855.13738,385.60676Z" fill="#7a97dd"/><path d="M721.06369,447.21766c-.95466,1.69347,2.26806,3.68744,5.64009,14.49855,3.20321,10.27207,1.35477,12.2551,3.96337,18.79782,2.49866,6.26672,4.64745,5.58567,16.99306,19.63932,5.43806,6.19141,9.51642,10.87087,13.96552,17.76464,6.30849,9.77479,4.50719,10.27927,8.37042,14.46509,6.06291,6.57019,10.4944,5.32285,25.01966,13.44167,3.0438,1.70092,6.7093,4.14089,14.04057,9.02259,18.79538,12.515,20.61175,15.89413,23.85729,15.1858,8.64673-1.88645,15.89231-29.83,9.181-53.28327C825.43666,458.534,725.86419,438.70717,721.06369,447.21766Z" fill="#7a97dd"/><path d="M914.36163,561.88828c-3.622-32.424,2.23739-58.396,9.54036-70.74019,7.55442-12.76894,14.2635-18.01268,14.2635-18.01268,4.65666-3.63973,7.51507-4.40031,11.30472-8.82665,5.22776-6.10579,3.85125-9.4029,7.62021-15.48,5.29431-8.53641,14.18076-11.98162,25.76561-16.474,4.73337-1.83559,25.38762-12.34452,20.22926-5.295C919.143,541.77691,914.36163,561.88828,914.36163,561.88828Z" fill="#7a97dd"/><path d="M1055.45321,609.90433S994.1335,578.21159,920.1468,598.952" fill="none" stroke="#b3c8f3" stroke-miterlimit="10" stroke-width="2"/><path d="M1028.104,615.66205s-9.68051-17.40885-28.303-21.80324" fill="none" stroke="#b3c8f3" stroke-miterlimit="10" stroke-width="2"/><line x1="972.54205" y1="580.53996" x2="941.76578" y2="594.24564" fill="none" stroke="#b3c8f3" stroke-miterlimit="10" stroke-width="2"/><path d="M957.15392,605.87393S945.40408,595.108,935.6543,595.309" fill="none" stroke="#b3c8f3" stroke-miterlimit="10" stroke-width="2"/><path d="M1043.64988,583.41882s-26.4855-2.30309-37.42517,2.0152" fill="none" stroke="#b3c8f3" stroke-miterlimit="10" stroke-width="2"/><path d="M714.74191,607.85441s48.009-33.62245,112.6223-24.55707" fill="none" stroke="#b3c8f3" stroke-miterlimit="10" stroke-width="2"/><path d="M738.40976,609.599s6.17268-15.74756,21.34576-21.55688" fill="none" stroke="#b3c8f3" stroke-miterlimit="10" stroke-width="2"/><line x1="781.18471" y1="573.74342" x2="808.63766" y2="581.78785" fill="none" stroke="#b3c8f3" stroke-miterlimit="10" stroke-width="2"/><path d="M797.00649,593.318s8.66721-10.392,16.89471-11.3282" fill="none" stroke="#b3c8f3" stroke-miterlimit="10" stroke-width="2"/><path d="M721.67192,584.22793s22.02716-4.94092,31.72278-2.54725" fill="none" stroke="#b3c8f3" stroke-miterlimit="10" stroke-width="2"/><path d="M1061.21093,483.81028s-77.518,15.83372-125.55663,72.83515" fill="none" stroke="#b3c8f3" stroke-miterlimit="10" stroke-width="2"/><path d="M1028.104,511.44733s-24.16122,8.06079-43.892,4.17434" fill="none" stroke="#b3c8f3" stroke-miterlimit="10" stroke-width="2"/><path d="M995.285,483.81028s-25.43455,17.653-33.87689,47.835" fill="none" stroke="#b3c8f3" stroke-miterlimit="10" stroke-width="2"/><path d="M991.83041,536.20552s-16.12161,2.87886-26.48551,3.16675" fill="none" stroke="#b3c8f3" stroke-miterlimit="10" stroke-width="2"/><path d="M860.25889,400.24009s30.68,72.928,10.73779,144.7554" fill="none" stroke="#000" stroke-miterlimit="10" stroke-width="2"/><path d="M856.12974,443.16821s6.98226,24.49467,21.3265,38.589" fill="none" stroke="#000" stroke-miterlimit="10" stroke-width="2"/><path d="M897.46714,454.66223s-.21751,30.95961-20.36811,54.96341" fill="none" stroke="#000" stroke-miterlimit="10" stroke-width="2"/><path d="M856.1644,487.08567s6.72244,14.93328,12.33413,23.65121" fill="none" stroke="#000" stroke-miterlimit="10" stroke-width="2"/><path d="M734.095,455.617s69.0121,38.69212,97.40648,107.61694" fill="none" stroke="#000" stroke-miterlimit="10" stroke-width="2"/><path d="M757.211,492.02475s20.558,15.0369,40.53507,17.34478" fill="none" stroke="#000" stroke-miterlimit="10" stroke-width="2"/><path d="M796.88846,475.697s18.84922,24.5612,17.69747,55.88056" fill="none" stroke="#000" stroke-miterlimit="10" stroke-width="2"/><path d="M784.22021,526.65493s14.47875,7.65245,24.26253,11.08333" fill="none" stroke="#000" stroke-miterlimit="10" stroke-width="2"/><path d="M835.70025,632.4554h82.52731a14.77815,14.77815,0,0,1,14.77815,14.77815V792.52a0,0,0,0,1,0,0H820.9221a0,0,0,0,1,0,0V647.23355A14.77815,14.77815,0,0,1,835.70025,632.4554Z" transform="translate(1753.92781 1424.9754) rotate(-180)" fill="#7a97dd"/><rect x="820.92229" y="737.63021" width="112.08309" height="14.20266" fill="#b3c8f3"/><path d="M933.00538,766.80181v10.93995a14.77775,14.77775,0,0,1-14.77777,14.77777H835.70006a14.77775,14.77775,0,0,1-14.77777-14.77777V766.80181Z" fill="#b3c8f3"/><line x1="890.97436" y1="643.39507" x2="890.97436" y2="721.70005" fill="none" stroke="#000" stroke-miterlimit="10" stroke-width="1.5"/><line x1="903.06557" y1="655.87013" x2="887.13588" y2="730.14471" fill="none" stroke="#000" stroke-miterlimit="10" stroke-width="1.5"/><line x1="880.99431" y1="666.42594" x2="892.50975" y2="730.14471" fill="none" stroke="#000" stroke-miterlimit="10" stroke-width="1.5"/><path d="M880.07762,710.37654h-9.40428s2.11117,12.47505-4.7981,22.07125S840.15743,761.62024,861.461,792.52h37.23325c21.30356-30.89976,2.495-50.476-4.41425-60.07221s-4.7981-22.07125-4.7981-22.07125Z"/><path d="M890.20666,710.37654h-9.40427s2.11116,12.47505-4.7981,22.07125S850.28647,761.62024,871.59,792.52h37.23325c21.30356-30.89976,2.495-50.476-4.41425-60.07221s-4.7981-22.07125-4.7981-22.07125Z" fill="#e0ecfc"/><path d="M39.35218,792.52H190.82429a20.96807,20.96807,0,0,0,20.83033-23.3675l-36.323-315.33392H54.8449L18.52185,769.1525A20.96807,20.96807,0,0,0,39.35218,792.52Z" fill="none" stroke="#000" stroke-miterlimit="10" stroke-width="4"/><line x1="30.48598" y1="665.28746" x2="199.69049" y2="665.28746" fill="none" stroke="#000" stroke-miterlimit="10" stroke-width="4"/><path d="M33.03449,460.321H197.142a33.40067,33.40067,0,0,0,32.9092-27.69194v0a8.36334,8.36334,0,0,0-8.24027-9.79277H8.36555a8.36334,8.36334,0,0,0-8.24027,9.79277v0A33.40068,33.40068,0,0,0,33.03449,460.321Z" fill="#7a97dd"/><line x1="227.13883" y1="441.57867" x2="3.03764" y2="441.57867" fill="none" stroke="#000" stroke-miterlimit="10" stroke-width="4"/></g></svg>