<svg xmlns="http://www.w3.org/2000/svg" viewBox="0 0 1109 792.52"><title>background 10</title><g id="background-11" data-name="background"><path d="M117.03986,341.74345c24.6039-73.002,75.22819-115.92049,97.66-134.46241,81.24-67.14946,143.15583-55.55753,327.88123-96.42259C772.08746,60.08627,809.83287,12.69831,888.96537,47.00713c77.66217,33.67029,126.01,115.78652,140.2707,184.5523,38.07452,183.57977-141.77769,403.28793-348.38652,482.12051-133.77767,51.0428-369.33427,77.585-496.63023-68.13982C121.92084,574.22126,79.68728,452.58727,117.03986,341.74345Z" fill="#e0ecfc"/><polyline points="913.958 263.657 950.904 190.878 906.349 122.493 824.848 126.885 787.901 199.664" fill="none" stroke="#6986ed" stroke-miterlimit="10" stroke-width="2"/><line x1="668.97065" y1="152.11228" x2="694.69651" y2="98.93705" fill="none" stroke="#6986ed" stroke-miterlimit="10" stroke-width="2"/><polyline points="532.381 604.655 578.895 676.048 663.981 671.462 702.553 595.483 656.038 524.089 611.412 526.494" fill="none" stroke="#b3c8f3" stroke-miterlimit="10" stroke-width="2"/><polygon points="419.409 372.295 334.323 376.881 295.751 452.861 342.266 524.255 427.352 519.669 465.923 443.689 419.409 372.295" fill="#b3c8f3"/><polygon points="818.016 472.326 732.93 476.912 694.358 552.891 740.873 624.285 825.959 619.699 864.53 543.72 818.016 472.326" fill="none" stroke="#6986ed" stroke-miterlimit="10" stroke-width="2"/><polyline points="803.982 311.488 836.536 309.542 863.172 257.073 831.05 207.771 817.538 208.358" fill="none" stroke="#6986ed" stroke-miterlimit="10" stroke-width="2"/><polygon points="797.517 86.207 712.431 90.793 673.86 166.773 720.374 238.167 805.461 233.581 844.032 157.601 797.517 86.207" fill="#b3c8f3"/><polyline points="519.256 285.138 480.684 361.118 527.199 432.511" fill="none" stroke="#6986ed" stroke-miterlimit="10" stroke-width="2"/><polygon points="457.995 208.471 376.493 212.864 339.547 285.642 384.102 354.028 465.603 349.636 502.55 276.857 457.995 208.471" fill="none" stroke="#6986ed" stroke-miterlimit="10" stroke-width="2"/><polyline points="531.535 142.902 494.588 215.68 539.143 284.066 620.644 279.673 657.591 206.895" fill="none" stroke="#6986ed" stroke-miterlimit="10" stroke-width="2"/><polygon points="970.504 302.928 889.003 307.321 852.057 380.099 896.612 448.485 978.113 444.092 1015.059 371.314 970.504 302.928" fill="none" stroke="#6986ed" stroke-miterlimit="10" stroke-width="2"/><polyline points="401.915 676.486 483.416 672.093 520.363 599.314 498.057 563.957" fill="none" stroke="#6986ed" stroke-miterlimit="10" stroke-width="2"/><polyline points="597.49 350.524 638.068 348.337 672.066 400.518 643.874 456.052 634.344 456.555 572.154 459.907 543.962 515.44 577.96 567.622 614.283 565.664" fill="none" stroke="#6986ed" stroke-miterlimit="10" stroke-width="2"/><polygon points="515.627 493.284 475.487 495.447 457.29 531.291 479.234 564.972 519.374 562.808 537.571 526.964 515.627 493.284" fill="#b3c8f3"/><polygon points="857.273 430.719 817.133 432.882 798.936 468.726 820.88 502.407 861.02 500.243 879.217 464.399 857.273 430.719" fill="#b3c8f3"/><polygon points="352.482 506.173 312.342 508.336 294.145 544.18 316.089 577.861 356.229 575.698 374.425 539.853 352.482 506.173" fill="none" stroke="#6986ed" stroke-miterlimit="10" stroke-width="2"/><polygon points="638.434 86.622 598.294 88.786 580.097 124.63 602.041 158.311 642.181 156.147 660.378 120.303 638.434 86.622" fill="none" stroke="#b3c8f3" stroke-miterlimit="10" stroke-width="2"/><polygon points="580.367 323.947 540.227 326.11 522.03 361.954 543.974 395.635 584.114 393.471 602.311 357.627 580.367 323.947" fill="#b3c8f3"/><polygon points="770.842 262.397 657.244 268.519 605.747 369.959 667.849 465.277 781.446 459.154 832.943 357.714 770.842 262.397" fill="#b3c8f3"/><polygon points="385.782 551.527 272.184 557.649 220.687 659.089 282.789 754.407 396.387 748.284 447.883 646.844 385.782 551.527" fill="#b3c8f3"/><polygon points="239.734 294.443 126.136 300.565 74.639 402.005 136.741 497.323 250.339 491.2 301.835 389.76 239.734 294.443" fill="none" stroke="#6986ed" stroke-miterlimit="10" stroke-width="2"/><circle cx="532.38086" cy="604.65452" r="6.48992" fill="#7a97dd"/><circle cx="845.56665" cy="229.17429" r="6.48992" fill="#6986ed"/><circle cx="613.81935" cy="565.689" r="4.72522" fill="#7a97dd"/><circle cx="642.93435" cy="456.09703" r="4.72522" fill="#6986ed"/><circle cx="586.78547" cy="370.98125" r="4.72522" fill="#6986ed"/><circle cx="831.83323" cy="357.77374" r="4.72522" fill="#7a97dd"/><circle cx="656.77712" cy="206.45041" r="4.72522" fill="#6986ed"/><circle cx="720.25674" cy="238.17699" r="7.40074" fill="#7a97dd"/><circle cx="141.16434" cy="466.56278" r="7.40074" fill="#7a97dd"/><circle cx="168.32424" cy="278.19195" r="7.40074" fill="#7a97dd"/><circle cx="531.42187" cy="142.90176" r="7.40074" fill="#7a97dd"/><circle cx="341.12708" cy="524.85079" r="7.40074" fill="#7a97dd"/><circle cx="826.83324" cy="619.65212" r="7.40074" fill="#b3c8f3"/><circle cx="527.19875" cy="432.51131" r="4.72522" fill="#b3c8f3"/><circle cx="437.66808" cy="361.22623" r="4.72522" fill="#7a97dd"/><circle cx="508.20762" cy="475.96719" r="4.72522" fill="#7a97dd"/><circle cx="483.80977" cy="625.74934" r="4.72522" fill="#7a97dd"/><circle cx="619.05838" cy="100.90765" r="4.72522" fill="#7a97dd"/><circle cx="447.11877" cy="415.65774" r="4.72522" fill="#7a97dd"/><circle cx="554.56934" cy="603.45861" r="3.48858" fill="#6986ed"/><circle cx="586.79312" cy="652.96672" r="1.97089" fill="#6986ed"/><circle cx="604.81779" cy="633.15116" r="1.97089" fill="#b3c8f3"/><circle cx="493.0666" cy="195.0458" r="1.97089" fill="#b3c8f3"/><circle cx="801.20183" cy="458.08913" r="1.97089" fill="#b3c8f3"/><circle cx="519.17957" cy="285.51141" r="1.97089" fill="#b3c8f3"/><circle cx="407.81572" cy="211.17575" r="4.72522" fill="#7a97dd"/><circle cx="670.74651" cy="545.9167" r="4.72522" fill="#6986ed"/><line x1="586.79312" y1="652.96672" x2="554.56934" y2="603.45861" fill="none" stroke="#6986ed" stroke-miterlimit="10" stroke-width="2"/><circle cx="694.69651" cy="98.93705" r="3.48858" fill="#6986ed"/><circle cx="668.97065" cy="152.11228" r="1.97089" fill="#b3c8f3"/><polygon points="307.039 292.148 266.899 294.312 248.702 330.156 270.646 363.837 310.786 361.673 328.983 325.829 307.039 292.148" fill="#b3c8f3"/><polygon points="481.998 126.343 441.858 128.506 423.661 164.35 445.605 198.031 485.745 195.868 503.941 160.024 481.998 126.343" fill="#b3c8f3"/></g></svg>