<svg xmlns="http://www.w3.org/2000/svg" viewBox="0 0 1109 792.52"><title>background 9</title><g id="background-12" data-name="background"><ellipse cx="251.63766" cy="309.52703" rx="69.50656" ry="66.54563" transform="translate(-88.14868 100.5444) rotate(-19.29653)" fill="#b3c8f3"/><ellipse cx="878.42469" cy="191.67036" rx="26.04038" ry="28.70865" transform="translate(-17.17902 270.79972) rotate(-17.35804)" fill="#e0ecfc"/><ellipse cx="235.61055" cy="198.27242" rx="21.19983" ry="23.37211" transform="matrix(0.95446, -0.29834, 0.29834, 0.95446, -48.42304, 79.322)" fill="#7a97dd"/><path d="M693.99979,762.42575c24.64146-2.97653,135.2515-19.5787,195.4665-109.858,84.48341-126.66469,1.43-295.90229-21.35477-342.32927C815.87848,203.80508,664.38313-4.97162,475.40969,31.32871,324.06114,60.40173,235.736,240.02153,242.02808,380.47931,252.39717,611.939,498.497,786.03722,693.99979,762.42575Z" fill="#e0ecfc"/><ellipse cx="710.3861" cy="158.2818" rx="103.90199" ry="99.47584" transform="translate(220.545 696.57284) rotate(-60.25897)" fill="#7a97dd"/><path d="M272.33645,520.48019c27.18141-15.76651,62.1421-2.74234,64.697-1.75159,43.476,16.86368,35.62965,56.112,78.71992,93.72439,53.32229,46.54324,111.46393,26.70622,127.56905,64.23706,9.56989,22.302-.88491,52.78693-19.3587,68.93706-58.331,50.9946-241.75871-1.45691-277.3927-103.45362C232.8061,602.77329,236.04665,541.52991,272.33645,520.48019Z" fill="#b3c8f3"/><path d="M285.83817,516.05026c-24.24436-161.9336,36.56925-299.58769,204.17561-371.26441C636.96325,81.943,824.20642,216.33174,856.6398,376.38093S788.38458,691.90787,631.74553,723.6502,310.018,677.5526,285.83817,516.05026Z" fill="none" stroke="#000" stroke-miterlimit="10" stroke-width="3"/></g></svg>