<svg xmlns="http://www.w3.org/2000/svg" viewBox="0 0 234.4045 225.67767"><title>Asset 2</title><g id="Layer_2" data-name="Layer 2"><g id="Layer_1-2" data-name="Layer 1"><path d="M163.11873,65.529s12.24,43.37,16.8,52.49,39.36,72.24,39.36,72.24,21.96,12.96,12.96,18.36c0,0,6.12,10.44-12.6,16.2s-13.68-19.08-18-26.28-42.276-53.64-48.858-66.24-27.102-37.06-13.782-66.77Z" fill="#ea9d7d"/><path d="M177.3652,111.72586s-7.52647,5.39314-9.92647,9.53314l11.779-4.76657Z" fill="#2f170b"/><path d="M223.50865,207.71908a5.86447,5.86447,0,0,1-.88281-.14209,4.56689,4.56689,0,0,0-.75879-.14453.38079.38079,0,0,0-.41553.23877,1.67491,1.67491,0,0,0-.10693.69482,12.39648,12.39648,0,0,0,.7583,3.27881c.73291,2.18067,1.66895,4.31983,2.60547,6.43067l.0083.01855a.49644.49644,0,0,1-.85693.49317l-.02246-.03223a34.37256,34.37256,0,0,0-3.74463-4.46143,15.97586,15.97586,0,0,0-2.16944-1.8125l-.57714-.35888-.58643-.29248a2.67651,2.67651,0,0,0-.85742-.251c.043-.0044.14892-.08984.10547-.0332a1.35752,1.35752,0,0,0-.04395.40527,6.3998,6.3998,0,0,0,.16553,1.26514,26.3994,26.3994,0,0,0,.80664,2.72509c.64355,1.81934,1.38379,3.64893,2.11377,5.44678l.00635.01563a.956.956,0,0,1-1.68164.88916,35.8182,35.8182,0,0,0-3.43018-4.45948,16.10849,16.10849,0,0,0-1.99316-1.88964,8.068,8.068,0,0,0-1.09278-.71583,2.96836,2.96836,0,0,0-.56152-.25976l-.27637-.10986c-.05859-.00538-.14013-.03858-.17773-.03711-.09815-.00391-.04395-.00342-.04834-.03418a.50631.50631,0,0,0-.10938.23779,3.91157,3.91157,0,0,0-.0498,1.2041,17.35138,17.35138,0,0,0,.49463,2.74805c.229.92334.50244,1.84375.79638,2.75928a8.49859,8.49859,0,0,1,.53955,2.89843,6.68259,6.68259,0,0,1-1.56933-2.52783c-.36133-.91162-.70361-1.83252-1.00635-2.77588a18.66683,18.66683,0,0,1-.729-2.9375,5.32735,5.32735,0,0,1-.023-1.69433,2.08668,2.08668,0,0,1,.501-1.06153,1.69966,1.69966,0,0,1,1.28565-.48681,3.27189,3.27189,0,0,1,.53809.08105c.14892.042.271.09082.4082.13721a4.43973,4.43973,0,0,1,.76953.3208,9.856,9.856,0,0,1,1.37109.82617,17.90667,17.90667,0,0,1,2.30518,2.02588,30.36874,30.36874,0,0,1,3.67773,4.74414l-1.67529.90527v-.00048a39.9923,39.9923,0,0,1-2.30225-5.606,20.89854,20.89854,0,0,1-.77246-3.01026,8.0753,8.0753,0,0,1-.12939-1.68994,2.92064,2.92064,0,0,1,.22217-1.04931,1.76024,1.76024,0,0,1,.42187-.606,1.57164,1.57164,0,0,1,.73682-.38428,2.24488,2.24488,0,0,1,1.18847.10547c.26758.10791.54834.20361.80079.32861l.727.40674.66162.46631a17.50587,17.50587,0,0,1,2.26758,2.14307,31.31626,31.31626,0,0,1,3.5415,4.93457l-.87939.46094.00537.01123a46.61308,46.61308,0,0,1-2.5835-6.58155,12.6492,12.6492,0,0,1-.60937-3.56884,2.28694,2.28694,0,0,1,.23925-1.0044,1.04876,1.04876,0,0,1,1.03272-.54394,2.19358,2.19358,0,0,1,.92724.29589A2.105,2.105,0,0,1,223.50865,207.71908Z" fill="#2f170b"/><path d="M208.848,202.56234a9.25131,9.25131,0,0,0,1.80859,1.08789,15.38731,15.38731,0,0,0,1.875.76075,23.00576,23.00576,0,0,0,3.915.90087c1.32959.22608,2.6919.33936,4.07569.48487.69335.02637,1.394.10888,2.10253.1709a20.03568,20.03568,0,0,1,2.16114.24511,18.53078,18.53078,0,0,1-2.07569.73291c-.70849.16993-1.42968.30274-2.15576.41114a16.15209,16.15209,0,0,1-4.42383-.0708,11.84884,11.84884,0,0,1-4.251-1.46387c-.3252-.19531-.644-.40625-.94922-.62744a11.15743,11.15743,0,0,1-.852-.75733A5.04694,5.04694,0,0,1,208.848,202.56234Z" fill="#2f170b"/><path d="M232.22447,208.73178a26.00738,26.00738,0,0,1-4.999,3.39892,18.2194,18.2194,0,0,1-2.84033,1.23535,7.27453,7.27453,0,0,1-1.665.354,2.86493,2.86493,0,0,1-1.09473-.1084,1.83179,1.83179,0,0,1-.67871-.37549,1.67919,1.67919,0,0,1-.48681-.73877,2.37231,2.37231,0,0,1-.01465-1.25244c.08154-.28223.1499-.57812.25195-.84668l.34668-.773.41211-.708a14.617,14.617,0,0,1,2.00439-2.41943,19.2032,19.2032,0,0,1,4.94434-3.52734c-1.30518,1.54541-2.60693,3.02587-3.773,4.55908a20.18887,20.18887,0,0,0-1.54394,2.34961c-.09375.20361-.2002.39941-.30127.59814l-.2334.59717c-.06836.19678-.10352.38916-.16211.582-.04688.1792-.01563.25537-.03272.21436a.42553.42553,0,0,0-.11914-.14942,1.14882,1.14882,0,0,0,.37744.02881,6.80072,6.80072,0,0,0,1.25342-.20068c.89942-.20215,1.80811-.541,2.7334-.84375C228.4442,210.057,230.29576,209.346,232.22447,208.73178Z" fill="#2f170b"/><line x1="199.73848" y1="195.74587" x2="216.55404" y2="185.31272" fill="none" stroke="#2f170b" stroke-linecap="round" stroke-linejoin="round" stroke-width="6"/><path d="M137.61906,130.5h-87.5l18-127.5L86.39047,0l.06134.13012A18.58234,18.58234,0,0,0,120.12892,0l0,0L135.343,4.86545a10.89008,10.89008,0,0,1,8.30133,11.154Z" fill="#6986ed"/><path d="M14.17906,61.1,44.77721,18.62S54.73906,5.74,68.11906,3l7.62,39.74-27.72,42.12Z" fill="#6986ed"/><circle cx="28.76824" cy="55.81695" r="5.94347" fill="#fff"/><path d="M62.15232,53.36318a5.94282,5.94282,0,0,0-1.15259,11.77295L67.05,55.94277A5.93435,5.93435,0,0,0,62.15232,53.36318Z" fill="#fff"/><path d="M166.81906,65.25,152.464,20.201a.97935.97935,0,0,0-.12973-.26445C151.51308,18.752,144.83155,9.35964,136.828,5.5079a1.00431,1.00431,0,0,0-1.43373.9407L137.29906,65.25Z" fill="#6986ed"/><polygon points="58.896 68.333 75.739 42.74 53.261 108.245 58.896 68.333" fill="#2f170b"/><polygon points="141.053 65.25 142.238 42.74 147.751 65.25 141.053 65.25" fill="#2f170b"/><circle cx="100.61017" cy="39.67653" r="5.94347" fill="#fff"/><circle cx="100.61017" cy="114.18819" r="5.94347" fill="#fff"/><circle cx="64.50002" cy="120.13166" r="5.94347" fill="#fff"/><path d="M137.98191,123.60415a5.928,5.928,0,0,0-8.31982,6.89575h7.957Z" fill="#fff"/><circle cx="132.89475" cy="15.84119" r="5.94347" fill="#fff"/><circle cx="151.1064" cy="42.74" r="5.94347" fill="#fff"/><circle cx="79.02722" cy="84.16544" r="5.94347" fill="#fff"/><circle cx="121.03458" cy="78.22197" r="5.94347" fill="#fff"/><path d="M47.22348,84.84548l-5.73,9.67516L95.81309,123.6681s24.00384-9.66494,26.76318-8.66052,7.042,4.50114-7.89659,10.24708c0,0,1.18031,2.06485,6.61251,4.0422s26.50372,8.953,26.3498,10.80672,3.77474,7.2767-24.80829-2.43324c0,0-2.175,2.15963.27776,3.05244s25.80959,9.22122,22.39413,11.45014-6.56478.38811-25.22524-6.05718c0,0-2.10507,1.49065-1.2969,2.13205s22.65966,9.28988,21.99,11.12943,2.47908,5.58982-28.542-7.43808c0,0-.8505.90567,2.03392,2.99727s15.70428,10.75107,11.41135,11.09811-4.4738-.58684-19.25829-11.00311L89.58976,145.5343S16.8553,120.84278,2.59126,102.29007c-10.27413-13.36317,13.32-41.10484,13.32-41.10484Z" fill="#ea9d7d"/><polygon points="42.391 94.591 27.38 97.861 48.015 85.139 42.391 94.591" fill="#2f170b"/><line x1="114.67968" y1="125.25466" x2="105.73126" y2="128.61954" fill="none" stroke="#2f170b" stroke-miterlimit="10" stroke-width="2"/><circle cx="70.58131" cy="15.84119" r="5.94347" fill="#fff"/></g></g></svg>