<svg xmlns="http://www.w3.org/2000/svg" viewBox="0 0 1109 792.52"><title>bottom 5</title><g id="bottom-10" data-name="bottom"><path d="M385.83688,715.92476s-7.68035,9.47449-10.1602,15.51739c-6.2198,15.1564,26.56345,57.214,26.56345,57.214l-69.55932-33.29321s-5.19149-21.47669,10.99253-39.43818,4.96321-18.13716,4.96321-18.13716Z" fill="#ea9d7d"/><polygon points="523.25 740.914 518.634 751.549 485.4 751.549 490.016 740.914 523.25 740.914" fill="#ea9d7d"/><path d="M570.48393,792.52H483.55956a6.46224,6.46224,0,0,1-6.33332-7.74659l6.73763-33.224H525.673l2.13982,4.64115a22.98343,22.98343,0,0,0,20.14427,13.34888l.27106.00859A22.98344,22.98344,0,0,1,570.48393,792.52Z" fill="#2f170b"/><path d="M401.097,792.52l-76.89046-40.5426a6.46223,6.46223,0,0,1-1.98914-9.80632l20.23938-26.74628,38.771,15.93329-.93178,9.12374a22.98347,22.98347,0,0,0,11.59289,21.20353l.23576.134A22.98344,22.98344,0,0,1,401.097,792.52Z" fill="#2f170b"/><path d="M338.96064,705.24021,433.98056,483.0017c1.78888-35.77761,14.58141-50.07268,22.406-52.00949,1.85609.97684,84.16953,37.55384,84.16953,37.55384l-47.428,70.77528h0L388.64064,722.88021Z" fill="#4c69de"/><path d="M493.12812,539.32133s-46.92355-6.52912-59.14756-56.31963c0,0-1.58818,51.28124,46.62221,75.01088Z" fill="#2f170b"/><path d="M533.46,430.99221H456.38657s-19.37759,45.28629,1.26556,73.361,71.83815,61.92944,71.83815,61.92944L469.78076,745.46514h63.69988L616.1915,590.22867s9.90871-30.55186-.82573-49.54355" fill="#4c69de"/><polygon points="529.49 566.283 546.005 577.843 469.781 745.465 529.49 566.283" fill="#2f170b"/><path d="M486.06055,745.46509h4.42273l75.33654-159.6145a20.83571,20.83571,0,0,0-5.01464-26.08106c-20.33643-16.76465-68.78711-56.9082-79.44434-67.56445-8.24976-8.25-.16785-38.94214,7.3877-60.83325l-4.264-.05c-7.24439,21.00659-16.12842,53.53467-5.95179,63.71142,10.39161,10.3916,54.4126,46.95313,79.72852,67.82227a16.83545,16.83545,0,0,1,4.02539,21.11816Z" fill="#fff"/></g></svg>