<svg xmlns="http://www.w3.org/2000/svg" viewBox="0 0 1109 792.52"><title>bottom 14</title><g id="bottom"><path d="M461.43551,728.44855l6.26441,28.76617,23.58247,4.38227,6.644-34.40185S468.61838,711.98464,461.43551,728.44855Z" fill="#ea9d7d"/><polygon points="454.016 646.007 426.586 657.142 426.561 685.451 439.077 678.347 472.712 669.118 454.016 646.007" fill="#ea9d7d"/><path d="M446.81871,785.51538l24.6617-33.42442s14.28235-5.51963,19.802,9.506,9.81267,23.91839,9.81267,23.91839Z" fill="#ffc929"/><rect x="445.43881" y="785.51538" width="56.72951" height="7.05286" rx="3.52643" fill="#2f170b"/><rect x="371.11371" y="696.0315" width="85.74965" height="5.98381" rx="2.9919" transform="translate(960.87172 98.24141) rotate(72.94679)" fill="#2f170b"/><path d="M432.18818,654.86785s-8.251,7.16873-.1884,23.47256l7.07727.00611s1.71887,47.29968-10.11246,59.29691l-24.26216-79.09517S432.69126,649.05527,432.18818,654.86785Z" fill="#ffc929"/><path d="M529.74011,430.5551H451.96629s-19.03587,20.07188-8.73936,85.28319c10.29651,65.21037,13.04212,223.7762,13.04212,223.7762H502.26l6.17786-82.37208S566.09806,621.54853,579.8267,596.15C593.55522,570.75238,529.74011,430.5551,529.74011,430.5551ZM510.44,595.46382l3.48939-43.93165,19.22,24.71144Z" fill="#e23203"/><path d="M513.92944,551.53227c-.62085-6.69288-.94555-13.3855-1.16626-20.07813-.13818-3.34643-.1687-6.69263-.25-10.03906l-.083-10.03906.07885-10.03882c.0835-3.34644.11035-6.69263.24976-10.03907.21973-6.69262.54614-13.38525,1.17065-20.07812.62427,6.69287.95069,13.3855,1.17041,20.07812.13965,3.34644.16626,6.69263.24976,10.03907l.07886,10.03882-.08277,10.03906c-.0813,3.34643-.11206,6.69263-.25024,10.03906C514.87476,538.14677,514.55005,544.83939,513.92944,551.53227Z" fill="#2f170b"/><path d="M510.43994,595.46391c.45361,5.16821.61133,10.3269.665,15.48242.05469,2.57861.00195,5.15356-.00024,7.73022l-.16748,7.7251-.32911,7.71973c-.167,2.57153-.27685,5.14477-.49975,7.71435-.38648,5.14112-.87964,10.27881-1.67041,15.40674-.45728-5.16846-.6167-10.32739-.66944-15.48267-.05615-2.57861.00074-5.15356.00049-7.73046l.17163-7.72486.333-7.71948c.16455-2.57153.27881-5.14478.50025-7.71436C509.16138,605.72953,509.65283,600.59184,510.43994,595.46391Z" fill="#2f170b"/></g></svg>