<svg xmlns="http://www.w3.org/2000/svg" viewBox="0 0 1109 792.52"><title>bottom 3</title><g id="bottom-12" data-name="bottom"><path d="M440.54133,727.36691s3.83041,11.66581,7.81711,16.84S494.833,786.85871,494.833,786.85871l-77.00887-4.07062s-22.2533-.5517-14.19522-23.34655S410.479,723.496,410.479,723.496Z" fill="#ea9d7d"/><path d="M496.15879,785.51136s4.16231-3.25691-16.89713-17.89586-23.05752-19.05037-23.05752-19.05037-12.12426-5.68036-19.42865,7.08312-21.31812,25.61706-21.31812,25.61706Z" fill="#2f170b"/><path d="M447.99742,792.49408s-10.57315-7.95047-11.285-6.9945l-6.51245,6.98629-28.854-.01332.0055-11.90424,94.49792,4.66931s4.9959,1.14409,1.06429,7.279Z" fill="#4c69de"/><path d="M594.53827,727.438s3.83041,11.6658,7.81711,16.84,46.47456,42.65178,46.47456,42.65178l-77.00887-4.07063s-22.2533-.55169-14.19522-23.34654,6.85007-35.94556,6.85007-35.94556Z" fill="#ea9d7d"/><path d="M650.15573,785.58244s4.16231-3.25691-16.89713-17.89586-23.05752-19.05037-23.05752-19.05037-12.12426-5.68036-19.42865,7.08312-21.45178,25.61045-21.45178,25.61045Z" fill="#2f170b"/><path d="M602.57241,792.56542s-11.1512-7.95074-11.86309-6.99476l-6.54191,6.98627-28.566-.01318-.25309-11.90436,94.49792,4.66931s4.9959,1.14409,1.06429,7.279Z" fill="#4c69de"/><path d="M531.71415,421.43717s93.8411,210.44655,101.49155,317.49735l-83.92841-.03874s-11.4881-133.62981-46.88562-180.8946L468.42883,738.85847l-80.84846-.03732s62.48735-312.37152,66.34069-319.75231Z" fill="#e23203"/><path d="M537.31813,656.88415c-7.37271-36.94685-18.6069-77.09216-34.92645-98.883l29.32247-136.564Z" fill="#2f170b"/><polygon points="486.29 420.06 426.7 738.84 422.64 738.84 482.25 419.93 486.29 420.06" fill="#fff"/><polygon points="501.12 420.51 441.62 738.85 437.55 738.84 497.08 420.38 501.12 420.51" fill="#fff"/></g></svg>