<svg xmlns="http://www.w3.org/2000/svg" viewBox="0 0 1109 792.52"><title>bottom 2 </title><g id="bottom-13" data-name="bottom"><path d="M544.70763,741.11352l1.61956,8.0747-43.771-.80412-.54486-6.35757C516.24128,733.86485,532.21567,743.0498,544.70763,741.11352Z" fill="#ea9d7d"/><path d="M597.8106,792.48851l-83.977.079a13.2171,13.2171,0,0,1-13.04847-14.08861l1.77117-30.09483,43.771.80412,3.46748,6.78287c4.06665,8.35525,14.89109,11.35788,23.88109,11.55627l.28007.00618c12.816.28282,23.37571,10.9743,23.85473,24.15242Z" fill="#2f170b"/><path d="M472.35779,738.58055l.00134.00014v8.50317H435.24769V735.14318l.02676.0025C450.98279,738.82823,463.13033,739.43643,472.35779,738.58055Z" fill="#ea9d7d"/><path d="M472.35913,747.08386s6.88367,22.64733,5.89727,41.75776l.09549,3.72662H428.83764s-.00156-37.96343,6.41-45.48438Z" fill="#2f170b"/><path d="M429.84689,742.02653h50.16448l15.129-243.65606,5.57384,243.65606h48.572L542.916,482.44524s1.42611-26.7737-8.129-53.05033l-83.39819,1.29333s-4.555,27.60373-7.74006,49.89906S429.84689,742.02653,429.84689,742.02653Z" fill="#ffc929"/><path d="M476.14478,430.3042c-4.59473,10.04175-14.314,32.72949-16.78125,49.99951-3.16236,22.13867-13.38624,251.86524-13.82007,261.63379l2.00073.08887h1.99927c.25024-5.62158,10.667-239.365,13.78-261.15625,2.51538-17.6084,13.22033-41.8982,17.26709-50.63477Z" fill="#fff"/><polygon points="495.14 498.37 500.449 465.724 500.714 742.027 495.14 498.37" fill="#2f170b"/></g></svg>