<svg xmlns="http://www.w3.org/2000/svg" viewBox="0 0 1109 792.52"><title>bottom 6</title><g id="bottom-9" data-name="bottom"><path d="M385.83688,715.92476s-7.68035,9.47449-10.1602,15.51739c-6.2198,15.1564,26.56345,57.214,26.56345,57.214l-69.55932-33.29321s-5.19149-21.47669,10.99253-39.43818,4.96321-18.13716,4.96321-18.13716Z" fill="#ea9d7d"/><polygon points="523.25 740.914 518.634 751.549 485.4 751.549 490.016 740.914 523.25 740.914" fill="#ea9d7d"/><path d="M570.48393,792.52H483.55956a6.46224,6.46224,0,0,1-6.33332-7.74659l6.73763-33.224H525.673l2.13982,4.64115a22.98343,22.98343,0,0,0,20.14427,13.34888l.27106.00859A22.98344,22.98344,0,0,1,570.48393,792.52Z" fill="#2f170b"/><path d="M401.097,792.52l-76.89046-40.5426a6.46223,6.46223,0,0,1-1.98914-9.80632l20.23938-26.74628,38.771,15.93329-.93178,9.12374a22.98347,22.98347,0,0,0,11.59289,21.20353l.23576.134A22.98344,22.98344,0,0,1,401.097,792.52Z" fill="#2f170b"/><path d="M616.18994,590.23,533.48,745.47H469.78L529.49,566.28s-43.43994-32.13989-66.41992-59.13989q-1.47-1.72523-2.8-3.40015c-.92993-1.15991-1.8-2.3-2.62988-3.41992C437,472.24,456.39014,430.99,456.39014,430.99l38.45986.29158h4.36l35.03619-.29158,81.124,109.7C626.1001,559.67993,616.18994,590.23,616.18994,590.23Z" fill="#63ba08"/><path d="M338.96064,705.24021,433.98056,483.0017c1.78888-35.77761,14.58141-50.07268,22.406-52.00949,1.85609.97684,84.16953,37.55384,84.16953,37.55384l-47.428,70.77528h0L388.64064,722.88021Z" fill="#63ba08"/><polygon points="529.49 566.283 531.994 481.323 493.128 539.321 529.49 566.283" fill="#2f170b"/><polygon points="499.21 431.282 463.07 507.14 364.06 714.37 360.45 712.65 460.27 503.74 494.85 431.282 499.21 431.282" fill="#fff"/></g></svg>