<svg xmlns="http://www.w3.org/2000/svg" viewBox="0 0 1109 792.52"><title>bottom 9</title><g id="bottom-6" data-name="bottom"><path d="M536.08558,430.68824s14.30371,42.16339,8.92,87.32-8.88,66.8-8.88,66.8l-54.48,163.38h-72.36l73.56-225.22v-92.28Z" fill="#e23203"/><path d="M489.0055,453.26819h-6.15991v69.7L460.21424,592.259c16.552,42.6159,24.46363,63.6,32.021,95.50915,1.27612,5.38831,2.65308,10.91736,4.07617,16.43891l38.27075-114.76984C521.30043,552.25135,489.0055,453.26819,489.0055,453.26819Z" fill="#2f170b"/><path d="M632.36558,792.56824h-95.72a7,7,0,0,1-7-7v-37.38h54.18l2.31788,5.02736a24.89606,24.89606,0,0,0,21.82062,14.45974l.29362.0093a24.896,24.896,0,0,1,24.10788,24.88357Z" fill="#2f170b"/><path d="M517.91466,792.56824h-95.72a7,7,0,0,1-7-7v-37.38h54.18l2.31788,5.02736a24.896,24.896,0,0,0,21.82061,14.45974l.29362.0093a24.89606,24.89606,0,0,1,24.10789,24.88357Z" fill="#2f170b"/><path d="M450.3,430.68824s-18.21442,50,5.78558,112,33.5,84.5,42.5,122.5,23,83,23,83h71s-40-153-47-169-50.22974-148.5-50.22974-148.5Z" fill="#e23203"/><path d="M530.532,666.72707c-7.99121-33.74023-16.39746-55.36816-34.81616-102.75391-2.40869-6.19726-4.99-12.83789-7.76489-20.00683-20.10889-51.94824-11.221-100.20557-8.169-113.27808h-4.1c-3.32068,14.752-11.50013,62.95484,8.53845,114.72144,2.77588,7.1709,5.35767,13.81347,7.76709,20.01269,18.34985,47.209,26.72461,68.75586,34.65185,102.22657,7.68518,32.44751,19.13868,70.40673,22.23877,80.5393h4.1836C550.63379,740.28713,538.53027,700.49807,530.532,666.72707Z" fill="#fff"/><path d="M541.532,666.72707c-7.99121-33.74023-16.39746-55.36816-34.81616-102.75391-2.40869-6.19726-4.99-12.83789-7.76489-20.00683-20.10889-51.94824-11.221-100.20557-8.169-113.27808h-4.1c-3.32068,14.752-11.50013,62.95484,8.53845,114.72144,2.77588,7.1709,5.35767,13.81347,7.76709,20.01269,18.34985,47.209,26.72461,68.75586,34.65185,102.22657,7.68518,32.44751,19.13868,70.40673,22.23877,80.5393h4.1836C561.63379,740.28713,549.53027,700.49807,541.532,666.72707Z" fill="#fff"/><path d="M539.36317,562.42963q.75843-5.55725,1.66968-12.519L511.56434,479.996Z" fill="#2f170b"/></g></svg>