<svg xmlns="http://www.w3.org/2000/svg" viewBox="0 0 1109 792.52"><title>bottom 8</title><g id="bottom-7" data-name="bottom"><path d="M536.1256,430.72s14.3,42.2,8.9,87.3c-5.4,45.2-8.9,66.8-8.9,66.8l-54.5,163.4h-72.4l73.6-225.2v-92.3Z" fill="#4c69de"/><path d="M489.1256,453.22h-6.2v69.7l-22.6,69.3c16.6,42.6,24.5,63.6,32,95.5,1.3,5.4,2.7,10.9,4.1,16.4l38.3-114.80005C521.42559,552.22,489.1256,453.22,489.1256,453.22Z" fill="#2f170b"/><path d="M632.42559,792.52h-95.7a6.95692,6.95692,0,0,1-7-7v-37.3h54.2l2.3,5a24.81556,24.81556,0,0,0,21.8,14.5h.3A24.85155,24.85155,0,0,1,632.42559,792.52Z" fill="#2f170b"/><path d="M518.02556,792.52h-95.7a6.95691,6.95691,0,0,1-7-7v-37.3h54.2l2.3,5a24.81545,24.81545,0,0,0,21.8,14.5h.3A24.85151,24.85151,0,0,1,518.02556,792.52Z" fill="#2f170b"/><path d="M449.94009,431.28157S432.1256,480.72,456.1256,542.72s33.5,84.5,42.5,122.5,23,83,23,83h71s-40-153-47-169-50.2-148.5-50.2-148.5Z" fill="#4c69de"/><path d="M541.57178,664.7593c-7.99121-33.74024-16.39746-55.36817-34.81592-102.75391-2.40894-6.19727-4.99023-12.83789-7.76514-20.00684C480.75806,494.897,485.68262,449.09914,488.86279,430.72h-4.05371c-3.25342,19.2898-7.88135,65.36255,10.45142,112.72192,2.77563,7.1709,5.35766,13.81348,7.76709,20.0127,18.34961,47.209,26.72436,68.75586,34.65185,102.22656,6.74512,28.47949,18.46924,65.80933,23.85816,82.53882h4.20263C560.56934,732.21218,548.45679,693.82912,541.57178,664.7593Z" fill="#fff"/><path d="M539.42559,562.42c.5-3.7,1.1-7.9,1.7-12.5l-29.5-69.9Z" fill="#2f170b"/></g></svg>