<svg xmlns="http://www.w3.org/2000/svg" viewBox="0 0 1109 792.52"><title>head 2</title><g id="head-13" data-name="head"><path d="M483.41582,215.435s-2.69022-5.54438-10.744-5.55239c-7.27761-.05733-12.362,1.69443-16.52631,9.75246-2.66326,5.105-7.46429,7.22849-13.95533,9.32937-5.34315,1.76819-11.37826,6.95752-10.13156,16.36046,1.37608,9.39471.92031,14.48944-3.85395,19.07913s-9.89115,22.19032,9.06492,32.2869c17.07915,9.17667,34.56858.27228,38.97707-14.166,4.312-13.91255-2.73782-20.60883-7.728-29.64409-4.39878-7.90381-2.15249-17.5286-.10111-19.99695,2.39841-3.13986,3.86257-2.5834,3.86257-2.5834Z" fill="#2f170b"/><path d="M472.48549,233.53478l-3.23635-1.87271s-1.85437-2.60995,4.12932-10.65364c5.50731-7.364,9.259-7.60227,10.08456-6.87535l3.14808,2.52777s-10.80325,7.83025-14.12559,16.87393Z" fill="#e23203"/><path d="M490.381,267.3701l-5.656,40.9349,2.31773.56421a10.35557,10.35557,0,0,0,7.69247,11.58926,37.05585,37.05585,0,0,0,9.49866,1.06417c17.14678,2.538,15.65654-21.99579,15.65654-21.99579l-.88741-23.24293Z" fill="#ea9d7d"/><path d="M496.05854,272.99847c1.472,3.01988,3.76,9.38325,12.41987,13.23638,4.03083,1.79349,6.56618,1.31189,10.94655,1.10165l-.42191-11.05259S494.5525,269.82674,496.05854,272.99847Z" fill="#2f170b"/><path d="M528.13469,231.50737s4.03645,16.63921,4.42119,28.35359c.3653,9.48622-3.17317,15.0607-7.69407,17.6654s-13.40124,1.39946-20.00332-.31478c-5.589-1.46219-9.08556-3.55134-10.55758-6.5712-1.50595-3.17175-3.97491-7.08513-3.97491-7.08513l-1.90193-9.94023,6.12985-27.52161Z" fill="#ea9d7d"/><path d="M474.13216,228.90193a40.50708,40.50708,0,0,0-6.86024,23.53875c.39946,24.62766,21.68734,26.40954,21.68734,26.40954s1.89074-15.332,4.04233-22.59023c4.35615.94031,7.94962-.81932,7.33389-7.85763-.66744-7.98354-2.04092-13.41738-1.02948-14.60014,1.39925-1.58833,4.32058-.64638,14.83768.03371s17.14983-.32341,17.80583-2.38354c.77557-.81114-4.29484-6.37579-10.76611-11.78693a31.76344,31.76344,0,0,0-24.534-6.31894c-8.03362,1.157-15.05251,4.00089-22.51724,15.55542Z" fill="#2f170b"/><ellipse cx="486.61129" cy="262.63109" rx="8.24824" ry="8.87074" transform="translate(-45.55678 112.42196) rotate(-12.59418)" fill="#ea9d7d"/></g></svg>