<svg xmlns="http://www.w3.org/2000/svg" viewBox="0 0 1109 792.52"><title>head 3</title><g id="head-12" data-name="head"><path d="M491.26221,269.285,485.52,300.46l-1.06478,10.78989-.43217,1.82849a11.04072,11.04072,0,0,0,7.14165,12.99737,39.50779,39.50779,0,0,0,9.99709,1.97579c17.99164,4.22216,18.59128-21.97621,18.59128-21.97621l1.12525-24.77324Z" fill="#ea9d7d"/><path d="M496.79349,275.77c1.29517,3.33941,3.15994,10.30371,12.01767,15.168,4.123,2.26413,6.85946,1.978,11.53206,2.14443l.53516-11.78027S495.47562,272.2662,496.79349,275.77Z" fill="#2f170b"/><path d="M534.56428,234.54209s2.808,18.03735,2.17446,30.51744c-.45594,10.11107-4.71135,15.71879-9.74631,18.08388s-14.36256.29446-21.22437-2.11425c-5.80789-2.05078-9.3369-4.5815-10.63214-7.92091-1.31777-3.50379-3.59271-7.88121-3.59271-7.88121L490.407,254.4969l8.96138-28.69473Z" fill="#ea9d7d"/><path d="M477.42152,226.969a43.18719,43.18719,0,0,0-9.383,24.39817c-1.76687,26.201,20.97252,30.13967,20.97252,30.13967S492,265.3,495.035,257.71431c4.5445,1.38662,8.51891-.16315,8.491-7.69574.00123-8.54144-.97453-14.43679.2053-15.60341,1.62795-1.563,4.64789-.3023,15.76119,1.356s18.24949,1.18233,19.12974-.94807c.89617-.79278-3.99572-7.15605-10.38961-13.48086-6.76773-6.60851-17.23941-9.69462-25.50378-8.89646-8.6382.51445-16.34841,2.91139-25.30733,14.52323Z" fill="#2f170b"/><ellipse cx="487.67878" cy="263.91465" rx="8.79396" ry="9.45764" transform="matrix(0.99073, -0.13584, 0.13584, 0.99073, -31.32913, 68.69086)" fill="#ea9d7d"/></g></svg>