<svg xmlns="http://www.w3.org/2000/svg" viewBox="0 0 1109 792.61647"><title>head 13</title><g id="head-8" data-name="head"><path d="M491.26221,269.33323l-5.5787,31.0585-1.22829,10.90639-.43217,1.8285A11.04072,11.04072,0,0,0,491.1647,326.124a39.50782,39.50782,0,0,0,9.99709,1.97578c17.99164,4.22217,18.59128-21.97621,18.59128-21.97621l1.12525-24.77323Z" fill="#ea9d7d"/><path d="M496.79349,275.81822c1.29517,3.33942,3.15994,10.30372,12.01767,15.168,4.123,2.26413,6.85946,1.978,11.53206,2.14442l.53516-11.78027S495.47562,272.31444,496.79349,275.81822Z" fill="#2f170b"/><path d="M534.56428,234.59033s2.808,18.03735,2.17446,30.51743c-.45594,10.11107-4.71135,15.7188-9.74631,18.08389s-14.36256.29445-21.22437-2.11426c-5.80789-2.05078-9.3369-4.5815-10.63214-7.9209-1.31777-3.50379-3.59271-7.88121-3.59271-7.88121L490.407,254.54513l8.96138-28.69472Z" fill="#ea9d7d"/><path d="M528.23267,221.39046c-6.76783-6.60852-17.23951-9.69458-25.50391-8.89642-22.21436-.0788-30.823,13.70715-33.52026,23.40344l-.00245-.00391s-7.32617-6.72534-14.28613-1.20532-19.91992,42.96-31.43994,45.6,4.926,28.56,22.863,13.68c10.325-8.56525,17.48364-24.83545,21.70532-37.10962,1.51685,21.303,21.2334,24.68384,21.2334,24.68384s2.64819-17.57959,5.75317-23.77991c4.54468,1.3866,8.519-.16315,8.491-7.69574,17.11816,3.16779,31.28906-11.01086,34.438-14.45227a1.74167,1.74167,0,0,0,.6582-.74316C539.51831,234.07857,534.62646,227.71529,528.23267,221.39046Z" fill="#2f170b"/><line x1="485.22122" y1="255.77646" x2="504.03473" y2="256.77522" fill="none" stroke="#b3c8f3" stroke-miterlimit="10"/><line x1="480.42767" y1="267.95947" x2="497.62873" y2="276.71364" fill="none" stroke="#b3c8f3" stroke-miterlimit="10"/><path d="M537.35549,257.49048s4.22875,30.18124-17.63735,28.82392c0,0-17.39878-1.73252-24.57636-10.27929l7.703-19.8383Z" fill="#b3c8f3"/><path d="M537.42082,258.04151l-11.65,4.40916.70849,1.87027,11.1126-4.20568C537.53667,259.19814,537.47005,258.491,537.42082,258.04151Z" fill="#e0ecfc"/><ellipse cx="487.67878" cy="263.96289" rx="8.79396" ry="9.45764" transform="translate(-31.33568 68.6913) rotate(-7.80701)" fill="#ea9d7d"/></g></svg>