<svg xmlns="http://www.w3.org/2000/svg" viewBox="0 0 1109 792.61647"><title>head 6</title><g id="head-9" data-name="head"><path d="M491.2716,269.125l-6.807,41.96489-.43217,1.82849a11.04072,11.04072,0,0,0,7.14165,12.99737,39.50779,39.50779,0,0,0,9.99709,1.97579c17.99164,4.22216,18.59128-21.97621,18.59128-21.97621l1.12525-24.77324Z" fill="#ea9d7d"/><path d="M496.80288,275.61c1.29517,3.33941,3.15994,10.30371,12.01767,15.168,4.12295,2.26413,6.85946,1.978,11.53206,2.14443l.53516-11.78027S495.485,272.1062,496.80288,275.61Z" fill="#2f170b"/><path d="M534.57367,234.38209s2.808,18.03735,2.17446,30.51744c-.45594,10.11107-4.71135,15.71879-9.74631,18.08388s-14.36256.29446-21.22437-2.11425c-5.80788-2.05078-9.3369-4.5815-10.63213-7.92091-1.31778-3.50379-3.59272-7.88121-3.59272-7.88121l-1.13623-10.73014,8.96137-28.69473Z" fill="#ea9d7d"/><path d="M536.84142,233.41889V220.53078a.5.5,0,0,0-.93835-.24051L533.54943,224.58l-4.32613-15.45387a.5.5,0,0,0-.98149.13479v11.92137l-3.33529-18.56337a.5.5,0,0,0-.92188-.16712L519.38927,210.18V198.5505a.5.5,0,0,0-.94388-.23015l-2.416,4.65957-1.02787-16.23771a.5.5,0,0,0-.97677-.11587l-5.19555,16.83356-1.91993-15.83984c-1.91992-15.84009-4.4375,13.2-4.4375,13.2l-5.25262-21.38433a.5.5,0,0,0-.96868-.00958L490.41662,201.3l-1.03168-9.779a.5.5,0,0,0-.99681.03182l-.7,16.94711-3.12685-15.52431a.5.5,0,0,0-.98836.05644l-1.62356,19.13022c-1.51491,17.85027-2.54981-2.22044-2.919-11.48253a.4998.4998,0,0,0-.98929-.07766l-3.53164,17.25795-1.164-9.31149a.5.5,0,0,0-.99614.062v17.03156c0,17.39919-2.776,5.73232-4.47364-3.02877a.4996.4996,0,0,0-.98944.11809l1.16182,28.47575c-1.76709,26.20092,21.24169,30.13525,21.24169,30.13525s2.69043-18.532,5.75489-23.78809c4.54443,1.38648,8.51855-.16333,8.49072-7.6958.00146-8.5415-.97461-14.43676.20557-15.60351,1.62793-1.563,4.64746-.30225,15.76074,1.35608,11.11377,1.65832,16.45947,1.25915,17.33984-.87122C537.04113,234.56317,537.03088,234.0932,536.84142,233.41889Z" fill="#2f170b"/><ellipse cx="487.68817" cy="263.75465" rx="8.79396" ry="9.45764" transform="translate(-31.3073 68.69065) rotate(-7.80701)" fill="#ea9d7d"/></g></svg>