<svg xmlns="http://www.w3.org/2000/svg" viewBox="0 0 1109 792.52"><title>head 7</title><g id="head-7" data-name="head"><path d="M491.26331,269.27818l-5.48637,31.50759-1.32062,10.4573-.43327,1.83531a11.04072,11.04072,0,0,0,7.14165,12.99737,39.50779,39.50779,0,0,0,9.99709,1.97579c17.99164,4.22216,18.59128-21.97621,18.59128-21.97621l1.12525-24.77324Z" fill="#ea9d7d"/><path d="M496.79349,275.77c1.29517,3.33941,3.15994,10.30371,12.01767,15.168,4.123,2.26413,6.85946,1.978,11.53206,2.14443l.53516-11.78027S495.47562,272.2662,496.79349,275.77Z" fill="#2f170b"/><path d="M534.56428,234.54209s2.808,18.03735,2.17446,30.51744c-.45594,10.11107-4.71135,15.71879-9.74631,18.08388s-14.36256.29446-21.22437-2.11425c-5.80789-2.05078-9.3369-4.5815-10.63214-7.92091-1.31777-3.50379-3.59271-7.88121-3.59271-7.88121L490.407,254.4969l8.96138-28.69473Z" fill="#ea9d7d"/><path d="M538.67261,234.20813a7.544,7.544,0,0,0-4.74829-7.96356c-.6316-4.14887-3.272-4.9964-5.02076-5.07868A7.58249,7.58249,0,0,0,524.53,217.26c-.36841-.14563-.70142-.25885-1.01782-.35742-1.30835-3.67981-4.16919-3.937-6.22242-3.56745A12.22744,12.22744,0,0,0,510.8501,210.33a9.27826,9.27826,0,0,0-7.45679,2.07183c-.03735.00269-.075.00464-.11206.00739-8.22852-4.93622-11.88135,2.56128-11.88135,2.56128l.01172.0014-.00659.00312c-1.35742-.14759-2.92017-.26453-4.76489-.325-10.98023-.36-7.769,10.50788-7.769,10.50788-12.80908.87787-7.51367,11.99951-7.51367,11.99951-5.29248,2.7973-2.55517,8.522-2.55517,8.522-5.68775,4.83936-.83789,9.92224-.83789,9.92224-4.63526,8.19159,2.55224,11.48383,2.55224,11.48383a4.85813,4.85813,0,0,0,3.27832,5.266l.00122.00153a4.56569,4.56569,0,0,0,4.17237,4.0227c2.12841,7.2757,11.33579,4.97985,11.33579,4.97985s2.6657-17.70546,5.2709-23.167h0c4.33544,7.08837,7.79565-2.56727,7.79565-2.56727,7.17822-5.28668.88647-14.59967.88135-14.60723v-.00025c5.53686,3.05048,6.00952-6.92566,6.01025-6.94287l.00073.00012C514.606,242.7796,524.761,236.43,524.761,236.43s12.729,8.01,13.86108-1.60687C538.74268,234.71655,538.75073,234.50232,538.67261,234.20813Z" fill="#2f170b"/><ellipse cx="487.67878" cy="263.91465" rx="8.79396" ry="9.45764" transform="translate(-31.32913 68.69086) rotate(-7.80701)" fill="#ea9d7d"/></g></svg>