<?xml version="1.0" encoding="utf-8"?>
<!-- Generator: Adobe Illustrator 23.0.3, SVG Export Plug-In . SVG Version: 6.00 Build 0)  -->
<svg version="1.1" id="Layer_1" xmlns="http://www.w3.org/2000/svg" xmlns:xlink="http://www.w3.org/1999/xlink" x="0px" y="0px"
	 viewBox="0 0 778.4 521" style="enable-background:new 0 0 778.4 521;" xml:space="preserve">
<style type="text/css">
	.st0{fill:#92EA6A;}
	.st1{fill:#ED3773;}
	.st2{fill:#EAE16A;}
	.st3{fill:#FFFFFF;}
	.st4{fill:#EA9D7D;}
	.st5{fill:#2F170B;}
	.st6{fill:#6986ED;}
	.st7{fill:none;stroke:#FFFFFF;stroke-width:4;stroke-miterlimit:10;}
	.st8{fill:none;stroke:#2F170B;stroke-miterlimit:10;}
	.st9{fill:none;stroke:#2F170B;stroke-width:6;stroke-linecap:round;stroke-linejoin:round;}
</style>
<title>torso-14</title>
<g id="common">
	<path class="st0" d="M429.7,8.1c3.2,0.1,6.9,2.2,7.1,4.4c0.2,2.4-4,2.8-5.4,7c-1.4,4.1,1,8.4,1.3,8.8c1.8,3.1,3.9,3.3,3.9,5
		c0,2.7-5.3,4.8-8.8,6.3c-5.4,2.2-6.9,1.5-8.2,3.3c-2.4,3.4,1.6,7.5-0.6,11c-2.1,3.3-8.6,4.1-11.3,1.7c-2.3-2-0.9-5.4-3-6.7
		c-1.6-1-3.1,1-7.8,2c-1.3,0.3-6.8,1.4-8.1-0.7c-0.9-1.4,0.9-2.8,0-5c-0.1-0.3-0.4-0.8-3.3-3.2c-2.8-2.3-2.9-2.2-3.7-3.1
		c-1-1.1-2.9-3.2-2.5-5.4c0.2-1,0.8-1.8,2.2-3.4c1.6-1.9,2.1-1.8,2.5-2.8c0.6-1.5-0.3-2.5-0.9-5c-0.3-1.4-1-4.1-0.2-6.3
		c0.8-2.4,2.5-2,7.2-6.4c0.8-0.7,2.1-2.1,4.8-4.9c2.9-3,3.1-3.3,3.9-3.7c2.7-1.3,5.8-1.2,8.4,0.4c1.5,1,1.2,1.7,3.3,3.2
		c1.3,1,2.9,2.1,4.7,2c3.2-0.2,4.5-4.3,5.8-3.9c1.4,0.5-0.1,5.3,2,6.6C424.4,10.2,426.1,8,429.7,8.1z"/>
	<circle class="st1" cx="395.6" cy="9.4" r="3.3"/>
	<circle class="st1" cx="414.7" cy="7.5" r="3.3"/>
	<circle class="st1" cx="428.2" cy="13.6" r="3.3"/>
	<circle class="st1" cx="428.3" cy="30.9" r="3.3"/>
	<circle class="st1" cx="413.1" cy="48.6" r="3.3"/>
	<circle class="st1" cx="385.7" cy="28.7" r="3.3"/>
	<circle class="st1" cx="396.2" cy="45.7" r="3.3"/>
	
		<ellipse transform="matrix(0.1105 -0.9939 0.9939 0.1105 334.3216 430.7538)" class="st2" cx="407.8" cy="28.6" rx="21.8" ry="21.8"/>
	<path class="st3" d="M393.6,25.5c0.8,0,1.5-0.7,1.4-1.6c0-0.8-0.7-1.4-1.4-1.4c-0.8,0-1.5,0.7-1.4,1.6
		C392.2,24.8,392.8,25.4,393.6,25.5z"/>
	<path class="st3" d="M407.8,17.5c0.8,0,1.5-0.7,1.4-1.6c0-0.8-0.7-1.4-1.4-1.4c-0.8,0-1.5,0.7-1.4,1.6
		C406.3,16.9,407,17.5,407.8,17.5z"/>
	<path class="st3" d="M406.9,28.5c0.8,0,1.5-0.7,1.4-1.6c0-0.8-0.7-1.4-1.4-1.4c-0.8,0-1.5,0.7-1.4,1.6
		C405.5,27.8,406.1,28.4,406.9,28.5z"/>
	<path class="st3" d="M418.3,25.6c0.8,0,1.5-0.7,1.4-1.6c0-0.8-0.7-1.4-1.4-1.4c-0.8,0-1.5,0.7-1.4,1.6
		C416.9,24.9,417.5,25.5,418.3,25.6z"/>
	<path class="st3" d="M398.2,37.7c0.8,0,1.5-0.7,1.4-1.6c0-0.8-0.7-1.4-1.4-1.4c-0.8,0-1.5,0.7-1.4,1.6
		C396.8,37.1,397.5,37.7,398.2,37.7z"/>
	<path class="st3" d="M412.2,41.9c0.8,0,1.5-0.7,1.4-1.6c0-0.8-0.7-1.4-1.4-1.4c-0.8,0-1.5,0.7-1.4,1.6
		C410.8,41.2,411.4,41.9,412.2,41.9z"/>
	<path class="st3" d="M422.3,36.9c0.8,0,1.5-0.7,1.4-1.6c0-0.8-0.7-1.4-1.4-1.4c-0.8,0-1.5,0.7-1.4,1.6
		C420.9,36.2,421.5,36.9,422.3,36.9z"/>
	<path class="st4" d="M373.3,92c0,0,5.5,51.3,33.8,55.1s28.8-22.4,16.9-62.9l-6.1-28.1c0,0-1.5-3.1,3-10.7s10.8-10.3-10.6-30.7
		c0,0-14.8-6.1-4.7,25.1c0,0-4,3-2.5,11.7L400.2,86L373.3,92z"/>
	<path class="st5" d="M401.9,138c0,0-8-2-1.7-52.1l-7,1.6C393.2,87.6,387.2,129,401.9,138z"/>
	<path class="st6" d="M372.1,159.6h-87.5l18-127.5l18.3-3l0.1,0.1c4.4,9.3,15.4,13.3,24.7,8.9c3.9-1.9,7.1-5.1,8.9-9l0,0l15.2,4.9
		c5.1,1.2,8.6,5.9,8.3,11.2L372.1,159.6z"/>
	<path class="st6" d="M401.3,94.4l-14.4-45c0-0.1-0.1-0.2-0.1-0.3c-0.8-1.2-7.5-10.6-15.5-14.4c-0.5-0.2-1.1,0-1.3,0.5
		c-0.1,0.1-0.1,0.3-0.1,0.5l1.9,58.8L401.3,94.4z"/>
	<polygon class="st5" points="293.4,97.5 310.2,71.9 287.8,137.4 	"/>
	<polygon class="st5" points="375.6,94.4 376.7,71.9 382.3,94.4 	"/>
	<line class="st7" x1="375.8" y1="90" x2="399.6" y2="90"/>
	<line class="st7" x1="376.3" y1="80.8" x2="397" y2="80.8"/>
	<path class="st4" d="M309.3,69.4l-40.8,58.3c0,0,36.6,6.9,40.8,6.8s26.3,0.1,30.4,0.2s6.2,4.2,2.5,5.7l-4.4,0.3
		c0,0,0.7,0.8,5.9,1.5s10.8,3.6,5.6,6.3c-3.7,0.3-7.4,0.1-11-0.5c0,0,11.6,1.8,7.4,7.2s-3.1,5.1-7.1,5.5s-8.5,0.6-8.5,0.6
		s10.5,5.2,10.6,5.8s0.4,3.1-4.8,1.4s-26.7-11.9-30.2-13.1s-9.6-3.8-56.6-1.4l0,0c-12.3,0.2-22.4-9.6-22.6-21.8
		c-0.1-4.5,1.2-8.9,3.7-12.7l44.9-62.1L309.3,69.4z"/>
	<path class="st5" d="M242.7,129c0,0,10.8-5.4,26-0.9l3.2-4.5C271.8,123.6,254.6,119.4,242.7,129z"/>
	<line class="st8" x1="344.2" y1="157.3" x2="331.5" y2="155"/>
	<line class="st8" x1="337.7" y1="140.8" x2="328.2" y2="138"/>
	<path class="st6" d="M248.7,90.2l30.6-42.5c0,0,10-12.9,23.3-15.6l7.6,39.7L282.5,114L248.7,90.2z"/>
	<line class="st7" x1="252.6" y1="84.8" x2="286.2" y2="108.4"/>
	<line class="st7" x1="258.1" y1="77.1" x2="292.1" y2="99.3"/>
	<line class="st9" x1="402.3" y1="57.7" x2="418.7" y2="59.7"/>
	<ellipse class="st5" cx="416.6" cy="59.1" rx="5.5" ry="6.7"/>
</g>
</svg>
