<?xml version="1.0" encoding="utf-8"?>
<!-- Generator: Adobe Illustrator 23.0.3, SVG Export Plug-In . SVG Version: 6.00 Build 0)  -->
<svg version="1.1" id="Layer_1" xmlns="http://www.w3.org/2000/svg" xmlns:xlink="http://www.w3.org/1999/xlink" x="0px" y="0px"
	 viewBox="0 0 778.4 521" style="enable-background:new 0 0 778.4 521;" xml:space="preserve">
<style type="text/css">
	.st0{fill:#EA9D7D;}
	.st1{fill:#ED3773;}
	.st2{fill:#2F170B;}
	.st3{fill:none;stroke:#2F170B;stroke-miterlimit:10;}
	.st4{fill:none;stroke:#2F170B;stroke-width:6;stroke-linecap:round;stroke-linejoin:round;}
	.st5{fill:#FFFFFF;}
</style>
<title>torso-27</title>
<g id="common">
	<path class="st0" d="M395.9,94.4c0,0,12.2,43.4,16.8,52.5s39.4,72.2,39.4,72.2s22,13,13,18.4c0,0,6.1,10.4-12.6,16.2
		c-18.7,5.8-13.7-19.1-18-26.3s-42.3-53.6-48.9-66.2s-27.1-37.1-13.8-66.8L395.9,94.4z"/>
	<path class="st1" d="M372.1,159.6h-87.5l18-127.5l18.3-3l0.1,0.1c4.4,9.3,15.4,13.3,24.7,8.9c3.9-1.9,7.1-5.1,8.9-9l0,0l15.2,4.9
		c5.1,1.2,8.6,5.9,8.3,11.2L372.1,159.6z"/>
	<path class="st1" d="M401.3,94.4l-14.4-45c0-0.1-0.1-0.2-0.1-0.3c-0.8-1.2-7.5-10.6-15.5-14.4c-0.5-0.2-1.1,0-1.3,0.5
		c-0.1,0.1-0.1,0.3-0.1,0.5l1.9,58.8L401.3,94.4z"/>
	<path class="st2" d="M410.2,140.6c0,0-7.5,5.4-9.9,9.5l11.8-4.8L410.2,140.6z"/>
	<path class="st3" d="M460.1,239.9c1.1,1.2,2,2.5,2.9,3.9"/>
	<path class="st2" d="M456.3,236.6c-0.3,0-0.6-0.1-0.9-0.1c-0.2-0.1-0.5-0.1-0.8-0.1c-0.2,0-0.4,0.1-0.4,0.2
		c-0.1,0.2-0.1,0.5-0.1,0.7c0.1,1.1,0.4,2.2,0.8,3.3c0.7,2.2,1.7,4.3,2.6,6.4l0,0c0.1,0.2,0,0.5-0.2,0.7c-0.2,0.1-0.5,0-0.6-0.2l0,0
		c-1.1-1.6-2.4-3.1-3.7-4.5c-0.7-0.7-1.4-1.3-2.2-1.8l-0.6-0.4l-0.6-0.3c-0.3-0.1-0.6-0.2-0.9-0.3c0,0,0.1-0.1,0.1,0
		c0,0.1,0,0.3,0,0.4c0,0.4,0.1,0.8,0.2,1.3c0.2,0.9,0.5,1.8,0.8,2.7c0.6,1.8,1.4,3.6,2.1,5.4h0l0,0c0.2,0.5,0,1-0.5,1.2
		c-0.4,0.2-0.9,0-1.2-0.4c-1-1.6-2.2-3.1-3.4-4.5c-0.6-0.7-1.3-1.3-2-1.9c-0.3-0.3-0.7-0.5-1.1-0.7c-0.2-0.1-0.4-0.2-0.6-0.3
		l-0.3-0.1c-0.1,0-0.1,0-0.2,0c-0.1,0,0,0,0,0c-0.1,0.1-0.1,0.2-0.1,0.2c-0.1,0.4-0.1,0.8,0,1.2c0.1,0.9,0.3,1.8,0.5,2.7
		c0.2,0.9,0.5,1.8,0.8,2.8c0.3,0.9,0.5,1.9,0.5,2.9c-0.7-0.7-1.2-1.6-1.6-2.5c-0.4-0.9-0.7-1.8-1-2.8c-0.3-1-0.6-1.9-0.7-2.9
		c-0.1-0.6-0.1-1.1,0-1.7c0.1-0.4,0.2-0.8,0.5-1.1c0.3-0.3,0.8-0.5,1.3-0.5c0.2,0,0.4,0,0.5,0.1c0.1,0,0.3,0.1,0.4,0.1
		c0.3,0.1,0.5,0.2,0.8,0.3c0.5,0.2,0.9,0.5,1.4,0.8c0.8,0.6,1.6,1.3,2.3,2c1.4,1.5,2.6,3,3.7,4.7l-1.7,0.9v0
		c-0.9-1.8-1.7-3.7-2.3-5.6c-0.3-1-0.6-2-0.8-3c-0.1-0.6-0.1-1.1-0.1-1.7c0-0.4,0.1-0.7,0.2-1c0.1-0.2,0.2-0.4,0.4-0.6
		c0.2-0.2,0.5-0.3,0.7-0.4c0.4-0.1,0.8,0,1.2,0.1c0.3,0.1,0.5,0.2,0.8,0.3l0.7,0.4l0.7,0.5c0.8,0.6,1.6,1.4,2.3,2.1
		c1.3,1.5,2.5,3.2,3.5,4.9l-0.9,0.5l0,0c-1-2.1-1.9-4.3-2.6-6.6c-0.4-1.2-0.6-2.4-0.6-3.6c0-0.3,0.1-0.7,0.2-1
		c0.2-0.4,0.6-0.6,1-0.5c0.3,0,0.6,0.1,0.9,0.3C455.9,236.1,456.1,236.3,456.3,236.6z"/>
	<path class="st2" d="M465.4,237.2c-1.5,1.3-3.2,2.5-5,3.4c-0.9,0.5-1.9,0.9-2.8,1.2c-0.5,0.2-1.1,0.3-1.7,0.4c-0.4,0-0.7,0-1.1-0.1
		c-0.3-0.1-0.5-0.2-0.7-0.4c-0.2-0.2-0.4-0.5-0.5-0.7c-0.1-0.4-0.1-0.8,0-1.3c0.1-0.3,0.1-0.6,0.3-0.8l0.3-0.8l0.4-0.7
		c0.6-0.9,1.3-1.7,2-2.4c1.5-1.4,3.1-2.6,4.9-3.5c-1.3,1.5-2.6,3-3.8,4.6c-0.6,0.7-1.1,1.5-1.5,2.3c-0.1,0.2-0.2,0.4-0.3,0.6
		l-0.2,0.6c-0.1,0.2-0.1,0.4-0.2,0.6c0,0.2,0,0.3,0,0.2c0-0.1-0.1-0.1-0.1-0.1c0.1,0,0.3,0,0.4,0c0.4,0,0.8-0.1,1.3-0.2
		c0.9-0.2,1.8-0.5,2.7-0.8C461.6,238.5,463.5,237.8,465.4,237.2z"/>
	<path class="st2" d="M441.6,231.4c0.6,0.4,1.2,0.8,1.8,1.1c0.6,0.3,1.2,0.5,1.9,0.8c1.3,0.4,2.6,0.7,3.9,0.9
		c1.3,0.2,2.7,0.3,4.1,0.5c0.7,0,1.4,0.1,2.1,0.2c0.7,0,1.4,0.1,2.2,0.2c-0.7,0.3-1.4,0.5-2.1,0.7c-0.7,0.2-1.4,0.3-2.2,0.4
		c-1.5,0.2-3,0.2-4.4-0.1c-1.5-0.2-2.9-0.7-4.3-1.5c-0.3-0.2-0.6-0.4-0.9-0.6c-0.3-0.2-0.6-0.5-0.9-0.8
		C442.3,232.8,441.9,232.1,441.6,231.4z"/>
	<polygon class="st2" points="293.4,97.5 310.2,71.9 287.8,137.4 	"/>
	<polygon class="st2" points="375.6,94.4 376.7,71.9 382.3,94.4 	"/>
	<line class="st4" x1="432.5" y1="224.6" x2="448.6" y2="212.8"/>
	<circle class="st5" cx="335.1" cy="68.8" r="5.9"/>
	<circle class="st5" cx="335.1" cy="143.3" r="5.9"/>
	<circle class="st5" cx="299" cy="149.3" r="5.9"/>
	<path class="st5" d="M372.5,152.7c-2.9-1.4-6.5-0.2-7.9,2.7c-0.6,1.3-0.8,2.8-0.4,4.2h8L372.5,152.7z"/>
	<circle class="st5" cx="367.4" cy="45" r="5.9"/>
	<circle class="st5" cx="385.6" cy="71.9" r="5.9"/>
	<circle class="st5" cx="313.5" cy="113.3" r="5.9"/>
	<circle class="st5" cx="355.5" cy="107.4" r="5.9"/>
	<path class="st0" d="M311.5,162.9L311.5,162.9l-36.8-39.6l7.9-16.8l-24.8-23.9l-15.8,26c-3.5,6.4-6.5,18.3,0.4,25.4l50.1,48.2
		l22.5-11.3c0,0,9.2,1.1,10.3-0.2C326.4,169.4,325.8,166,311.5,162.9z"/>
	<path class="st2" d="M274.7,123.4c0,0-8.2-0.6-12.5,0c0,0,2-2.7,13.9-3.1L274.7,123.4z"/>
	<path class="st1" d="M248.7,90.2l30.6-42.5c0,0,10-12.9,23.3-15.6l7.6,39.7L282.5,114L248.7,90.2z"/>
	<circle class="st5" cx="305.1" cy="45" r="5.9"/>
	<circle class="st5" cx="263.3" cy="84.9" r="5.9"/>
	<path class="st5" d="M296.7,82.5c-3.3,0-5.9,2.7-5.9,5.9c0,2.8,2,5.3,4.8,5.8l6.1-9.2C300.4,83.5,298.6,82.5,296.7,82.5z"/>
	<path class="st2" d="M525,521c-2.4,0-4.4-1.7-4.9-4l-46.4-256.9c-2.7-13.2-15.5-21.8-28.8-19.2c-8.7,1.8-15.8,8.1-18.5,16.6
		L425,262c-0.8,2.6-3.6,4.1-6.3,3.3s-4.1-3.6-3.3-6.3l1.4-4.5c5.7-18.1,25.1-28.2,43.2-22.5c12,3.8,20.9,13.8,23.4,26.1L529.9,515
		c0.5,2.7-1.2,5.3-3.9,5.9C525.6,521,525.3,521,525,521z"/>
	<path class="st0" d="M456.3,236.6c-0.4-0.2-0.8-0.4-1.3-0.5c-3.8-1.1,2,11.1,2,11.1l0,0c0,0-4.1-6.7-7.9-7.7s1.8,11,1.8,11
		s-4.1-6.7-7.9-7.7s1.2,10.6,1.2,10.6"/>
	<path class="st0" d="M466.4,236.3c0,0-12.6,7.5-11.9,3.7s7-8.6,7-8.6l2.9,0.4l2.7,2.8L466.4,236.3z"/>
	<path class="st2" d="M466.4,236.3c-1.6,1.4-3.3,2.6-5.2,3.6c-0.9,0.5-1.9,1-2.9,1.4c-0.5,0.2-1,0.4-1.6,0.5
		c-0.3,0.1-0.6,0.1-0.9,0.2c-0.4,0-0.8,0-1.2-0.1c-0.3-0.1-0.6-0.3-0.8-0.5c-0.2-0.2-0.3-0.5-0.4-0.9c0-0.4,0-0.8,0.1-1.2
		c0.2-0.6,0.4-1.1,0.7-1.6c0.6-1,1.3-1.8,2-2.6c1.5-1.5,3.2-2.8,5.2-3.7c-1.4,1.6-2.7,3.2-3.9,4.8c-0.6,0.8-1.1,1.6-1.6,2.5
		c-0.2,0.4-0.4,0.8-0.5,1.2c0,0.1-0.1,0.2-0.1,0.4c0,0-0.2-0.3-0.2-0.2c0.3,0,0.7,0,1-0.1c0.4-0.1,0.9-0.2,1.4-0.4
		c0.9-0.3,1.9-0.7,2.9-1C462.5,237.8,464.4,237,466.4,236.3z"/>
	<path class="st2" d="M456.3,236.6c-0.3,0-0.6-0.1-0.9-0.1c-0.2-0.1-0.5-0.1-0.8-0.1c-0.2,0-0.4,0.1-0.4,0.2
		c-0.1,0.2-0.1,0.5-0.1,0.7c0.1,1.1,0.4,2.2,0.8,3.3c0.7,2.2,1.7,4.3,2.6,6.4l0,0c0.1,0.2,0,0.5-0.2,0.7c-0.2,0.1-0.5,0-0.6-0.2l0,0
		c-1.1-1.6-2.4-3.1-3.7-4.5c-0.7-0.7-1.4-1.3-2.2-1.8l-0.6-0.4l-0.6-0.3c-0.3-0.1-0.6-0.2-0.9-0.3c0,0,0.1-0.1,0.1,0
		c0,0.1,0,0.3,0,0.4c0,0.4,0.1,0.8,0.2,1.3c0.2,0.9,0.5,1.8,0.8,2.7c0.6,1.8,1.4,3.6,2.1,5.4h0l0,0c0.2,0.5,0,1-0.5,1.2
		c-0.4,0.2-0.9,0-1.2-0.4c-1-1.6-2.2-3.1-3.4-4.5c-0.6-0.7-1.3-1.3-2-1.9c-0.3-0.3-0.7-0.5-1.1-0.7c-0.2-0.1-0.4-0.2-0.6-0.3
		l-0.3-0.1c-0.1,0-0.1,0-0.2,0c-0.1,0,0,0,0,0c-0.1,0.1-0.1,0.2-0.1,0.2c-0.1,0.4-0.1,0.8,0,1.2c0.1,0.9,0.3,1.8,0.5,2.7
		c0.2,0.9,0.5,1.8,0.8,2.8c0.3,0.9,0.5,1.9,0.5,2.9c-0.7-0.7-1.2-1.6-1.6-2.5c-0.4-0.9-0.7-1.8-1-2.8c-0.3-1-0.6-1.9-0.7-2.9
		c-0.1-0.6-0.1-1.1,0-1.7c0.1-0.4,0.2-0.8,0.5-1.1c0.3-0.3,0.8-0.5,1.3-0.5c0.2,0,0.4,0,0.5,0.1c0.1,0,0.3,0.1,0.4,0.1
		c0.3,0.1,0.5,0.2,0.8,0.3c0.5,0.2,0.9,0.5,1.4,0.8c0.8,0.6,1.6,1.3,2.3,2c1.4,1.5,2.6,3,3.7,4.7l-1.7,0.9v0
		c-0.9-1.8-1.7-3.7-2.3-5.6c-0.3-1-0.6-2-0.8-3c-0.1-0.6-0.1-1.1-0.1-1.7c0-0.4,0.1-0.7,0.2-1c0.1-0.2,0.2-0.4,0.4-0.6
		c0.2-0.2,0.5-0.3,0.7-0.4c0.4-0.1,0.8,0,1.2,0.1c0.3,0.1,0.5,0.2,0.8,0.3l0.7,0.4l0.7,0.5c0.8,0.6,1.6,1.4,2.3,2.1
		c1.3,1.5,2.5,3.2,3.5,4.9l-0.9,0.5l0,0c-1-2.1-1.9-4.3-2.6-6.6c-0.4-1.2-0.6-2.4-0.6-3.6c0-0.3,0.1-0.7,0.2-1
		c0.2-0.4,0.6-0.6,1-0.5c0.3,0,0.6,0.1,0.9,0.3C455.9,236.1,456.1,236.3,456.3,236.6z"/>
</g>
</svg>
