<svg xmlns="http://www.w3.org/2000/svg" viewBox="0 0 1109 792.52"><title>torso 4</title><g id="torso-27" data-name="torso"><path d="M561.111,365.92994s12.24,43.37,16.8,52.49,39.36,72.24,39.36,72.24,21.96,12.96,12.96,18.36c0,0,6.12,10.44-12.6,16.2s-13.68-19.08-18-26.28-42.276-53.64-48.858-66.24-27.102-37.06-13.782-66.77Z" fill="#ea9d7d"/><path d="M580.46852,412.12681,552.154,320.87749l-.12547-.25808c-.8121-1.1715-7.49821-10.57655-15.50855-14.43156a1.0043,1.0043,0,0,0-1.43371.94069l1.90475,58.8014-2.88778,17.93578A59.52226,59.52226,0,0,0,545.35862,429.184l48.51279,64.27946,17.30845-13.86723Z" fill="#4c69de"/><path d="M626.38123,511.2854a34.07805,34.07805,0,0,1,2.15622,4.54712,33.09073,33.09073,0,0,0-3.66376-3.23291,1.0216,1.0216,0,1,1,1.502-1.32446Z" fill="#2f170b"/><path d="M621.501,508.11987a4.26691,4.26691,0,0,0-1.63642-.46338c-.56732-.01464-.66958.57666-.63693,1.10914a12.94589,12.94589,0,0,0,.86279,3.28344c.41333,1.07617.85056,2.147,1.33329,3.19995.488,1.05982.97378,2.082,1.5065,3.14966a.73523.73523,0,0,1-1.26166.7478l-.04382-.06323a35.6568,35.6568,0,0,0-3.66025-4.47461,15.87918,15.87918,0,0,0-2.12357-1.82251l-.56421-.36157-.57-.29785c-.19007-.08765-.3801-.13965-.56809-.21607-.176-.063-.25946-.04174-.22552-.05249.06881-.01367.19378-.12817.14959-.0852a1.20221,1.20221,0,0,0-.05163.38061,6.27024,6.27024,0,0,0,.14,1.25757,25.79244,25.79244,0,0,0,.75879,2.73755c.60562,1.833,1.34644,3.66773,2.132,5.43994l.007.01612a.95352.95352,0,0,1-1.68207.88891,31.78915,31.78915,0,0,0-3.36-4.52539,16.46676,16.46676,0,0,0-1.98516-1.9292,8.26743,8.26743,0,0,0-1.10334-.74341,3.10463,3.10463,0,0,0-.57586-.27587l-.28665-.11915c-.06965-.01123-.15793-.04907-.21253-.05151a.36155.36155,0,0,0-.18588.00977.68989.68989,0,0,0-.16535.32763,4.09042,4.09042,0,0,0-.06558,1.26563,19.4176,19.4176,0,0,0,.45307,2.79468c.43753,1.87036.98068,3.73681,1.57833,5.58862a40.70655,40.70655,0,0,1-2.33316-5.37305,16.89759,16.89759,0,0,1-.77044-2.89087,5.14723,5.14723,0,0,1-.03907-1.63281,1.90308,1.90308,0,0,1,.44562-.97168,1.53825,1.53825,0,0,1,1.14771-.44287,3.15419,3.15419,0,0,1,.50354.06665c.14346.03687.26428.08447.39752.12769a4.31505,4.31505,0,0,1,.75537.30517,9.6643,9.6643,0,0,1,1.36078.79834,17.55225,17.55225,0,0,1,2.31308,1.98682,33.47054,33.47054,0,0,1,3.74792,4.678l-1.675.905a59.78006,59.78006,0,0,1-2.284-5.61231,21.03594,21.03594,0,0,1-.82037-2.99829,8.0494,8.0494,0,0,1-.15546-1.69775,2.94723,2.94723,0,0,1,.21509-1.07422,1.82125,1.82125,0,0,1,.43341-.63306,1.65222,1.65222,0,0,1,.76938-.40918,2.35343,2.35343,0,0,1,1.234.095c.27322.105.56039.19873.81836.322l.7438.40088.67416.46436a17.65476,17.65476,0,0,1,2.31391,2.13257,30.53073,30.53073,0,0,1,3.626,4.92114l-1.30545.68457c-.45575-1.05005-.89727-2.17359-1.28656-3.27979-.39132-1.114-.772-2.23437-1.06469-3.38623a12.269,12.269,0,0,1-.50577-3.56567,2.18571,2.18571,0,0,1,.25372-.93945.87508.87508,0,0,1,.90235-.43531A4.33952,4.33952,0,0,1,621.501,508.11987Z" fill="#2f170b"/><path d="M630.60339,508.72437a26.02,26.02,0,0,1-4.9989,3.39917,18.2573,18.2573,0,0,1-2.84045,1.23535,7.2778,7.2778,0,0,1-1.66492.35376,2.86369,2.86369,0,0,1-1.09473-.10816,1.83352,1.83352,0,0,1-.67886-.37573,1.67851,1.67851,0,0,1-.487-.73877,2.369,2.369,0,0,1-.01434-1.2522c.08157-.28247.14953-.57861.25165-.84668l.34692-.773.4122-.708a14.60011,14.60011,0,0,1,2.00437-2.41944,19.19633,19.19633,0,0,1,4.94409-3.52759c-1.305,1.54541-2.60694,3.02613-3.7728,4.55884a20.27921,20.27921,0,0,0-1.54422,2.34961c-.09378.20386-.19974.3999-.301.59839l-.23356.59741c-.06832.19678-.10348.38892-.162.58179-.04691.17944-.0156.25537-.03253.2146a.43185.43185,0,0,0-.11945-.14966,1.14746,1.14746,0,0,0,.37775.029,6.7743,6.7743,0,0,0,1.253-.20092c.89959-.20191,1.80807-.541,2.73361-.84351C626.82309,510.04932,628.6745,509.33838,630.60339,508.72437Z" fill="#2f170b"/><path d="M606.84012,502.96313a9.28356,9.28356,0,0,0,1.80862,1.08814,15.36091,15.36091,0,0,0,1.87531.7605,22.95577,22.95577,0,0,0,3.915.90088c1.32937.22631,2.69171.33935,4.07556.48486.69339.02637,1.39392.10913,2.10232.1709a20.14786,20.14786,0,0,1,2.16138.24512,18.58306,18.58306,0,0,1-2.07574.73315c-.70856.16992-1.42984.30273-2.15558.41113a16.15393,16.15393,0,0,1-4.42414-.0708,11.84752,11.84752,0,0,1-4.25082-1.46387c-.325-.19555-.64413-.40625-.94934-.62744a11.13535,11.13535,0,0,1-.852-.75708A5.0513,5.0513,0,0,1,606.84012,502.96313Z" fill="#2f170b"/><line x1="597.72256" y1="496.13544" x2="613.77116" y2="484.30565" fill="none" stroke="#2f170b" stroke-linecap="round" stroke-linejoin="round" stroke-width="6"/><path d="M547.56156,432.10288,541.93,343.42l-3.84979,73.14576a59.48978,59.48978,0,0,0,7.27844,12.61816Z" fill="#2f170b"/><path d="M580.46853,412.12682l-1.0495-3.38208c-2.38568,1.87255-6.4505,5.30566-8.09857,8.14868l9.55731-3.86743Z" fill="#2f170b"/><path d="M537.55,431.14329h-87.5l18-127.5,17.7447-3h0c6.72826,14.27205,27.64736,14.32364,34.26517,0v0l15.21408,4.86545a10.8901,10.8901,0,0,1,8.30134,11.154Z" fill="#4c69de"/><polygon points="458.826 368.977 475.67 343.383 453.192 408.888 458.826 368.977" fill="#2f170b"/><path d="M447.15819,385.20978l-5.73,9.67516L495.7478,424.0324s24.00384-9.66494,26.76317-8.66053,7.042,4.50115-7.89658,10.24709c0,0,1.18031,2.06484,6.61251,4.04219s26.50372,8.95306,26.3498,10.80672,3.77474,7.2767-24.80829-2.43324c0,0-2.175,2.15964.27776,3.05245s25.80959,9.22121,22.39413,11.45013-6.56478.38812-25.22524-6.05717c0,0-2.10507,1.49065-1.2969,2.132s22.65965,9.28988,21.99005,11.12944,2.47908,5.58982-28.542-7.43808c0,0-.8505.90567,2.03392,2.99726s15.70427,10.75107,11.41135,11.09812-4.4738-.58684-19.25829-11.00311l-17.02876-9.49711S416.79,421.20707,402.526,402.65437c-10.27413-13.36318,13.32-41.10485,13.32-41.10485Z" fill="#ea9d7d"/><path d="M414.11,361.74329l30.59815-42.48s9.96185-12.88,23.34185-15.62l7.62,39.74-32.4603,49.32281,51.09477,29.44074-7.68,23.41835-75.86569-30.35056A23.15281,23.15281,0,0,1,400.695,380.017Z" fill="#4c69de"/><path d="M514.61438,425.61914a8.69744,8.69744,0,0,1-1.9613,1.57471,13.30925,13.30925,0,0,1-2.16105,1.04345,13.03245,13.03245,0,0,1-2.31219.64112,8.5588,8.5588,0,0,1-2.51389.10547,8.57379,8.57379,0,0,1,1.96036-1.57715,13.03387,13.03387,0,0,1,2.162-1.041,13.27122,13.27122,0,0,1,2.31314-.63916A8.67048,8.67048,0,0,1,514.61438,425.61914Z" fill="#2f170b"/><polygon points="443.21 392.706 428.515 396.827 447.386 386.36 443.21 392.706" fill="#2f170b"/><polygon points="494.305 422.147 456.372 386.36 454.554 399.242 494.305 422.147" fill="#2f170b"/><circle cx="504.7059" cy="322.99418" r="5.94347" fill="#fff"/><circle cx="438.92666" cy="365.57997" r="5.94347" fill="#fff"/><circle cx="498.76242" cy="405.34912" r="5.94347" fill="#fff"/><circle cx="526.28885" cy="367.4831" r="5.94347" fill="#fff"/><circle cx="405.87818" cy="399.77601" r="5.94347" fill="#fff"/><circle cx="453.19195" cy="416.88431" r="5.94347" fill="#fff"/><circle cx="558.99016" cy="384.2831" r="5.94347" fill="#fff"/><circle cx="558.99016" cy="427.3014" r="5.94347" fill="#fff"/><circle cx="588.43517" cy="460.51286" r="5.94347" fill="#fff"/><circle cx="536.47782" cy="320.6831" r="5.94347" fill="#fff"/><circle cx="458.75462" cy="317.71033" r="5.94347" fill="#fff"/><circle cx="484.28148" cy="361.53962" r="5.94347" fill="#fff"/><path d="M636.56675,701.50891s16.46411,4.116,43.21831-16.97863,36.01525-32.41373,76.661-33.44273,73.05952,1.54351,84.3786-12.8626,11.31908-38.58777,19.55114-41.6748,23.66717-6.174,35.50075,3.087,15.43511,9.26106,22.63817,9.26106c6.60279,0-.19652,15.99607-10.49046,18.26578a20.16,20.16,0,0,0-7.65822,3.24042c-5.105,3.73367-12.56473,10.971-13.236,21.71211-1.029,16.46412,7.203,44.24732-18.52213,65.342S838.25219,776.62644,839.2812,780.228s8.74656,7.97481,4.88778,10.29007-19.03663,2.57252-20.06564-1.54351,3.85878-27.01144,5.40229-36.787,8.23206-38.07327-9.51832-40.64579-50.93586-3.85878-54.79464-.77176-3.60153,11.83359-17.23588,24.69618-21.8664,31.642-16.97862,40.38854S742.04,788.46,736.895,791.03255s-19.55114,1.14989-19.55114,1.14989-2.31527-16.32775.25725-29.19034,6.174-33.18549,6.68854-40.90305-10.54732-20.06564-10.03282-44.24731C714.2568,677.84174,668.98048,743.18371,636.56675,701.50891Z" fill="#e56c01"/><ellipse cx="892.44658" cy="608.12649" rx="2.74402" ry="4.20178" fill="#2f170b"/><path d="M918.51471,608.89844c-1.66435,0-3.1347-.00558-4.56039-.11933a6.48146,6.48146,0,0,0-.07048.80531c0,3.12562,2.18843,5.65948,4.88837,5.65948a4.28728,4.28728,0,0,0,1.81439-.41312C921.66546,611.54116,921.1986,608.89844,918.51471,608.89844Z" fill="#2f170b"/><path d="M860.37624,596.55015a7.16916,7.16916,0,0,0-3.24217,2.75647c-.00069.0028-4.47525,30.68613,10.61625,31.02947,15.09219.34264,1.02931-22.44184,9.947-31.02947,0,0,.92464-2.82346,8.42015-4.589C876.5117,591.99326,866.47048,594.26473,860.37624,596.55015Z" fill="#2f170b"/><path d="M724.28971,722.08883c.51431-7.71742-10.54716-20.0657-10.03285-44.24726,0,0-7.71742,31.042-28.64076,53.68s-23.66726,38.41611-17.8361,46.99117,13.72024,8.57506,13.72024,0-3.43059-16.80679,4.4592-21.952C693.84782,751.41557,722.83192,727.06234,724.28971,722.08883Z" fill="#2f170b"/><path d="M856.51579,730.4336c.02372.03769,8.14659,13.09847,7.46131,16.86611-.686,3.77322-20.92265,21.266-3.08655,18.17943,17.8361-3.08724,18.52208-15.77816,19.55069-21.95266,1.02932-6.17379-11.83328-26.06782-11.83328-26.06782A69.04209,69.04209,0,0,0,856.51579,730.4336Z" fill="#2f170b"/><path d="M840.31021,630.33991s16.2033,19.20412,49.39235,28.46519" fill="none" stroke="#2f170b" stroke-linecap="round" stroke-linejoin="round" stroke-width="6"/><path d="M630.4834,500.31532c13.27579-.53794,65.63031,145.471,111.04227,164.321,53.82232,22.34066,108.35066-8.92421,119.62846-15.68907" fill="none" stroke="#2f170b" stroke-linecap="round" stroke-linejoin="round" stroke-width="6"/><path d="M832.796,694.088c2.312-3.4917,7.5254-11.36475,12.96-10.07959,5.71142,1.35058,8.85839,12.15234,5.75976,15.83984-1.75732,2.09131-4.30664.44678-10.7998,2.16016-7.519,1.98437-10.40967,5.85449-11.87989,4.67969C827.08212,705.28668,829.77743,698.647,832.796,694.088Z" fill="#2f170b"/><path d="M673.92684,703.72906c4.87989-2.71582,3.41993-12.04541,2.773-16.18262-.03076-.19531-.06787-.395-.10254-.59375a91.94815,91.94815,0,0,1-17.31494,10.26612C660.88778,701.70221,669.255,706.32916,673.92684,703.72906Z" fill="#2f170b"/><path d="M722.83407,765.1231c-1.47217,5.38721,6.21582,10.87012,9.625,13.30127.0415.02979.08594.0586.12744.08789-.54053-.833-1.08154-1.71533-1.6084-2.65771-2.26953-4.061-1.707-10.28613.90821-17.07715C727.89462,759.47467,723.7452,761.79156,722.83407,765.1231Z" fill="#2f170b"/><path d="M762.94052,713.82916c-2.74854-4.2832-7.39942-6.00049-8.26465-11.8208-1.1709-7.874,6.38769-11.25391,4.31982-16.92041-2.03711-5.58252-11.75732-8.833-19.43994-6.48a18.03131,18.03131,0,0,0-10.08008,8.28027c-3.34326,6.00049-2.01318,12.083-.71972,18,1.29345,5.91553,3.92236,17.94141,14.3999,24.48a31.85427,31.85427,0,0,0,7.42138,3.5C758.82235,724.28668,760.90243,717.76617,762.94052,713.82916Z" fill="#2f170b"/><path d="M792.47567,659.52838c4.05225.6748,5.22363-1.56006,12.96-1.8003,7.49414-.23242,9.7461,1.76075,12.24024,0,2.354-1.66162,3.43066-5.61767,3.08886-9.54931-10.64746,2.0459-24.28515,2.36474-39.92041,2.5459C783.3619,654.90777,787.901,658.76617,792.47567,659.52838Z" fill="#2f170b"/><path d="M881.03573,685.088c-1.35059,3.18945-3.08838,9.418-.71973,11.16015.87647.64453,2.227.6001,3.751.0962a61.61039,61.61039,0,0,0,3.5083-20.43458A27.89116,27.89116,0,0,0,881.03573,685.088Z" fill="#2f170b"/><path d="M831.71591,768.608a13.70723,13.70723,0,0,0-3.6128-8.4209c-1.27539,6.96045-2.87451,15.43066-3.66015,21.49365A14.55911,14.55911,0,0,0,831.71591,768.608Z" fill="#2f170b"/><path d="M591.65614,549.49511a2.99952,2.99952,0,0,1-3-3c0-5.97168,3.69629-26.27832,20.11914-40.76953a2.99738,2.99738,0,0,1,4.23438.26562c1.0957,1.24219,3.88937-.05058,2.64621,1.0461-15.01758,13.251-20.99973,35.16777-20.99973,39.45781A2.99952,2.99952,0,0,1,591.65614,549.49511Z" fill="#2f170b"/></g></svg>