<svg xmlns="http://www.w3.org/2000/svg" viewBox="0 0 1109 792.52"><title>torso 7</title><g id="torso-24" data-name="torso"><path d="M574.48975,279.99979h0a23.64634,23.64634,0,0,1,23.64634,23.64634v.69855a0,0,0,0,1,0,0H550.84341a0,0,0,0,1,0,0v-.69854a23.64634,23.64634,0,0,1,23.64634-23.64634Z" transform="translate(-69.11908 326.38854) rotate(-30)" fill="#2f170b"/><path d="M602.60008,293.68646c-7.3476-4.00826-2.09555-7.33727-5.93558-13.00826a3.92392,3.92392,0,0,0-3.092-1.231c-1.9743.60278-2.07635,2.60425-3.84,2.88013a5.71181,5.71181,0,0,1-3.6-.84009c-3.77093-1.93726-3.73071-5.15454-5.87994-5.04-.94818.05054-2.44507,1.11426-5.4,3.24-2.80023,2.0144-2.85571,2.24658-3.6,2.40015-3.17957.65625-4.32-2.78916-7.59766-.94553-5.27693,2.96822-.7514,9.99753-3.44238,10.78537-1.24207.36377-1.655-.31665-2.64.12012-1.903.84375-2.63965,4.39282-2.16,7.2.47223,2.76367,2.64527,2.23155,2.723,4.94957.05292,1.85131-1.3636,3.36854-1.523,4.89052-.19134,1.82739,1.75671,4.69664,5.03088,8.24546Z" fill="#63ba08"/><circle cx="572.89062" cy="282.91634" r="2.95814" fill="#e23203"/><circle cx="561.01062" cy="296.50634" r="2.95814" fill="#e23203"/><circle cx="557.32062" cy="307.9856" r="2.95814" fill="#e23203"/><circle cx="587.02062" cy="282.4256" r="2.95814" fill="#e23203"/><circle cx="597.37062" cy="289.64614" r="2.95814" fill="#e23203"/><path d="M576.03548,282.79556h0a23.64634,23.64634,0,0,1,23.64634,23.64634v.69854a0,0,0,0,1,0,0H552.38914a0,0,0,0,1,0,0v-.69854A23.64634,23.64634,0,0,1,576.03548,282.79556Z" transform="translate(-70.30988 327.53597) rotate(-30)" fill="#ffc929"/><path d="M538.6598,365.47378s5.48486,51.29,33.76185,55.05654,28.77618-22.42987,16.93326-62.91793l-6.10722-28.05859s-1.5446-3.10442,2.95031-10.66694,10.75628-10.343-10.56434-30.7311c0,0-14.82711-6.118-4.69371,25.06754,0,0-3.99526,3.03031-2.52477,11.67459l-3.86,42.92743Z" fill="#ea9d7d"/><path d="M537.4547,433.07532h-87.5l18-127.5,17.71543-3.93308h0c6.72826,14.272,27.67663,15.25672,34.29444.93312v0l15.21408,4.86546a10.89009,10.89009,0,0,1,8.30134,11.154Z" fill="#e56c01"/><path d="M564.55518,367.82532l-12.25555-45.049a.97906.97906,0,0,0-.12973-.26445c-.821-1.18427-7.49946-10.57233-15.5004-14.4258a1.00535,1.00535,0,0,0-1.43955.93786l1.90475,58.8014,12.16018,40.05518a25.59289,25.59289,0,0,0,21.74864,18.01113h.00006a25.59288,25.59288,0,0,0,27.85668-30.36274l-11.46636-58.57-21.70142-.24Z" fill="#e56c01"/><polygon points="458.954 369.332 475.575 345.315 453.097 410.82 458.954 369.332" fill="#2f170b"/><polygon points="540.334 378.364 542.074 345.315 547.889 403.248 540.334 378.364" fill="#2f170b"/><path d="M474.61285,342.89587l-40.804,58.33093s36.5552,6.89443,40.76046,6.78333,26.34295.09111,30.35478.2055,6.21754,4.15936,2.5434,5.70463l-4.39869.33659s.69249.78977,5.91245,1.54912,10.80966,3.59728,5.64471,6.31007a44.29576,44.29576,0,0,1-10.99618-.528s11.624,1.84947,7.40053,7.22917-3.08746,5.08207-7.05922,5.49133-8.48318.64914-8.48318.64914,10.51094,5.2003,10.559,5.82869.44988,3.12589-4.84221,1.424-26.71687-11.861-30.18045-13.0708-9.59849-3.83043-56.60333-1.35727h0a22.20056,22.20056,0,0,1-18.86157-34.50857l44.92142-62.09611Z" fill="#ea9d7d"/><line x1="509.57448" y1="430.71838" x2="496.78482" y2="428.50265" fill="none" stroke="#2f170b" stroke-miterlimit="10"/><line x1="503.06881" y1="414.25685" x2="493.51555" y2="411.47641" fill="none" stroke="#2f170b" stroke-miterlimit="10"/><path d="M414.0147,363.67532l30.59815-42.48s9.96185-12.88,23.34185-15.62l7.62,39.74-38.3979,55.48355,36.39568,6-5.04,22.81165-62.81739-.957a19.77613,19.77613,0,0,1-15.71331-8.17085v0a19.77611,19.77611,0,0,1-.07512-23.10158Z" fill="#e56c01"/><line x1="567.66215" y1="331.17755" x2="584.03538" y2="333.1727" fill="none" stroke="#2f170b" stroke-linecap="round" stroke-linejoin="round" stroke-width="6"/><ellipse cx="581.98083" cy="332.60024" rx="5.45307" ry="6.69563" fill="#2f170b"/><path d="M411.16634,401.65023s10.84558-5.37951,26.01046-.85136l3.10935-4.49289S423.07153,392.0308,411.16634,401.65023Z" fill="#2f170b"/><polygon points="467.333 429.592 449.955 433.075 449.955 429.327 467.333 429.592" fill="#2f170b"/><circle cx="508.99521" cy="323.07087" r="5.94347" fill="#fff"/><circle cx="530.57816" cy="367.55978" r="5.94347" fill="#fff"/><circle cx="544.11136" cy="325.90461" r="5.94347" fill="#fff"/><circle cx="463.8448" cy="319.96114" r="5.94347" fill="#fff"/><circle cx="440.28615" cy="345.31532" r="5.94347" fill="#fff"/><circle cx="506.54925" cy="393.41641" r="5.94347" fill="#fff"/><circle cx="488.5708" cy="361.61631" r="5.94347" fill="#fff"/><circle cx="436.85092" cy="381.04243" r="5.94347" fill="#fff"/><circle cx="395.08101" cy="406.88478" r="5.94347" fill="#fff"/><circle cx="436.85092" cy="418.20998" r="5.94347" fill="#fff"/><circle cx="527.66772" cy="425.0391" r="5.94347" fill="#fff"/><circle cx="584.03538" cy="389.25068" r="5.94347" fill="#fff"/><circle cx="556.89465" cy="372.49736" r="5.94347" fill="#fff"/><circle cx="470.27914" cy="399.65023" r="5.94347" fill="#fff"/><path d="M567.26365,411.49681s-10.95117-6.61794-2.70847-43.67149l-2.5031-9.2009S549.84582,402.43023,567.26365,411.49681Z" fill="#2f170b"/><polygon points="473.572 406.799 455.609 393.022 454.117 403.592 473.572 406.799" fill="#2f170b"/></g></svg>