<svg xmlns="http://www.w3.org/2000/svg" viewBox="0 0 1109 792.52"><title>torso 30</title><g id="torso"><path d="M560.0469,364.1793l17.49722,39.82127,56.41345,8.14525s17.7989-15.98884,20.514-15.98884,7.54191,1.68367-3.62011,11.40051c0,0,1.67853,1.42073,7.02363,1.42073s25.85907-.60335,26.31159,1.05587,5.581,5.1285-22.324,5.73185c0,0-1.20671,2.56425,1.2067,2.56425s25.34081-.15084,23.07823,2.86592-5.581,2.41341-23.83242,2.71509c0,0-1.35754,1.96089-.45251,2.26257s22.62571.905,22.62571,2.71508,3.9218,4.07263-27.15085,2.56425c0,0-.45252,1.05587,2.71508,1.9609s17.04471,4.3743,13.42459,6.03352-4.07263.905-20.2123-3.46928l-17.7989-2.86592s-75.79615,1.81006-83.48889-3.62011-23.30449-64.257-23.30449-64.257Z" fill="#ea9d7d"/><polygon points="577.544 404.001 569.173 411.165 574.062 396.075 577.544 404.001" fill="#2f170b"/><path d="M650.85144,407.55749s-.67877,16.7308-16.06426,15.59951" fill="none" stroke="#2f170b" stroke-miterlimit="10" stroke-width="2"/><path d="M565.42,365.4583l-14.35507-45.049a.97935.97935,0,0,0-.12973-.26445c-.82118-1.18455-7.50271-10.57689-15.50623-14.42863a1.00431,1.00431,0,0,0-1.43373.9407L535.9,365.4583Z" fill="#4c69de"/><polygon points="539.654 365.458 540.839 342.948 546.352 365.458 539.654 365.458" fill="#2f170b"/><polygon points="563.398 359.114 536.883 359.114 536.883 363.114 564.673 363.114 563.398 359.114" fill="#fff"/><polygon points="560.466 349.913 537.367 349.913 537.367 353.913 561.741 353.913 560.466 349.913" fill="#fff"/><line x1="626.62095" y1="411.08653" x2="626.62095" y2="433.27001" fill="none" stroke="#2f170b" stroke-linecap="round" stroke-linejoin="round" stroke-width="6"/><path d="M368.91028,550.26864c0-11.93809,9.67774-31.41893,21.61583-31.41893h12.83416" fill="none" stroke="#2f170b" stroke-miterlimit="10" stroke-width="3"/><path d="M390.58111,497.23307c.47851-7.50393,4.7164-99.35257,8.74183-107.49818s31.08568-50.00609,31.08568-50.00609l37.43692,7.9184L432.66575,406.101l-21.97926,93.60587.26833-.02442s14.76517,18.8264,14.584,21.53543-2.18331,7.41271-11.13345-4.373c0,0-.46663,1.25373.23673,6.55234.40609,3.0592-34.197,9.77043-28.75519-6.04129L389.9344,499.788Z" fill="#ea9d7d"/><path d="M421.71038,402.80311c9.91712.89146,10.95537,3.29788,10.95537,3.29788l-2.36936,10.09069Z" fill="#2f170b"/><path d="M539.65425,437.21659l-93.616-1.06771L466.72,303.2083l19.06121-3.63916c6.72826,14.272,27.51929,14.3236,34.13709,0l14.02566,5.50461a10.8901,10.8901,0,0,1,8.30134,11.154Z" fill="#4c69de"/><polygon points="456.249 370.437 474.34 342.948 449.937 411.087 456.249 370.437" fill="#2f170b"/><path d="M412.78,361.3083l30.59815-42.48s9.96185-12.88,23.34185-15.62l7.62,39.74-27.72,42.12Z" fill="#4c69de"/><line x1="416.71529" y1="355.84492" x2="450.26512" y2="379.52968" fill="none" stroke="#fff" stroke-miterlimit="10" stroke-width="4"/><line x1="422.24311" y1="348.17055" x2="456.24913" y2="370.4371" fill="none" stroke="#fff" stroke-miterlimit="10" stroke-width="4"/><path d="M414.36117,518.84971h4.2214c11.9381,0,21.61583,19.48084,21.61583,31.41893" fill="none" stroke="#2f170b" stroke-miterlimit="10" stroke-width="3"/><path d="M324.61989,546.61175h159.8689a0,0,0,0,1,0,0v57.99092a51.878,51.878,0,0,1-51.878,51.878H376.49788a51.878,51.878,0,0,1-51.878-51.878V546.61175A0,0,0,0,1,324.61989,546.61175Z" fill="#ffc929"/><path d="M349.48173,648.89606a51.632,51.632,0,0,0,27.0162,7.58459h56.11291a51.878,51.878,0,0,0,51.87792-51.878V546.61173S463.26922,669.89134,349.48173,648.89606Z" fill="#2f170b"/></g></svg>