<svg xmlns="http://www.w3.org/2000/svg" viewBox="0 0 1109 792.52"><title>torso 17</title><g id="torso-14" data-name="torso"><path d="M560.11777,366.05806,577.615,405.87932l56.41345,8.14526s17.7989-15.98884,20.514-15.98884,7.5419,1.68367-3.62012,11.4005c0,0,1.67854,1.42074,7.02363,1.42074s25.11824-.18255,26.31159,1.05587c1.09013,1.13128,5.581,5.12849-22.324,5.73185,0,0-1.2067,2.56424,1.20671,2.56424s24.20837-.73169,23.07823,2.86593c-.96077,3.05846-5.581,2.41341-23.83242,2.71508,0,0-1.35754,1.9609-.45252,2.26258s21.71594,1.15028,22.62572,2.71508c.96845,1.66572,5.21411,4.13409-25.85854,2.62571,0,0-1.74483.99441,1.42277,1.89943s17.0447,4.37431,13.42459,6.03353-4.07263.905-20.21231-3.46928l-17.79889-2.86592s-75.79615,1.81006-83.4889-3.62012-23.30449-64.257-23.30449-64.257Z" fill="#ea9d7d"/><path d="M650.92231,409.43624s-.67877,16.73081-16.06426,15.59952" fill="none" stroke="#2f170b" stroke-miterlimit="10" stroke-width="2"/><line x1="627.23794" y1="413.04413" x2="627.23794" y2="435.14101" fill="none" stroke="#2f170b" stroke-linecap="round" stroke-linejoin="round" stroke-width="6"/><path d="M574.5186,398.83236l-23.25575-77.54847-.12643-.25722c-.81148-1.171-7.49458-10.572-15.50244-14.42883a1.00535,1.00535,0,0,0-1.43959.93782l1.90474,58.8014,1.2575,44.1061a26.92841,26.92841,0,0,0,27.56847,26.1531l57.79351.008V408.43061Z" fill="#ffc929"/><polygon points="581.985 400.319 569.243 413.044 574.519 398.832 581.985 400.319" fill="#2f170b"/><path d="M548.78151,431.70116l-7.74341-87.874-3.58832,68.17725A26.88971,26.88971,0,0,0,548.78151,431.70116Z" fill="#2f170b"/><path d="M537.44978,431.52244H449.08292l18-127.5,19.01573-5.65917c6.72826,14.272,27.20662,16.98277,33.82443,2.65917h0l14.3838,4.86545a10.89009,10.89009,0,0,1,8.30134,11.154Z" fill="#ffc929"/><polygon points="457.859 369.356 474.703 343.762 452.225 409.267 457.859 369.356" fill="#2f170b"/><polygon points="493.337 422.526 455.405 386.739 453.587 399.622 493.337 422.526" fill="#2f170b"/><rect x="696.04011" y="308.44713" width="181.86024" height="126.2074" fill="#fff"/><rect x="696.04011" y="308.44713" width="181.86024" height="126.2074" stroke-width="6" stroke="#2f170b" stroke-linecap="round" stroke-linejoin="round" fill="none"/><rect x="825.28235" y="326.83081" width="37.99549" height="17.73123" fill="#ffc929"/><path d="M863.27808,358.03665H825.282a1.5,1.5,0,0,1,0-3h37.99609a1.5,1.5,0,0,1,0,3Z" fill="#e23203"/><path d="M863.27808,370.01029H825.282a1.5,1.5,0,0,1,0-3h37.99609a1.5,1.5,0,0,1,0,3Z" fill="#e23203"/><path d="M863.27808,381.98489H825.282a1.5,1.5,0,0,1,0-3h37.99609a1.5,1.5,0,0,1,0,3Z" fill="#e23203"/><path d="M863.27808,393.9595H825.282a1.5,1.5,0,0,1,0-3h37.99609a1.5,1.5,0,0,1,0,3Z" fill="#e23203"/><path d="M863.27808,405.93411H825.282a1.5,1.5,0,0,1,0-3h37.99609a1.5,1.5,0,0,1,0,3Z" fill="#e23203"/><path d="M863.27808,417.90775H825.282a1.5,1.5,0,0,1,0-3h37.99609a1.5,1.5,0,0,1,0,3Z" fill="#e23203"/><polygon points="720.015 418.596 717.775 416.6 739.084 392.687 771.159 399.738 782.757 370.075 782.916 369.885 811.239 336.265 813.534 338.199 785.37 371.629 773.018 403.218 740.156 395.994 720.015 418.596" fill="#e23203"/><circle cx="718.89498" cy="417.59781" r="4.49038" fill="#e23203"/><circle cx="739.61979" cy="394.33997" r="4.49038" fill="#e23203"/><circle cx="771.97353" cy="401.47851" r="4.49038" fill="#e23203"/><circle cx="784.063" cy="371.19726" r="4.49038" fill="#e23203"/><circle cx="812.38691" cy="337.23159" r="4.49038" fill="#e23203"/><circle cx="735.89685" cy="349.93528" r="27.90182" fill="#ffc929"/><path d="M748.24439,357.10648c.07178-4.75635-3.45947-7.334-6.49267-8.13941l.00146-.09619c3.39844-1.18628,5.48584-3.86548,5.53223-6.96a6.72845,6.72845,0,0,0-2.58155-5.7019,9.25668,9.25668,0,0,0-3.17578-1.69336l.0918-6.12744-4-.06055-.08252,5.4873c-.5083-.03442-1.03711-.0581-1.59814-.06665-.03565-.00049-.07129.00025-.10743-.00024l.082-5.44483-4-.06054-.08448,5.627c-1.0498.07764-2.01074.187-2.8247.31689l-5.36914.03174.02343,4,4.64649-.02734-.35742,23.74072-4.7295.02783.02344,4,5.26367-.031c.76856.10205,1.71826.2,2.8374.27319l-.07959,5.29688,4,.06054.07911-5.24951q.88623-.00988,1.707-.06128l-.08008,5.33618,4,.06055.08984-5.981a10.37093,10.37093,0,0,0,4.37891-2.177A8.64682,8.64682,0,0,0,748.24439,357.10648Zm-12.11767-20.16724c4.18945.063,7.01953,1.57861,6.96289,5.33667-.04639,3.09448-2.648,5.33789-7.02588,5.272l-3.7583-.05664.15527-10.32177A17.77758,17.77758,0,0,1,736.12672,336.93924Zm-.58252,26.16357a22.07668,22.07668,0,0,1-3.46973-.24462l.18408-12.22583,3.42578.05151c4.51758.06811,8.252,1.93237,8.186,6.3103C743.80006,361.65433,739.82642,363.167,735.5442,363.10281Z" fill="#2f170b"/><path d="M484.844,443.51152s18.22417,20.03258,28.70309,14.43481a24.70244,24.70244,0,0,0,5.29405-6.0395,28.87547,28.87547,0,0,0,10.71437,1.65657c6.7667-.04532,17.27947-.12508,13.99868-4.55008s-11.202-1.46646-16.77859-4.13218a76.07518,76.07518,0,0,1-11.747-7.51979s10.46392,3.7852,11.92685,3.21486,3.31875-2.46059-4.1004-7.3032-8.79881-4.39115-17.77683-6.24932-6.64781.12861-13.592-2.60891S411.83674,413.04413,484.844,443.51152Z" fill="#ea9d7d"/><path d="M413.14292,362.12244l30.59815-42.48s9.96185-12.88,23.34185-15.62l7.62,39.74-32.4603,49.3228L493.33739,422.526l-7.68,23.41835-75.86568-30.35056a23.15283,23.15283,0,0,1-10.06379-35.19769Z" fill="#ffc929"/><polygon points="442.243 393.085 427.547 397.206 446.419 386.739 442.243 393.085" fill="#2f170b"/></g></svg>