<svg xmlns="http://www.w3.org/2000/svg" viewBox="0 0 1109 792.52"><title>torso 9</title><g id="torso-22" data-name="torso"><path d="M338.94876,573.19951h159.8689a0,0,0,0,1,0,0v57.99092a51.878,51.878,0,0,1-51.878,51.878H390.82675a51.878,51.878,0,0,1-51.878-51.878V573.19951A0,0,0,0,1,338.94876,573.19951Z" fill="#4c69de"/><path d="M427.25392,541.43748h5.65752c11.9381,0,21.61583,19.48083,21.61583,31.41892" fill="none" stroke="#2f170b" stroke-miterlimit="10" stroke-width="3"/><path d="M383.23915,572.8564c0-11.93809,9.67774-31.41892,21.61583-31.41892h12.83417" fill="none" stroke="#2f170b" stroke-miterlimit="10" stroke-width="3"/><circle cx="358.85076" cy="583.75152" r="6.95984" fill="#ffc929"/><circle cx="370.85076" cy="600.07152" r="6.95984" fill="#ffc929"/><circle cx="347.49076" cy="600.07152" r="6.95984" fill="#ffc929"/><circle cx="394.23915" cy="600.07152" r="6.95984" fill="#ffc929"/><circle cx="418.15884" cy="600.07152" r="6.95984" fill="#ffc929"/><circle cx="442.07853" cy="600.07152" r="6.95984" fill="#ffc929"/><circle cx="465.46692" cy="600.07152" r="6.95984" fill="#ffc929"/><circle cx="489.38661" cy="600.07152" r="6.95984" fill="#ffc929"/><circle cx="382.77045" cy="583.75152" r="6.95984" fill="#ffc929"/><circle cx="406.69013" cy="583.75152" r="6.95984" fill="#ffc929"/><circle cx="430.88321" cy="583.75152" r="6.95984" fill="#ffc929"/><circle cx="454.8029" cy="583.75152" r="6.95984" fill="#ffc929"/><circle cx="478.72259" cy="583.75152" r="6.95984" fill="#ffc929"/><circle cx="358.85076" cy="616.87152" r="6.95984" fill="#ffc929"/><circle cx="370.85076" cy="633.19152" r="6.95984" fill="#ffc929"/><circle cx="347.49076" cy="633.19152" r="6.95984" fill="#ffc929"/><circle cx="394.23915" cy="633.19152" r="6.95984" fill="#ffc929"/><circle cx="418.15884" cy="633.19152" r="6.95984" fill="#ffc929"/><circle cx="442.07853" cy="633.19152" r="6.95984" fill="#ffc929"/><circle cx="465.46692" cy="633.19152" r="6.95984" fill="#ffc929"/><circle cx="489.38661" cy="633.19152" r="6.95984" fill="#ffc929"/><circle cx="382.77045" cy="616.87152" r="6.95984" fill="#ffc929"/><circle cx="406.69013" cy="616.87152" r="6.95984" fill="#ffc929"/><circle cx="430.88321" cy="616.87152" r="6.95984" fill="#ffc929"/><circle cx="454.8029" cy="616.87152" r="6.95984" fill="#ffc929"/><circle cx="478.72259" cy="616.87152" r="6.95984" fill="#ffc929"/><circle cx="358.85076" cy="649.27152" r="6.95984" fill="#ffc929"/><circle cx="370.85076" cy="665.59152" r="6.95984" fill="#ffc929"/><path d="M346.82736,658.66509a52.09719,52.09719,0,0,0,7.25567,9.14527,6.94867,6.94867,0,0,0-6.59228-9.17871C347.26681,658.63165,347.04592,658.64447,346.82736,658.66509Z" fill="#ffc929"/><circle cx="394.23915" cy="665.59152" r="6.95984" fill="#ffc929"/><circle cx="418.15884" cy="665.59152" r="6.95984" fill="#ffc929"/><circle cx="442.07853" cy="665.59152" r="6.95984" fill="#ffc929"/><circle cx="465.46692" cy="665.59152" r="6.95984" fill="#ffc929"/><circle cx="382.77045" cy="649.27152" r="6.95984" fill="#ffc929"/><circle cx="406.69013" cy="649.27152" r="6.95984" fill="#ffc929"/><circle cx="430.88321" cy="649.27152" r="6.95984" fill="#ffc929"/><circle cx="454.8029" cy="649.27152" r="6.95984" fill="#ffc929"/><circle cx="478.72259" cy="649.27152" r="6.95984" fill="#ffc929"/><path d="M363.8106,675.48382a51.632,51.632,0,0,0,27.0162,7.58459h56.11291a51.878,51.878,0,0,0,51.87792-51.878V573.19949S477.59809,696.4791,363.8106,675.48382Z" fill="#2f170b"/><path d="M462.3393,372.2988s-24.705,62.01134-25.90824,72.13657-6.824,81.9833-6.824,81.9833,11.22225,22.89681.73557,22.4613c0,0-.62549,12.08539-19.43018,6.60818s-.94133-23.45853-.59292-31.84787-5.83527-68.04751-4.4085-82.1913,8.307-59.446,37.587-97.606Z" fill="#ea9d7d"/><path d="M436.281,446.82815c.061-.58765.11646-1.09668.16406-1.4983a28.524,28.524,0,0,1,1.73213-7.85622c-1.32275-.7688-3.45747-1.45457-9.15644-1.967Z" fill="#2f170b"/><path d="M564.85263,370.72119s17.76531,48.80837,22.89711,59.072,44.29554,81.29852,44.29554,81.29852,24.71367,14.58512,14.58511,20.66225c0,0,6.88742,11.74912-14.18,18.2314S617.055,528.51279,612.19331,520.41s-47.57724-60.36618-54.98456-74.54615-30.50043-41.70713-15.51017-75.14261Z" fill="#ea9d7d"/><path d="M584.876,422.7109s-8.47024,6.06941-11.17119,10.72854l13.256-5.36427Z" fill="#2f170b"/><path d="M636.80573,530.741a8.069,8.069,0,0,1-.98169-.18946,4.74546,4.74546,0,0,0-.86481-.17236.46911.46911,0,0,0-.50592.28809,1.90168,1.90168,0,0,0-.12891.801,13.93353,13.93353,0,0,0,.84412,3.708c.40649,1.23169.87726,2.44873,1.37982,3.65308.49341,1.20654,1.00391,2.41626,1.55084,3.5935l.00873.019a.49647.49647,0,0,1-.8584.49122l-.02093-.03a38.44164,38.44164,0,0,0-4.20172-5.05079,18.10733,18.10733,0,0,0-2.44776-2.06l-.65472-.41114-.66876-.33618a2.85475,2.85475,0,0,0-1.03553-.29419c.01081.001.09479-.05762.03943.02686a1.56569,1.56569,0,0,0-.061.49634,7.28909,7.28909,0,0,0,.18432,1.45043,29.13406,29.13406,0,0,0,.90564,3.08521c.725,2.0542,1.55518,4.11621,2.39032,6.1394l.00012.00025a.95589.95589,0,0,1-1.675.905,39.83233,39.83233,0,0,0-3.87574-5.03687,18.219,18.219,0,0,0-2.26275-2.13525,9.19442,9.19442,0,0,0-1.24726-.81226,3.41655,3.41655,0,0,0-.6452-.29638l-.31915-.125c-.07361-.00782-.17011-.04615-.22284-.04468-.12866-.00635-.105.0039-.13165-.00611a.70765.70765,0,0,0-.148.31934,4.51889,4.51889,0,0,0-.05115,1.386,19.6582,19.6582,0,0,0,.571,3.10449c.2627,1.04053.57459,2.07642.90955,3.1062a10.80557,10.80557,0,0,1,.67175,3.23877,8.246,8.246,0,0,1-1.70142-2.86816c-.40246-1.02588-.78338-2.06275-1.11932-3.12305a20.95513,20.95513,0,0,1-.80591-3.2937,5.92983,5.92983,0,0,1-.0213-1.87622,2.25558,2.25558,0,0,1,.53955-1.14283,1.80854,1.80854,0,0,1,1.3692-.51513,3.559,3.559,0,0,1,.583.08838c.16327.04638.29968.10132.45081.15258a4.90444,4.90444,0,0,1,.853.35743,10.94785,10.94785,0,0,1,1.52582.9226,19.9946,19.9946,0,0,1,2.57446,2.27173,34.38863,34.38863,0,0,1,4.12354,5.321l-1.675.905-.00012-.00025a46.844,46.844,0,0,1-2.57935-6.29907,23.73728,23.73728,0,0,1-.8714-3.36963,8.96689,8.96689,0,0,1-.14807-1.87549,3.168,3.168,0,0,1,.2392-1.14062,1.86179,1.86179,0,0,1,.44733-.644,1.65894,1.65894,0,0,1,.77752-.40625,2.42925,2.42925,0,0,1,1.27973.115c.29669.11938.60718.22412.88757.36254l.80975.45044.7389.51807A19.616,19.616,0,0,1,634.076,536.854a35.43437,35.43437,0,0,1,3.99811,5.52344l-.87934.46094.00513.011a54.12984,54.12984,0,0,1-2.909-7.39746,14.20239,14.20239,0,0,1-.6947-3.998,2.52682,2.52682,0,0,1,.26062-1.11109,1.13822,1.13822,0,0,1,1.12341-.593,2.68773,2.68773,0,0,1,1.82551.99121Z" fill="#2f170b"/><path d="M647.0495,531.42141a31.14134,31.14134,0,0,1-5.66473,3.73584,20.99273,20.99273,0,0,1-3.18995,1.36572,7.99329,7.99329,0,0,1-1.84838.37866,3.38036,3.38036,0,0,1-.54993.00073,2.38356,2.38356,0,0,1-.63471-.11328,1.92686,1.92686,0,0,1-.71911-.39429,1.76225,1.76225,0,0,1-.51392-.7749,2.52834,2.52834,0,0,1-.00812-1.34326c.09192-.31152.169-.637.28211-.93359l.37738-.86035c.1499-.2649.29321-.5337.45294-.79224a16.65722,16.65722,0,0,1,2.22687-2.71826,22.58444,22.58444,0,0,1,5.4906-4.03443c-1.5011,1.69849-2.98816,3.34693-4.31928,5.06592a22.25,22.25,0,0,0-1.76672,2.64844c-.10785.23169-.232.45312-.34967.67822l-.27594.68164c-.07873.22656-.11761.45069-.18335.67407a.927.927,0,0,0-.02862.30762c-.01972-.0437-.12757-.13818-.05536-.08349a1.31046,1.31046,0,0,0,.47241.042,8.05884,8.05884,0,0,0,1.43542-.24585c1.01923-.23609,2.04352-.62183,3.08313-.97363C642.83112,532.98293,644.90393,532.15773,647.0495,531.42141Z" fill="#2f170b"/><path d="M620.30646,524.93776a9.98577,9.98577,0,0,0,1.99914,1.27369,16.421,16.421,0,0,0,2.10584.89526,24.22626,24.22626,0,0,0,4.427,1.04907c1.50525.25659,3.04651.37427,4.60846.51953.78235.02124,1.572.10108,2.36926.156.79791.04614,1.60083.08618,2.42707.21435a23.25575,23.25575,0,0,1-2.34144.76392c-.79736.17651-1.60778.31274-2.42254.426a18.8733,18.8733,0,0,1-4.957-.10547,13.61576,13.61576,0,0,1-4.76282-1.61206c-.36548-.21436-.72339-.447-1.06824-.68848a12.57773,12.57773,0,0,1-.96362-.83081A5.797,5.797,0,0,1,620.30646,524.93776Z" fill="#2f170b"/><line x1="610.04559" y1="517.25378" x2="628.1066" y2="503.94059" fill="none" stroke="#2f170b" stroke-linecap="round" stroke-linejoin="round" stroke-width="6"/><path d="M519.89287,302.59606l7.6527,1.05987a32.03977,32.03977,0,0,1,24.96528,17.96884l14.40747,57.3139-25.37874,2.7043s-.92856,21.97606-11.76183,25.3808l7.73254,32.52429s-73.66074,8.64215-87.58923,7.09454l8.97614-65.30916h-35.595l15.50529-58.44039a35.38551,35.38551,0,0,1,34.28343-22.28029l12.50368.439s.90877,12.53279,15.03205,13.89917C514.92069,316.33381,519.89287,302.59606,519.89287,302.59606Z" fill="#ea9d7d"/><path d="M519.89287,302.59606l7.6527,1.05987,13.994,77.987s-.92856,21.97606-11.76183,25.3808l7.73254,32.52429s-73.66074,8.64215-87.58923,7.09454l8.97614-65.30916,7.39175-80.96717,19.30561.68548s.90877,12.53279,15.03205,13.89917C514.92069,316.33381,519.89287,302.59606,519.89287,302.59606Z" fill="#4c69de"/><path d="M458.8972,381.33344l3.56469-33.103s-5.42183,55.079,12.84,61.26948,54.47588-2.47618,54.47588-2.47618l15.577,32.06266s-92.65239,10.72745-105.34279,7.94176Z" fill="#2f170b"/><path d="M527.54557,303.65593s16.18221.84193,24.96528,17.96884,22.70307,45.20691,31.34307,47.84691c0,0-.27119,6.48-16.9356,5.76s-25.37874,6.41129-25.37874,6.41129l-7.7803-43.35873L513.76,325Z" fill="#4c69de"/><path d="M549.01774,377.7835l.00146-.009c1.40534-10.17737-7.47961-21.02283-7.47961-21.02283,1.60565,14.88,0,24.89124,0,24.89124A28.03915,28.03915,0,0,1,549.01774,377.7835Z" fill="#2f170b"/><path d="M466.289,300.36627s-19.408,1.14814-27.4815,22.52678-13.83353,47.65863-25.71353,55.21863c0,0,11.3857,7.2,26.57285,1.8s19.55165-2.09678,19.55165-2.09678L464.68,328.96l21.84-1.32Z" fill="#4c69de"/></g></svg>