<svg xmlns="http://www.w3.org/2000/svg" viewBox="0 0 1109 792.52"><title>torso 12</title><g id="torso-19" data-name="torso"><path d="M251.74817,549.92391h89.78376a0,0,0,0,1,0,0V759.06252a21,21,0,0,1-21,21H251.74817a21,21,0,0,1-21-21V570.92391a21,21,0,0,1,21-21Z" transform="translate(284.61089 -58.94723) rotate(23.16071)" fill="#4c69de"/><polygon points="382.326 580.984 410.986 514.835 399.466 510.945 372.727 576.878 382.326 580.984" fill="#4c69de"/><path d="M562.18946,365.44481s12.24,43.37,16.8,52.49,39.36,72.24,39.36,72.24,21.96,12.96,12.96,18.36c0,0,6.12,10.44-12.6,16.2s-13.68-19.08-18-26.28-42.27605-53.64-48.858-66.24-27.102-37.06-13.782-66.77Z" fill="#ea9d7d"/><path d="M446.46582,380.08582s-24.6279,43.27632-25.83111,53.40155-6.824,81.98329-6.824,81.98329,11.22225,22.89682.73557,22.46131c0,0-.62549,12.08539-19.43018,6.60818s-.94133-23.45853-.59292-31.84787-5.83527-68.04751-4.4085-82.1913.19114-32.89516,29.47114-71.05516Z" fill="#ea9d7d"/><path d="M420.47054,434.98573c.061-.58765.11646-1.09668.16407-1.4983a34.21853,34.21853,0,0,1,2.35644-7.531c-1.32275-.7688-4.08179-1.77979-9.78076-2.29224Z" fill="#2f170b"/><path d="M576.43593,411.64167s-7.52647,5.39314-9.92647,9.53314l11.779-4.76657Z" fill="#2f170b"/><path d="M626.33946,510.94481a34.31153,34.31153,0,0,1,2.91,3.89" fill="none" stroke="#2f170b" stroke-miterlimit="10"/><path d="M622.57935,507.63479a5.92458,5.92458,0,0,1-.88282-.14185,4.54743,4.54743,0,0,0-.759-.14478.38021.38021,0,0,0-.415.239,1.66166,1.66166,0,0,0-.10718.69458,12.38313,12.38313,0,0,0,.7583,3.27856c.73291,2.18115,1.66919,4.32031,2.60547,6.43091l.0083.01856a.49632.49632,0,0,1-.85669.49316l-.02246-.032a34.37893,34.37893,0,0,0-3.74487-4.46167,16.008,16.008,0,0,0-2.16968-1.81226l-.57715-.35913-.58642-.29248a2.674,2.674,0,0,0-.85694-.251c.04273-.00439.14893-.08984.10547-.0332a1.36968,1.36968,0,0,0-.04443.40527,6.45234,6.45234,0,0,0,.16577,1.2649,26.37479,26.37479,0,0,0,.80689,2.72558c.64331,1.81909,1.38379,3.64868,2.11328,5.44629l.00024.00025.00635.01586a.9559.9559,0,0,1-1.6814.88916,35.8001,35.8001,0,0,0-3.43017-4.45947,16.09294,16.09294,0,0,0-1.99317-1.88989,8.10379,8.10379,0,0,0-1.09277-.71558,2.95654,2.95654,0,0,0-.56177-.26l-.27637-.10962c-.05859-.00537-.14038-.03881-.178-.03711-.09815-.00415-.04346-.00341-.04786-.03442a.51122.51122,0,0,0-.10986.23779,3.90711,3.90711,0,0,0-.04932,1.20435,17.34947,17.34947,0,0,0,.49415,2.748c.22949.92334.50268,1.84375.79663,2.759a8.49428,8.49428,0,0,1,.53955,2.89844,6.68256,6.68256,0,0,1-1.56934-2.52783c-.36133-.91138-.70361-1.83252-1.00635-2.77588a18.63412,18.63412,0,0,1-.729-2.9375,5.32665,5.32665,0,0,1-.02319-1.69434,2.08549,2.08549,0,0,1,.50146-1.06128,1.69876,1.69876,0,0,1,1.2854-.48706,3.2838,3.2838,0,0,1,.53833.08106c.14868.042.271.09082.40772.1372a4.4357,4.4357,0,0,1,.76953.32105,9.82046,9.82046,0,0,1,1.37134.82592,17.85714,17.85714,0,0,1,2.30493,2.02613,30.32974,30.32974,0,0,1,3.678,4.74414l-1.67505.90478a39.96584,39.96584,0,0,1-2.30249-5.6062,20.92529,20.92529,0,0,1-.77246-3.01,8.09392,8.09392,0,0,1-.12964-1.69018,2.9224,2.9224,0,0,1,.22265-1.04932,1.75729,1.75729,0,0,1,.42188-.60571,1.57485,1.57485,0,0,1,.73681-.38477,2.24823,2.24823,0,0,1,1.18824.106c.26782.10767.54834.20337.80078.32861l.72729.40674.66114.46631a17.49318,17.49318,0,0,1,2.26806,2.14307,31.32863,31.32863,0,0,1,3.54126,4.93432l-.87939.46094.00537.01147a46.6431,46.6431,0,0,1-2.58374-6.58154,12.659,12.659,0,0,1-.60889-3.56885,2.28241,2.28241,0,0,1,.239-1.00439,1.04823,1.04823,0,0,1,1.03247-.54395,2.19156,2.19156,0,0,1,.92749.2959A2.10184,2.10184,0,0,1,622.57935,507.63479Z" fill="#2f170b"/><path d="M631.68188,508.23928a26.01253,26.01253,0,0,1-4.999,3.39917,18.25249,18.25249,0,0,1-2.84033,1.23535,7.27816,7.27816,0,0,1-1.6648.35376,2.868,2.868,0,0,1-1.09472-.10816,1.83318,1.83318,0,0,1-.679-.37573,1.67769,1.67769,0,0,1-.48706-.73877,2.37086,2.37086,0,0,1-.0144-1.25219c.08179-.28248.14966-.57862.25171-.84668l.34692-.77295.41235-.70826a14.58109,14.58109,0,0,1,2.0044-2.41919,19.19527,19.19527,0,0,1,4.94409-3.52758c-1.30518,1.54541-2.60718,3.02612-3.773,4.55883a20.26624,20.26624,0,0,0-1.54419,2.34961c-.09375.20386-.19971.39991-.301.59815l-.23365.59765c-.06836.19654-.10327.38892-.16186.58179-.04688.17945-.01563.25537-.03247.2146a.43926.43926,0,0,0-.11963-.1499,1.13964,1.13964,0,0,0,.37793.0293,6.79807,6.79807,0,0,0,1.25293-.20093c.89966-.20191,1.8081-.541,2.73364-.84351C627.90161,509.56423,629.75293,508.85329,631.68188,508.23928Z" fill="#2f170b"/><path d="M607.9187,502.47805a9.27936,9.27936,0,0,0,1.80859,1.08813,15.38681,15.38681,0,0,0,1.87525.7605,22.9537,22.9537,0,0,0,3.915.90088c1.32934.22607,2.69165.33935,4.07544.48486.69336.02637,1.394.10913,2.10229.1709a20.14322,20.14322,0,0,1,2.16138.24512,18.56307,18.56307,0,0,1-2.07568.73315c-.7085.16968-1.42969.30274-2.15552.41113a16.16276,16.16276,0,0,1-4.42407-.0708,11.85821,11.85821,0,0,1-4.251-1.46386c-.32495-.19556-.644-.40625-.94922-.62744a11.11212,11.11212,0,0,1-.852-.75733A5.04508,5.04508,0,0,1,607.9187,502.47805Z" fill="#2f170b"/><path d="M537.84,431.92H449.15019l18-128.72519,18.82527-3.54908c6.72825,14.272,27.32982,14.78694,33.94762.46334h0l14.45106,4.95119a10.89009,10.89009,0,0,1,8.30134,11.154Z" fill="#ffc929"/><path d="M565.85019,365.44481l-14.35508-45.049a.97906.97906,0,0,0-.12973-.26445c-.82117-1.18456-7.50271-10.57689-15.50623-14.42864a1.00432,1.00432,0,0,0-1.43373.9407l1.90477,58.80141Z" fill="#ffc929"/><polygon points="457.927 368.528 474.77 342.935 452.292 408.44 457.927 368.528" fill="#2f170b"/><polygon points="540.084 365.445 541.269 342.935 546.782 365.445 540.084 365.445" fill="#2f170b"/><path d="M413.21019,361.29481l30.59814-42.48s9.96186-12.88,23.34186-15.62l7.62,39.74-27.72,42.12Z" fill="#ffc929"/><line x1="600.70946" y1="498.45481" x2="615.88771" y2="485.70609" fill="none" stroke="#2f170b" stroke-linecap="round" stroke-linejoin="round" stroke-width="6"/><circle cx="288.42582" cy="767.73481" r="24.84" fill="#2f170b"/><circle cx="288.42582" cy="767.73481" r="15.04898" fill="#4c69de"/><circle cx="288.42582" cy="767.73481" r="7.48898" fill="#2f170b"/><line x1="239.9382" y1="770.38481" x2="328.71077" y2="558.04827" fill="none" stroke="#fff" stroke-miterlimit="10" stroke-width="4"/></g></svg>