<svg xmlns="http://www.w3.org/2000/svg" viewBox="0 0 1109 792.52"><title>torso 21</title><g id="torso-10" data-name="torso"><rect x="639.69532" y="376.67486" width="45.70301" height="48.24" rx="2" fill="#4c69de"/><rect x="658.76682" y="376.67486" width="7.56" height="47.85908" fill="#e23203"/><rect x="658.76682" y="377.94336" width="7.56" height="45.70301" transform="translate(1063.34169 -261.75196) rotate(90)" fill="#e23203"/><path d="M676.17322,362.31158c-1.64978-1.77612-6.75635.28491-11.40582,4.60352a14.9596,14.9596,0,0,0-2.08075,2.41968,14.69336,14.69336,0,0,0-2.19605-2.59656c-4.64947-4.31873-9.79285-6.34021-11.488-4.51514s.69983,6.80554,5.34931,11.12415a16.036,16.036,0,0,0,5.2514,3.16284c-.199.88183-.26739,1.44067-.26739,1.44067a19.766,19.766,0,0,0,3.34143-.52832,19.18118,19.18118,0,0,0,3.16253.43994s-.05761-.52758-.23144-1.36523a16.36124,16.36124,0,0,0,5.1333-3.1499C675.39124,369.02862,677.823,364.08771,676.17322,362.31158Z" fill="none" stroke="#e23203" stroke-linecap="round" stroke-linejoin="round" stroke-width="3"/><path d="M641.24,388.72c12.72,6.12,18.36333-12.20993,18.36333-12.20993" fill="none" stroke="#e23203" stroke-linecap="round" stroke-linejoin="round" stroke-width="3"/><path d="M665.60846,376.49713S668.6,388.96,682.88,389.2" fill="none" stroke="#e23203" stroke-linecap="round" stroke-linejoin="round" stroke-width="3"/><path d="M679.38162,420.64508c-21.03984,3.17276-31.48645-.485-36.18005-3.3713a28.38829,28.38829,0,0,0-10.82706-3.88949l-48.92234-7.06343L565.9551,366.49957l-31.37439,1.05567s15.6117,58.82666,23.30457,64.25732c6.46814,4.56543,61.07776,4.01269,78.30151,3.7207l-.00854.04932,5.1958-.1499c34.17578,3.67724,41.61181-1.15723,47.85449-4.769C695.47121,427.05231,695.58032,418.20235,679.38162,420.64508Z" fill="#ea9d7d"/><polygon points="583.452 406.321 575.081 413.486 580.356 399.274 583.452 406.321" fill="#2f170b"/><line x1="633.0752" y1="413.48551" x2="633.0752" y2="435.58239" fill="none" stroke="#2f170b" stroke-linecap="round" stroke-linejoin="round" stroke-width="6"/><path d="M519.92308,302.455l8.27631,1.20093a32.03977,32.03977,0,0,1,24.96529,17.96884l14.40747,57.3139-25.37874,2.7043s-.92856,21.97606-11.76183,25.3808l7.73254,32.52429s-73.66074,8.64215-87.58923,7.09454l8.97614-65.30916H423.956l15.50529-58.44039a35.38551,35.38551,0,0,1,34.28342-22.28029l11.97574.48779s1.43671,12.484,15.56,13.85037C515.57452,316.33381,519.92308,302.455,519.92308,302.455Z" fill="#ea9d7d"/><path d="M519.92308,302.455l8.27631,1.20093,13.994,77.987s-.92856,21.97606-11.76183,25.3808l7.73254,32.52429s-73.66074,8.64215-87.58923,7.09454l8.97614-65.30916,7.39175-80.96717,18.77766.73428s1.43671,12.484,15.56,13.85037C515.57452,316.33381,519.92308,302.455,519.92308,302.455Z" fill="#63ba08"/><path d="M459.551,381.33344l3.56469-33.103s-5.42183,55.079,12.84,61.26948,54.47588-2.47618,54.47588-2.47618l14.18789,32.17238s-84.24618,10.44247-96.93658,7.65677Z" fill="#2f170b"/><path d="M459.87225,377.8149l-3.187,24.36984,27.9371-19.30369s.38691-23.94926,4.10117-25.69033,3.01784,15.0892,3.01784,15.0892,14.85706-27.50877,16.24991-28.08912,3.83033.11607,2.20534,5.91961-6.96424,17.29454-6.96424,17.29454L515.391,348.55341a3.085,3.085,0,0,1,2.05489-1.41666c.82665-.13409,1.75625.10777,2.17942,1.60346a3.116,3.116,0,0,1-.20494,2.14261L507.99123,375.646,519.084,361.83443a7.52285,7.52285,0,0,1,2.49218-2.05858c1.39285-.69085,3.03641-.91371,2.54891,2.28985-.81249,5.33925-13.23206,20.89273-13.23206,20.89273a59.68283,59.68283,0,0,0,8.00888-6.15175c5.152-5.1945,7.42853-5.10711,6.7321-1.85713s-6.84817,10.67851-25.07128,22.982l-61.54425,58.06658a17.74544,17.74544,0,0,1-14.73221,4.65335h0a17.4068,17.4068,0,0,1-9.74157-4.75777c-4.99125-4.92394-7.5139-11.58658-5.95912-18.81259l16.304-59.26623Z" fill="#ea9d7d"/><path d="M456.68521,402.18474S432.31309,412.67255,423.956,428.226" fill="none" stroke="#2f170b" stroke-miterlimit="10" stroke-width="2"/><path d="M531.96173,324.623l21.20295-2.99821,27.822,49.09642s-19.90481,19.39029-38.79325,10.92178l-16.43691-33.4125Z" fill="#63ba08"/><path d="M464.61491,325.86511l-25.15363-2.97206L410.765,380.99168s22.30949,13.31693,48.28638,3.10041l4.06439-35.86162L482.48,338.32Z" fill="#63ba08"/><path d="M549.72136,383.64166c-.07709-9.06372-7.528-20.29-7.528-20.29,2.18848,7.56006,0,18.29126,0,18.29126A24.23987,24.23987,0,0,0,549.72136,383.64166Z" fill="#2f170b"/></g></svg>