<svg xmlns="http://www.w3.org/2000/svg" viewBox="0 0 1109 792.52"><title>torso 13</title><g id="torso-18" data-name="torso"><path d="M559.93533,365.90108l17.49722,39.82126L631.8,431.15108s19.89857-6.50231,22.61366-6.50231,7.5419,1.68367-3.62012,11.4005c0,0,1.67854,1.42074,7.02363,1.42074s25.85908-.60336,26.3116,1.05586,5.581,5.1285-22.324,5.73185c0,0-1.20671,2.56425,1.2067,2.56425s25.3408-.15084,23.07823,2.86592-5.581,2.41341-23.83242,2.71509c0,0-1.35754,1.96089-.45251,2.26257s22.62571.905,22.62571,2.71509,3.92179,4.07262-27.15086,2.56424c0,0-.45251,1.05587,2.71509,1.9609s17.0447,4.3743,13.42459,6.03352-4.07263.905-20.21231-3.46927l-20.10847-7.5847s-73.54024-20.24118-81.233-25.67135-23.94506-65.3129-23.94506-65.3129Z" fill="#ea9d7d"/><path d="M647.679,432.21208s-.67877,16.73081-16.06426,15.59952" fill="none" stroke="#2f170b" stroke-miterlimit="10" stroke-width="2"/><polygon points="577.462 405.14 569.09 412.305 574.407 398.837 577.462 405.14" fill="#2f170b"/><path d="M537.54539,431.15108h-87.5l18-127.5,17.90339-5.39879c6.72826,14.272,27.48867,16.72243,34.10648,2.39883v0l15.21408,4.86545a10.8901,10.8901,0,0,1,8.30134,11.154Z" fill="#e23203"/><path d="M566.74539,365.90108l-14.35507-45.049a.97935.97935,0,0,0-.12973-.26445c-.82118-1.18455-7.50271-10.57689-15.50623-14.42863a1.00431,1.00431,0,0,0-1.43373.9407l1.90476,58.8014Z" fill="#e23203"/><polygon points="458.822 368.985 475.665 343.391 453.187 408.896 458.822 368.985" fill="#2f170b"/><polygon points="540.98 365.901 542.164 343.391 547.677 365.901 540.98 365.901" fill="#2f170b"/><path d="M476.94571,434.72781h0l-36.804-39.57776,7.91992-16.8-24.78-23.88-15.81909,26.00317c-3.4834,6.44043-6.501,18.27685.43531,25.3537L458.02164,454.01l22.5-11.34s9.18017,1.08,10.26-.18C491.86172,441.23007,491.1896,437.76553,476.94571,434.72781Z" fill="#ea9d7d"/><path d="M440.14175,395.15005s-8.1601-.6-12.4801,0c0,0,1.97061-2.73611,13.94531-3.108Z" fill="#2f170b"/><path d="M414.10539,361.75108l30.59815-42.48s9.96185-12.88,23.34185-15.62l7.62,39.74-27.72,42.12Z" fill="#e23203"/><rect x="642.55953" y="414.42504" width="36.74" height="63.6" rx="2" transform="translate(306.60155 -268.19522) rotate(29.595)" fill="#4c69de"/><rect x="645.12313" y="417.18504" width="31.61281" height="58.08" rx="1.77287" transform="translate(306.60155 -268.19522) rotate(29.595)" fill="#ffc929"/><circle cx="648.58782" cy="467.9548" r="2.36" fill="#2f170b"/><line x1="669.23182" y1="420.8555" x2="678.46631" y2="426.10036" fill="none" stroke="#2f170b" stroke-linecap="round" stroke-miterlimit="10" stroke-width="1.5"/><rect x="645.12313" y="417.18504" width="31.61281" height="58.08" rx="1.77287" transform="translate(306.60155 -268.19522) rotate(29.595)" fill="none" stroke="#2f170b" stroke-miterlimit="10" stroke-width="2"/><path d="M629.08021,431.435s22.12384-9.1093,24.68233-8.20055,6.54338,4.11087-7.22711,9.53129" fill="#ea9d7d"/><line x1="627.36" y1="429.88" x2="619.78968" y2="452.74004" fill="none" stroke="#2f170b" stroke-linecap="round" stroke-linejoin="round" stroke-width="6"/></g></svg>