<svg xmlns="http://www.w3.org/2000/svg" viewBox="0 0 1109 792.52"><title>torso 11</title><g id="torso-20" data-name="torso"><path d="M560.45445,365.99344l17.49722,39.82126L634.36512,413.96s17.7989-15.98884,20.514-15.98884,7.54191,1.68367-3.62011,11.4005c0,0,1.67854,1.42074,7.02363,1.42074s25.11823-.18255,26.31159,1.05586c1.09012,1.13129,5.581,5.1285-22.324,5.73185,0,0-1.2067,2.56425,1.20671,2.56425s24.20837-.73169,23.07823,2.86592c-.96078,3.05846-5.581,2.41341-23.83242,2.71509,0,0-1.35755,1.9609-.45252,2.26257s21.71594,1.15028,22.62572,2.71509c.96844,1.66571,5.2141,4.13409-25.85855,2.62571,0,0-1.74483.9944,1.42277,1.89943s17.04471,4.37431,13.4246,6.03353-4.07263.905-20.21231-3.46928l-17.7989-2.86592s-75.79615,1.81-83.48889-3.62012-23.30449-64.257-23.30449-64.257Z" fill="#ea9d7d"/><path d="M651.259,409.37162s-.67877,16.73081-16.06426,15.59952" fill="none"/><path d="M574.85528,398.76774l-23.25576-77.54848-.12642-.25722c-.81148-1.171-7.49459-10.572-15.50245-14.42882a1.00535,1.00535,0,0,0-1.43959.93781l1.90475,58.80141,1.25749,44.1061a26.9284,26.9284,0,0,0,27.56848,26.15309l57.79351.008V408.366Z" fill="#63ba08"/><polygon points="582.322 400.255 569.58 412.98 574.855 398.768 582.322 400.255" fill="#2f170b"/><path d="M549.11818,431.63653l-7.7434-87.874-3.58832,68.17725A26.88968,26.88968,0,0,0,549.11818,431.63653Z" fill="#2f170b"/><path d="M537.78646,431.52244H449.25581l18-127.5,18.36744-3.77269.15369.536c6.72826,14.272,27.543,14.58873,34.16083.26513h0l14.542,4.837a10.89009,10.89009,0,0,1,8.30134,11.154Z" fill="#63ba08"/><polygon points="484.657 385.699 461.921 381.516 461.921 381.516 474.876 343.763 458.33 367.25 455.392 388.057 455.392 388.057 455.392 388.057 452.398 409.267 459.676 388.057 459.85 388.057 484.657 385.699" fill="#2f170b"/><path d="M423.98372,348.98468s-32.536,43.44144-26.59584,58.7639,12.35722,21.57312,89.03748-1.90781c0,0,24.83368,10.80338,32.09773,1.4025a24.70238,24.70238,0,0,0,2.35362-7.67874,28.87565,28.87565,0,0,0,10.45206-2.88033c6.15366-2.81473,15.71019-7.19623,10.904-9.88783s-10.81894,3.2536-16.99818,3.10768a76.07543,76.07543,0,0,1-13.7971-2.04455s11.09605-.83605,12.19671-1.95589,2.0187-3.60464-6.73346-4.981-9.82557-.39912-18.77646,1.58567-6.01108,2.842-13.46719,3.19107-42.14592,4.00546-42.14592,4.00546l14.07142-24.14746Z" fill="#ea9d7d"/><path d="M443.914,319.64244s9.96186-12.88,23.34186-15.62l7.62,39.74-32.36465,45.94235,42.14592-4.00546-.22212,20.74861L423.75434,425.5822c-20.51684,6.46952-39.71223-17.5372-28.88738-36.128Z" fill="#63ba08"/><polygon points="442.511 389.705 429.135 391.645 447.084 383.213 442.511 389.705" fill="#2f170b"/><polygon points="451.322 416.889 484.435 406.448 449.256 431.522 451.322 416.889" fill="#2f170b"/><rect x="649.19423" y="386.04176" width="73.51687" height="73.51687" transform="translate(90.83838 -120.45854) rotate(10.74344)" fill="#ffc929"/><path d="M634.36512,413.96s17.7989-15.98884,20.514-15.98884,7.54191,1.68367-3.62011,11.4005" fill="#ea9d7d"/><line x1="667.18444" y1="394.83624" x2="713.51781" y2="403.62739" fill="none" stroke="#2f170b" stroke-miterlimit="10" stroke-width="2"/><line x1="665.90119" y1="401.59957" x2="712.23456" y2="410.39071" fill="none" stroke="#2f170b" stroke-miterlimit="10" stroke-width="2"/><line x1="664.66789" y1="408.09961" x2="711.00126" y2="416.89076" fill="none" stroke="#2f170b" stroke-miterlimit="10" stroke-width="2"/><line x1="663.38464" y1="414.86294" x2="709.71801" y2="423.65408" fill="none" stroke="#2f170b" stroke-miterlimit="10" stroke-width="2"/><line x1="662.1411" y1="421.41693" x2="708.47448" y2="430.20807" fill="none" stroke="#2f170b" stroke-miterlimit="10" stroke-width="2"/><line x1="660.90781" y1="427.91697" x2="707.24118" y2="436.70812" fill="none" stroke="#2f170b" stroke-miterlimit="10" stroke-width="2"/><line x1="659.62455" y1="434.6803" x2="705.95793" y2="443.47144" fill="none" stroke="#2f170b" stroke-miterlimit="10" stroke-width="2"/><line x1="667.39333" y1="447.38017" x2="694.07727" y2="452.44309" fill="none" stroke="#2f170b" stroke-miterlimit="10" stroke-width="2"/></g></svg>