<svg xmlns="http://www.w3.org/2000/svg" viewBox="0 0 1109 792.52"><title>torso 10</title><g id="torso-21" data-name="torso"><path d="M561.15558,365.95589s12.24,43.37,16.8,52.49,39.36,72.24,39.36,72.24,21.96,12.96,12.96,18.36c0,0,6.12,10.44-12.6,16.2s-13.68-19.08-18-26.28-42.276-53.64-48.858-66.24-27.102-37.06-13.782-66.77Z" fill="#ea9d7d"/><path d="M537.35558,431.20589h-87.5l18-127.5,17.8179-3.283h0c6.72826,14.272,27.57416,14.60663,34.192.283l0,0,15.21407,4.86545a10.89009,10.89009,0,0,1,8.30134,11.154Z" fill="#e23203"/><path d="M566.55558,365.95589l-14.35508-45.049a.97906.97906,0,0,0-.12973-.26445c-.82117-1.18456-7.50271-10.57689-15.50623-14.42864a1.00432,1.00432,0,0,0-1.43373.9407l1.90477,58.80141Z" fill="#e23203"/><path d="M575.402,412.15275s-7.52646,5.39314-9.92646,9.53314l11.779-4.76657Z" fill="#2f170b"/><path d="M625.30558,511.45589a34.31153,34.31153,0,0,1,2.91,3.89" fill="none" stroke="#2f170b" stroke-miterlimit="10"/><path d="M621.54556,508.14577a5.91963,5.91963,0,0,1-.88281-.1416,4.52259,4.52259,0,0,0-.75906-.14478.37985.37985,0,0,0-.41516.239,1.66511,1.66511,0,0,0-.10721.69433,12.38755,12.38755,0,0,0,.75839,3.27881c.733,2.18091,1.66913,4.32007,2.60535,6.43091l.00851.01831a.49646.49646,0,0,1-.85687.49341l-.02249-.03223a34.36455,34.36455,0,0,0-3.74488-4.46167,15.97,15.97,0,0,0-2.16952-1.812l-.57709-.35937-.58642-.29224a2.67139,2.67139,0,0,0-.85706-.25122c.04272-.0044.14889-.08984.10547-.0332a1.365,1.365,0,0,0-.04434.40527,6.42386,6.42386,0,0,0,.1658,1.26514,26.40065,26.40065,0,0,0,.8067,2.72558c.64349,1.81909,1.38385,3.64844,2.11343,5.44629l.00006.00025.00647.01586a.95592.95592,0,0,1-1.68145.88916,35.83207,35.83207,0,0,0-3.43009-4.45971,16.12127,16.12127,0,0,0-1.99325-1.88989,8.11974,8.11974,0,0,0-1.09281-.71558,2.96738,2.96738,0,0,0-.56173-.26l-.27625-.10938c-.05862-.00561-.14038-.03906-.178-.03735-.09817-.00415-.04361-.00342-.048-.03442a.51207.51207,0,0,0-.10968.23779,3.90712,3.90712,0,0,0-.04953,1.20435,17.3636,17.3636,0,0,0,.49429,2.748c.22934.92334.50266,1.844.79651,2.759a8.48931,8.48931,0,0,1,.53955,2.89868,6.68833,6.68833,0,0,1-1.56921-2.52783c-.36136-.91163-.70368-1.83277-1.00626-2.77613a18.65167,18.65167,0,0,1-.72922-2.9375,5.32735,5.32735,0,0,1-.023-1.69433,2.08635,2.08635,0,0,1,.50128-1.06128,1.69812,1.69812,0,0,1,1.28559-.48682,3.2525,3.2525,0,0,1,.53811.08106c.14878.042.27112.09082.4079.137a4.45916,4.45916,0,0,1,.76953.321,9.80031,9.80031,0,0,1,1.37131.82618,17.85471,17.85471,0,0,1,2.305,2.02612,30.34268,30.34268,0,0,1,3.67783,4.74389l-1.675.905-.00009-.00024a39.98939,39.98939,0,0,1-2.30243-5.606,20.91893,20.91893,0,0,1-.77243-3.01,8.0945,8.0945,0,0,1-.12955-1.69043,2.91942,2.91942,0,0,1,.22245-1.04931,1.75932,1.75932,0,0,1,.42193-.60572,1.57252,1.57252,0,0,1,.73688-.38452,2.24844,2.24844,0,0,1,1.1882.10572c.26782.10791.54837.20361.80069.32885l.72739.4065.66125.46631a17.48879,17.48879,0,0,1,2.26792,2.14331,31.34032,31.34032,0,0,1,3.54126,4.93408l-.87931.46118.00534.01123a46.63639,46.63639,0,0,1-2.58371-6.58154,12.65455,12.65455,0,0,1-.60894-3.56861,2.286,2.286,0,0,1,.239-1.00463,1.04848,1.04848,0,0,1,1.03262-.54395,2.19772,2.19772,0,0,1,.92737.2959A2.10623,2.10623,0,0,1,621.54556,508.14577Z" fill="#2f170b"/><path d="M630.648,508.75051a26.01766,26.01766,0,0,1-4.99893,3.39892,18.25621,18.25621,0,0,1-2.84046,1.23536,7.27734,7.27734,0,0,1-1.66488.35375,2.8634,2.8634,0,0,1-1.09473-.10815,1.83337,1.83337,0,0,1-.67886-.37573,1.6769,1.6769,0,0,1-.487-.73877,2.36893,2.36893,0,0,1-.01431-1.2522c.08157-.28247.14953-.57837.25161-.84668l.347-.7727.4122-.70826a14.598,14.598,0,0,1,2.00436-2.41943,19.20191,19.20191,0,0,1,4.94409-3.52759c-1.305,1.54566-2.60693,3.02613-3.77279,4.55909a20.23093,20.23093,0,0,0-1.54422,2.3496c-.09378.20362-.19977.39966-.301.59815l-.23355.59741c-.06836.19678-.10348.38892-.162.58179-.04687.17944-.01556.25537-.03253.2146a.43156.43156,0,0,0-.11941-.14966,1.14492,1.14492,0,0,0,.37771.0293,6.79649,6.79649,0,0,0,1.253-.20118c.89963-.2019,1.80811-.541,2.73365-.8435C626.86768,510.07546,628.71909,509.36452,630.648,508.75051Z" fill="#2f170b"/><path d="M606.88474,502.989a9.25945,9.25945,0,0,0,1.80859,1.08814,15.40535,15.40535,0,0,0,1.8753.76074,22.97967,22.97967,0,0,0,3.915.90088c1.32938.22607,2.69171.33911,4.07556.48462.69342.02637,1.39393.10913,2.10233.17114a20.08686,20.08686,0,0,1,2.16138.24487,18.63468,18.63468,0,0,1-2.07572.7334c-.70859.16968-1.42984.30274-2.15561.41089a16.15385,16.15385,0,0,1-4.42413-.0708,11.852,11.852,0,0,1-4.25082-1.46362c-.325-.1958-.64411-.40625-.94934-.62769a11.137,11.137,0,0,1-.852-.75708A5.05091,5.05091,0,0,1,606.88474,502.989Z" fill="#2f170b"/><polygon points="458.632 369.039 475.476 343.446 452.997 408.951 458.632 369.039" fill="#2f170b"/><polygon points="540.79 365.956 541.975 343.446 547.487 365.956 540.79 365.956" fill="#2f170b"/><line x1="597.76716" y1="496.16139" x2="613.81576" y2="484.33159" fill="none" stroke="#2f170b" stroke-linecap="round" stroke-linejoin="round" stroke-width="6"/><circle cx="500.34668" cy="340.38241" r="5.94347" fill="#fff"/><circle cx="500.34668" cy="414.89408" r="5.94347" fill="#fff"/><circle cx="464.23654" cy="420.83755" r="5.94347" fill="#fff"/><path d="M537.71843,424.31a5.928,5.928,0,0,0-8.31983,6.89575h7.957Z" fill="#fff"/><circle cx="532.63126" cy="316.54707" r="5.94347" fill="#fff"/><circle cx="550.84292" cy="343.44589" r="5.94347" fill="#fff"/><circle cx="478.76373" cy="384.87133" r="5.94347" fill="#fff"/><circle cx="520.77109" cy="378.92785" r="5.94347" fill="#fff"/><path d="M476.75963,434.50361h0l-36.804-39.57775,7.91992-16.8-24.78-23.88L407.27647,380.249c-3.48339,6.44043-6.501,18.27685.43531,25.3537l50.12378,48.1831,22.5-11.34s9.18017,1.08,10.26-.18C491.67564,441.00587,491.00352,437.54133,476.75963,434.50361Z" fill="#ea9d7d"/><path d="M439.95567,394.92586s-8.16009-.6-12.48009,0c0,0,1.9706-2.73612,13.9453-3.108Z" fill="#2f170b"/><path d="M413.91558,361.80589l30.59814-42.48s9.96186-12.88,23.34186-15.62l7.62,39.74-27.72,42.12Z" fill="#e23203"/><circle cx="470.31783" cy="316.54707" r="5.94347" fill="#fff"/><circle cx="428.50475" cy="356.52283" r="5.94347" fill="#fff"/><path d="M461.88884,354.06907a5.94282,5.94282,0,0,0-1.15259,11.77295l6.05029-9.19336A5.93433,5.93433,0,0,0,461.88884,354.06907Z" fill="#fff"/><path d="M690.22092,792.57481a5.00141,5.00141,0,0,1-4.89746-4.01856L638.92009,531.66074a24.454,24.454,0,0,0-47.29492-2.56347l-1.417,4.48437A5,5,0,0,1,580.673,530.568l1.417-4.48438a34.45379,34.45379,0,0,1,66.63477,3.61231l46.40336,256.89551a5.00522,5.00522,0,0,1-4.90722,5.9834Z" fill="#2f170b"/><path d="M621.54558,508.14589a5.83409,5.83409,0,0,0-1.25-.54c-3.78-1.08,2,11.11,2,11.11l.00145.00334s-4.14-6.66-7.92-7.74,1.84434,11.03705,1.84434,11.03705-4.14-6.66-7.92-7.74,1.201,10.585,1.201,10.585" fill="#ea9d7d"/><path d="M631.674,507.87611s-12.59993,7.54517-11.85744,3.68466,7.01148-8.57165,7.01148-8.57165l2.89226.36569,2.7,2.76952Z" fill="#ea9d7d"/><path d="M631.674,507.876a31.56173,31.56173,0,0,1-5.17346,3.64233,23.66317,23.66317,0,0,1-2.87888,1.42139,10.18252,10.18252,0,0,1-1.59472.53076,6.3329,6.3329,0,0,1-.91159.157,2.80864,2.80864,0,0,1-1.1814-.11279,1.71537,1.71537,0,0,1-.7511-.50293,1.67447,1.67447,0,0,1-.37353-.85523,2.94049,2.94049,0,0,1,.12884-1.16357,7.70759,7.70759,0,0,1,.69113-1.64307,13.22412,13.22412,0,0,1,2.036-2.61938,19.16151,19.16151,0,0,1,5.16275-3.74146c-1.3717,1.61841-2.73669,3.17408-3.94314,4.7876a16.12442,16.12442,0,0,0-1.55939,2.47534,5.78239,5.78239,0,0,0-.4823,1.24439,1.42651,1.42651,0,0,0-.06036.37646c.04574-.03247-.18823-.27173-.17963-.22558a2.43506,2.43506,0,0,0,.992-.0669c.4468-.09839.91613-.2395,1.39074-.38281.94831-.30029,1.89713-.68286,2.85852-1.04712C627.75961,509.39406,629.67929,508.5884,631.674,507.876Z" fill="#2f170b"/><path d="M621.54556,508.14577a5.91963,5.91963,0,0,1-.88281-.1416,4.52259,4.52259,0,0,0-.75906-.14478.37985.37985,0,0,0-.41516.239,1.66511,1.66511,0,0,0-.10721.69433,12.38755,12.38755,0,0,0,.75839,3.27881c.733,2.18091,1.66913,4.32007,2.60535,6.43091l.00851.01831a.49646.49646,0,0,1-.85687.49341l-.02249-.03223a34.36455,34.36455,0,0,0-3.74488-4.46167,15.97,15.97,0,0,0-2.16952-1.812l-.57709-.35937-.58642-.29224a2.67139,2.67139,0,0,0-.85706-.25122c.04272-.0044.14889-.08984.10547-.0332a1.365,1.365,0,0,0-.04434.40527,6.42386,6.42386,0,0,0,.1658,1.26514,26.40065,26.40065,0,0,0,.8067,2.72558c.64349,1.81909,1.38385,3.64844,2.11343,5.44629l.00006.00025.00647.01586a.95592.95592,0,0,1-1.68145.88916,35.83207,35.83207,0,0,0-3.43009-4.45971,16.12127,16.12127,0,0,0-1.99325-1.88989,8.11974,8.11974,0,0,0-1.09281-.71558,2.96738,2.96738,0,0,0-.56173-.26l-.27625-.10938c-.05862-.00561-.14038-.03906-.178-.03735-.09817-.00415-.04361-.00342-.048-.03442a.51207.51207,0,0,0-.10968.23779,3.90712,3.90712,0,0,0-.04953,1.20435,17.3636,17.3636,0,0,0,.49429,2.748c.22934.92334.50266,1.844.79651,2.759a8.48931,8.48931,0,0,1,.53955,2.89868,6.68833,6.68833,0,0,1-1.56921-2.52783c-.36136-.91163-.70368-1.83277-1.00626-2.77613a18.65167,18.65167,0,0,1-.72922-2.9375,5.32735,5.32735,0,0,1-.023-1.69433,2.08635,2.08635,0,0,1,.50128-1.06128,1.69812,1.69812,0,0,1,1.28559-.48682,3.2525,3.2525,0,0,1,.53811.08106c.14878.042.27112.09082.4079.137a4.45916,4.45916,0,0,1,.76953.321,9.80031,9.80031,0,0,1,1.37131.82618,17.85471,17.85471,0,0,1,2.305,2.02612,30.34268,30.34268,0,0,1,3.67783,4.74389l-1.675.905-.00009-.00024a39.98939,39.98939,0,0,1-2.30243-5.606,20.91893,20.91893,0,0,1-.77243-3.01,8.0945,8.0945,0,0,1-.12955-1.69043,2.91942,2.91942,0,0,1,.22245-1.04931,1.75932,1.75932,0,0,1,.42193-.60572,1.57252,1.57252,0,0,1,.73688-.38452,2.24844,2.24844,0,0,1,1.1882.10572c.26782.10791.54837.20361.80069.32885l.72739.4065.66125.46631a17.48879,17.48879,0,0,1,2.26792,2.14331,31.34032,31.34032,0,0,1,3.54126,4.93408l-.87931.46118.00534.01123a46.63639,46.63639,0,0,1-2.58371-6.58154,12.65455,12.65455,0,0,1-.60894-3.56861,2.286,2.286,0,0,1,.239-1.00463,1.04848,1.04848,0,0,1,1.03262-.54395,2.19772,2.19772,0,0,1,.92737.2959A2.10623,2.10623,0,0,1,621.54556,508.14577Z" fill="#2f170b"/></g></svg>