<svg xmlns="http://www.w3.org/2000/svg" viewBox="0 0 1109 792.52"><title>torso 29</title><g id="torso-2" data-name="torso"><path d="M560.62407,365.93853l17.49722,39.82126,56.41346,8.14526s17.79889-15.98884,20.514-15.98884,7.5419,1.68367-3.62012,11.4005c0,0,1.67854,1.42074,7.02363,1.42074s25.11824-.18255,26.3116,1.05587c1.09012,1.13128,5.581,5.12849-22.324,5.73184,0,0-1.20671,2.56425,1.2067,2.56425s24.20837-.73169,23.07823,2.86593c-.96077,3.05845-5.581,2.41341-23.83242,2.71508,0,0-1.35754,1.9609-.45251,2.26257s21.71593,1.15029,22.62571,2.71509c.96845,1.66571,5.21411,4.13409-25.85854,2.62571,0,0-1.74483.9944,1.42277,1.89943s17.0447,4.37431,13.42459,6.03353-4.07263.905-20.21231-3.46928l-17.79889-2.86592s-75.79615,1.81-83.4889-3.62012-23.30448-64.257-23.30448-64.257Z" fill="#ea9d7d"/><path d="M651.42861,409.31671s-.67877,16.73081-16.06426,15.59952" fill="none" stroke="#2f170b" stroke-miterlimit="10" stroke-width="2"/><line x1="627.74424" y1="412.9246" x2="627.74424" y2="435.02148" fill="none" stroke="#2f170b" stroke-linecap="round" stroke-linejoin="round" stroke-width="6"/><path d="M575.0249,398.71283l-23.25575-77.54848-.12643-.25722c-.81148-1.171-7.49458-10.572-15.50244-14.42882a1.00534,1.00534,0,0,0-1.43959.93781l1.90474,58.80141,1.2575,44.1061a26.92839,26.92839,0,0,0,27.56848,26.15309l57.7935.008V408.31108Z" fill="#ffc929"/><polygon points="582.492 400.2 569.75 412.925 575.025 398.713 582.492 400.2" fill="#2f170b"/><path d="M549.28781,431.58162l-7.74341-87.874-3.58832,68.17725A26.88969,26.88969,0,0,0,549.28781,431.58162Z" fill="#2f170b"/><path d="M536.716,431.46926h-87.5l18-127.5,18.27141-3,.06135.13012c6.72825,14.272,27.806,14.19348,34.42379-.13012h0l14.46741,4.86545a10.8901,10.8901,0,0,1,8.30134,11.154Z" fill="#ffc929"/><polygon points="458.215 367.726 474.836 343.709 452.358 409.214 458.215 367.726" fill="#2f170b"/><path d="M473.87412,341.2898l-40.804,58.33094s36.5552,6.89442,40.76046,6.78332,26.343.09111,30.35478.2055,6.21753,4.15937,2.5434,5.70464l-4.39869.33659s.69249.78976,5.91245,1.54911,10.80966,3.59729,5.64471,6.31008a44.29638,44.29638,0,0,1-10.99618-.528s11.624,1.84947,7.40053,7.22916-3.08746,5.08208-7.05922,5.49134-8.48319.64914-8.48319.64914,10.51095,5.2003,10.559,5.82868.44988,3.1259-4.84221,1.424-26.71687-11.861-30.18045-13.0708-9.59849-3.83042-56.60333-1.35727h0a22.20057,22.20057,0,0,1-18.86157-34.50858L439.742,329.57148Z" fill="#ea9d7d"/><line x1="508.83575" y1="429.11232" x2="496.04609" y2="426.89658" fill="none" stroke="#2f170b" stroke-miterlimit="10"/><line x1="502.33008" y1="412.65079" x2="492.77682" y2="409.87034" fill="none" stroke="#2f170b" stroke-miterlimit="10"/><path d="M413.276,362.06926l30.59815-42.48s9.96185-12.88,23.34185-15.62l7.62,39.74-38.3979,55.48355,36.39568,6-5.04,22.81164-62.81739-.957a19.77616,19.77616,0,0,1-15.71331-8.17085l0,0a19.77614,19.77614,0,0,1-.07511-23.10159Z" fill="#ffc929"/><path d="M410.42761,400.04416s10.84558-5.3795,26.01046-.85135l3.10935-4.49289S422.3328,390.42474,410.42761,400.04416Z" fill="#2f170b"/><polygon points="472.834 405.193 454.871 391.416 453.378 401.986 472.834 405.193" fill="#2f170b"/><polygon points="466.594 427.986 449.216 431.469 449.216 427.721 466.594 427.986" fill="#2f170b"/><polygon points="683.392 459.082 651.822 459.082 651.822 384.741 658.818 371.972 676.395 371.972 683.392 384.741 683.392 459.082" fill="#4c69de"/><rect x="651.82156" y="404.75827" width="31.57008" height="18.38789" fill="#e23203"/><rect x="658.79048" y="366.21926" width="17.60424" height="5.75268" fill="#e23203"/><path d="M634.53475,413.90505s17.79889-15.98884,20.514-15.98884,7.5419,1.68367-3.62012,11.4005" fill="#ea9d7d"/></g></svg>