<svg xmlns="http://www.w3.org/2000/svg" viewBox="0 0 1109 792.52"><title>torso 3</title><g id="torso-28" data-name="torso"><path d="M569.8431,370.50273s13.77484,48.80837,18.90664,59.072,44.29554,81.29852,44.29554,81.29852,24.71367,14.58512,14.58511,20.66225c0,0,6.88742,11.74912-14.18,18.2314s-15.3954-21.47254-20.25711-29.57538-47.57724-60.36618-54.98456-74.54615-30.50043-41.70713-15.51017-75.14261Z" fill="#ea9d7d"/><path d="M585.876,422.49244s-8.47024,6.06941-11.17119,10.72854l13.256-5.36427Z" fill="#2f170b"/><path d="M642.03718,534.24767a38.61412,38.61412,0,0,1,3.2749,4.37779" fill="none" stroke="#2f170b" stroke-miterlimit="10"/><path d="M637.80573,530.52271a8.07,8.07,0,0,1-.98169-.1897,4.74471,4.74471,0,0,0-.86481-.17237.4694.4694,0,0,0-.50592.28809,1.90173,1.90173,0,0,0-.12891.801,13.93346,13.93346,0,0,0,.84412,3.708c.40649,1.23194.87726,2.44873,1.37982,3.65332.49341,1.2063,1.00391,2.416,1.55084,3.59327l.00873.019a.49655.49655,0,0,1-.8584.49145l-.02093-.03027a38.47359,38.47359,0,0,0-4.20172-5.05078,18.12572,18.12572,0,0,0-2.44776-2.06006l-.65472-.41113-.66876-.33618a2.85192,2.85192,0,0,0-1.03553-.29395c.01081.00073.09479-.05762.03943.02686a1.56457,1.56457,0,0,0-.061.49633,7.28909,7.28909,0,0,0,.18432,1.45044,29.13,29.13,0,0,0,.90564,3.085c.725,2.0542,1.55518,4.11622,2.39032,6.13941l.00012.00024a.95589.95589,0,0,1-1.675.905,39.84774,39.84774,0,0,0-3.87574-5.03662,18.22122,18.22122,0,0,0-2.26275-2.1355,9.21828,9.21828,0,0,0-1.24726-.81225,3.416,3.416,0,0,0-.6452-.29639l-.31915-.125c-.07361-.00781-.17011-.04614-.22284-.04468-.12866-.00634-.105.00415-.13165-.0061a.70752.70752,0,0,0-.148.31934,4.5192,4.5192,0,0,0-.05115,1.386,19.66138,19.66138,0,0,0,.571,3.10474c.2627,1.04028.57459,2.07617.90955,3.106a10.80725,10.80725,0,0,1,.67175,3.23877,8.247,8.247,0,0,1-1.70142-2.86792c-.40246-1.02612-.78338-2.06274-1.11932-3.123a20.95823,20.95823,0,0,1-.80591-3.29395,5.92982,5.92982,0,0,1-.0213-1.87622,2.254,2.254,0,0,1,.53955-1.14258,1.8079,1.8079,0,0,1,1.3692-.51538,3.58611,3.58611,0,0,1,.583.08838c.16327.04639.29968.10132.45081.15259a4.90442,4.90442,0,0,1,.853.35742,10.92608,10.92608,0,0,1,1.52582.92285,19.974,19.974,0,0,1,2.57446,2.27149,34.4,34.4,0,0,1,4.12354,5.321l-1.675.905-.00012-.00024a46.84094,46.84094,0,0,1-2.57935-6.29883,23.746,23.746,0,0,1-.8714-3.36963,8.97061,8.97061,0,0,1-.14807-1.87573,3.168,3.168,0,0,1,.2392-1.14063,1.862,1.862,0,0,1,.44733-.644,1.66129,1.66129,0,0,1,.77752-.40625,2.43181,2.43181,0,0,1,1.27973.115c.29669.11938.60718.22412.88757.36255l.80975.45044.7389.51831a19.58247,19.58247,0,0,1,2.54614,2.39111,35.42013,35.42013,0,0,1,3.99811,5.5232l-.87934.46118.00513.01074a54.13085,54.13085,0,0,1-2.909-7.39746,14.20072,14.20072,0,0,1-.6947-3.9978,2.527,2.527,0,0,1,.26062-1.11133,1.138,1.138,0,0,1,1.12341-.59278,2.68779,2.68779,0,0,1,1.82551.99122Z" fill="#2f170b"/><path d="M648.0495,531.20288a31.15456,31.15456,0,0,1-5.66473,3.73608,21.01588,21.01588,0,0,1-3.18995,1.36573,8.00653,8.00653,0,0,1-1.84838.37842,3.38149,3.38149,0,0,1-.54993.00073,2.38436,2.38436,0,0,1-.63471-.11328,1.92958,1.92958,0,0,1-.71911-.394,1.76443,1.76443,0,0,1-.51392-.77514,2.52751,2.52751,0,0,1-.00812-1.343c.09192-.31177.169-.637.28211-.93384l.37738-.86035c.1499-.26489.29321-.53369.45294-.792a16.6592,16.6592,0,0,1,2.22687-2.71851,22.59067,22.59067,0,0,1,5.4906-4.03442c-1.5011,1.69848-2.98816,3.34692-4.31928,5.06592a22.27185,22.27185,0,0,0-1.76672,2.64868c-.10785.23144-.232.45288-.34967.678l-.27594.68188c-.07873.22632-.11761.45068-.18335.67383a.92844.92844,0,0,0-.02862.30786c-.01972-.0437-.12757-.13843-.05536-.08374a1.29892,1.29892,0,0,0,.47241.042,8.057,8.057,0,0,0,1.43542-.2456c1.01923-.23633,2.04352-.62183,3.08313-.97388C643.83112,532.76465,645.90393,531.93921,648.0495,531.20288Z" fill="#2f170b"/><path d="M621.30646,524.71924a9.99769,9.99769,0,0,0,1.99914,1.27392,16.45075,16.45075,0,0,0,2.10584.895,24.22628,24.22628,0,0,0,4.427,1.04908c1.50525.25659,3.04651.37426,4.60846.51977.78235.02124,1.572.10083,2.36926.15576.79791.04615,1.60083.08618,2.42707.2146a23.31538,23.31538,0,0,1-2.34144.76367c-.79736.17652-1.60778.31275-2.42254.42627a18.873,18.873,0,0,1-4.957-.10571,13.61556,13.61556,0,0,1-4.76282-1.61206c-.36548-.21411-.72339-.44678-1.06824-.68848a12.57773,12.57773,0,0,1-.96362-.83081A5.79472,5.79472,0,0,1,621.30646,524.71924Z" fill="#2f170b"/><line x1="611.04559" y1="517.03532" x2="629.1066" y2="503.72214" fill="none" stroke="#2f170b" stroke-linecap="round" stroke-linejoin="round" stroke-width="6"/><path d="M519.88433,302.36835l8.66124,1.06912a32.03977,32.03977,0,0,1,24.96528,17.96884l26.79042,55.99441-37.76169,4.02379s-.92856,21.97606-11.76183,25.38081l1.99687,33.66584s-67.92507,7.50059-81.85356,5.953L459.8972,381.115H416.56411l23.24334-58.44039a35.38553,35.38553,0,0,1,34.28343-22.28029l11.68606.39147s1.72639,12.58032,15.84967,13.94669C515.92069,316.11535,519.88433,302.36835,519.88433,302.36835Z" fill="#e56c01"/><polygon points="542.54 381.425 533.873 350.782 549.709 380.661 542.54 381.425" fill="#2f170b"/><path d="M459.8972,381.115l3.56469-33.103s-5.42183,55.079,12.84,61.26948,54.47588-2.47617,54.47588-2.47617L542.44,441.04s-81.72054,8.38016-94.41094,5.59446Z" fill="#2f170b"/><path d="M459.8972,381.115l-2.86582,20.8513,27.9371-19.30368s.38691-23.94927,4.10117-25.69034,3.01784,15.0892,3.01784,15.0892,14.85706-27.50877,16.24991-28.08912,3.83033.11607,2.20534,5.91961-6.96424,17.29454-6.96424,17.29454L515.73718,348.335a3.085,3.085,0,0,1,2.05489-1.41666c.82665-.13409,1.75625.10777,2.17942,1.60346a3.116,3.116,0,0,1-.20494,2.14261L508.3374,375.42752,519.43014,361.616a7.52285,7.52285,0,0,1,2.49218-2.05858c1.39285-.69085,3.03641-.91371,2.54891,2.28985-.81249,5.33925-13.23206,20.89274-13.23206,20.89274a59.68326,59.68326,0,0,0,8.00888-6.15176c5.152-5.1945,7.42853-5.10711,6.7321-1.85713s-6.84817,10.67851-25.07128,22.982l-61.54425,58.06658a17.74542,17.74542,0,0,1-14.7322,4.65335h0a17.4068,17.4068,0,0,1-9.74157-4.75777c-4.99125-4.92394-7.5139-11.58658-5.95912-18.81259l11.9949-55.74769Z" fill="#ea9d7d"/><path d="M457.03138,401.96628s-24.37212,10.48781-32.72922,26.0413" fill="none" stroke="#2f170b" stroke-miterlimit="10" stroke-width="2"/></g></svg>