<svg xmlns="http://www.w3.org/2000/svg" viewBox="0 0 1109 792.52"><title>torso 23</title><g id="torso-8" data-name="torso"><path d="M559.19025,365.45171,576.68747,405.273l56.41345,8.14526s17.7989-15.98884,20.514-15.98884,7.54191,1.68367-3.62011,11.4005c0,0,1.67853,1.42074,7.02363,1.42074s25.11823-.18255,26.31159,1.05586c1.09012,1.13129,5.581,5.1285-22.324,5.73185,0,0-1.20671,2.56425,1.2067,2.56425s24.20838-.7317,23.07824,2.86592c-.96078,3.05846-5.581,2.41341-23.83243,2.71509,0,0-1.35754,1.96089-.45251,2.26257s21.71594,1.15028,22.62572,2.71509c.96844,1.66571,5.2141,4.13409-25.85855,2.62571,0,0-1.74483.9944,1.42277,1.89943s17.04471,4.3743,13.42459,6.03352-4.07262.905-20.2123-3.46927l-17.7989-2.86593s-75.79615,1.81006-83.48889-3.62011-23.30449-64.257-23.30449-64.257Z" fill="#ea9d7d"/><path d="M649.99479,408.82989s-.67877,16.7308-16.06426,15.59952" fill="none"/><path d="M573.59107,398.226l-23.25575-77.54848-.12642-.25722c-.81149-1.171-7.49459-10.572-15.50245-14.42883a1.00535,1.00535,0,0,0-1.43959.93782l1.90474,58.8014,1.2575,44.1061a26.9284,26.9284,0,0,0,27.56848,26.1531l57.79351.008V407.82425Z" fill="#e23203"/><polygon points="581.058 399.713 568.316 412.438 573.591 398.226 581.058 399.713" fill="#2f170b"/><path d="M547.854,431.0948l-7.7434-87.874L536.52226,411.398A26.8897,26.8897,0,0,0,547.854,431.0948Z" fill="#2f170b"/><path d="M538.32,431.52244H449.23937l18-127.5,18.33276-2.86988h0c6.72825,14.272,27.73259,13.96119,34.35039-.36242h0l14.54081,5.09775a10.89009,10.89009,0,0,1,8.30134,11.154Z" fill="#e23203"/><path d="M476.14343,434.82017h0l-36.804-39.57776,7.91992-16.8-24.78-23.88-15.81909,26.00317c-3.4834,6.44043-6.501,18.27685.4353,25.3537l50.12378,48.1831,22.5-11.34s9.18018,1.08,10.26-.18C491.05944,441.32243,490.38732,437.85789,476.14343,434.82017Z" fill="#ea9d7d"/><path d="M439.33947,395.24241s-8.1601-.6-12.4801,0c0,0,1.97061-2.73611,13.94531-3.108Z" fill="#2f170b"/><path d="M406.14656,411.00584a25.0148,25.0148,0,0,1-3.91223-33.52159l41.66319-57.84181s9.96185-12.88,23.34185-15.62l7.62,39.74-33.495,50.89508,31.7125,36.86492L452.38129,451.086Z" fill="#e23203"/><circle cx="501.97077" cy="325.22069" r="5.94347" fill="#fff"/><circle cx="523.55372" cy="369.70961" r="5.94347" fill="#fff"/><circle cx="554.69025" cy="377.55421" r="5.94347" fill="#fff"/><circle cx="565.1597" cy="419.63549" r="5.94347" fill="#fff"/><circle cx="600.63116" cy="417.54274" r="5.94347" fill="#fff"/><circle cx="537.94447" cy="327.60531" r="5.94347" fill="#fff"/><circle cx="458.54342" cy="325.22069" r="5.94347" fill="#fff"/><circle cx="425.06342" cy="365.45171" r="5.94347" fill="#fff"/><circle cx="417.50342" cy="405.33189" r="5.94347" fill="#fff"/><circle cx="449.84099" cy="425.57896" r="5.94347" fill="#fff"/><circle cx="498.05199" cy="403.49178" r="5.94347" fill="#fff"/><circle cx="526.03793" cy="422.11416" r="5.94347" fill="#fff"/><circle cx="472.14362" cy="419.63549" r="5.94347" fill="#fff"/><circle cx="481.54636" cy="363.76613" r="5.94347" fill="#fff"/><polygon points="474.859 343.763 458.016 369.356 452.868 405.819 452.6 407.719 473.077 431.522 455.771 397.627 474.859 343.763" fill="#2f170b"/><polygon points="683.291 446.897 653.92 446.897 648.92 386.417 688.291 386.417 683.291 446.897" fill="#e23203"/><polygon points="685.545 419.636 686.81 404.332 650.401 404.332 651.666 419.636 685.545 419.636" fill="#ffc929"/><polygon points="691.924 386.417 645.287 386.417 648.287 378.725 688.924 378.725 691.924 386.417" fill="#ffc929"/><path d="M633.10092,413.41823s17.7989-15.98884,20.514-15.98884,7.54191,1.68367-3.62011,11.4005" fill="#ea9d7d"/></g></svg>