<svg xmlns="http://www.w3.org/2000/svg" viewBox="0 0 1109 792.52"><title>torso 24</title><g id="torso-7" data-name="torso"><path d="M614.48128,289.97781h17.91417a5.61524,5.61524,0,0,1,5.61524,5.61524v0a5.61524,5.61524,0,0,1-5.61524,5.61524H614.48128a0,0,0,0,1,0,0V289.97781a0,0,0,0,1,0,0Z" fill="#e23203"/><polygon points="560.428 302.894 560.198 344.888 569.959 344.941 570.2 301.022 560.428 302.894" fill="#e23203"/><path d="M580.25458,334.986c.4795-.93261,7.86084-15.70923,1.395-23.53369-2.41064-2.91748-5.94112-4.59345-11.59082-5.77856-13.06929-2.74149-23.10693,6.80859-2.56933,14.29858-5.29675,4.34993-1.33692,9.2251-2.00537,13.83765h.00048L563.6237,365.4583l-30.999-2.20252s8.58891,62.4199,36.86625,66.1865c28.27686,3.7666,28.77588-22.42993,16.93311-62.918l-6.10743-28.05859Z" fill="#ea9d7d"/><path d="M564.33277,420.40878s-6.99747-4.89786-.70907-54.95048l-7.66532-.54463S549.58136,411.38385,564.33277,420.40878Z" fill="#2f170b"/><line x1="564.73127" y1="340.08952" x2="581.1045" y2="342.08468" fill="none" stroke="#2f170b" stroke-linecap="round" stroke-linejoin="round" stroke-width="6"/><ellipse cx="579.04995" cy="341.51221" rx="5.45307" ry="6.69563" fill="#2f170b"/><path d="M539.96177,435.16H448.12359l18.904-131.9517,19.12075-5.20439c6.72825,14.272,27.33933,14.63721,33.95713.31361l14.14607,6.75623a10.89009,10.89009,0,0,1,8.30134,11.154Z" fill="#63ba08"/><path d="M564.1927,360.64161l-12.82022-40.23233a.979.979,0,0,0-.12972-.26445c-.82118-1.18455-7.50271-10.57689-15.50623-14.42863a1.00431,1.00431,0,0,0-1.43373.9407l1.90476,58.8014H563.6237Z" fill="#63ba08"/><polygon points="457.804 368.542 474.648 342.948 452.169 408.453 457.804 368.542" fill="#2f170b"/><polygon points="539.962 365.458 541.147 342.948 546.659 365.458 539.962 365.458" fill="#2f170b"/><circle cx="499.51867" cy="414.39649" r="5.94347" fill="#fff"/><circle cx="463.40852" cy="420.33997" r="5.94347" fill="#fff"/><circle cx="531.80325" cy="316.04949" r="5.94347" fill="#fff"/><circle cx="550.0149" cy="342.9483" r="5.94347" fill="#fff"/><circle cx="477.93572" cy="384.37374" r="5.94347" fill="#fff"/><circle cx="519.94308" cy="378.43027" r="5.94347" fill="#fff"/><circle cx="523.75688" cy="426.28344" r="5.94347" fill="#fff"/><circle cx="427.67674" cy="356.02525" r="5.94347" fill="#fff"/><circle cx="499.51867" cy="339.88483" r="5.94347" fill="#fff"/><rect x="433.06539" y="370.70597" width="72.90486" height="86.04" transform="translate(121.233 -106.19118) rotate(14.79685)" fill="#895237"/><path d="M473.682,340.80784l-40.804,58.33093s36.5552,6.89443,40.76046,6.78333,26.34295.09111,30.35478.2055,6.21753,4.15937,2.5434,5.70464l-4.39869.33659s.69249.78976,5.91245,1.54911,10.80966,3.59729,5.64471,6.31008a44.29638,44.29638,0,0,1-10.99618-.528s11.624,1.84947,7.40053,7.22916-3.08746,5.08208-7.05922,5.49134-8.48319.64914-8.48319.64914,10.51095,5.2003,10.559,5.82868.44988,3.1259-4.84221,1.424-26.71687-11.861-30.18045-13.0708-9.59849-3.83042-56.60333-1.35727h0a22.20056,22.20056,0,0,1-18.86157-34.50857l44.92142-62.09611Z" fill="#ea9d7d"/><line x1="502.13793" y1="412.16883" x2="492.58467" y2="409.38838" fill="none" stroke="#2f170b" stroke-miterlimit="10"/><path d="M407.05546,400.3422s10.78642-5.4254,25.9513-.89725l3.23916-4.46S418.96065,390.72278,407.05546,400.3422Z" fill="#2f170b"/><line x1="508.6436" y1="428.63036" x2="495.85394" y2="426.41462" fill="none" stroke="#2f170b" stroke-miterlimit="10"/><path d="M413.08756,361.3083l30.59815-42.48s9.96185-12.88,23.34185-15.62l7.62,39.74-27.72,42.12Z" fill="#63ba08"/><circle cx="469.48981" cy="316.04949" r="5.94347" fill="#fff"/><path d="M461.06082,353.57149a5.94282,5.94282,0,0,0-1.15259,11.773l6.0503-9.19336A5.93434,5.93434,0,0,0,461.06082,353.57149Z" fill="#fff"/><circle cx="427.67674" cy="356.02525" r="5.94347" fill="#fff"/><polygon points="629.225 323.568 570.253 302.947 570.373 281.121 629.566 270.479 629.225 323.568" fill="#ffc929"/><path d="M570.25281,302.94747l-9.99021-.05485c-4.80785-.0264-8.6717-6.18213-8.6453-10.99v0c.02639-4.80784,3.95761-10.92078,8.76545-10.89438l9.99022.05485Z" fill="#e23203"/></g></svg>