<svg xmlns="http://www.w3.org/2000/svg" viewBox="0 0 1109 792.52"><title>torso 18</title><g id="torso-13" data-name="torso"><path d="M560.33023,363.16581l17.49722,39.82126,56.41346,8.14526s17.79889-15.98884,20.514-15.98884,7.54191,1.68367-3.62011,11.4005c0,0,1.67853,1.42074,7.02363,1.42074s25.85907-.60336,26.31159,1.05586,5.581,5.1285-22.324,5.73185c0,0-1.20671,2.56425,1.2067,2.56425s25.3408-.15084,23.07823,2.86592-5.581,2.41341-23.83242,2.71509c0,0-1.35754,1.96089-.45251,2.26257s22.62571.905,22.62571,2.71509,3.92179,4.07263-27.15086,2.56424c0,0-.45251,1.05587,2.71509,1.9609s17.04471,4.37431,13.42459,6.03352-4.07263.905-20.2123-3.46927l-17.7989-2.86593s-75.79615,1.81006-83.48889-3.62011-23.30449-64.257-23.30449-64.257Z" fill="#ea9d7d"/><polygon points="577.827 402.987 569.456 410.152 574.345 395.061 577.827 402.987" fill="#2f170b"/><path d="M651.13478,406.544s-.67878,16.7308-16.06426,15.59952" fill="none" stroke="#2f170b" stroke-miterlimit="10" stroke-width="2"/><path d="M565.70338,365.44481l-14.35507-45.049a.97906.97906,0,0,0-.12973-.26445c-.82118-1.18456-7.50271-10.57689-15.50623-14.42864a1.00432,1.00432,0,0,0-1.43373.9407l1.90476,58.80141Z" fill="#e23203"/><path d="M565.70338,365.44481l-14.35507-45.049a.97906.97906,0,0,0-.12973-.26445c-.82118-1.18456-7.50271-10.57689-15.50623-14.42864a1.00432,1.00432,0,0,0-1.43373.9407l1.90476,58.80141Z" fill="#e23203"/><polygon points="539.938 365.445 541.122 342.935 546.635 365.445 539.938 365.445" fill="#2f170b"/><rect x="537.16602" y="359.10111" width="32.83301" height="4" fill="#fff"/><polygon points="560.75 349.899 537.65 349.899 537.65 353.899 562.024 353.899 560.75 349.899" fill="#fff"/><line x1="626.90429" y1="410.07303" x2="626.90429" y2="432.25651" fill="none" stroke="#2f170b" stroke-linecap="round" stroke-linejoin="round" stroke-width="6"/><path d="M390.86445,497.21958c.47851-7.50394,4.7164-99.35257,8.74183-107.49819S430.692,339.7153,430.692,339.7153l37.43692,7.9184-35.1798,58.4538-21.97925,93.60586.26833-.02442s14.76517,18.8264,14.584,21.53543-2.18331,7.41271-11.13345-4.373c0,0-1.5296,1.58-1.88637,6.91314s-1.124,25.84168-2.80971,26.18244-5.48957,5.22625-4.229-22.65684c0,0-2.478-1.37517-2.63907,1.03286s-1.54091,25.29436-4.39992,22.83548-2.03552-5.72965-1.11831-23.9605c0,0-1.86591-1.4854-2.22732-.60252s-2.41319,22.51485-4.21921,22.394-4.32532,3.64121-.74631-27.26147c0,0-1.02331-.522-2.13775,2.57815s-5.50222,16.71473-6.91611,12.99194-.63118-4.124,4.81064-19.93567l4.04754-17.56792Z" fill="#ea9d7d"/><path d="M421.99372,402.78961c9.91712.89147,10.95536,3.29789,10.95536,3.29789s-3.2735,13.94129-2.36935,10.09068Z" fill="#2f170b"/><path d="M538.68,433.6H447.24l19.76338-130.40519,18.84729-4.17282c6.72826,14.272,27.45461,14.92161,34.07241.598l14.30426,5.44026a10.89009,10.89009,0,0,1,8.30134,11.154Z" fill="#e23203"/><polygon points="457.78 368.528 474.623 342.935 452.145 408.44 457.78 368.528" fill="#2f170b"/><path d="M413.06338,361.29481l30.59815-42.48s9.96185-12.88,23.34185-15.62l7.62,39.74-27.72,42.12Z" fill="#e23203"/><line x1="416.99863" y1="355.83142" x2="450.54846" y2="379.51618" fill="none" stroke="#fff" stroke-miterlimit="10" stroke-width="4"/><line x1="422.52644" y1="348.15705" x2="456.53246" y2="370.4236" fill="none" stroke="#fff" stroke-miterlimit="10" stroke-width="4"/></g></svg>