<svg xmlns="http://www.w3.org/2000/svg" viewBox="0 0 1109 792.52"><title>torso 5</title><g id="torso-26" data-name="torso"><path d="M562.62514,365.27244l17.49722,39.82126,56.41345,8.14526s17.7989-15.98884,20.514-15.98884,7.5419,1.68367-3.62012,11.4005c0,0,1.67854,1.42074,7.02363,1.42074s25.85908-.60336,26.31159,1.05586,5.581,5.1285-22.324,5.73185c0,0-1.2067,2.56425,1.20671,2.56425s25.3408-.15084,23.07823,2.86592-5.581,2.41341-23.83242,2.71509c0,0-1.35754,1.96089-.45252,2.26257s22.62572.905,22.62572,2.71509,3.92179,4.07262-27.15086,2.56424c0,0-.45251,1.05587,2.71509,1.9609s17.0447,4.3743,13.42459,6.03352-4.07263.905-20.21231-3.46927l-17.79889-2.86593s-75.79615,1.81006-83.4889-3.62011-23.30449-64.257-23.30449-64.257Z" fill="#ea9d7d"/><path d="M653.42968,408.65062s-.67877,16.7308-16.06426,15.59952" fill="none" stroke="#2f170b" stroke-miterlimit="10" stroke-width="2"/><polygon points="580.151 404.511 571.78 411.676 576.715 397.338 580.151 404.511" fill="#2f170b"/><line x1="630.10893" y1="412.31101" x2="630.10893" y2="434.35004" fill="none" stroke="#2f170b" stroke-linecap="round" stroke-linejoin="round" stroke-width="6"/><path d="M536.74,431.52244h-87.5l18-127.5,18.27141-3,.236-.00023c6.72826,14.27205,27.61739,14.3236,34.23519,0h0l14.48139,4.86568a10.89009,10.89009,0,0,1,8.30134,11.154Z" fill="#e23203"/><path d="M565.94,366.27244l-14.35508-45.049a.97932.97932,0,0,0-.12972-.26445c-.82118-1.18456-7.50272-10.57689-15.50623-14.42864a1.00433,1.00433,0,0,0-1.43374.9407L536.42,366.27244Z" fill="#e23203"/><polygon points="458.016 369.356 474.86 343.762 452.382 409.267 458.016 369.356" fill="#2f170b"/><polygon points="540.174 366.272 541.359 343.762 546.872 366.272 540.174 366.272" fill="#2f170b"/><circle cx="499.73113" cy="340.69896" r="5.94347" fill="#fff"/><circle cx="499.73113" cy="415.21063" r="5.94347" fill="#fff"/><circle cx="463.62099" cy="421.1541" r="5.94347" fill="#fff"/><path d="M537.10288,424.62659a5.928,5.928,0,0,0-8.31983,6.89575h7.957Z" fill="#fff"/><circle cx="532.01572" cy="316.86362" r="5.94347" fill="#fff"/><circle cx="550.22737" cy="343.76244" r="5.94347" fill="#fff"/><circle cx="478.14818" cy="385.18788" r="5.94347" fill="#fff"/><circle cx="520.15555" cy="379.2444" r="5.94347" fill="#fff"/><circle cx="427.88921" cy="356.83938" r="5.94347" fill="#fff"/><rect x="435.75228" y="358.13634" width="72.90486" height="86.04" transform="translate(166.76895 -137.92871) rotate(20.1157)" fill="#6986ed"/><path d="M473.89443,341.622l-40.804,58.33093s36.5552,6.89443,40.76045,6.78333,26.343.09111,30.35478.2055,6.21754,4.15936,2.5434,5.70463l-4.39869.33659s.6925.78977,5.91246,1.54912,10.80966,3.59728,5.6447,6.31007a44.29568,44.29568,0,0,1-10.99617-.528s11.624,1.84947,7.40053,7.22916-3.08747,5.08208-7.05922,5.49134-8.48319.64914-8.48319.64914,10.51095,5.2003,10.559,5.82869.44989,3.12589-4.8422,1.424-26.71688-11.861-30.18046-13.0708-9.59848-3.83043-56.60333-1.35727h0a22.20056,22.20056,0,0,1-18.86156-34.50857l44.92142-62.09611Z" fill="#ea9d7d"/><path d="M407.26793,401.15634s10.78642-5.4254,25.95129-.89725l3.23917-4.46S419.17312,391.53691,407.26793,401.15634Z" fill="#2f170b"/><line x1="508.85607" y1="429.44449" x2="496.06641" y2="427.22876" fill="none" stroke="#2f170b" stroke-miterlimit="10"/><line x1="502.35039" y1="412.98296" x2="492.79714" y2="410.20252" fill="none" stroke="#2f170b" stroke-miterlimit="10"/><path d="M413.3,362.12244l30.59814-42.48s9.96186-12.88,23.34186-15.62l7.62,39.74-27.72,42.12Z" fill="#e23203"/><circle cx="469.70228" cy="316.86362" r="5.94347" fill="#fff"/><path d="M461.27329,354.38562a5.94282,5.94282,0,0,0-1.15259,11.77295l6.05029-9.19336A5.93433,5.93433,0,0,0,461.27329,354.38562Z" fill="#fff"/><circle cx="430.51491" cy="358.94926" r="5.94347" fill="#fff"/></g></svg>