<svg xmlns="http://www.w3.org/2000/svg" viewBox="0 0 1109 792.52"><title>torso 16</title><g id="torso-15" data-name="torso"><path d="M561.01879,364.67689,578.516,404.49815l56.41346,8.14526s17.79889-15.98884,20.514-15.98884,7.54191,1.68367-3.62011,11.4005c0,0,1.67853,1.42074,7.02363,1.42074s25.85907-.60336,26.31159,1.05586,5.581,5.1285-22.324,5.73185c0,0-1.20671,2.56425,1.2067,2.56425s25.3408-.15084,23.07823,2.86592-5.581,2.41341-23.83242,2.71509c0,0-1.35754,1.96089-.45251,2.26257s22.62571.905,22.62571,2.71509,3.92179,4.07263-27.15086,2.56424c0,0-.45251,1.05587,2.71509,1.9609s17.04471,4.3743,13.42459,6.03352-4.07263.905-20.21231-3.46927l-17.79889-2.86593S560.6417,435.42,552.949,429.98979s-23.30449-64.257-23.30449-64.257Z" fill="#ea9d7d"/><polygon points="578.516 404.498 570.144 411.663 575.033 396.572 578.516 404.498" fill="#2f170b"/><path d="M651.82334,408.05507s-.67878,16.7308-16.06426,15.59952" fill="none" stroke="#2f170b" stroke-miterlimit="10" stroke-width="2"/><line x1="627.59285" y1="411.58411" x2="627.59285" y2="433.76759" fill="none" stroke="#2f170b" stroke-linecap="round" stroke-linejoin="round" stroke-width="6"/><polygon points="685.149 445.749 655.778 445.749 650.778 385.269 690.149 385.269 685.149 445.749" fill="#ffc929"/><polygon points="687.403 418.487 688.668 403.184 652.259 403.184 653.524 418.487 687.403 418.487" fill="#fff"/><polygon points="693.782 385.269 647.145 385.269 650.145 377.577 690.782 377.577 693.782 385.269" fill="#fff"/><path d="M634.95872,412.27s17.7989-15.98884,20.514-15.98884,7.5419,1.68367-3.62012,11.40051" fill="#ea9d7d"/><path d="M566.39194,365.95589l-14.35507-45.049a.97906.97906,0,0,0-.12973-.26445c-.82118-1.18456-7.50271-10.57689-15.50623-14.42864a1.00432,1.00432,0,0,0-1.43373.9407l1.90476,58.80141Z" fill="#63ba08"/><polygon points="540.626 365.956 541.811 343.446 547.323 365.956 540.626 365.956" fill="#2f170b"/><polygon points="564.37 359.612 539.855 359.612 539.855 363.612 565.645 363.612 564.37 359.612" fill="#fff"/><polygon points="561.438 350.41 540.339 350.41 540.339 354.41 562.713 354.41 561.438 350.41" fill="#fff"/><path d="M366.92519,517.67481h86.21647a7.33124,7.33124,0,0,1,7.33124,7.33124v47.62876a0,0,0,0,1,0,0H359.594a0,0,0,0,1,0,0V525.006A7.33124,7.33124,0,0,1,366.92519,517.67481Z" fill="#895237"/><polygon points="359.594 572.635 359.594 560.898 370.563 572.635 359.594 572.635" fill="#d37a57"/><polygon points="460.473 572.635 460.473 560.898 449.503 572.635 460.473 572.635" fill="#d37a57"/><path d="M359.594,525.00614v2.66876H460.47292v-2.66876a7.33124,7.33124,0,0,0-7.33125-7.33124H366.92525A7.33124,7.33124,0,0,0,359.594,525.00614Z" fill="#d37a57"/><path d="M391.553,497.73066c.47851-7.50394,4.7164-99.35257,8.74183-107.49819s31.08568-50.00609,31.08568-50.00609l37.43692,7.9184-35.1798,58.45379-21.97925,93.60587.26833-.02442s14.76517,18.8264,14.584,21.53543-2.18331,7.41271-11.13345-4.373c0,0-1.5296,1.58-1.88637,6.91314s-1.124,25.84168-2.80971,26.18244-5.48957,5.22625-4.229-22.65684c0,0-2.478-1.37517-2.63907,1.03286s-1.54091,25.29436-4.39992,22.83548-2.03552-5.72965-1.11831-23.9605c0,0-1.86591-1.4854-2.22732-.60252s-2.41319,22.51485-4.21921,22.394-4.32532,3.64121-.74631-27.26147c0,0-1.02331-.522-2.13775,2.57815s-5.50222,16.71473-6.91611,12.99194-.63118-4.124,4.81064-19.93567l4.04754-17.56792Z" fill="#ea9d7d"/><path d="M422.68228,403.30069c9.91712.89147,10.95536,3.29788,10.95536,3.29788s-3.2735,13.9413-2.36935,10.09069Z" fill="#2f170b"/><path d="M537.19194,431.20589h-87.5l18-127.5,18.50939-7.417c6.72826,14.272,27.10229,18.31458,33.72009,3.991h0l14.99448,5.29148a10.89009,10.89009,0,0,1,8.30134,11.154Z" fill="#63ba08"/><polygon points="458.468 369.039 475.312 343.446 452.834 408.951 458.468 369.039" fill="#2f170b"/><path d="M413.75194,361.80589l30.59815-42.48s9.96185-12.88,23.34185-15.62l7.62,39.74-27.72,42.12Z" fill="#63ba08"/><line x1="417.68719" y1="356.3425" x2="451.23702" y2="380.02726" fill="none" stroke="#fff" stroke-miterlimit="10" stroke-width="4"/><line x1="423.215" y1="348.66813" x2="457.22102" y2="370.93468" fill="none" stroke="#fff" stroke-miterlimit="10" stroke-width="4"/><polygon points="415.377 517.342 425.124 517.675 429.194 522.835 423.914 527.995 416.954 525.355 415.377 517.342" fill="#d37a57"/></g></svg>