<svg xmlns="http://www.w3.org/2000/svg" viewBox="0 0 778.43 413.03"><title>bottom-8</title><g id="common"><path d="M411.32548,342.33s-1.1,33.7,37.7,46.5c0,0,20.6,6.7,20.6,23.9l-96.9.2a4.85,4.85,0,0,1-4.8-4.2c-1.8-14.1-6.9-61.4-3.2-66.4Z" fill="#6986ed"/><path d="M308.02539,348.13s-17.2,27.9,21.7,40.8c0,0,20.6001,6.7,20.6001,23.9l-96.90006.2a4.85,4.85,0,0,1-4.8-4.2c-1.8-14.1,9.9-61.4,13.6-66.4Z" fill="#6986ed"/><path d="M371.33849,51.33s14.3,42.2,8.9,87.3c-5.4,45.2-8.9,66.8-8.9,66.8l-54.5,163.4h-72.4l73.6-225.2V51.33Z" fill="#eae16a"/><path d="M324.23849,73.93h-6.2v69.7l-22.6,69.3c16.6,42.6,24.5,63.6,32,95.5,1.3,5.4,2.7,10.9,4.1,16.4l38.3-114.8C356.53849,172.93,324.23849,73.93,324.23849,73.93Z" fill="#2f170b"/><path d="M284.33849,51.33s-17,50,7,112,33.5,84.5,42.5,122.5,23,83,23,83h71s-40-153-47-169-50.2001-148.5-50.2001-148.5Z" fill="#eae16a"/><path d="M314.33849,51.33s-17,50,7,112,33.5,84.5,42.5,122.5,23,83,23,83" fill="none" stroke="#fff" stroke-miterlimit="10" stroke-width="4" stroke-dasharray="12 12"/><path d="M374.63849,183.03c.5-3.7,1.1-7.9,1.7-12.5l-29.5-69.9Z" fill="#2f170b"/></g></svg>