<svg xmlns="http://www.w3.org/2000/svg" viewBox="0 0 778.43 521"><title>torso-27</title><g id="common"><path d="M395.92025,94.38108s12.24,43.37,16.8,52.49,39.36,72.24,39.36,72.24,21.96,12.96,12.96,18.36c0,0,6.12,10.44-12.6,16.2s-13.68-19.08-18-26.28-42.276-53.64-48.858-66.24-27.102-37.06-13.782-66.77Z" fill="#ea9d7d"/><path d="M372.12025,159.63108h-87.5l18-127.5,18.27141-3,.06135.13012a18.58234,18.58234,0,0,0,33.67711-.13008v0l15.21408,4.86545a10.8901,10.8901,0,0,1,8.30134,11.154Z" fill="#ed3773"/><path d="M401.32025,94.38108l-14.35507-45.049a.97935.97935,0,0,0-.12973-.26445c-.82118-1.18455-7.50271-10.57689-15.50623-14.42863a1.00431,1.00431,0,0,0-1.43373.9407l1.90476,58.8014Z" fill="#ed3773"/><path d="M410.16672,140.57795s-7.52647,5.39313-9.92647,9.53313l11.779-4.76657Z" fill="#2f170b"/><path d="M460.07025,239.88108a34.31153,34.31153,0,0,1,2.91,3.89" fill="none" stroke="#2f170b" stroke-miterlimit="10"/><path d="M456.31025,236.571a5.88724,5.88724,0,0,1-.88281-.14184,4.52165,4.52165,0,0,0-.75928-.14453.38.38,0,0,0-.415.23877,1.66575,1.66575,0,0,0-.10693.69458,12.37781,12.37781,0,0,0,.7583,3.27881c.73291,2.1809,1.66895,4.32006,2.60547,6.43066l.0083.01855a.49644.49644,0,0,1-.85693.49317l-.02246-.032a34.39629,34.39629,0,0,0-3.74463-4.46167,16.02456,16.02456,0,0,0-2.16992-1.81226l-.57715-.35913-.58643-.29248a2.67238,2.67238,0,0,0-.85693-.251c.043-.00439.14892-.08984.10547-.0332a1.36958,1.36958,0,0,0-.04444.40527,6.43952,6.43952,0,0,0,.166,1.26514,26.386,26.386,0,0,0,.80664,2.72534c.64355,1.81909,1.38379,3.64868,2.11328,5.44653h.00049l.00635.01587a.956.956,0,0,1-1.68164.88916,35.80113,35.80113,0,0,0-3.43018-4.45947,16.09287,16.09287,0,0,0-1.99316-1.88989,8.08882,8.08882,0,0,0-1.09278-.71558,2.96915,2.96915,0,0,0-.56152-.26l-.27637-.10962c-.05859-.00537-.14062-.03881-.17822-.03711-.09814-.00415-.04346-.00341-.04785-.03442a.5111.5111,0,0,0-.10986.23779,3.91428,3.91428,0,0,0-.04932,1.20435,17.40522,17.40522,0,0,0,.49414,2.748c.22949.92334.50293,1.84375.79687,2.759a8.5,8.5,0,0,1,.53956,2.89844,6.6826,6.6826,0,0,1-1.56934-2.52784c-.36133-.91137-.70361-1.83251-1.00635-2.77587a18.66051,18.66051,0,0,1-.729-2.9375,5.32646,5.32646,0,0,1-.02344-1.69434,2.0904,2.0904,0,0,1,.50146-1.06128,1.6993,1.6993,0,0,1,1.28565-.48706,3.27991,3.27991,0,0,1,.53809.08105c.14892.042.271.09083.40771.13721a4.42789,4.42789,0,0,1,.76953.32105,9.80869,9.80869,0,0,1,1.37158.82592,17.8709,17.8709,0,0,1,2.30469,2.02613,30.33062,30.33062,0,0,1,3.67822,4.74414l-1.67529.905v-.00025a39.93587,39.93587,0,0,1-2.30225-5.6062,20.89516,20.89516,0,0,1-.77246-3.01,8.111,8.111,0,0,1-.12988-1.69018,2.934,2.934,0,0,1,.22266-1.04932,1.75725,1.75725,0,0,1,.42187-.60571,1.5721,1.5721,0,0,1,.73682-.38452,2.247,2.247,0,0,1,1.18848.10571c.26757.10767.54833.20337.80078.32861l.72705.40674.66113.46631a17.4624,17.4624,0,0,1,2.26807,2.14307,31.31466,31.31466,0,0,1,3.5415,4.93432l-.87939.46118.00537.01123a46.61523,46.61523,0,0,1-2.584-6.58154,12.66794,12.66794,0,0,1-.60888-3.56885,2.28615,2.28615,0,0,1,.23925-1.00439,1.0477,1.0477,0,0,1,1.03223-.54395,2.19261,2.19261,0,0,1,.92773.2959A2.10417,2.10417,0,0,1,456.31025,236.571Z" fill="#2f170b"/><path d="M465.41279,237.17554a26.02,26.02,0,0,1-4.999,3.39917,18.26381,18.26381,0,0,1-2.84033,1.23535,7.28053,7.28053,0,0,1-1.665.35376,2.869,2.869,0,0,1-1.09473-.10816,1.83233,1.83233,0,0,1-.67871-.37573,1.67608,1.67608,0,0,1-.4873-.73877,2.37047,2.37047,0,0,1-.01416-1.2522c.08154-.28247.14941-.57861.25146-.84667l.34717-.77295.41211-.70826a14.60522,14.60522,0,0,1,2.00439-2.41919,19.1926,19.1926,0,0,1,4.94434-3.52758c-1.30518,1.54541-2.60693,3.02612-3.77295,4.55883a20.3,20.3,0,0,0-1.54443,2.34961c-.09375.20386-.19971.39991-.30079.59815l-.23388.59765c-.06836.19654-.103.38892-.16162.58179-.04688.17945-.01563.25537-.03272.2146a.44666.44666,0,0,0-.11914-.1499,1.13523,1.13523,0,0,0,.37744.0293,6.77041,6.77041,0,0,0,1.25293-.20093c.8999-.20191,1.80811-.541,2.73389-.84351C461.63252,238.50049,463.48359,237.78955,465.41279,237.17554Z" fill="#2f170b"/><path d="M441.64961,231.41431a9.26492,9.26492,0,0,0,1.80859,1.08813,15.34568,15.34568,0,0,0,1.875.7605,22.95917,22.95917,0,0,0,3.915.90088c1.32959.22607,2.6919.33935,4.07569.48486.69336.02637,1.394.10913,2.102.1709a20.155,20.155,0,0,1,2.16162.24512,18.58025,18.58025,0,0,1-2.07569.73315c-.70849.16968-1.42968.30274-2.15576.41113a16.16087,16.16087,0,0,1-4.42383-.0708,11.85823,11.85823,0,0,1-4.251-1.46386c-.3252-.19556-.644-.40625-.94922-.62744a11.06693,11.06693,0,0,1-.852-.75733A5.04191,5.04191,0,0,1,441.64961,231.41431Z" fill="#2f170b"/><polygon points="293.397 97.465 310.24 71.871 287.762 137.376 293.397 97.465" fill="#2f170b"/><polygon points="375.554 94.381 376.739 71.871 382.252 94.381 375.554 94.381" fill="#2f170b"/><line x1="432.53184" y1="224.58658" x2="448.58044" y2="212.75679" fill="none" stroke="#2f170b" stroke-linecap="round" stroke-linejoin="round" stroke-width="6"/><circle cx="335.11136" cy="68.80761" r="5.94347" fill="#fff"/><circle cx="335.11136" cy="143.31927" r="5.94347" fill="#fff"/><circle cx="299.00121" cy="149.26274" r="5.94347" fill="#fff"/><path d="M372.4831,152.73523a5.928,5.928,0,0,0-8.31982,6.89575h7.957Z" fill="#fff"/><circle cx="367.39594" cy="44.97227" r="5.94347" fill="#fff"/><circle cx="385.60759" cy="71.87108" r="5.94347" fill="#fff"/><circle cx="313.52841" cy="113.29652" r="5.94347" fill="#fff"/><circle cx="355.53577" cy="107.35305" r="5.94347" fill="#fff"/><path d="M311.5243,162.92881h0l-36.80395-39.57776,7.91992-16.8-24.78-23.88-15.81909,26.00317c-3.4834,6.44043-6.501,18.27686.4353,25.3537L292.60023,182.211l22.5-11.34s9.18018,1.08,10.26-.18C326.44032,169.43107,325.7682,165.96653,311.5243,162.92881Z" fill="#ea9d7d"/><path d="M274.72035,123.35105s-8.1601-.6-12.4801,0c0,0,1.97061-2.73611,13.94531-3.108Z" fill="#2f170b"/><path d="M248.68025,90.23108l30.59815-42.48s9.96185-12.88,23.34185-15.62l7.62,39.74-27.72,42.12Z" fill="#ed3773"/><circle cx="305.0825" cy="44.97227" r="5.94347" fill="#fff"/><circle cx="263.26943" cy="84.94803" r="5.94347" fill="#fff"/><path d="M296.65351,82.49426a5.94282,5.94282,0,0,0-1.15258,11.773l6.05029-9.19336A5.93434,5.93434,0,0,0,296.65351,82.49426Z" fill="#fff"/><path d="M524.98559,521a5.00143,5.00143,0,0,1-4.89746-4.01855L473.68477,260.08594a24.454,24.454,0,0,0-47.29493-2.56348l-1.417,4.48438a5,5,0,1,1-9.53515-3.01368l1.417-4.48437a34.45378,34.45378,0,0,1,66.63476,3.6123L529.89282,515.0166A5.00518,5.00518,0,0,1,524.98559,521Z" fill="#2f170b"/><path d="M456.31025,236.57108a5.83409,5.83409,0,0,0-1.25-.54c-3.78-1.08,2,11.11,2,11.11l.00145.00334s-4.14-6.66-7.92-7.74,1.84434,11.03705,1.84434,11.03705-4.14-6.66-7.92-7.74,1.20105,10.585,1.20105,10.585" fill="#ea9d7d"/><path d="M466.43869,236.30131s-12.59992,7.54516-11.85744,3.68465,7.01149-8.57164,7.01149-8.57164l2.89226.36568,2.7,2.76952Z" fill="#ea9d7d"/><path d="M466.43867,236.30127a31.57167,31.57167,0,0,1-5.17334,3.64233,23.67588,23.67588,0,0,1-2.8789,1.42115,10.172,10.172,0,0,1-1.59473.531,6.29673,6.29673,0,0,1-.91162.15674,2.80886,2.80886,0,0,1-1.18164-.11255,1.71573,1.71573,0,0,1-.751-.50293,1.67655,1.67655,0,0,1-.37353-.85522,2.94315,2.94315,0,0,1,.1289-1.16358,7.725,7.725,0,0,1,.69092-1.64306,13.215,13.215,0,0,1,2.03613-2.61939,19.15489,19.15489,0,0,1,5.16309-3.74145c-1.37207,1.6184-2.73682,3.17407-3.94336,4.78759a16.13923,16.13923,0,0,0-1.55957,2.47535,5.77808,5.77808,0,0,0-.48193,1.24438,1.42512,1.42512,0,0,0-.06055.37647c.0459-.03247-.18848-.272-.17969-.22559a2.43774,2.43774,0,0,0,.99219-.06714c.44678-.09814.916-.2395,1.39062-.38257.94825-.30029,1.897-.68286,2.8584-1.04712C462.52412,237.81934,464.444,237.01367,466.43867,236.30127Z" fill="#2f170b"/><path d="M456.31025,236.571a5.88724,5.88724,0,0,1-.88281-.14184,4.52165,4.52165,0,0,0-.75928-.14453.38.38,0,0,0-.415.23877,1.66575,1.66575,0,0,0-.10693.69458,12.37781,12.37781,0,0,0,.7583,3.27881c.73291,2.1809,1.66895,4.32006,2.60547,6.43066l.0083.01855a.49644.49644,0,0,1-.85693.49317l-.02246-.032a34.39629,34.39629,0,0,0-3.74463-4.46167,16.02456,16.02456,0,0,0-2.16992-1.81226l-.57715-.35913-.58643-.29248a2.67238,2.67238,0,0,0-.85693-.251c.043-.00439.14892-.08984.10547-.0332a1.36958,1.36958,0,0,0-.04444.40527,6.43952,6.43952,0,0,0,.166,1.26514,26.386,26.386,0,0,0,.80664,2.72534c.64355,1.81909,1.38379,3.64868,2.11328,5.44653h.00049l.00635.01587a.956.956,0,0,1-1.68164.88916,35.80113,35.80113,0,0,0-3.43018-4.45947,16.09287,16.09287,0,0,0-1.99316-1.88989,8.08882,8.08882,0,0,0-1.09278-.71558,2.96915,2.96915,0,0,0-.56152-.26l-.27637-.10962c-.05859-.00537-.14062-.03881-.17822-.03711-.09814-.00415-.04346-.00341-.04785-.03442a.5111.5111,0,0,0-.10986.23779,3.91428,3.91428,0,0,0-.04932,1.20435,17.40522,17.40522,0,0,0,.49414,2.748c.22949.92334.50293,1.84375.79687,2.759a8.5,8.5,0,0,1,.53956,2.89844,6.6826,6.6826,0,0,1-1.56934-2.52784c-.36133-.91137-.70361-1.83251-1.00635-2.77587a18.66051,18.66051,0,0,1-.729-2.9375,5.32646,5.32646,0,0,1-.02344-1.69434,2.0904,2.0904,0,0,1,.50146-1.06128,1.6993,1.6993,0,0,1,1.28565-.48706,3.27991,3.27991,0,0,1,.53809.08105c.14892.042.271.09083.40771.13721a4.42789,4.42789,0,0,1,.76953.32105,9.80869,9.80869,0,0,1,1.37158.82592,17.8709,17.8709,0,0,1,2.30469,2.02613,30.33062,30.33062,0,0,1,3.67822,4.74414l-1.67529.905v-.00025a39.93587,39.93587,0,0,1-2.30225-5.6062,20.89516,20.89516,0,0,1-.77246-3.01,8.111,8.111,0,0,1-.12988-1.69018,2.934,2.934,0,0,1,.22266-1.04932,1.75725,1.75725,0,0,1,.42187-.60571,1.5721,1.5721,0,0,1,.73682-.38452,2.247,2.247,0,0,1,1.18848.10571c.26757.10767.54833.20337.80078.32861l.72705.40674.66113.46631a17.4624,17.4624,0,0,1,2.26807,2.14307,31.31466,31.31466,0,0,1,3.5415,4.93432l-.87939.46118.00537.01123a46.61523,46.61523,0,0,1-2.584-6.58154,12.66794,12.66794,0,0,1-.60888-3.56885,2.28615,2.28615,0,0,1,.23925-1.00439,1.0477,1.0477,0,0,1,1.03223-.54395,2.19261,2.19261,0,0,1,.92773.2959A2.10417,2.10417,0,0,1,456.31025,236.571Z" fill="#2f170b"/><rect x="-423.58508" width="423.58713" height="158.98493" fill="#877e80"/></g></svg>