<svg xmlns="http://www.w3.org/2000/svg" viewBox="0 0 1109 792.52"><title>background 12</title><g id="background-9" data-name="background"><path d="M476.60836,450.69638H326.97264l149.63576,0a22.78237,22.78237,0,0,0-3.40606-4.04462c-6.0894-5.715-14.35291-7.01676-17.40247-7.34421-5.56371-.59742-8.52636.464-11.655-2.07554-.70372-.57125-.62078-.67926-2.87374-3.67211-3.91441-5.2-5.92032-7.82595-8.30216-9.10036-2.4036-1.286-2.41973-.21056-6.38627-1.59657-3.91021-1.3663-6.56583-3.34476-9.739-5.74765-4.18466-3.16883-4.34259-4.0069-6.70555-5.74759-6.00513-4.42364-15.43-6.705-23.46945-3.83174a25.66867,25.66867,0,0,0-8.94083,5.74759c-4.56921,4.34628-4.001,6.83492-8.46175,9.89867a24.25531,24.25531,0,0,1-9.739,3.67211l-.08.01331a42.4121,42.4121,0,0,0-27.46251,16.92725l-5.012,6.90144Z" fill="#b3c8f3"/><path d="M699.93084,13.53389c-168.67712,0-305.41694,136.74008-305.41694,305.4172,0,120.43523,69.71876,224.57242,170.98957,274.29718V584.51c-.97864-1.84745-6.86072-11.4974-31.307-30.35582C506.82653,533.04033,517.96981,499.61,517.96981,499.61c1.56422,7.429-1.1727,10.94765,26.00161,30.30247,14.90932,10.61865,19.98222,26.11328,21.53205,37.94491V499.27258c-.97864-1.848-6.86072-11.49739-31.307-30.35635-27.36993-21.11386-16.22665-54.54424-16.22665-54.54424,1.56422,7.429-1.1727,10.94819,26.00161,30.30248,14.90932,10.61917,19.98222,26.1138,21.53205,37.94543V428.55374c-.29-10.83939,1.64137-34.64179,22.12573-49.23152,27.17431-19.35429,24.43739-22.87344,26.00134-30.30247,0,0,11.14355,33.43038-16.22638,54.54424-18.9722,14.63576-26.76162,23.725-29.75823,27.92726v88.42967c2.31062-10.87861,7.87128-23.54086,20.629-32.62747,27.17457-19.35429,24.43765-22.87344,26.0016-30.30248,0,0,11.14355,33.43038-16.22639,54.54424-20.522,15.831-27.96465,25.17753-30.4042,28.86354V594.309q2.93809,1.41462,5.91372,2.76123a49.37129,49.37129,0,0,1,14.71527-16.524c27.17457-19.35429,24.43765-22.87292,26.0016-30.302,0,0,11.14355,33.43037-16.22639,54.54424q-.97131.74928-1.90394,1.47921a304.83077,304.83077,0,0,0,103.78465,18.1c168.67712,0,305.41694-136.73955,305.41694-305.41667S868.608,13.53389,699.93084,13.53389Z" fill="#e0ecfc"/><path d="M955.40124,350.57481c27.36993-21.11386,16.22639-54.54424,16.22639-54.54424-1.564,7.429,1.173,10.94766-26.00161,30.30195-12.75771,9.08661-18.31837,21.74886-20.629,32.62748V286.185c2.43956-3.686,9.88219-13.03258,30.40421-28.86353,27.36993-21.11387,16.22639-54.54424,16.22639-54.54424-1.564,7.429,1.173,10.94818-26.00161,30.30247-12.75771,9.08661-18.31837,21.74886-20.629,32.62748V177.2775c2.99662-4.20227,10.786-13.29149,29.75823-27.92725C982.12519,128.23638,970.98165,94.806,970.98165,94.806c-1.564,7.429,1.173,10.94818-26.00135,30.30247-20.48436,14.58973-22.41576,38.39213-22.12572,49.23151v54.06616c-1.54983-11.83163-6.62274-27.32625-21.53206-37.94543-27.17431-19.35429-24.43739-22.87344-26.0016-30.30247,0,0-11.14329,33.43037,16.22665,54.54424,24.44628,18.85895,30.32836,28.50837,31.307,30.35635v68.58475c-1.54983-11.83163-6.62274-27.32625-21.53206-37.94491-27.17431-19.35481-24.43739-22.87344-26.0016-30.30247,0,0-11.14329,33.43037,16.22665,54.54424,24.44628,18.85843,30.32836,28.50837,31.307,30.35582v73.08151c-1.54983-11.83163-6.62274-27.32625-21.53206-37.94543-27.17431-19.35429-24.43739-22.87292-26.0016-30.30195,0,0-11.14329,33.43037,16.22665,54.54424,24.44628,18.85843,30.32836,28.50837,31.307,30.35582v60.17865c-1.54983-11.83163-6.62274-27.32625-21.53206-37.94543-27.17431-19.35429-24.43739-22.87344-26.0016-30.30247,0,0-11.14329,33.43037,16.22665,54.54424,24.44628,18.85895,30.32836,28.50837,31.307,30.35634V582.944c-1.54983-11.83164-6.62274-27.32626-21.53206-37.94544-27.17431-19.35429-24.43739-22.87344-26.0016-30.30247,0,0-11.14329,33.43037,16.22665,54.54424,24.44628,18.85895,30.32836,28.50837,31.307,30.35635V676.1968c-1.54983-11.83164-6.62274-27.32626-21.53206-37.94492-27.17431-19.35429-24.43739-22.87344-26.0016-30.30247,0,0-11.14329,33.43038,16.22665,54.54424,24.44628,18.85843,30.32836,28.50838,31.307,30.35635v98.96621H924.997V721.464c2.43956-3.686,9.88219-13.03258,30.40421-28.86353,27.36993-21.11387,16.22639-54.54424,16.22639-54.54424-1.564,7.429,1.173,10.94766-26.00161,30.30247-12.75771,9.08609-18.31837,21.74886-20.629,32.627v-64.7591c2.43956-3.68653,9.88219-13.03257,30.40421-28.86353,27.36993-21.11386,16.22639-54.54476,16.22639-54.54476-1.564,7.429,1.173,10.94818-26.00161,30.30247-12.75771,9.08661-18.31837,21.74886-20.629,32.62748V541.89784c2.43956-3.686,9.88219-13.03206,30.40421-28.86353,27.36993-21.11387,16.22639-54.54424,16.22639-54.54424-1.564,7.429,1.173,10.94818-26.00161,30.30247-12.75771,9.08661-18.31837,21.74886-20.629,32.62747V452.75052c2.43956-3.68653,9.88219-13.03258,30.40421-28.86353,27.36993-21.11387,16.22639-54.54424,16.22639-54.54424-1.564,7.429,1.173,10.94766-26.00161,30.30247-12.75771,9.08609-18.31837,21.74834-20.629,32.627V379.43834C927.43659,375.75181,934.87922,366.40576,955.40124,350.57481Z" fill="#599e08"/><path d="M848.89589,617.00725c-3.72157-8.325-8.81828-19.72671-17.42-41.99444-3.7693-9.75927-6.844-17.72025-9.41457-24.72194,2.41837-3.66456,9.84374-13.01689,30.42317-28.89282,27.3698-21.11387,16.22652-54.54424,16.22652-54.54424-1.56395,7.429,1.173,10.94818-26.00148,30.30247-20.36209,14.50238-22.39288,38.11386-22.13161,49.04164-2.94718-8.24762-5.17725-15.27651-7.04772-22.67311-3.0667-12.12664-6.03533-23.87458-7.54227-36.46779,2.08074-3.30417,9.22731-12.76738,30.71347-29.34265,27.3698-21.11387,16.22652-54.54424,16.22652-54.54424-1.56409,7.429,1.173,10.94766-26.00148,30.30247-16.32524,11.62711-20.8624,29.10309-21.88708,41.21038a134.94734,134.94734,0,0,1,.69724-18.81606,146.94412,146.94412,0,0,1,19.4113-58.22711l-1.85372-1.07332a149.06015,149.06015,0,0,0-19.68748,59.07237c-.0459.43-.072.84579-.11377,1.27261-1.916-6.929-11.25142-34.68624-39.439-42.0274-32.28526-8.40872-30.98088-12.67167-35.08795-19.05614,0,0,1.492,35.20668,34.5866,45.18982,28.37577,8.55936,37.74274,15.28122,39.83917,17.0251-2.08021,23.23749,2.03889,41.99288,6.87223,61.2844a57.42854,57.42854,0,0,0-9.02881-8.25076c-3.83953-6.487-19.965-30.42382-48.81136-30.26376-33.36173.18516-33.19853-4.27027-38.81071-9.38267,0,0,10.5041,33.63646,45.05317,34.76471,27.00327.88135,38.35656,4.35552,42.02806,5.83108,3.68679,2.81825,8.14091,6.646,10.26663,10.07362.16424.65016.32731,1.29824.4922,1.95049,3.71216,14.67918,8.79579,27.84148,18.02467,51.73489,8.62161,22.32,13.73139,33.75,17.46238,42.097A222.35887,222.35887,0,0,1,857.609,645.32262c1.53649,4.80065,3.11927,9.76031,4.63562,14.9203-8.07919-11.07894-27.46617-27.91731-38.73447-37.30939-2.03157-7.2334-11.44613-34.54815-39.3811-41.82393-32.28527-8.4082-30.98088-12.67114-35.08783-19.05614,0,0,1.492,35.20721,34.5866,45.18982,25.63338,7.73241,35.75473,13.96572,39.01824,16.38488,12.19633,10.18346,34.28008,29.39182,40.562,39.96967a205.54029,205.54029,0,0,1,6.2728,29.79877,56.136,56.136,0,0,0-9.23254-8.50288c-3.83979-6.487-19.96509-30.42382-48.81123-30.26376-33.36186.18516-33.19866-4.27027-38.81084-9.38266,0,0,10.5041,33.637,45.05317,34.7647,27.00366.88188,38.357,4.35553,42.02806,5.83108,3.55289,2.71625,7.82394,6.36983,10.03178,9.69964a168.23006,168.23006,0,0,1,1.11255,22.93934,181.972,181.972,0,0,1-5.44036,40.419,173.91591,173.91591,0,0,1-10.8807,30.31136l1.94055.908A176.02994,176.02994,0,0,0,867.486,759.43457a184.18809,184.18809,0,0,0,5.50835-40.90857c.61041-30.25383-6.804-53.41809-13.34484-73.85616A224.0417,224.0417,0,0,0,848.89589,617.00725Z" fill="#8ec14c"/><path d="M238.93506,619.40681c-3.72158-8.325-8.81828-19.72671-17.42-41.99445-3.76931-9.75927-6.844-17.72025-9.41457-24.72194,2.41837-3.66456,9.84374-13.01689,30.42317-28.89282,27.3698-21.11387,16.22651-54.54424,16.22651-54.54424-1.56395,7.429,1.173,10.94818-26.00147,30.30247-20.3621,14.50238-22.39288,38.11386-22.13161,49.04164-2.94719-8.24762-5.17726-15.27651-7.04772-22.67311-3.06671-12.12663-6.03534-23.87458-7.54227-36.46778,2.08073-3.30418,9.22731-12.76739,30.71346-29.34266,27.3698-21.11387,16.22652-54.54424,16.22652-54.54424-1.56408,7.429,1.173,10.94766-26.00147,30.30247-16.32525,11.62712-20.86241,29.1031-21.88708,41.21038a134.9458,134.9458,0,0,1,.69724-18.81606,146.944,146.944,0,0,1,19.4113-58.22711l-1.85373-1.07332a149.0603,149.0603,0,0,0-19.68748,59.07238c-.0459.43-.072.84578-.11376,1.2726-1.916-6.929-11.25143-34.68624-39.439-42.0274-32.28526-8.40872-30.98088-12.67166-35.088-19.05614,0,0,1.492,35.20669,34.5866,45.18982,28.37578,8.55937,37.74275,15.28122,39.83917,17.0251-2.08021,23.23749,2.0389,41.99288,6.87224,61.2844a57.42947,57.42947,0,0,0-9.02881-8.25076c-3.83953-6.487-19.965-30.42382-48.81137-30.26376-33.36172.18516-33.19853-4.27027-38.81071-9.38266,0,0,10.50411,33.63646,45.05318,34.7647,27.00327.88135,38.35656,4.35552,42.02805,5.83108,3.68679,2.81825,8.14092,6.646,10.26664,10.07362.16424.65017.3273,1.29824.4922,1.9505,3.71216,14.67917,8.79578,27.84147,18.02467,51.73488,8.6216,22.32,13.73138,33.75,17.46237,42.097a222.35728,222.35728,0,0,1,10.66887,27.44081c1.53649,4.80065,3.11927,9.76031,4.63563,14.9203-8.0792-11.07894-27.46618-27.91731-38.73447-37.30939-2.03157-7.2334-11.44614-34.54815-39.38111-41.82393C141.883,575.101,143.18737,570.838,139.08043,564.453c0,0,1.492,35.20721,34.5866,45.18982,25.63337,7.73241,35.75472,13.96572,39.01823,16.38488,12.19634,10.18346,34.28009,29.39182,40.562,39.96968a205.54117,205.54117,0,0,1,6.27281,29.79876,56.13678,56.13678,0,0,0-9.23254-8.50287c-3.83979-6.487-19.9651-30.42383-48.81124-30.26377-33.36185.18516-33.19866-4.27027-38.81084-9.38266,0,0,10.50411,33.637,45.05318,34.7647,27.00366.88188,38.35695,4.35553,42.02805,5.83108,3.55289,2.71626,7.82394,6.36983,10.03178,9.69964a168.22861,168.22861,0,0,1,1.11255,22.93935,181.97245,181.97245,0,0,1-5.44035,40.419A173.91552,173.91552,0,0,1,244.57,791.612l1.94056.908a176.03075,176.03075,0,0,0,11.01461-30.68588,184.18859,184.18859,0,0,0,5.50835-40.90857c.61041-30.25382-6.804-53.41809-13.34485-73.85616A224.03938,224.03938,0,0,0,238.93506,619.40681Z" fill="#599e08"/><path d="M976.31941,792.40288a12.07388,12.07388,0,0,0,3.12794-6.256c.47346-3.24965-.5274-7.53606-10.1656-17.204-11.09911-11.133-16.64867-16.69959-25.02392-17.59486-8.983-.96029-17.40733,3.22368-17.98626,3.51893-5.63476,2.87417-7.6097,6.09066-13.29395,7.038-4.11906.68654-7.72613-.22872-11.33888-1.564-10.60132-3.918-16.46-9.68059-25.41461-16.42189-13.14993-9.89977-22.3739-16.65983-34.01706-16.422-2.79689.0571-7.84581.06116-12.90285,3.128-7.249,4.39616-7.44458,12.1233-11.73,22.28688a73.651,73.651,0,0,1-17.49739,25.12169C787.8718,788.976,772.34367,789.94221,761.075,790.64336c-22.22947,1.38313-42.41543-4.6412-61.58228-10.36145-16.58376-4.94923-27.6849-7.53292-37.53568-4.692-10.86543,3.13352-11.86629,8.79586-23.45995,10.948-9.28,1.7227-16.53265-.43988-21.70044-1.75952-5.01931-1.2816-44.33276-10.9627-79.17744-2.346-10.6634,2.63694-16.4438,5.88354-31.08426,7.6245a148.39722,148.39722,0,0,1-25.80571.58644,213.98172,213.98172,0,0,1-39.2956-5.865c-30.44488-7.03827-45.833,2.58877-108.50178,6.45153-12.88378.79415-31.85387,1.59652-55.13085,1.173Z" fill="#b3c8f3"/><path d="M568.20454,225.94346H160.87891l407.32572,0a62.01664,62.01664,0,0,0-9.27168-11.00991c-16.57605-15.55677-39.07028-19.10043-47.37153-19.99179-15.14506-1.62625-23.20972,1.26309-31.72622-5.64986-1.9156-1.555-1.68983-1.849-7.82265-9.9959-10.65547-14.15494-16.11579-21.30313-22.59944-24.77223-6.54288-3.50067-6.58677-.57315-17.38414-4.346-10.644-3.71923-17.873-9.10484-26.51062-15.64576-11.39111-8.62593-11.821-10.90725-18.25325-15.64561-16.34667-12.04167-42.0023-18.2519-63.88655-10.43045-12.38619,4.4269-20.93576,12.40919-24.338,15.64561-12.4379,11.83108-10.89116,18.60544-23.03385,26.94532-10.42729,7.16172-21.80848,9.19953-26.51061,9.9959q-.10494.01778-.21772.03624A115.45053,115.45053,0,0,0,174.52228,207.157l-13.64337,18.78651Z" fill="#b3c8f3"/></g></svg>