<svg xmlns="http://www.w3.org/2000/svg" viewBox="0 0 1109 792.52"><title>background 4</title><g id="background-17" data-name="background"><path d="M168.79754,519.95934C172.51974,545.98316,192.65991,662.72327,289.65,724.395c136.08007,86.52721,313.36249-5.33491,361.99639-30.53614C763.13912,636.086,980.70512,470.83592,937.89283,271.57315,903.60439,111.98389,711.3615,22.61441,562.77713,32.52815,317.92565,48.86538,139.27029,313.48893,168.79754,519.95934Z" fill="#e0ecfc"/><polygon points="862.28 694.461 935.582 694.461 960.287 666.803 935.582 639.146 862.28 639.146 862.28 694.461" fill="#b3c8f3"/><path d="M862.2805,746.88581s16.86869,2.59122,19.95086-32.53416,24.67563-90.69255,35.0405-93.85959,23.60885-7.45451,17.27477,17.00247-29.94294,69.37139-31.09459,89.52529-8.34947,67.94744-41.17154,64.49248Z" fill="#8ec14c"/><path d="M870.46046,773.94962s13.70142-3.74287,17.44428-31.67042,29.655-110.84645,40.88363-118.908" fill="none" stroke="#2f170b" stroke-miterlimit="10" stroke-width="2"/><path d="M841.35316,676.88581s-16.86869,2.59122-19.95086-32.53416-24.67563-90.69255-35.0405-93.85959S762.753,543.03755,769.087,567.49453s29.94294,69.37139,31.09459,89.52529,8.34947,67.94744,41.17154,64.49248Z" fill="#8ec14c"/><path d="M833.1732,703.94962s-13.70142-3.74287-17.44428-31.67042-29.655-110.84645-40.88363-118.908" fill="none" stroke="#2f170b" stroke-miterlimit="10" stroke-width="2"/><rect x="795.71994" y="777.98713" width="112.19377" height="14.53287" fill="#b3c8f3"/><rect x="818.89988" y="763.45426" width="65.83391" height="14.53287" fill="#b3c8f3"/><polygon points="841.353 544.707 748.052 544.707 723.346 517.049 748.052 489.392 841.353 489.392 841.353 544.707" fill="#b3c8f3"/><polygon points="860.28 590.049 1007.699 590.049 1032.405 562.392 1007.699 534.735 860.28 534.735 860.28 590.049" fill="none" stroke="#2f170b" stroke-miterlimit="10" stroke-width="2"/><polygon points="862.28 478.219 972.64 478.219 997.346 450.562 972.64 422.904 862.28 422.904 862.28 478.219" fill="#b3c8f3"/><path d="M280.052,367.08713l-16.18848-16.5c7.23926-6.18945,11.64112-14.31884,11.64112-23.22949,0-19.38183-20.78858-35.09424-46.43213-35.09424s-46.43213,15.71241-46.43213,35.09424c0,19.38233,20.78857,35.09473,46.43213,35.09473A58.56257,58.56257,0,0,0,250.512,358.4846Z" fill="#b3c8f3"/><line x1="205.69918" y1="315.32231" x2="252.28742" y2="315.32231" fill="none" stroke="#6986ed" stroke-linecap="round" stroke-miterlimit="10" stroke-width="3"/><line x1="205.69918" y1="325.43996" x2="252.28742" y2="325.43996" fill="none" stroke="#6986ed" stroke-linecap="round" stroke-miterlimit="10" stroke-width="3"/><line x1="205.69918" y1="335.55761" x2="252.28742" y2="335.55761" fill="none" stroke="#6986ed" stroke-linecap="round" stroke-miterlimit="10" stroke-width="3"/><path d="M250.56389,699.33327c7.80063-3.61592,12.10963-10.18457,20.72881-23.32066,6.099-9.29433,6.55311-13.24245,6.62242-15.25952.16729-4.83717-1.569-7.40989-.288-13.24484a24.51085,24.51085,0,0,1,3.74259-8.63711c2.49267-3.53824,3.88478-3.3124,8.35032-7.77315,4.082-4.07717,6.28424-6.27588,7.19719-9.789.83885-3.224-.29874-4.13453-.576-11.22895-.18522-4.73918-.27842-7.10757.288-9.50106,1.59765-6.75625,7.08128-11.53844,12.66887-16.41145,4.4739-3.90152,6.45871-4.63044,7.48517-7.77316.987-3.02322.39553-6.16236-.288-9.789-.87112-4.61968-1.79-5.50035-2.30267-8.06113-1.50325-7.5031,4.38906-9.89061,5.75727-19.57808,1.13521-8.042-1.73148-14.84368-2.87863-17.56339-3.14272-7.4553-5.93771-7.07291-8.06114-12.95566-3.972-11.00549,2.7209-20.89252.288-22.16992-1.64186-.86156-4.72364,3.61951-15.83549,13.8208-8.992,8.25592-11.75473,9.71017-14.10759,10.6518-6.29739,2.51895-8.428.86753-11.80492,3.74378-4.6627,3.97082-1.98362,8.29774-6.9104,14.39557-1.05395,1.30489-4.34962,3.55737-10.93977,8.06114-7.68951,5.25539-8.4507,5.38325-9.50106,7.19838-1.557,2.69223-.7564,3.923-1.43991,14.10759-.41465,6.17909-.62257,9.268-1.43992,10.93978-2.79738,5.71784-7.40033,4.71169-11.22776,10.653-2.01349,3.126-2.39827,6.11575-3.16781,12.0929-1.12326,8.7327.65244,10.788-1.15194,16.69824-1.19734,3.92064-2.09355,3.39127-5.1825,9.50106a57.58314,57.58314,0,0,0-6.33324,19.57807c-1.036,8.86773,1.93821,8.45786.864,16.12347-1.36344,9.7281-6.23286,11.49663-6.9104,20.442-.092,1.21526-.515,7.94881,2.59065,13.81961C213.61242,700.98111,235.58876,706.27594,250.56389,699.33327Z" fill="#8ec14c"/><path d="M220.85663,699.61762s46.98259-147.121,88.44148-213.34051" fill="none" stroke="#2f170b" stroke-miterlimit="10" stroke-width="2"/><polyline points="274.623 512.132 274.623 555.238 319.311 527.968" fill="none" stroke="#2f170b" stroke-miterlimit="10" stroke-width="2"/><polyline points="249.7 536.95 262.175 585.171 314.193 558.544" fill="none" stroke="#2f170b" stroke-miterlimit="10" stroke-width="2"/><line x1="251.22792" y1="613.28081" x2="302.46862" y2="590.57647" fill="none" stroke="#2f170b" stroke-miterlimit="10" stroke-width="2"/><line x1="239.57838" y1="644.90173" x2="286.82842" y2="633.74038" fill="none" stroke="#2f170b" stroke-miterlimit="10" stroke-width="2"/><line x1="227.56055" y1="679.37995" x2="277.53901" y2="663.46244" fill="none" stroke="#2f170b" stroke-miterlimit="10" stroke-width="2"/><path d="M256.25524,746.88581s16.8687,2.59122,19.95087-32.53416,24.67563-90.69255,35.04049-93.85959,23.60886-7.45451,17.27478,17.00247-29.94294,69.37139-31.09459,89.52529-8.34948,67.94744-41.17155,64.49248Z" fill="#8ec14c"/><path d="M264.43521,773.94962s13.70141-3.74287,17.44428-31.67042,29.655-110.84645,40.88363-118.908" fill="none" stroke="#2f170b" stroke-miterlimit="10" stroke-width="2"/><path d="M104.42642,765.92058s-16.411-20.72973-16.411-61.32544-12.95608-89.9819-13.38795-99.19055,3.455-15.25482,10.79674-11.368,15.97916,13.38794,19.00225,34.98141Z" fill="#8ec14c"/><path d="M82.40108,610.81s15.11543,32.572,14.68356,54.32526,7.34178,66.6677,7.34178,66.6677" fill="none" stroke="#2f170b" stroke-miterlimit="10" stroke-width="2"/><path d="M180.14743,548.22593h.00015a75.721,75.721,0,0,1,75.721,75.721V792.52a0,0,0,0,1,0,0H104.42642a0,0,0,0,1,0,0V623.94694A75.721,75.721,0,0,1,180.14743,548.22593Z" fill="#b3c8f3"/><path d="M180.14736,548.226h0a75.72064,75.72064,0,0,0-75.72045,75.72045v41.75039H255.869V623.94645A75.72167,75.72167,0,0,0,180.14736,548.226Z" fill="#7a97dd"/><rect x="603.34624" y="118.14584" width="210.23529" height="151.05882" fill="#b3c8f3"/><path d="M813.58167,269.20466V134.90632a38.41054,38.41054,0,0,0-3.4834,2.30616c-7.813,5.87207-10.33472,14.58251-15.05884,31.76464-10.30591,37.48243-9.5,35.4502-10.58838,38.58789-4.73315,13.64649-10.37548,29.91407-23.76464,44.47071-9.55689,10.39013-17.72193,14.11035-22.73072,17.16894Z" fill="#fcd2e0"/><path d="M661.34624,118.14584V269.20467" fill="none" stroke="#2f170b" stroke-miterlimit="10" stroke-width="2"/><path d="M789.81726,118.14607c-6.30224,11.69287-13.49047,27.47021-17.09448,43.91894-7.0791,32.30664-39.6748,97.5-71.69238,107.08008l.01782.05957h20.366c29.83813-23.19189,54.99585-77.248,61.07617-104.999,3.8457-17.55127,12.3208-34.69238,18.80371-46.05957Z" fill="#6986ed"/><rect x="621.46389" y="135.7929" width="28.94118" height="12.70588" fill="#fcd2e0"/><rect x="673.11095" y="135.7929" width="28.94118" height="12.70588" fill="#6986ed"/><rect x="725.11095" y="135.7929" width="28.94118" height="12.70588" fill="none" stroke="#2f170b" stroke-miterlimit="10" stroke-width="2"/><rect x="621.46389" y="249.67525" width="28.94118" height="12.70588" fill="#2f170b"/><rect x="621.46389" y="208.26349" width="28.94118" height="12.70588" fill="none" stroke="#2f170b" stroke-miterlimit="10" stroke-width="2"/><line x1="603.34624" y1="156.0282" x2="813.58154" y2="156.0282" fill="none" stroke="#2f170b" stroke-miterlimit="10" stroke-width="2"/><line x1="603.34624" y1="235.0946" x2="813.58154" y2="235.0946" fill="none" stroke="#2f170b" stroke-miterlimit="10" stroke-width="2"/><polyline points="603.346 162.506 661.346 162.506 661.346 177.33 737.956 235.095 737.956 189.33 722.333 189.33 722.333 156.028" fill="none" stroke="#2f170b" stroke-miterlimit="10" stroke-width="2"/><polyline points="689.157 235.095 689.157 249.675 778.804 249.675 778.804 211.918 793.628 211.918 793.628 168.153 761.157 168.153 761.157 118.146" fill="none" stroke="#2f170b" stroke-miterlimit="10" stroke-width="2"/><path d="M696.16,106.9726c0,8.05852-14.59124,36.93817-14.59124,36.93817s-14.59123-28.87965-14.59123-36.93817a14.59123,14.59123,0,1,1,29.18247,0Z" fill="#e23203"/><circle cx="681.56877" cy="108.02422" r="6.70408" fill="#ffac06"/><rect x="841.35316" y="400.42311" width="20.92734" height="363.25736" fill="#7a97dd"/></g></svg>