<svg xmlns="http://www.w3.org/2000/svg" viewBox="0 0 1109 792.52"><title>background 3</title><g id="background-18" data-name="background"><rect x="101.21942" y="59.07317" width="934.77556" height="674.3738" rx="56.75423" fill="#e0ecfc"/><rect x="389.88252" y="429.64491" width="224.51306" height="112.67384" fill="#b3c8f3"/><rect x="647.78042" y="565.68814" width="221.17457" height="124.35853" fill="#7a97dd"/><path d="M979.2421,59.073H157.9731a56.922,56.922,0,0,0-56.75423,56.75423V155.073h934.77746V115.82726A56.922,56.922,0,0,0,979.2421,59.073Z" fill="#b3c8f3"/><rect x="23.48389" y="296.94016" width="254.55942" height="142.7202" fill="#b3c8f3"/><rect x="161.19636" y="225.16276" width="185.28587" height="43.40029" fill="#7a97dd"/><rect x="409.91342" y="225.16276" width="185.28587" height="43.40029" fill="none" stroke="#b3c8f3" stroke-miterlimit="10" stroke-width="2"/><rect x="661.96898" y="225.16276" width="185.28587" height="43.40029" fill="#b3c8f3"/><line x1="77.73641" y1="332.59327" x2="243.82168" y2="331.39523" fill="none" stroke="#e0ecfc" stroke-miterlimit="10" stroke-width="2"/><line x1="77.73425" y1="352.85977" x2="243.82384" y2="352.85977" fill="none" stroke="#e0ecfc" stroke-miterlimit="10" stroke-width="2"/><line x1="77.73425" y1="373.7253" x2="243.82384" y2="373.7253" fill="none" stroke="#e0ecfc" stroke-miterlimit="10" stroke-width="2"/><line x1="77.73425" y1="394.59083" x2="149.23345" y2="394.59083" fill="none" stroke="#e0ecfc" stroke-miterlimit="10" stroke-width="2"/><line x1="419.51157" y1="454.68354" x2="585.60115" y2="454.68354" fill="none" stroke="#e0ecfc" stroke-miterlimit="10" stroke-width="2"/><line x1="419.51157" y1="475.54907" x2="585.60115" y2="475.54907" fill="none" stroke="#e0ecfc" stroke-miterlimit="10" stroke-width="2"/><line x1="419.51157" y1="496.41459" x2="585.60115" y2="496.41459" fill="none" stroke="#e0ecfc" stroke-miterlimit="10" stroke-width="2"/><line x1="419.51157" y1="517.28012" x2="491.01077" y2="517.28012" fill="none" stroke="#e0ecfc" stroke-miterlimit="10" stroke-width="2"/><line x1="675.32291" y1="596.56912" x2="841.4125" y2="596.56912" fill="none" stroke="#e0ecfc" stroke-miterlimit="10" stroke-width="2"/><line x1="675.32291" y1="617.43464" x2="841.4125" y2="617.43464" fill="none" stroke="#e0ecfc" stroke-miterlimit="10" stroke-width="2"/><line x1="675.32291" y1="638.30017" x2="841.4125" y2="638.30017" fill="none" stroke="#e0ecfc" stroke-miterlimit="10" stroke-width="2"/><line x1="722.6181" y1="659.16569" x2="794.11731" y2="659.16569" fill="none" stroke="#e0ecfc" stroke-miterlimit="10" stroke-width="2"/><polygon points="697.232 432.566 697.232 468.037 710.168 450.302 728.53 468.037 777.773 378.733 675.531 423.385 697.232 432.566" fill="#b3c8f3"/><polyline points="697.232 432.566 777.773 378.733 710.168 450.302" fill="none" stroke="#2f170b" stroke-linejoin="round" stroke-width="2"/><path d="M1.99246,500.30881C19.84132,532.35546,59.10233,592.576,132.1928,639.414c21.82553,13.98533,120.67433,74.20588,250.3874,58.97812,196.39744-23.05641,292.70135-199.01392,301.57612-215.88824" fill="none" stroke="#6986ed" stroke-miterlimit="10"/><path d="M146.71237,193.25663l-11.33809-7.196a41.08579,41.08579,0,0,0,.53442-8.88459l12.0878-5.83129a2.21613,2.21613,0,0,0,1.12838-2.67972l-5.07623-14.59723a2.21051,2.21051,0,0,0-2.53409-1.42848l-13.09889,2.92749a40.24713,40.24713,0,0,0-5.91028-6.64307l4.43094-12.68a2.17958,2.17958,0,0,0-1.08954-2.68752l-13.92708-6.75886a2.1796,2.1796,0,0,0-2.78538.807l-7.21955,11.3267a40.24659,40.24659,0,0,0-8.87576-.53266l-5.80516-12.1017a2.21051,2.21051,0,0,0-2.69017-1.10687l-14.58677,5.05469a2.19082,2.19082,0,0,0-1.42848,2.53409l2.89833,13.10411a41.079,41.079,0,0,0-6.64888,5.91722l-12.64512-4.44313a2.18585,2.18585,0,0,0-2.69884,1.113l-6.74748,13.90362a2.15432,2.15432,0,0,0,.80694,2.78535l11.30324,7.20817a41.2135,41.2135,0,0,0-.53068,8.87671l-12.0916,5.8392a2.15668,2.15668,0,0,0-1.09543,2.66659l5.04424,14.60832a2.20738,2.20738,0,0,0,2.53693,1.42261l13.096-2.92162a40.12717,40.12717,0,0,0,5.90938,6.64507l-4.431,12.68a2.17829,2.17829,0,0,0,1.1009,2.664l13.92708,6.75887a2.17825,2.17825,0,0,0,2.774-.78345l7.21961-11.32668a40.12765,40.12765,0,0,0,8.87666.53065l5.808,12.09584a2.2074,2.2074,0,0,0,2.68732,1.11274L120.24689,228.17a2.18143,2.18143,0,0,0,1.39552-2.52095l-2.89453-13.112a41.22121,41.22121,0,0,0,6.64513-5.90935l12.68,4.431a2.15266,2.15266,0,0,0,2.664-1.1009l6.74748-13.90362a2.18475,2.18475,0,0,0-.77206-2.79748Zm-62.08978,7.51653a23.97718,23.97718,0,1,1,32.0397-11.10262,24.00695,24.00695,0,0,1-32.0397,11.10262Zm0,0" fill="#7a97dd"/><path d="M273.5119,550.38251l-8.12366-5.15589a29.43828,29.43828,0,0,0,.38291-6.36575l8.66082-4.17807a1.58787,1.58787,0,0,0,.80849-1.92L271.60337,522.304a1.58382,1.58382,0,0,0-1.81566-1.02349l-9.38527,2.09752a28.83628,28.83628,0,0,0-4.23467-4.75971l3.17474-9.08516a1.56165,1.56165,0,0,0-.78065-1.92558l-9.97866-4.84269a1.56169,1.56169,0,0,0-1.9957.57821l-5.17276,8.11551a28.836,28.836,0,0,0-6.35943-.38164l-4.15936-8.67079a1.58381,1.58381,0,0,0-1.92748-.79307l-10.45133,3.62166a1.56969,1.56969,0,0,0-1.02349,1.81565l2.07663,9.389a29.43161,29.43161,0,0,0-4.76387,4.23965l-9.06015-3.18348a1.56615,1.56615,0,0,0-1.9337.79749L198.978,528.2549a1.54358,1.54358,0,0,0,.57817,1.99569l8.0987,5.1646a29.52966,29.52966,0,0,0-.38023,6.36011l-8.66355,4.18374a1.54526,1.54526,0,0,0-.78487,1.91059l3.61416,10.46677a1.58159,1.58159,0,0,0,1.8177,1.01929l9.38323-2.09332a28.75056,28.75056,0,0,0,4.234,4.76115l-3.17478,9.08513a1.56071,1.56071,0,0,0,.78878,1.90871l9.97866,4.84269a1.56071,1.56071,0,0,0,1.98757-.56134l5.1728-8.11549a28.75058,28.75058,0,0,0,6.36007.38021l4.1614,8.66659a1.58157,1.58157,0,0,0,1.92544.79727l10.47426-3.6296a1.563,1.563,0,0,0,.99988-1.80625l-2.07391-9.39467a29.53559,29.53559,0,0,0,4.76119-4.234l9.08511,3.17477a1.54238,1.54238,0,0,0,1.90872-.78879l4.83452-9.96185a1.56536,1.56536,0,0,0-.55318-2.00438Zm-44.4869,5.38555a17.17949,17.17949,0,1,1,22.95623-7.955,17.20082,17.20082,0,0,1-22.95623,7.955Zm0,0" fill="#7a97dd"/><path d="M365.7765,655.47259l-10.14492-10.79711a45.32832,45.32832,0,0,0,3.0057-9.34833l14.51587-2.91946a2.445,2.445,0,0,0,1.94018-2.55456l-1.42491-16.99075a2.43876,2.43876,0,0,0-2.3167-2.221l-14.8007-.46083a44.40212,44.40212,0,0,0-4.49585-8.71885L360.265,589.125a2.40462,2.40462,0,0,0-.42794-3.17065L346.80558,574.915a2.40467,2.40467,0,0,0-3.19781.09917l-10.81914,10.1263a44.40175,44.40175,0,0,0-9.33938-3.00138l-2.88773-14.52357a2.43873,2.43873,0,0,0-2.57162-1.92l-16.97367,1.40475a2.417,2.417,0,0,0-2.221,2.3167l-.49342,14.79829a45.31985,45.31985,0,0,0-8.727,4.50167l-12.29606-8.21331a2.41153,2.41153,0,0,0-3.18919.44994L263.06884,593.963a2.37677,2.37677,0,0,0,.09911,3.19776l10.10435,10.80054a45.46841,45.46841,0,0,0-2.99953,9.341l-14.52211,2.92687a2.37935,2.37935,0,0,0-1.90136,2.54955l1.38768,16.99384a2.4353,2.4353,0,0,0,2.32134,2.21549l14.79605.46632a44.27073,44.27073,0,0,0,4.49434,8.72074l-8.2099,12.33666a2.40319,2.40319,0,0,0,.44652,3.1486l13.0315,11.03937a2.40317,2.40317,0,0,0,3.17923-.07711l10.81919-10.12626a44.27062,44.27062,0,0,0,9.34089,2.99949l2.89238,14.51809a2.43531,2.43531,0,0,0,2.567,1.92554l17.01091-1.40784a2.40667,2.40667,0,0,0,2.18216-2.31168l.49965-14.80572A45.477,45.477,0,0,0,339.329,663.92l12.33663,8.20989a2.375,2.375,0,0,0,3.1486-.44653L365.835,658.67376a2.41033,2.41033,0,0,0-.05852-3.20117Zm-68.41373-8.98116a26.45285,26.45285,0,1,1,37.28251-3.08559,26.48569,26.48569,0,0,1-37.28251,3.08559Zm0,0" fill="#7a97dd"/><path d="M940.84672,341.70153a1.28753,1.28753,0,0,0-.12878-.50581,1.31935,1.31935,0,0,0-.60094-.63672,70.09591,70.09591,0,0,0-58.77883-31.937c-.26542,0-.53656.00858-.802.00858-.299,0-.61454.00574-.95865.01361h-.19245a.10948.10948,0,0,1-.0422.00572,70.10826,70.10826,0,0,0,.48648,140.172c.078,0,.151.00786.22892.01358.249.00858.4915.00858.74333.00858.14237,0,.28473,0,.42209-.00858.04149,0,.078.00858.11447.00858a70.10954,70.10954,0,0,0,58.77883-31.937,1.38554,1.38554,0,0,0,.60094-.63673,1.53249,1.53249,0,0,0,.13664-.51436,69.97853,69.97853,0,0,0-.00786-74.05444Zm-3.69729-.45a99.27472,99.27472,0,0,1-21.30088,5.86644c-4.66382-16.40456-12.61713-28.5724-22.12719-34.4882a67.38932,67.38932,0,0,1,43.42807,28.62176Zm-70.85724-28.0716c-9.04359,6.0503-16.6113,17.84112-21.14706,33.566a95.06533,95.06533,0,0,1-19.53665-5.61461,67.43211,67.43211,0,0,1,40.68371-27.95141Zm72.42187,100.59432a78.59128,78.59128,0,0,0-10.63041-3.66366A1.4461,1.4461,0,0,0,926.323,411.12a1.42908,1.42908,0,0,0,1.00873,1.75209,78.07642,78.07642,0,0,1,9.8177,3.34244,67.383,67.383,0,0,1-42.83284,28.50156c7.1313-4.52145,13.42769-12.62858,18.128-23.65031a1.42986,1.42986,0,1,0-2.632-1.11819c-6.91094,16.18919-17.24875,25.68568-28.3964,26.0262h-.17886c-.43568,0-.87137-.00572-1.30778-.01358-10.55242-.45-20.51248-9.26968-27.35045-24.23769a1.43319,1.43319,0,0,0-2.60485,1.19618c4.49355,9.81984,10.3235,17.16149,16.85455,21.4819a67.4574,67.4574,0,0,1-41.22028-28.06588,75.56434,75.56434,0,0,1,10.09956-3.46263,1.43066,1.43066,0,0,0-.74905-2.76153,77.773,77.773,0,0,0-10.9187,3.78385,67.09334,67.09334,0,0,1,0-70.3228,96.20482,96.20482,0,0,0,20.34793,5.9437,117.02807,117.02807,0,0,0-3.58568,29.21771,122.52611,122.52611,0,0,0,1.19618,17.22586,1.42946,1.42946,0,1,0,2.83091-.39924,120.851,120.851,0,0,1-1.16541-16.82662,113.99072,113.99072,0,0,1,3.54919-28.709c2.8674.49221,5.88.93648,8.94846,1.30206.05866.00573.11447.00573.17313.00573a1.43155,1.43155,0,0,0,.17027-2.8531c-2.92606-.34412-5.78775-.76049-8.52636-1.23266,6.25132-21.46829,18.2346-35.11133,31.52064-35.74018h.078a1.96919,1.96919,0,0,0,.21533-.00787c.23753,0,.48077,0,.71542-.00573.28476,0,.56447.00573.85779.0136,13.364.61526,25.40595,14.39207,31.6437,36.07857a193.94148,193.94148,0,0,1-24.23767,2.20206,1.43127,1.43127,0,0,0,.05007,2.86168h.04221a198.59874,198.59874,0,0,0,24.89658-2.28863,114.17258,114.17258,0,0,1,3.46262,28.37352,118.90757,118.90757,0,0,1-1.41652,18.48642,1.43165,1.43165,0,0,0,1.18759,1.6376,2.13194,2.13194,0,0,0,.22893.01358,1.421,1.421,0,0,0,1.40866-1.2069,121.84159,121.84159,0,0,0,1.453-18.9307,117.02645,117.02645,0,0,0-3.49053-28.8457,100.50173,100.50173,0,0,0,22.11933-6.19552,67.11772,67.11772,0,0,1,0,70.08242Zm0,0" fill="#7a97dd"/><path d="M903.77013,405.80161a218.882,218.882,0,0,0-22.2531-1.101c-6.98392,0-13.86409.30976-20.45382.925a1.42986,1.42986,0,1,0,.26541,2.84738c6.50316-.60309,13.29392-.91074,20.18841-.91074a217.57758,217.57758,0,0,1,21.96265,1.08387,1.32844,1.32844,0,0,0,.14808.00858,1.43024,1.43024,0,0,0,.14237-2.85309Zm-56.58176-5.807a8.9034,8.9034,0,1,0,8.90338,8.90337,8.91473,8.91473,0,0,0-8.90338-8.90337Zm68.736,0a8.9034,8.9034,0,1,0,8.90339,8.90337,8.91411,8.91411,0,0,0-8.90339-8.90337ZM872.052,362.23118a10.89476,10.89476,0,1,0-10.89369-10.89654A10.90818,10.90818,0,0,0,872.052,362.23118Zm0,0" fill="#7a97dd"/><path d="M1102.90777,585.21917l-18.43788-11.70208a66.81323,66.81323,0,0,0,.86907-14.448l19.65705-9.48277a3.60387,3.60387,0,0,0,1.835-4.35774l-8.25492-23.73787a3.5947,3.5947,0,0,0-4.12091-2.323l-21.30127,4.76065a65.44968,65.44968,0,0,0-9.61124-10.80289l7.20555-20.62013a3.5444,3.5444,0,0,0-1.77181-4.37041l-22.64807-10.9912a3.54446,3.54446,0,0,0-4.52955,1.31233l-11.74036,18.41937a65.44757,65.44757,0,0,0-14.43367-.8662l-9.44029-19.67966a3.59471,3.59471,0,0,0-4.37473-1.8l-23.72086,8.21988a3.5627,3.5627,0,0,0-2.323,4.12091l4.71324,21.30978a66.80027,66.80027,0,0,0-10.81233,9.62252l-20.56338-7.22538a3.5546,3.5546,0,0,0-4.38882,1.81l-10.97269,22.60993a3.50334,3.50334,0,0,0,1.31224,4.5295l18.38121,11.72184a67.02085,67.02085,0,0,0-.863,14.43523l-19.66324,9.49564a3.50719,3.50719,0,0,0-1.78137,4.33638l8.20288,23.7559a3.58963,3.58963,0,0,0,4.12554,2.31344l21.29665-4.75111a65.254,65.254,0,0,0,9.60977,10.80615L967.157,632.26027a3.5423,3.5423,0,0,0,1.79027,4.33212l22.64807,10.9912a3.54225,3.54225,0,0,0,4.51109-1.274l11.74045-18.41932a65.25557,65.25557,0,0,0,14.43513.86294l9.44493,19.67012a3.58963,3.58963,0,0,0,4.37009,1.80952l23.7729-8.23792a3.54743,3.54743,0,0,0,2.26939-4.09954l-4.70706-21.32264a67.03343,67.03343,0,0,0,10.80625-9.60973l20.62,7.20562a3.50063,3.50063,0,0,0,4.33212-1.79027l10.97269-22.60992a3.55283,3.55283,0,0,0-1.25553-4.54924ZM1001.938,597.44248a38.99145,38.99145,0,1,1,52.10263-18.055,39.03988,39.03988,0,0,1-52.10263,18.055Zm0,0" fill="#7a97dd"/><circle cx="889.45236" cy="109.00803" r="12" fill="#7a97dd"/><circle cx="932.10853" cy="109.00803" r="12" fill="#7a97dd"/><circle cx="974.76471" cy="109.00803" r="12" fill="#7a97dd"/></g></svg>