<svg xmlns="http://www.w3.org/2000/svg" viewBox="0 0 1109 792.52"><title>background 5</title><g id="background-16" data-name="background"><rect x="87.11181" y="59.07317" width="934.77556" height="674.3738" rx="56.75423" fill="#e0ecfc"/><path d="M965.1345,59.073H143.8655a56.922,56.922,0,0,0-56.75423,56.75423V155.073h934.77746V115.82726A56.922,56.922,0,0,0,965.1345,59.073Z" fill="#b3c8f3"/><circle cx="875.34476" cy="109.00803" r="12" fill="#7a97dd"/><circle cx="918.00093" cy="109.00803" r="12" fill="#7a97dd"/><circle cx="960.6571" cy="109.00803" r="12" fill="#7a97dd"/><rect x="134.03267" y="206.45243" width="578.19101" height="113.25409" fill="#b3c8f3"/><rect x="206.8993" y="362.65669" width="136.04887" height="126.69101" fill="#b3c8f3"/><rect x="479.71688" y="513.82211" width="147.56624" height="157.64393" fill="#b3c8f3"/><line x1="363.10356" y1="362.65669" x2="456.68215" y2="362.65669" fill="none" stroke="#b3c8f3" stroke-miterlimit="10" stroke-width="4"/><line x1="363.10356" y1="404.40714" x2="625.84345" y2="404.40714" fill="none" stroke="#b3c8f3" stroke-miterlimit="10" stroke-width="4"/><line x1="363.10356" y1="426.0022" x2="625.84345" y2="426.0022" fill="none" stroke="#b3c8f3" stroke-miterlimit="10" stroke-width="4"/><line x1="363.10356" y1="445.6777" x2="625.84345" y2="445.6777" fill="none" stroke="#b3c8f3" stroke-miterlimit="10" stroke-width="4"/><line x1="363.10356" y1="467.27276" x2="625.84345" y2="467.27276" fill="none" stroke="#b3c8f3" stroke-miterlimit="10" stroke-width="4"/><line x1="362.14378" y1="548.3742" x2="455.72237" y2="548.3742" fill="none" stroke="#b3c8f3" stroke-miterlimit="10" stroke-width="4"/><line x1="192.98248" y1="590.12465" x2="455.72237" y2="590.12465" fill="none" stroke="#b3c8f3" stroke-miterlimit="10" stroke-width="4"/><line x1="192.98248" y1="611.71971" x2="455.72237" y2="611.71971" fill="none" stroke="#b3c8f3" stroke-miterlimit="10" stroke-width="4"/><line x1="192.98248" y1="631.39521" x2="455.72237" y2="631.39521" fill="none" stroke="#b3c8f3" stroke-miterlimit="10" stroke-width="4"/><line x1="192.98248" y1="652.99027" x2="455.72237" y2="652.99027" fill="none" stroke="#b3c8f3" stroke-miterlimit="10" stroke-width="4"/><line x1="738.04634" y1="209.28057" x2="862.81779" y2="209.28057" fill="none" stroke="#7a97dd" stroke-miterlimit="10" stroke-width="5"/><line x1="738.04634" y1="385.40028" x2="862.81779" y2="385.40028" fill="none" stroke="#6986ed" stroke-miterlimit="10" stroke-width="5"/><line x1="762.04085" y1="289.90213" x2="886.8123" y2="289.90213" fill="none" stroke="#6986ed" stroke-miterlimit="10" stroke-width="5"/><line x1="901.04905" y1="289.90213" x2="961.83514" y2="289.90213" fill="none" stroke="#b3c8f3" stroke-miterlimit="10" stroke-width="5"/><line x1="925.04356" y1="442.02733" x2="985.82965" y2="442.02733" fill="none" stroke="#6986ed" stroke-miterlimit="10" stroke-width="5"/><line x1="894.65051" y1="490.01635" x2="955.4366" y2="490.01635" fill="none" stroke="#b3c8f3" stroke-miterlimit="10" stroke-width="5"/><line x1="869.05637" y1="265.42773" x2="961.83514" y2="265.42773" fill="none" stroke="#6986ed" stroke-miterlimit="10" stroke-width="5"/><line x1="813.06917" y1="442.02733" x2="905.84795" y2="442.02733" fill="none" stroke="#b3c8f3" stroke-miterlimit="10" stroke-width="5"/><line x1="756.44213" y1="490.01635" x2="882.49329" y2="490.01635" fill="none" stroke="#6986ed" stroke-miterlimit="10" stroke-width="5"/><line x1="823.44213" y1="345.01635" x2="949.49329" y2="345.01635" fill="none" stroke="#6986ed" stroke-miterlimit="10" stroke-width="5"/><line x1="876.41468" y1="466.02184" x2="969.19346" y2="466.02184" fill="none" stroke="#7a97dd" stroke-miterlimit="10" stroke-width="5"/><line x1="813.06917" y1="417.55292" x2="827.78581" y2="417.55292" fill="none" stroke="#6986ed" stroke-miterlimit="10" stroke-width="5"/><line x1="813.06917" y1="241.91311" x2="827.78581" y2="241.91311" fill="none" stroke="#b3c8f3" stroke-miterlimit="10" stroke-width="5"/><line x1="961.83514" y1="547.28057" x2="837.06368" y2="547.28057" fill="none" stroke="#7a97dd" stroke-miterlimit="10" stroke-width="5"/><line x1="937.84063" y1="627.90213" x2="813.06917" y2="627.90213" fill="none" stroke="#6986ed" stroke-miterlimit="10" stroke-width="5"/><line x1="798.83243" y1="627.90213" x2="738.04634" y2="627.90213" fill="none" stroke="#b3c8f3" stroke-miterlimit="10" stroke-width="5"/><line x1="830.82511" y1="603.42773" x2="738.04634" y2="603.42773" fill="none" stroke="#6986ed" stroke-miterlimit="10" stroke-width="5"/><line x1="886.8123" y1="579.91311" x2="872.09567" y2="579.91311" fill="none" stroke="#b3c8f3" stroke-miterlimit="10" stroke-width="5"/></g></svg>