<svg xmlns="http://www.w3.org/2000/svg" viewBox="0 0 1109 792.52"><title>background 16</title><g id="background-5" data-name="background"><path d="M468.10246,414.06062C443.85811,252.127,504.67171,114.47293,672.27807,42.79622c146.94948-62.84282,334.19265,71.54588,366.626,231.59507S970.64888,589.91823,814.00982,621.66056,492.28225,575.563,468.10246,414.06062Z" fill="#b3c8f3"/><path d="M840.56436,712.07948c23.88162-15.851,129.4-90.34715,144.70891-214.7278C1006.752,322.84182,833.28463,191.29453,785.69662,155.20747,676.60228,72.47789,412.0095-64.37025,235.85091,71.09235,94.76582,179.58428,96.78728,410.7263,176.12526,552.38905,306.86638,785.83423,651.08783,837.83589,840.56436,712.07948Z" fill="#e0ecfc"/><path d="M869.09661,630.504c-13.58447,30.76144-44.73527,101.29878-115.13291,131.33068-136.24762,58.12456-311.55889-81.52134-393.25829-177.58785C283.08093,492.974,137.72063,262.02737,245.62758,114.62311,333.94543-6.02226,543.49629-4.55032,677.44815,63.06954,886.80167,168.75194,947.06133,453.96349,869.09661,630.504Z" fill="none" stroke="#000" stroke-miterlimit="10" stroke-width="3"/><rect x="52.34444" y="69.91956" width="354.01845" height="521.4186" rx="14.04835" fill="#b3c8f3"/><rect x="73.58555" y="90.8797" width="310.52475" height="473.87898" rx="5.61934" fill="#e0ecfc"/><rect x="143.37775" y="59.91714" width="171.95182" height="39.95351" rx="1.40484" fill="#6986ed"/><path d="M180.29682,41.09235h95.4164a15.678,15.678,0,0,1,15.678,15.678V61.322a0,0,0,0,1,0,0H164.61886a0,0,0,0,1,0,0V56.77031A15.678,15.678,0,0,1,180.29682,41.09235Z" fill="#6986ed"/><circle cx="127.19405" cy="167.52751" r="30.6816" fill="#6986ed"/><polyline points="114.719 166.179 123.991 179.497 140.343 151.344" fill="none" stroke="#000" stroke-linecap="round" stroke-linejoin="round" stroke-width="3"/><line x1="171.02491" y1="159.43566" x2="354.44018" y2="159.43566" fill="none" stroke="#000" stroke-linecap="round" stroke-linejoin="round" stroke-width="3"/><line x1="171.02491" y1="174.27071" x2="308.08062" y2="174.27071" fill="none" stroke="#000" stroke-linecap="round" stroke-linejoin="round" stroke-width="3"/><circle cx="127.19405" cy="269.01279" r="30.6816" fill="#6986ed"/><polyline points="114.719 267.664 123.991 280.982 140.343 252.829" fill="none" stroke="#000" stroke-linecap="round" stroke-linejoin="round" stroke-width="3"/><line x1="171.02491" y1="260.92094" x2="354.44018" y2="260.92094" fill="none" stroke="#000" stroke-linecap="round" stroke-linejoin="round" stroke-width="3"/><line x1="171.02491" y1="275.756" x2="308.08062" y2="275.756" fill="none" stroke="#000" stroke-linecap="round" stroke-linejoin="round" stroke-width="3"/><circle cx="127.19405" cy="374.54401" r="30.6816" fill="#6986ed"/><polyline points="114.719 373.195 123.991 386.513 140.343 358.36" fill="none" stroke="#000" stroke-linecap="round" stroke-linejoin="round" stroke-width="3"/><line x1="171.02491" y1="366.45216" x2="354.44018" y2="366.45216" fill="none" stroke="#000" stroke-linecap="round" stroke-linejoin="round" stroke-width="3"/><line x1="171.02491" y1="381.28722" x2="308.08062" y2="381.28722" fill="none" stroke="#000" stroke-linecap="round" stroke-linejoin="round" stroke-width="3"/><line x1="171.02491" y1="471.98337" x2="308.08062" y2="471.98337" fill="none" stroke="#000" stroke-linecap="round" stroke-linejoin="round" stroke-width="3"/><rect x="753.97945" y="315.85104" width="303.7" height="433.54275" rx="25.21664" fill="#6986ed"/><rect x="775.9867" y="338.95865" width="258.58514" height="391.72899" rx="11.46211" fill="#b3c8f3"/><rect x="897.02656" y="402.77966" width="118.83913" height="57.21884" fill="#e0ecfc"/><rect x="897.02656" y="504.01299" width="118.83913" height="57.21884" fill="#e0ecfc"/><rect x="897.02656" y="605.24633" width="118.83913" height="57.21884" fill="#e0ecfc"/><circle cx="834.3059" cy="431.38908" r="32.46069" fill="none" stroke="#2f170b" stroke-miterlimit="10" stroke-width="2"/><circle cx="834.3059" cy="532.62241" r="32.46069" fill="#6986ed"/><circle cx="834.3059" cy="633.85575" r="32.46069" fill="none" stroke="#2f170b" stroke-miterlimit="10" stroke-width="2"/></g></svg>