<svg xmlns="http://www.w3.org/2000/svg" viewBox="0 0 1109 792.52"><title>background 11</title><g id="background-10" data-name="background"><path d="M860.85531,711.73617c23.88162-15.851,129.4-90.34714,144.70891-214.72779C1027.043,322.49852,853.57558,190.95123,805.98757,154.86417,696.89323,72.13459,432.30045-64.71355,256.14186,70.749,115.05677,179.241,117.07823,410.383,196.41621,552.04575,327.15733,785.49093,671.37878,837.49259,860.85531,711.73617Z" fill="#e0ecfc"/><path d="M447.97064,767.3875c-32.8309-7.27569-108.11383-23.96014-151.392-87.08491-83.76148-122.17158,18.71732-321.50325,96.859-420.48527C467.67968,165.77265,665.56429-22.1306,831.29685,54.71107c135.64641,62.892,175.37565,268.64745,135.39267,413.27425C904.20082,694.02254,636.38844,809.14589,447.97064,767.3875Z" fill="none" stroke="#000" stroke-miterlimit="10" stroke-width="3"/><path d="M808.16592,658.47337H935.18367a9.9203,9.9203,0,0,1,9.9203,9.9203v3.94395a0,0,0,0,1,0,0H798.24562a0,0,0,0,1,0,0v-3.94395A9.9203,9.9203,0,0,1,808.16592,658.47337Z" fill="none" stroke="#7a97dd" stroke-miterlimit="10" stroke-width="4"/><rect x="765.63896" y="670.82269" width="212.07168" height="110.914" rx="3.78732" fill="#b3c8f3"/><path d="M921.20147,690.1461a36.13492,36.13492,0,1,0,36.13861,36.13122A36.13489,36.13489,0,0,0,921.20147,690.1461Zm0,64.89195a28.757,28.757,0,1,1,28.76091-28.76073A28.75952,28.75952,0,0,1,921.20147,755.03805Z" fill="#7a97dd"/><circle cx="921.20454" cy="726.27969" r="14.63449" fill="#7a97dd"/><rect x="807.61682" y="653.21009" width="128.11594" height="10.52656" fill="#7a97dd"/><rect x="852.73982" y="686.99765" width="37.86994" height="10.52656" rx="3.78732" fill="#7a97dd"/><line x1="765.63896" y1="679.91227" x2="977.71063" y2="679.91227" fill="none" stroke="#7a97dd" stroke-miterlimit="10" stroke-width="3"/><line x1="765.63896" y1="772.64712" x2="977.71063" y2="772.64712" fill="none" stroke="#7a97dd" stroke-miterlimit="10" stroke-width="3"/><path d="M822.14125,690.1461a36.13492,36.13492,0,1,0,36.13862,36.13122A36.13489,36.13489,0,0,0,822.14125,690.1461Zm0,64.89195a28.757,28.757,0,1,1,28.76092-28.76073A28.75951,28.75951,0,0,1,822.14125,755.03805Z" fill="#7a97dd"/><circle cx="822.14433" cy="726.27969" r="14.63449" fill="#7a97dd"/><rect x="780.78825" y="781.73669" width="25.41779" height="10.78331" fill="#7a97dd"/><rect x="937.14355" y="781.73669" width="25.41779" height="10.78331" fill="#7a97dd"/><path d="M321.02748,198.0008c-2.317-21.72222-7.30079-42.47115-22.60267-42.47115s-29.71157,19.32164-32.81033,42.47115c-2.89834,21.65231,12.40463,39.55467,27.7065,39.55467S323.94395,225.34273,321.02748,198.0008Z" fill="#b3c8f3"/><path d="M355.053,264.53285c1.26168-21.809-10.23575-29.45361-25.53763-29.45361S299.8038,254.40088,296.705,277.55039c-2.89834,21.65232,4.15977,30.9726,19.46165,30.9726S353.35173,293.94062,355.053,264.53285Z" fill="#b3c8f3"/><path d="M265.25855,229.17061c-10.98962-11.14677-24.72621-13.76853-31.53194-8.12118s-3.83868,17.64035,5.39657,31.57448c8.638,13.033,20.2938,20.9014,29.94022,15.62983C276.82387,264.01281,279.09129,243.20114,265.25855,229.17061Z" fill="#b3c8f3"/><path d="M247.62956,230.50732s31.59513,33.05337,23.33179,85.06381" fill="none" stroke="#2f170b" stroke-miterlimit="10" stroke-width="2"/><path d="M298.66785,162.94235s-8.74942,132.45651-19.44316,152.62878" fill="none" stroke="#2f170b" stroke-miterlimit="10" stroke-width="2"/><path d="M292.34882,315.57113s10.69374-8.50638,45.69142-65.62065" fill="none" stroke="#2f170b" stroke-miterlimit="10" stroke-width="2"/><path d="M258.92758,42.87116A163.81051,163.81051,0,1,0,422.74792,206.692,163.81951,163.81951,0,0,0,258.92758,42.87116Zm96.1259,221.66172c-1.70169,29.40789-23.58462,43.99029-38.88673,43.99029-4.85492,0-8.87361-.94718-12.01372-2.92022a108.74742,108.74742,0,1,1,50.83085-47.88844A49.30793,49.30793,0,0,1,355.05348,264.53288Z" fill="#7a97dd"/><path d="M264.22471,460.99058h0a37.73457,37.73457,0,0,1,15,15h0a37.73457,37.73457,0,0,1,15-15h0a37.73444,37.73444,0,0,1-15-15h0A37.73444,37.73444,0,0,1,264.22471,460.99058Z" fill="#7a97dd"/><path d="M772.1059,496.56277h0a37.73444,37.73444,0,0,1,15,15h0a37.73444,37.73444,0,0,1,15-15h0a37.73457,37.73457,0,0,1-15-15h0A37.73457,37.73457,0,0,1,772.1059,496.56277Z" fill="#7a97dd"/><path d="M943.10622,545.91669h0a37.73451,37.73451,0,0,1,15,15h0a37.73463,37.73463,0,0,1,15-15h0a37.73451,37.73451,0,0,1-15-15h0A37.73438,37.73438,0,0,1,943.10622,545.91669Z" fill="#7a97dd"/><path d="M878.30444,418.01372h0a52.31311,52.31311,0,0,1,20.79517,20.79517h0a52.31311,52.31311,0,0,1,20.79517-20.79517h0a52.31311,52.31311,0,0,1-20.79517-20.79517h0A52.31311,52.31311,0,0,1,878.30444,418.01372Z" fill="#7a97dd"/><path d="M134.45085,400.11835h0a51.34676,51.34676,0,0,1,20.411,20.411h0a51.34676,51.34676,0,0,1,20.411-20.411h0a51.34682,51.34682,0,0,1-20.411-20.411h0A51.34676,51.34676,0,0,1,134.45085,400.11835Z" fill="#7a97dd"/><path d="M131.06809,550.642h0a22.12213,22.12213,0,0,1,8.7938,8.7938h0a22.122,22.122,0,0,1,8.7938-8.7938h0a22.122,22.122,0,0,1-8.7938-8.79381h0A22.12209,22.12209,0,0,1,131.06809,550.642Z" fill="#7a97dd"/><line x1="311.56777" y1="597.22588" x2="335.56777" y2="792.52" fill="none" stroke="#7a97dd" stroke-miterlimit="10" stroke-width="2"/><line x1="178.86189" y1="597.22588" x2="154.86189" y2="792.52" fill="none" stroke="#7a97dd" stroke-miterlimit="10" stroke-width="2"/><polygon points="174.862 627.932 315.568 627.932 311.568 597.226 178.862 597.226 174.862 627.932" fill="#7a97dd"/><polygon points="312.98 608.063 178.862 597.226 311.568 597.226 312.98 608.063" fill="#2f170b"/><rect x="199.33248" y="550.99059" width="142.23529" height="46.23529" transform="translate(540.90024 1148.21647) rotate(-180)" fill="#b3c8f3"/><line x1="335.56777" y1="577.10824" x2="279.09718" y2="577.10824" fill="none" stroke="#2f170b" stroke-miterlimit="10" stroke-width="2"/><line x1="262.156" y1="560.87294" x2="205.68542" y2="560.87294" fill="none" stroke="#2f170b" stroke-miterlimit="10" stroke-width="2"/><polyline points="275.568 524.52 245.215 460.991 147.45 460.991 193.332 554.873" fill="none" stroke="#7a97dd" stroke-miterlimit="10" stroke-width="2"/><path d="M199.33532,538.86825c0,4.42,35.34033,8,78.93994,8,43.6001,0,78.93994-3.58,78.93994-8,0-4.41-35.33984-8-78.93994-8C234.67565,530.86825,199.33532,534.45821,199.33532,538.86825Zm49.59033,0c0-1.64,13.13965-2.97,29.34961-2.97s29.3501,1.33,29.3501,2.97c0,1.65-13.14014,2.98-29.3501,2.98S248.92565,540.51821,248.92565,538.86825Z" fill="#6986ed"/><line x1="284.92071" y1="538.86825" x2="284.92071" y2="521.34353" fill="none" stroke="#2f170b" stroke-miterlimit="10" stroke-width="2"/><polyline points="258.274 538.868 258.274 516.402 208.156 516.402 208.156 538.873" fill="none" stroke="#2f170b" stroke-miterlimit="10" stroke-width="2"/><path d="M923.15656,197.061a39.09076,39.09076,0,0,0-62.21536-8.44363l-22.34086,22.341c-18.11923,18.11923-13.8976,48.90371,8.44344,61.59919,26.5929,16.3013,24.159,16.3013,36.23846,56.17562,10.87754,35.62246,55.58967,46.50019,81.53653,20.52329L999.26952,314.836c26.56267-26.56285,15.09936-71.27516-19.93734-81.53653-40.46027-12.07967-40.46027-9.67579-56.17562-36.23845Zm0,0" fill="#7a97dd"/><path d="M750.40789,116.72624,883.89841,264.11418l30.81471-30.81471L767.32518,99.809ZM767.32518,99.809" fill="#b3c8f3"/><path d="M776.3848,99.22319c0-.61617-1.20176-.61617-1.20176.58577l-25.36091,25.39113c-.61618,0-.61618.58577,0,1.20194a5.28933,5.28933,0,0,1,.58576,7.24169c-.58576,0-.58576.616,0,1.20175a1.12491,1.12491,0,0,0,1.81794,0l33.21858-33.21858a1.1249,1.1249,0,0,0,0-1.81793c0-.58577-.58595-.58577-1.20175,0-3.02006,2.4341-6.03993.616-7.85786-.58577Zm0,0" fill="#fcd2e0"/><path d="M764.3055,87.14352c-.586-.61581-1.20213-.61581-1.81812.586l-25.36073,25.39114c-.58594,0-.58594.58595,0,1.20175a5.31848,5.31848,0,0,1,.61581,7.24169c-.61581,0-.61581.61617,0,1.20212a1.12511,1.12511,0,0,0,1.81793,0L772.77916,89.5474a1.15967,1.15967,0,0,0,0-1.81793c0-.586-.61617-.586-1.23217,0a5.28873,5.28873,0,0,1-7.24149-.586Zm0,0" fill="#fcd2e0"/><path d="M752.22583,75.06422c-.58577-.61618-1.20194-.61618-1.81794.58576L725.047,101.04112c-.58576,0-.58576.58577,0,1.20194a5.318,5.318,0,0,1,.61618,7.2415c-.61618,0-.61618.61618,0,1.20194a1.1249,1.1249,0,0,0,1.81793,0l33.21859-33.2184a1.1601,1.1601,0,0,0,0-1.81812c0-.58576-.61618-.58576-1.23217,0a5.28957,5.28957,0,0,1-7.24168-.58576Zm0,0" fill="#fcd2e0"/><path d="M859.12327,239.95521a31.41577,31.41577,0,1,1,31.43088,31.40065,31.42377,31.42377,0,0,1-31.43088-31.40065Zm0,0" fill="#6986ed"/><path d="M866.395,239.95521a24.15907,24.15907,0,1,1,24.15916,24.159,24.14477,24.14477,0,0,1-24.15916-24.159Zm0,0" fill="#fcd2e0"/><path d="M774.56687,110.6865,956.37533,281.61723l.61581-1.81793L775.79885,110.10074Zm1.232-.58576"/><path d="M770.96123,114.90831,949.13365,287.65716l1.20175-1.81793L772.163,113.70656Zm1.20176-1.20175"/><path d="M767.32518,118.54418,942.47773,293.08073l1.20194-1.20194L768.52712,117.34242Zm1.20194-1.20176"/><path d="M763.71955,122.18022,935.236,299.12047l1.81794-1.20194L764.9213,120.94806Zm1.20175-1.23216"/><path d="M760.0835,125.78586,928.58031,304.57445l1.232-.616L761.28544,124.5841Zm1.20194-1.20176"/><path d="M732.90466,76.266a5.02254,5.02254,0,0,0-3.63587,2.40388,5.56245,5.56245,0,0,0-1.7877,4.252c-.61618,3.01988-1.23217,7.82745-3.01987,12.07949a4.82091,4.82091,0,0,0,1.7877,6.62551l33.21859,27.17884a7.30652,7.30652,0,0,0,9.05961-.58576l10.87755-10.87755a6.55845,6.55845,0,0,0,.61618-9.05961L752.842,75.06422a7.33933,7.33933,0,0,0-7.85786-1.81812c-4.22162,1.81812-8.44343,2.40388-12.07948,3.01988Zm0,0" fill="#fcd2e0"/><path d="M916.50082,308.18008c-3.01987,3.01988-3.01987,7.27192,0,9.67561,3.01987,2.40388,7.27191,2.40388,9.67561,0l42.89438-42.89419c2.40369-3.01987,3.01987-7.2415,0-9.64538-3.02006-2.43411-7.27191-2.43411-9.67579,0l-42.8942,42.864Zm0,0" fill="#6986ed"/></g></svg>