<svg xmlns="http://www.w3.org/2000/svg" viewBox="0 0 1109 792.52"><title>background 8</title><g id="background-13" data-name="background"><path d="M264.3816,153.59663c85.7144-24.422,202.07887,139.07026,220.20345,164.53453C515.325,361.31953,566.34593,433.00407,566.233,534.62369c-.018,17.44556-2.17186,179.37949-98.969,218.96605-85.029,34.77431-192.47746-45.5592-243.70637-113.81264C97.94091,472.41477,163.68489,182.28662,264.3816,153.59663Z" fill="#b3c8f3"/><path d="M852.00282,357.09955c-6.38616,169.87178-98.34936,302.47068-293.19244,315.46022C406.4465,682.71736,260.2466,556.7817,260.2466,386.78992S364.75747,73.87079,538.39825,54.62843C689.09231,37.929,861.28106,110.29832,852.00282,357.09955Z" fill="#e0ecfc"/><ellipse cx="399.88781" cy="618.7462" rx="67.15711" ry="74.03847" transform="translate(-61.50818 44.40235) rotate(-5.90239)" fill="#7a97dd"/><path d="M420.86023,757.3875c-32.83091-7.27569-108.11384-23.96014-151.39206-87.08491-83.76148-122.17158,18.71732-321.50325,96.859-420.48527C440.56926,155.77265,638.45388-32.1306,804.18644,44.71107c135.6464,62.892,175.37565,268.64745,135.39267,413.27425C877.0904,684.02254,609.278,799.14589,420.86023,757.3875Z" fill="none" stroke="#000" stroke-miterlimit="10" stroke-width="3"/></g></svg>