<svg xmlns="http://www.w3.org/2000/svg" viewBox="0 0 1109 792.52"><title>background 7</title><g id="background-14" data-name="background"><path d="M538.37605,70.46408c38.04069,44.15841,24.57613,110.66683,23.51915,115.53854-17.99413,82.90242-93.97935,80.27378-150.96634,168.535C340.41074,463.75691,395.762,562.26277,330.48662,602.096c-38.78873,23.66966-99.17186,13.80661-135.20745-14.62075C81.49571,497.71591,122.38511,153.39887,302.327,59.73626,371.83659,23.55562,487.58824,11.50831,538.37605,70.46408Z" fill="#7a97dd"/><path d="M255.16115,595.88025C220.26054,460.22341,411.36243,321.23881,559.269,213.66958c142.9414-103.9589,206.34965-100.03431,235.95652-94.632,81.93709,14.9511,151.22831,86.15678,173.28992,159.59749,55.793,185.73444-162.86654,477.76639-411.15356,484.34744C435.2222,766.21938,282.20668,701.007,255.16115,595.88025Z" fill="#e0ecfc"/><ellipse cx="256.99097" cy="706.01008" rx="33.09689" ry="30.02076" transform="translate(-38.33054 15.15568) rotate(-3.14365)" fill="#e0ecfc"/><path d="M686.76574,91.77073c94.62875,25.16518,135.589,184.46372,137.48869,283.33009.365,18.98117,1.57527,273.45042-177.45856,333.766-131.63335,44.34691-288.58225-40.56044-332.20745-148.78517C233.46159,358.82125,533.83785,51.10073,686.76574,91.77073Z" fill="none" stroke="#000" stroke-miterlimit="10" stroke-width="3"/></g></svg>