<svg xmlns="http://www.w3.org/2000/svg" viewBox="0 0 1109 792.52"><title>background 15</title><g id="background-6" data-name="background"><path d="M112.95158,337.78807c24.6039-73.002,75.22819-115.92049,97.66-134.46241,81.24-67.14946,143.15582-55.55753,327.88122-96.42259C767.99919,56.13089,805.74459,8.74293,884.87709,43.05175c77.66217,33.67029,126.01,115.78653,140.2707,184.5523C1063.22231,411.18382,883.3701,630.892,676.76127,709.72456,542.9836,760.76736,307.427,787.30957,180.131,641.58474,117.83257,570.26588,75.599,448.63189,112.95158,337.78807Z" fill="#e0ecfc"/><rect x="112.77713" y="79.09093" width="369.31497" height="507.55921" rx="22.32114" fill="#7a97dd"/><rect x="142.75067" y="128.1679" width="309.63695" height="404.45452" rx="3.06784" fill="#e0ecfc"/><rect x="142.75067" y="128.1679" width="309.63695" height="404.45452" rx="3.06784" stroke-width="3" stroke="#000" stroke-linecap="round" stroke-linejoin="round" fill="none"/><circle cx="297.43462" cy="103.73704" r="8.94632"/><circle cx="297.43462" cy="559.38067" r="16.58769"/><line x1="265.92742" y1="205.65785" x2="402.98777" y2="205.65785" fill="none" stroke="#000" stroke-linecap="round" stroke-linejoin="round" stroke-width="3"/><line x1="265.92742" y1="227.61334" x2="402.98777" y2="227.61334" fill="none" stroke="#000" stroke-linecap="round" stroke-linejoin="round" stroke-width="3"/><line x1="201.9982" y1="249.56883" x2="402.98777" y2="249.56883" fill="none" stroke="#000" stroke-linecap="round" stroke-linejoin="round" stroke-width="3"/><rect x="280.06525" y="326.35322" width="216.48756" height="132.10957" rx="6.72656" transform="translate(-105.95152 146.49245) rotate(-18.84853)" fill="#b3c8f3"/><rect x="265.93994" y="338.11494" width="216.48746" height="25.83" transform="translate(-93.34107 139.71015) rotate(-18.84853)" fill="#6986ed"/><rect x="300.87588" y="372.83383" width="167.8949" height="18.72674" transform="translate(-102.83965 144.81879) rotate(-18.84853)" stroke-width="3" stroke="#000" stroke-linecap="round" stroke-linejoin="round" fill="none"/><rect x="370.52016" y="396.11141" width="216.48756" height="132.10957" rx="6.72656" transform="translate(-123.63755 179.45619) rotate(-18.84853)" fill="#6986ed"/><rect x="379.93019" y="451.58523" width="37.45348" height="23.05866" transform="translate(-128.2396 153.62709) rotate(-18.84853)" fill="#e0ecfc"/><rect x="387.38359" y="463.79849" width="191.14189" height="16.78949" transform="matrix(0.94638, -0.32307, 0.32307, 0.94638, -126.65224, 181.34773)" fill="#e0ecfc"/><line x1="484.08495" y1="501.48911" x2="582.47558" y2="467.90119" fill="none" stroke="#000" stroke-linecap="round" stroke-linejoin="round" stroke-width="3"/><line x1="526.03524" y1="499.45052" x2="586.23075" y2="478.90139" fill="none" stroke="#000" stroke-linecap="round" stroke-linejoin="round" stroke-width="3"/><circle cx="538.69021" cy="399.60294" r="11.46206" fill="none" stroke="#000" stroke-linecap="round" stroke-linejoin="round" stroke-width="3"/><circle cx="523.1066" cy="404.92276" r="13.23787"/><rect x="580.5442" y="121.18" width="89.94718" height="58.68" rx="2" fill="#b3c8f3"/><polyline points="582.476 122.44 625.518 150.52 668.56 122.44" fill="none" stroke="#000" stroke-linecap="round" stroke-linejoin="round" stroke-width="3"/><line x1="640.2176" y1="140.9301" x2="668.56" y2="178.6" fill="none" stroke="#000" stroke-linecap="round" stroke-linejoin="round" stroke-width="3"/><line x1="582.47558" y1="178.6" x2="610.81799" y2="140.9301" fill="none" stroke="#000" stroke-linecap="round" stroke-linejoin="round" stroke-width="3"/><path d="M1010.54128,270.41139a13.34759,13.34759,0,0,0-12.97507-16.479H930.89527a13.34734,13.34734,0,0,0-12.97481,10.21589L909.242,300.10654a12.92583,12.92583,0,0,0,12.56506,15.9584h0l-3.35234,11.93213,16.45468-11.93213h54.43646a12.92585,12.92585,0,0,0,12.56511-9.8934Z" fill="#b3c8f3"/></g></svg>