<svg xmlns="http://www.w3.org/2000/svg" viewBox="0 0 1109 792.52"><title>bacground 1</title><g id="background-20" data-name="background"><path d="M89,658c-46.01611-64.38818-30.38354-158.07227-4-215,39.38086-84.97266,95.35962-72.18457,163-173,61.09009-91.05225,33.43018-128.314,87-177,66.70947-60.62744,190.73267-76.57812,269-27,87.971,55.7251,41.48193,145.67725,131,242,108.74829,117.01416,248.77344,61.11035,295,157,37.2832,77.33838-9.60156,205.39258-90,250-87.82251,48.72656-149.23145-38.9585-339-28-119.9541,6.92676-125.804,43.7168-254,45C257.699,732.89355,143.342,734.03809,89,658Z" fill="#e0ecfc"/><path d="M908.73161,254.09271H719.05186l189.67979,0a28.87924,28.87924,0,0,0-4.31755-5.127c-7.719-7.24433-18.1939-8.89451-22.05955-9.30959-7.05262-.7573-10.80809.58818-14.774-2.631-.892-.72412-.78691-.861-3.64279-4.6548-4.96194-6.59154-7.50465-9.92025-10.5239-11.53571-3.04683-1.63016-3.06727-.2669-8.09529-2.02382-4.95663-1.73194-8.32292-4.23986-12.34523-7.28578-5.30451-4.01685-5.5047-5.07919-8.5-7.2857-7.61217-5.60746-19.55926-8.49939-29.75012-4.85716a32.53815,32.53815,0,0,0-11.33349,7.2857c-5.792,5.50939-5.0717,8.664-10.72619,12.54766a30.74632,30.74632,0,0,1-12.34523,4.6548l-.10139.01688a53.76193,53.76193,0,0,0-34.81175,21.45715l-6.35332,8.74833Z" fill="#b3c8f3"/><path d="M640.04913,373.61572h0a19.28522,19.28522,0,0,0-2.88325-3.4238c-5.15472-4.83775-12.14984-5.93974-14.73131-6.21693-4.70973-.50572-7.21763.39279-9.866-1.757-.5957-.48356-.52549-.575-2.43264-3.10846-3.31358-4.40182-5.01159-6.62472-7.02784-7.70352-2.03467-1.08862-2.04831-.17824-5.406-1.35151a28.67257,28.67257,0,0,1-8.24411-4.86542c-3.54234-2.68244-3.676-3.39187-5.67629-4.86538-5.08339-3.74465-13.06163-5.67587-19.86706-3.2436a21.7288,21.7288,0,0,0-7.56848,4.86538c-3.86787,3.67916-3.38687,5.78581-7.16293,8.3793a20.53233,20.53233,0,0,1-8.24412,3.10846l-.0677.01127a35.90218,35.90218,0,0,0-23.24722,14.329l-4.24273,5.84212Z" fill="#b3c8f3"/><path d="M285.63767,763.18249c-.75782,0-1.50416.03806-2.24086.10271.00026-.03441.00235-.0683.00235-.10271,0-16.06086-12.34505-29.08108-27.57353-29.08108-10.996,0-20.48626,6.79035-24.91323,16.61091a22.02464,22.02464,0,0,0-31.23356,12.72512,23.47905,23.47905,0,0,0-16.98785-.21481,37.27633,37.27633,0,0,0-71.62084-3.97494,16.5107,16.5107,0,0,0,.43534,33.01587c1.25859,0,173.03465.437,174.21242.17006,18.14778,0,21.7589-11.816,18.12748-20.39328C300.40206,763.90739,297.07239,763.18249,285.63767,763.18249Z" fill="#599e08"/><path d="M256.57942,792.52H218.13973V661.38281a18.91756,18.91756,0,0,1,1.382-7.09775h0a5.07769,5.07769,0,0,0,.02972-3.7351l-.14046-.36353a18.91758,18.91758,0,0,1-1.27126-6.8178V445.44019a20.11589,20.11589,0,0,1,1.05719-6.43548L224.34109,423.77a2.13555,2.13555,0,0,0-.23278-1.847l-2.71869-4.18259a20.11613,20.11613,0,0,1-3.24989-10.96306V362.11573a18.21488,18.21488,0,0,1,18.21489-18.21489h2.26115a17.96365,17.96365,0,0,1,17.96365,17.96365v47.77509a15.93863,15.93863,0,0,1-2.21665,8.10846h0a4.16584,4.16584,0,0,0-.273,3.68719l1.31768,3.24352a15.93872,15.93872,0,0,1,1.172,5.99891V626.66557a20.36055,20.36055,0,0,1-1.10308,6.61075l-4.37722,12.75108a2.1355,2.1355,0,0,0,.12727,1.68267l3.03655,5.80909a20.36062,20.36062,0,0,1,2.31648,9.43207Z" fill="#8ec14c"/><polygon points="247.535 355.709 248.022 410.22 248.301 464.732 248.534 573.754 248.304 682.777 248.025 737.287 247.535 791.798 247.045 737.287 246.766 682.777 246.536 573.754 246.769 464.732 247.047 410.22 247.535 355.709" fill="#2f170b"/><polygon points="228.441 440.126 228.928 484.085 229.206 528.044 229.439 615.962 229.21 703.881 228.931 747.84 228.441 791.798 227.95 747.84 227.671 703.881 227.442 615.962 227.675 528.044 227.953 484.085 228.441 440.126" fill="#2f170b"/><path d="M237.35962,539.61686q.5797,12.12231.77734,24.24462c.15967,8.08155.20215,16.16309.22217,24.24463-.01758,8.08155-.06006,16.16309-.219,24.24414q-.19629,12.12233-.78052,24.24463-.583-12.12231-.78027-24.24463c-.15894-8.08105-.20166-16.16259-.219-24.24414.01978-8.08154.0625-16.16308.22193-24.24463Q236.77966,551.73917,237.35962,539.61686Z" fill="#2f170b"/><path d="M228.44067,352.69425c.41358,5.0249.63013,10.04956.77735,15.07446.15942,5.02466.2019,10.04956.22192,15.07422-.01733,5.0249-.06006,10.04956-.219,15.07446-.14649,5.0249-.364,10.04956-.78028,15.07447-.4165-5.02491-.634-10.04957-.78051-15.07447-.15894-5.0249-.20142-10.04956-.219-15.07446.02-5.02466.0625-10.04956.22193-15.07422C227.8103,362.74381,228.02686,357.71915,228.44067,352.69425Z" fill="#2f170b"/><path d="M237.35962,716.48941c.41382,3.51758.63037,7.03467.77734,10.55225.15967,3.51709.20215,7.03467.22217,10.55225-.01758,3.51709-.06006,7.03466-.219,10.55175-.14649,3.51758-.36426,7.03467-.78052,10.55225-.41626-3.51758-.63379-7.03467-.78027-10.55225-.15894-3.51709-.20166-7.03466-.219-10.55175.01978-3.51758.0625-7.03516.22193-10.55225C236.72949,723.52408,236.9458,720.007,237.35962,716.48941Z" fill="#2f170b"/><path d="M237.35962,378.32071q.5797,12.939.77734,25.87769c.15967,8.626.20215,17.25171.22217,25.87768-.01758,8.626-.06006,17.25171-.219,25.87769q-.19629,12.939-.78052,25.87769-.583-12.93861-.78027-25.87769c-.15894-8.626-.20166-17.25171-.219-25.87769.01978-8.626.0625-17.2517.22193-25.87768Q236.77966,391.25943,237.35962,378.32071Z" fill="#2f170b"/><path d="M142.69121,792.43362l-.26809-2.0631a5.0777,5.0777,0,0,0-.62439-3.68266l-.20191-.33335a18.91751,18.91751,0,0,1-2.44479-6.4901l-34.63817-194.874a20.11594,20.11594,0,0,1-.08536-6.52118l2.39867-15.89981a2.13553,2.13553,0,0,0-.55243-1.7778l-3.4087-3.64227a20.11605,20.11605,0,0,1-5.11832-10.22513l-7.81594-43.97239A18.2149,18.2149,0,0,1,104.6779,481.8304l2.22627-.39571a17.96365,17.96365,0,0,1,20.83013,14.54273l8.36081,47.03782a15.93856,15.93856,0,0,1-.76344,8.37125h0a4.16581,4.16581,0,0,0,.37645,3.67808l1.865,2.96286a15.93855,15.93855,0,0,1,2.20376,5.70122L174.07543,756.692a20.3605,20.3605,0,0,1,.07084,6.70178l-2.07818,13.32033a2.13553,2.13553,0,0,0,.41977,1.63443l4.00631,5.188a20.3606,20.3606,0,0,1,3.93138,8.88111S150.27017,792.52,142.69121,792.43362Z" fill="#8ec14c"/><path d="M117.752,491.49991c2.45069,12.49951,4.77515,25.02124,7.16626,37.5315l6.96021,37.56787c4.61963,25.04883,9.06225,50.12939,13.602,75.19287,4.38037,25.09131,8.8457,50.168,13.14648,75.27344l6.41138,37.66552c2.06519,12.56787,4.19824,25.124,6.20361,37.70264-2.4519-12.49951-4.77661-25.021-7.16894-37.53125l-6.96094-37.56787c-4.61426-25.04981-9.064-50.12891-13.59839-75.19287-4.37524-25.09278-8.84765-50.168-13.14306-75.27442l-6.41211-37.66552C121.89209,516.63419,119.759,504.07828,117.752,491.49991Z" fill="#2f170b"/><path d="M113.72559,577.95523c1.80566,8.87061,3.4851,17.76368,5.2312,26.645l5.02514,26.68213c3.32984,17.791,6.48243,35.61426,9.73218,53.41992,3.09033,17.834,6.26563,35.65284,9.27637,53.501l4.47656,26.7793c1.42017,8.939,2.908,17.86621,4.26856,26.81592-1.80689-8.87012-3.48658-17.76319-5.23389-26.64454l-5.02588-26.68164c-3.32446-17.79248-6.48413-35.61377-9.72852-53.42041-3.0852-17.835-6.26757-35.65283-9.27294-53.50195l-4.4773-26.77881C116.57568,595.83219,115.08765,586.90494,113.72559,577.95523Z" fill="#2f170b"/><path d="M139.91846,674.35025q2.692,11.83374,5.0083,23.73438c1.57129,7.92871,3.02759,15.87793,4.46142,23.83154,1.39722,7.96,2.76953,15.92383,4.0271,23.90869q1.92847,11.96925,3.47461,24.00684-2.69531-11.833-5.011-23.73389c-1.571-7.92871-3.0271-15.87842-4.45874-23.832-1.39454-7.96045-2.76709-15.92432-4.02417-23.90918Q141.469,686.38663,139.91846,674.35025Z" fill="#2f170b"/><path d="M98.4248,491.8732c1.28687,4.87476,2.3794,9.78418,3.40357,14.70557,1.03638,4.91943,1.95752,9.85913,2.85669,14.803.86206,4.95019,1.69946,9.905,2.42236,14.88013.73511,4.97265,1.40015,9.958,1.86963,14.978-1.28906-4.874-2.38281-9.7832-3.40625-14.70508-1.03589-4.91943-1.95727-9.85913-2.85376-14.80322-.85986-4.95093-1.69726-9.90552-2.41943-14.88061C99.563,501.87784,98.89673,496.89273,98.4248,491.8732Z" fill="#2f170b"/><path d="M111.69116,515.54313q2.83484,12.63793,5.294,25.34228c1.66675,8.46484,3.218,16.9502,4.74731,25.43945,1.49243,8.4961,2.96,16.9961,4.313,25.5166q2.07129,12.77418,3.7605,25.61524-2.83851-12.63721-5.29712-25.3418c-1.666-8.46484-3.21753-16.95019-4.74439-25.43994-1.49-8.49658-2.95752-16.99658-4.31-25.51758Q113.38452,528.38395,111.69116,515.54313Z" fill="#2f170b"/><path d="M218.13983,622.42834a49.17758,49.17758,0,0,1-27.86549-21.49772l-26.43251-71.3174a8.54228,8.54228,0,0,0-16.01967,5.93738L174.45383,607.405l.36966.85088c.4807.96245,12.10833,23.639,41.13049,31.32089a8.55344,8.55344,0,0,0,2.18585.28623Z" fill="#8ec14c"/><path d="M154.82739,536.85318q3.74451,8.62721,7.13037,17.38428c2.283,5.8291,4.4563,11.69775,6.60816,17.57422,2.1167,5.88916,4.21,11.78662,6.1936,17.72412q3.01575,8.89161,5.666,17.91553-3.74781-8.62573-7.13306-17.3833c-2.28271-5.8291-4.45605-11.69776-6.60571-17.5752-2.11426-5.89013-4.20752-11.7876-6.19068-17.7251Q157.48181,545.8754,154.82739,536.85318Z" fill="#2f170b"/><path d="M186.4834,602.67789a48.74113,48.74113,0,0,0,5.7749,8.66406,44.88892,44.88892,0,0,0,7.37207,7.14551,21.36217,21.36217,0,0,0,2.06592,1.51856,25.47485,25.47485,0,0,0,2.1477,1.40576l2.21973,1.30273c.75024.417,1.54517.74756,2.31152,1.14258,1.52539.81738,3.16919,1.355,4.7793,2.02246a25.24639,25.24639,0,0,0,2.4773.8335q1.25133.39551,2.50781.8374-1.31176-.12671-2.63159-.29688a21.05623,21.05623,0,0,1-2.62647-.43066,35.83709,35.83709,0,0,1-21.86206-14.5415A29.29881,29.29881,0,0,1,186.4834,602.67789Z" fill="#2f170b"/><path d="M334.44406,586.36558a9.60986,9.60986,0,0,0-12.52387,5.27837L284.3371,683.981a31.04312,31.04312,0,0,1-16.01549,16.64427l-11.74208,5.31539V726.101l.00548.00052a9.576,9.576,0,0,0,3.95721-.85713L276.2475,718.135a50.18652,50.18652,0,0,0,25.89132-26.909l37.58308-92.337A9.60971,9.60971,0,0,0,334.44406,586.36558Z" fill="#8ec14c"/><ellipse cx="106.21948" cy="472.22159" rx="5.47158" ry="9.60992" fill="#fcd2e0"/><ellipse cx="117.75203" cy="476.55548" rx="6.90255" ry="3.93009" transform="translate(-363.33983 378.97837) rotate(-64.65535)" fill="#fcd2e0"/><ellipse cx="232.01906" cy="335.60992" rx="5.47158" ry="9.60992" fill="#fcd2e0"/><ellipse cx="243.55161" cy="339.94381" rx="6.90255" ry="3.93009" transform="translate(-167.92761 414.53627) rotate(-64.65535)" fill="#fcd2e0"/><ellipse cx="334.00212" cy="579.33239" rx="9.60992" ry="5.47158" transform="matrix(0.27467, -0.96154, 0.96154, 0.27467, -314.78931, 741.36053)" fill="#fcd2e0"/><ellipse cx="343.9007" cy="586.66727" rx="6.90255" ry="3.93009" transform="translate(-323.84513 457.97504) rotate(-48.71278)" fill="#fcd2e0"/><ellipse cx="138.60494" cy="528.68775" rx="6.90255" ry="3.93009" transform="translate(-398.52776 427.64058) rotate(-64.65535)" fill="#fcd2e0"/><ellipse cx="191.10862" cy="588.10592" rx="6.90255" ry="3.93009" transform="translate(-422.19804 509.07423) rotate(-64.65535)" fill="#fcd2e0"/><ellipse cx="261.19969" cy="440.1257" rx="6.90255" ry="3.93009" transform="translate(-248.37331 487.78351) rotate(-64.65535)" fill="#fcd2e0"/><ellipse cx="301.00328" cy="632.98135" rx="3.93009" ry="6.90255" transform="translate(-58.75717 31.44932) rotate(-5.44992)" fill="#fcd2e0"/><ellipse cx="91.87433" cy="510.47286" rx="3.93009" ry="6.90255" transform="matrix(0.8848, -0.46597, 0.46597, 0.8848, -227.28028, 101.6162)" fill="#fcd2e0"/><ellipse cx="86.58625" cy="517.30188" rx="3.06178" ry="5.37752" transform="translate(-437.04022 487.07391) rotate(-77.19398)" fill="#fcd2e0"/><ellipse cx="216.88353" cy="452.56704" rx="3.93009" ry="6.90255" transform="translate(-185.89715 153.19583) rotate(-27.77289)" fill="#fcd2e0"/><ellipse cx="211.59545" cy="459.39606" rx="3.06178" ry="5.37752" transform="translate(-283.27396 563.90271) rotate(-77.19398)" fill="#fcd2e0"/><ellipse cx="146.60714" cy="570.43727" rx="5.37752" ry="3.06178" transform="translate(-334.78933 231.10001) rotate(-40.40638)" fill="#fcd2e0"/><path d="M262.60913,718.2482c5.62744-3.49218,11.26758-6.80371,16.62329-10.51709a80.64758,80.64758,0,0,0,7.74951-5.88574,33.39921,33.39921,0,0,0,6.52979-7.21387,22.20439,22.20439,0,0,1-5.45435,8.34473,45.49135,45.49135,0,0,1-3.6831,3.41211c-1.31519,1.02588-2.63281,2.05371-4.009,2.98926a73.11165,73.11165,0,0,1-8.58252,5.05273A62.10135,62.10135,0,0,1,262.60913,718.2482Z" fill="#2f170b"/><path d="M293.51172,679.30582q3.197-9.78882,6.75024-19.43945c2.34278-6.44336,4.79444-12.84473,7.26734-19.2378,2.50781-6.37939,5.03906-12.74951,7.67846-19.07714q3.91992-9.50757,8.20142-18.87354-3.19408,9.79029-6.74731,19.44092c-2.34351,6.44336-4.79517,12.84424-7.27027,19.23633-2.51025,6.37841-5.04126,12.74853-7.68139,19.07666Q297.78918,669.9379,293.51172,679.30582Z" fill="#2f170b"/><path d="M327.93164,615.11441c-1.14477,3.93409-2.47241,7.79444-3.8645,11.62842-1.38062,3.83887-2.86939,7.63379-4.3794,11.42041-1.54443,3.77246-3.1123,7.53565-4.78808,11.25537-1.66431,3.72412-3.39429,7.42139-5.3086,11.04444,1.14234-3.93506,2.469-7.7959,3.86158-11.62989,1.3811-3.83837,2.86987-7.63378,4.38208-11.41943,1.54687-3.77148,3.11474-7.53467,4.791-11.25391C324.29053,622.43619,326.01953,618.738,327.93164,615.11441Z" fill="#2f170b"/><path d="M785.45638,763.81134c.74157,0,1.47192.03725,2.19283.10051-.00026-.03367-.0023-.06683-.0023-.10051,0-15.71658,12.08042-28.45771,26.98248-28.45771,10.76029,0,20.04713,6.64479,24.37921,16.25485a21.55252,21.55252,0,0,1,30.564,12.45235,22.97585,22.97585,0,0,1,16.62372-.2102A36.4773,36.4773,0,0,1,956.282,759.9609a16.15678,16.15678,0,0,1-.426,32.30816c-1.23161,0-169.32559.42764-170.47813.16642-17.75877,0-21.29248-11.56277-17.7389-19.95615C771.00846,764.52071,774.26676,763.81134,785.45638,763.81134Z" fill="#599e08"/><path d="M813.89175,792.52h37.61573V664.19378a18.512,18.512,0,0,0-1.35237-6.94561h0a4.96883,4.96883,0,0,1-.02909-3.655l.13745-.35574a18.512,18.512,0,0,0,1.244-6.67166V452.88a19.68476,19.68476,0,0,0-1.03453-6.29754l-5.0339-14.90811a2.08975,2.08975,0,0,1,.22779-1.80745l2.66041-4.09294a19.68488,19.68488,0,0,0,3.18023-10.72806V371.34158A17.82444,17.82444,0,0,0,833.683,353.51713h-2.21269a17.57859,17.57859,0,0,0-17.5786,17.57859v46.751a15.59694,15.59694,0,0,0,2.16914,7.93465h0a4.07652,4.07652,0,0,1,.26718,3.60816l-1.28943,3.174a15.59685,15.59685,0,0,0-1.1469,5.87032V630.22071a19.92431,19.92431,0,0,0,1.07944,6.469l4.2834,12.47776a2.08978,2.08978,0,0,1-.12454,1.64659l-2.97147,5.68458a19.92416,19.92416,0,0,0-2.26683,9.22988Z" fill="#8ec14c"/><polygon points="822.742 365.072 823.23 418.415 823.508 471.758 823.741 578.443 823.512 685.129 823.233 738.471 822.742 791.814 822.252 738.471 821.973 685.129 821.744 578.443 821.977 471.758 822.255 418.415 822.742 365.072" fill="#2f170b"/><path d="M841.42749,447.67936l.4873,43.01684.27833,43.01685.23315,86.03369-.22949,86.03369-.27906,43.01709c-.16626,14.33887-.26342,28.67773-.49023,43.0166-.22681-14.33887-.32422-28.67773-.49023-43.0166l-.27906-43.01709-.22949-86.03369.23316-86.03369.27832-43.01685Z" fill="#2f170b"/><path d="M832.69946,545.03775q.57972,11.86232.77735,23.7251c.15966,7.9082.20215,15.81641.22216,23.72461-.01757,7.9082-.06005,15.8169-.219,23.7251q-.19629,11.8623-.78052,23.72461-.583-11.86232-.78027-23.72461c-.15894-7.9082-.20166-15.8169-.219-23.7251.01977-7.9082.0625-15.81641.22192-23.72461Q832.11951,556.90055,832.69946,545.03775Z" fill="#2f170b"/><path d="M841.42749,362.122c.41382,4.91724.63037,9.83423.77734,14.75122.15943,4.91724.20215,9.83423.22193,14.75147-.01734,4.917-.06006,9.834-.219,14.75122-.14648,4.917-.364,9.83423-.78027,14.75122-.41626-4.917-.63379-9.83423-.78027-14.75122-.15918-4.91724-.20166-9.83423-.21924-14.75122.02-4.91724.0625-9.83423.22217-14.75147C840.79712,371.95621,841.01367,367.03922,841.42749,362.122Z" fill="#2f170b"/><path d="M832.69946,718.1193c.41382,3.44189.63037,6.88379.77735,10.32568.15966,3.44238.20215,6.88428.22216,10.32617-.01757,3.4419-.06005,6.88379-.219,10.32569-.14673,3.44189-.36426,6.88379-.78052,10.32617-.41626-3.44238-.63379-6.88428-.78027-10.32617-.15894-3.4419-.20166-6.88379-.219-10.32569.01977-3.44189.0625-6.88379.22192-10.32617C832.06934,725.00309,832.28564,721.56119,832.69946,718.1193Z" fill="#2f170b"/><path d="M832.69946,387.19913q.57972,12.66174.77735,25.323c.15966,8.44116.20215,16.88208.22216,25.323-.01757,8.44116-.06005,16.88208-.219,25.323q-.19629,12.66174-.78052,25.323-.583-12.66137-.78027-25.323c-.15894-8.44092-.20166-16.88184-.219-25.323.01977-8.44092.0625-16.88184.22192-25.323Q832.11951,399.86075,832.69946,387.19913Z" fill="#2f170b"/><path d="M925.33874,792.43548l.26234-2.01888a4.96885,4.96885,0,0,1,.611-3.60373l.19758-.3262a18.51213,18.51213,0,0,0,2.39238-6.351l33.8957-190.69677a19.68514,19.68514,0,0,0,.08353-6.3814l-2.34726-15.559a2.08975,2.08975,0,0,1,.54059-1.73969l3.33563-3.56419a19.68492,19.68492,0,0,0,5.00861-10.006l7.6484-43.02983a17.82445,17.82445,0,0,0-14.43-20.66872l-2.17855-.38723a17.5786,17.5786,0,0,0-20.38363,14.231l-8.18159,46.02955a15.59686,15.59686,0,0,0,.74707,8.19181h0a4.07651,4.07651,0,0,1-.36838,3.59924l-1.825,2.89935a15.59686,15.59686,0,0,0-2.15652,5.579L894.62725,757.46a19.92435,19.92435,0,0,0-.06933,6.55813l2.03364,13.0348a2.0898,2.0898,0,0,1-.41077,1.5994l-3.92043,5.07683a19.92415,19.92415,0,0,0-3.84711,8.69074S917.92224,792.52,925.33874,792.43548Z" fill="#8ec14c"/><path d="M949.74341,497.9523c-1.95923,12.30958-4.04444,24.59668-6.06323,36.89576l-6.2688,36.85913c-4.19971,24.56885-8.57666,49.10644-12.8562,73.66162-4.43921,24.52637-8.79322,49.06836-13.312,73.58057l-6.81762,36.76171c-2.34449,12.24073-4.62134,24.49414-7.02564,36.72461,1.95777-12.31006,4.043-24.59716,6.06031-36.89648l6.26831-36.85938c4.20507-24.56787,8.57495-49.10693,12.85961-73.66064,4.44434-24.52588,8.79151-49.06885,13.31543-73.58008l6.81714-36.76172C945.064,522.43619,947.34058,510.183,949.74341,497.9523Z" fill="#2f170b"/><path d="M953.68335,582.55436c-1.32788,8.75878-2.782,17.49511-4.16943,26.24316l-4.37549,26.20605c-2.9375,17.4668-6.052,34.90284-9.06909,52.35547-3.17676,17.42481-6.26856,34.86426-9.52491,52.27491l-4.92407,26.10839c-1.71338,8.69043-3.35913,17.39258-5.13208,26.07178,1.32642-8.75879,2.78052-17.49512,4.16675-26.24316l4.37451-26.20655c2.94287-17.46582,6.05029-34.90283,9.07275-52.355,3.18189-17.42334,6.26661-34.86425,9.52833-52.27392l4.92358-26.10889C950.26636,599.93619,951.91187,591.234,953.68335,582.55436Z" fill="#2f170b"/><path d="M928.052,676.883q-1.50513,11.781-3.38647,23.49512c-1.227,7.814-2.56909,15.60791-3.93335,23.39746-1.40113,7.7832-2.82715,15.562-4.36768,23.32031q-2.269,11.6455-4.92016,23.22217,1.50183-11.781,3.38354-23.49512c1.22754-7.814,2.56958-15.60791,3.93628-23.397,1.40356-7.78321,2.82959-15.56153,4.37061-23.32031Q925.40528,688.46085,928.052,676.883Z" fill="#2f170b"/><path d="M968.65625,498.31754c-.45312,4.91357-1.10059,9.79272-1.81616,14.65967-.70337,4.86914-1.522,9.71777-2.363,14.5625-.87768,4.83813-1.78,9.67187-2.79712,14.48535-1.00464,4.81543-2.07934,9.61865-3.34985,14.38721.45068-4.91407,1.09692-9.79346,1.81323-14.66065.7041-4.86865,1.52246-9.71753,2.366-14.56177.88012-4.83764,1.78247-9.67138,2.80005-14.48462C966.3147,507.88956,967.38818,503.08634,968.65625,498.31754Z" fill="#2f170b"/><path d="M955.67432,521.48038q-1.645,12.56726-3.66626,25.06812c-1.32007,8.33886-2.75537,16.65673-4.21289,24.97119-1.49439,8.30761-3.01368,16.61084-4.64722,24.894q-2.40894,12.4314-5.2,24.79541,1.64172-12.56836,3.66333-25.06885c1.32055-8.33838,2.75586-16.65674,4.21582-24.9707,1.49682-8.30713,3.01587-16.61035,4.65014-24.89307Q952.8877,533.84514,955.67432,521.48038Z" fill="#2f170b"/><path d="M851.50738,626.07431a48.12348,48.12348,0,0,0,27.26819-21.03691l25.86592-69.78869a8.35917,8.35917,0,0,1,15.67628,5.81011L894.257,611.373l-.36173.83264c-.4704.94182-11.84879,23.13229-40.24885,30.64951a8.36994,8.36994,0,0,1-2.139.2801Z" fill="#8ec14c"/><path d="M913.46289,542.33316q-2.58654,8.83374-5.53174,17.53663c-1.9375,5.81152-3.98486,11.583-6.05346,17.34667-2.104,5.75147-4.23145,11.49366-6.46851,17.19678q-3.31531,8.5686-6.99585,17.00537,2.58288-8.83447,5.52881-17.53759c1.938-5.811,3.98535-11.58252,6.0564-17.34571,2.1062-5.75049,4.23364-11.49316,6.47119-17.1958Q909.7865,550.77165,913.46289,542.33316Z" fill="#2f170b"/><path d="M882.48511,606.74723a28.55129,28.55129,0,0,1-4.42554,9.40771,35.42421,35.42421,0,0,1-21.40356,14.23,20.63651,20.63651,0,0,1-2.572.417c-.86059.11084-1.72045.20411-2.57641.28467q1.2301-.43359,2.45264-.82519a24.72517,24.72517,0,0,0,2.42285-.81983c1.57422-.65527,3.18164-1.18359,4.67285-1.98437.74927-.3877,1.52661-.71143,2.26025-1.11963l2.17017-1.27588a24.87491,24.87491,0,0,0,2.10034-1.375,20.93173,20.93173,0,0,0,2.02026-1.48584,44.054,44.054,0,0,0,7.21387-6.98535A48.05005,48.05005,0,0,0,882.48511,606.74723Z" fill="#2f170b"/><ellipse cx="961.02868" cy="479.08729" rx="5.35429" ry="9.40393" fill="#fcd2e0"/><ellipse cx="949.74334" cy="483.32828" rx="3.84585" ry="6.75459" transform="translate(-115.48108 453.07001) rotate(-25.34465)" fill="#fcd2e0"/><ellipse cx="837.92566" cy="345.40393" rx="5.35429" ry="9.40393" fill="#fcd2e0"/><ellipse cx="826.64031" cy="349.64492" rx="3.84585" ry="6.75459" transform="translate(-70.10504 387.50712) rotate(-25.34465)" fill="#fcd2e0"/><ellipse cx="929.33742" cy="534.34308" rx="3.84585" ry="6.75459" transform="translate(-139.28268 449.24522) rotate(-25.34465)" fill="#fcd2e0"/><ellipse cx="877.95917" cy="592.4876" rx="3.84585" ry="6.75459" transform="translate(-169.11735 432.84858) rotate(-25.34465)" fill="#fcd2e0"/><ellipse cx="809.37052" cy="447.67938" rx="3.84585" ry="6.75459" transform="translate(-113.73213 389.55047) rotate(-25.34465)" fill="#fcd2e0"/><ellipse cx="975.06635" cy="516.51863" rx="6.75459" ry="3.84585" transform="translate(63.70008 1138.57763) rotate(-62.22711)" fill="#fcd2e0"/><ellipse cx="980.24107" cy="523.20126" rx="5.26225" ry="2.99615" transform="translate(-91.58563 230.28549) rotate(-12.80602)" fill="#fcd2e0"/><ellipse cx="852.73676" cy="459.85404" rx="6.75459" ry="3.84585" transform="translate(48.50909 1000.07952) rotate(-62.22711)" fill="#fcd2e0"/><ellipse cx="857.91148" cy="466.53667" rx="5.26225" ry="2.99615" transform="translate(-82.06868 201.76154) rotate(-12.80602)" fill="#fcd2e0"/><ellipse cx="921.50675" cy="575.19769" rx="2.99615" ry="5.26225" transform="translate(-113.81179 904.0481) rotate(-49.59362)" fill="#fcd2e0"/><path d="M470.708,205.756H139.91844l330.7896,0a50.36327,50.36327,0,0,0-7.52954-8.94117c-13.46143-12.63366-31.729-15.51147-38.47046-16.23535-12.29932-1.32068-18.84863,1.02576-25.76489-4.58826-1.55567-1.26281-1.37232-1.50158-6.35279-8.11767-8.65332-11.49524-13.08764-17.30029-18.353-20.11755-5.31348-2.8429-5.34913-.46546-14.11768-3.52942-8.644-3.02039-14.51465-7.394-21.5293-12.70594-9.25073-7.00512-9.59985-8.85778-14.82348-12.70581-13.27515-9.779-34.11011-14.82238-51.88233-8.47058-10.05884,3.59509-17.00195,10.07752-19.76489,12.70581-10.10083,9.608-8.84473,15.1095-18.70581,21.88233-8.468,5.816-17.71069,7.47094-21.5293,8.11767q-.08521.01445-.17681.02944a93.75746,93.75746,0,0,0-60.70951,37.41992L139.91844,205.756Z" fill="#b3c8f3"/></g></svg>