<svg xmlns="http://www.w3.org/2000/svg" viewBox="0 0 1109 792.52"><title>bacground 13</title><g id="background-8" data-name="background"><path d="M712.00539,762.82872c24.64146-2.97654,135.2515-19.5787,195.4665-109.858,84.48341-126.66469,1.42995-295.90228-21.35477-342.32926C833.88408,204.208,682.38873-4.56866,493.41529,31.73167c-151.34855,29.073-239.67368,208.69283-233.38161,349.1506C270.40277,612.342,516.50257,786.44019,712.00539,762.82872Z" fill="#e0ecfc"/><path d="M188.50413,591.29343s-36.07021-7.71227-52.53769-17.69192c0,0-23.9744-12.06349-42.0275-33.01245-3.25212-3.77377-8.48258-10.4209-7.68407-18.43572.12016-1.20391.66628-6.68429,4.53076-9.10693,4.6297-2.90237,11.42885.20934,15.52832,2.28677,28.66767,14.52818,54.7894,42.1998,54.7894,42.1998C186.347,582.04831,188.50413,591.29343,188.50413,591.29343Z" fill="#599e08"/><path d="M159.14681,567.21732c5.19037,4.06955,15.335,7.9899,20.0481,9.684A231.86257,231.86257,0,0,0,161.10342,557.533a258.61606,258.61606,0,0,0-21.06558-19.38543,8.18981,8.18981,0,0,0-.90164,2.6307c-.66357,3.76507,1.39423,7.13144,2.68745,9.05431A70.37531,70.37531,0,0,0,159.14681,567.21732Z" fill="#2f170b"/><path d="M190.50477,610.36185s0-25.11308,4.30014-37.49763c0,0,4.6189-17.67922,15.99658-32.681,2.04959-2.70245,5.7306-7.13109,11.18046-7.74039.81866-.09138,4.54519-.50794,6.70828,1.72012,2.59144,2.66925,1.48758,7.639.688,10.66415-5.59175,21.15481-20.29671,42.4856-20.29671,42.4856C196.353,607.6096,190.50477,610.36185,190.50477,610.36185Z" fill="#599e08"/><path d="M190.50477,629.36589s9.34523-21.00516,17.55057-29.76369c0,0,10.44225-13.0685,25.54135-21.38239,2.72-1.49768,7.44687-3.8321,12.232-2.3137.71875.22821,3.99071,1.26653,4.97086,3.93508,1.17424,3.197-1.59844,6.943-3.39294,9.17576C234.85729,604.63049,214.62,617,214.62,617,196.42056,629.24012,190.50477,629.36589,190.50477,629.36589Z" fill="#599e08"/><line x1="190.50477" y1="610.36185" x2="224.39005" y2="532.35252" fill="none" stroke="#2f170b" stroke-miterlimit="10" stroke-width="2"/><polyline points="204.708 549.454 208.618 568.662 225.7 555.914" fill="none" stroke="#2f170b" stroke-miterlimit="10" stroke-width="2"/><polyline points="196.103 568.662 201.249 585.627 213.803 579.828" fill="none" stroke="#2f170b" stroke-miterlimit="10" stroke-width="2"/><line x1="188.50413" y1="591.29343" x2="86.86466" y2="518.66682" fill="none" stroke="#2f170b" stroke-miterlimit="10" stroke-width="2"/><polyline points="105.384 552.189 134.173 552.471 121.108 524.022" fill="none" stroke="#2f170b" stroke-miterlimit="10" stroke-width="2"/><polyline points="130.329 570.447 156.277 568.266 151.802 548.453" fill="none" stroke="#2f170b" stroke-miterlimit="10" stroke-width="2"/><path d="M190.50477,629.36589s37.90395-39.4723,59.68738-50.64673" fill="none" stroke="#2f170b" stroke-miterlimit="10" stroke-width="2"/><path d="M190.30456,637.3384s-9.34523-21.00517-17.55057-29.76369c0,0-10.44225-13.0685-25.54135-21.38239-2.72-1.49768-7.44687-3.8321-12.232-2.3137-.71875.22821-3.99071,1.26653-4.97086,3.93507-1.17423,3.197,1.59844,6.943,3.39294,9.17577,12.54932,15.61354,32.78663,27.983,32.78663,27.983C184.38877,637.21263,190.30456,637.3384,190.30456,637.3384Z" fill="#599e08"/><path d="M190.30456,637.3384s-37.904-39.4723-59.68738-50.64673" fill="none" stroke="#2f170b" stroke-miterlimit="10" stroke-width="2"/><path d="M185.14043,574.35137s-15.66543-5.14885-22.56744-10.5601a70.378,70.378,0,0,1-17.32315-17.38472c-1.2933-1.923-3.351-5.28958-2.68752-9.05451.09976-.56553.55348-3.13991,2.35754-4.12785,2.16129-1.18357,5.05.57264,6.784,1.7269,12.12555,8.07208,22.61582,22.267,22.61582,22.267C184.54345,569.881,185.14043,574.35137,185.14043,574.35137Z" fill="#599e08"/><path d="M185.14043,574.35137s-31.18489-25.08764-40.96234-40.56384" fill="none" stroke="#2f170b" stroke-miterlimit="10" stroke-width="2"/><path d="M178.05971,520.44366S196.82932,625.4332,188.50413,670.3921" fill="none" stroke="#2f170b" stroke-miterlimit="10" stroke-width="2"/><path d="M196.10275,518.2484a16.17247,16.17247,0,0,0-16.17248-16.17247c-8.93181,0-19.91361,13.35076-19.91361,22.28257s5.16019,17.19671,19.73774,13.58458C188.424,535.79485,196.10275,527.18021,196.10275,518.2484Z" fill="#b3c8f3"/><path d="M187.60426,792.52h18.23249c2.03067-4.0874,5.02955-10.37609,8.25635-18.23285,8.72129-21.23512,13.08193-31.85286,12.04054-45.4097-.83258-10.83834-4.76043-19.56319-7.56835-25.80084-4.81682-10.69983-9.17442-15.09635-13.41656-26.83312a90.992,90.992,0,0,1-4.47219-17.88839H174.53179a90.99256,90.99256,0,0,1-4.47218,17.88839c-4.24214,11.73677-8.59975,16.13329-13.41657,26.83312-2.80792,6.23765-6.73576,14.9625-7.56834,25.80084-1.04139,13.55684,3.31925,24.17458,12.04053,45.4097,3.2268,7.85676,6.22569,14.14545,8.25636,18.23285Z" fill="#7a97dd"/><path d="M173.5143,664.09263a95.18607,95.18607,0,0,0,7.38338,12.49326,91.97166,91.97166,0,0,0,23.73645,23.56831,85.15157,85.15157,0,0,0,16.36038,8.49454" fill="none" stroke="#2f170b" stroke-miterlimit="10" stroke-width="2"/><path d="M165.62652,686.30124a121.85663,121.85663,0,0,1,10.97272,8.69191c5.6947,5.07333,33.93428,31.17831,40.30883,72.40824" fill="none" stroke="#2f170b" stroke-miterlimit="10" stroke-width="2"/><path d="M189.5969,792.51949c-1.38164-6.20642-2.71211-11.22127-3.71362-14.78868-2.80714-10.02239-5.30726-16.74784-2.92411-24.43093,1.16965-3.75748,2.58784-4.78823,3.61128-5.16105,3.5601-1.2793,8.15095,3.32617,10.14665,5.3365,6.71083,6.73276,10.95079,19.04325,13.54594,29.70894" fill="none" stroke="#2f170b" stroke-miterlimit="10" stroke-width="2"/><path d="M177.1118,735.7576a33.8898,33.8898,0,0,0-21.1391-31.18609c-2.72743,6.10843-6.12967,14.30464-6.898,24.30594-.89861,11.69893,2.2286,21.21513,8.70647,37.24883A33.81274,33.81274,0,0,0,177.1118,735.7576Z" fill="#b3c8f3"/><polyline points="826.083 430.913 818.16 430.913 823.843 444.805 831.461 444.805" fill="none" stroke="#000" stroke-linejoin="round" stroke-width="3"/><polygon points="824.831 425.039 865.846 425.039 862.414 441.14 855.551 449.005 835.126 449.005 828.263 441.14 824.831 425.039" fill="#6986ed"/><line x1="828.26301" y1="441.1403" x2="862.41396" y2="441.1403" fill="none" stroke="#000" stroke-linejoin="round" stroke-width="3"/><polyline points="735.085 378.494 723.201 378.494 729.143 413.756 733.675 411.763" fill="none" stroke="#000" stroke-linejoin="round" stroke-width="3"/><path d="M740.99,357.14928,756.04965,346.501a2.059,2.059,0,0,1,2.45276.05592l13.61873,10.59235" fill="none" stroke="#000" stroke-linejoin="round" stroke-width="3"/><polygon points="736.049 355.777 783.486 355.777 774.592 366.648 786.781 449.005 732.095 449.005 736.049 355.777" fill="#6986ed"/><polygon points="733.863 407.308 780.61 407.308 778.172 390.836 734.562 390.836 733.863 407.308" fill="#b3c8f3"/><path d="M1087.43712,377.6359l-17.585,71.36955H1063.597l15.7217-65.1141a2.78871,2.78871,0,0,0-2.71081-3.44323H976.2868l-16.55307,68.55733h-5.62314l17.91372-72.70387A2.78869,2.78869,0,0,1,974.732,374.18H1084.7294A2.7887,2.7887,0,0,1,1087.43712,377.6359Z" fill="#6986ed"/><path d="M1063.60258,449.00545H959.73938l16.45985-68.19951a.46537.46537,0,0,1,.45238-.35619h102.90573a.46537.46537,0,0,1,.45238.57455Z" fill="#6986ed"/><path d="M880.29107,443.428h189.86445a0,0,0,0,1,0,0v2.78871a2.7887,2.7887,0,0,1-2.7887,2.7887H880.29107a2.7887,2.7887,0,0,1-2.7887-2.7887v0A2.7887,2.7887,0,0,1,880.29107,443.428Z" fill="#6986ed"/><line x1="1009.20036" y1="407.30768" x2="1043.65466" y2="407.30768" fill="none" stroke="#b3c8f3" stroke-linejoin="round" stroke-width="8"/><path d="M1072.89,320.68377a8.13405,8.13405,0,0,0-7.907-10.04233h-40.62947a8.1339,8.1339,0,0,0-7.90688,6.22559l-5.28869,21.913a7.877,7.877,0,0,0,7.65718,9.7251h0l-2.04293,7.27147,10.02753-7.27147h33.17374a7.87706,7.87706,0,0,0,7.65722-6.02907Z" fill="#b3c8f3"/><polygon points="1086.135 792.52 1101.258 792.52 1060.107 463.82 1044.983 463.82 1086.135 792.52" fill="#b3c8f3"/><line x1="872.50764" y1="609.37165" x2="980.04212" y2="668.24795" fill="none" stroke="#000" stroke-linejoin="round" stroke-width="3"/><line x1="972.18434" y1="606.84503" x2="864.64986" y2="665.72133" fill="none" stroke="#000" stroke-linejoin="round" stroke-width="3"/><polygon points="687.889 792.52 672.765 792.52 713.917 463.82 729.04 463.82 687.889 792.52" fill="#ffc929"/><rect x="665.02365" y="449.00545" width="443.97635" height="14.81464" fill="#b3c8f3"/><rect x="845.31992" y="555.4857" width="154.3192" height="17.59239" fill="#b3c8f3"/><polygon points="687.889 792.52 672.765 792.52 713.917 463.82 729.04 463.82 687.889 792.52" fill="#b3c8f3"/><polygon points="848.895 792.52 833.772 792.52 862.064 573.078 877.187 573.078 848.895 792.52" fill="#b3c8f3"/><polygon points="996.064 792.52 1011.187 792.52 982.895 573.078 967.772 573.078 996.064 792.52" fill="#b3c8f3"/><polygon points="862.064 573.078 877.187 573.078 860.044 588.744 862.064 573.078"/><polygon points="982.895 573.078 967.772 573.078 969.792 588.744 982.895 573.078"/><polygon points="713.917 463.82 729.04 463.82 710.735 489.237 713.917 463.82"/><polygon points="1060.107 463.82 1044.983 463.82 1048.165 489.237 1060.107 463.82"/><path d="M212.07139,27.54556h.00021A104.31911,104.31911,0,0,1,316.39071,131.86468V403.57073a0,0,0,0,1,0,0H107.75228a0,0,0,0,1,0,0V131.86468A104.31911,104.31911,0,0,1,212.07139,27.54556Z" fill="none" stroke="#2f170b" stroke-miterlimit="10" stroke-width="2"/><path d="M212.07154,27.54556h-.00019a104.51922,104.51922,0,0,0-25.55758,3.159,104.35833,104.35833,0,0,1,78.76131,101.16019v271.706H316.3908v-271.706A104.31928,104.31928,0,0,0,212.07154,27.54556Z" fill="#6986ed"/><path d="M195.46532,222.23676l10.3759,6.70707a11.55983,11.55983,0,0,0,12.55092,0l8.7432-5.65167a11.55983,11.55983,0,0,1,12.55092,0l8.7432,5.65167a11.55983,11.55983,0,0,0,12.55092,0l8.74319-5.65167a11.55985,11.55985,0,0,1,12.55093,0l8.74319,5.65167a11.55983,11.55983,0,0,0,12.55092,0l8.7432-5.65167a11.55983,11.55983,0,0,1,12.55092,0l8.7432,5.65167a11.55983,11.55983,0,0,0,12.55092,0L354.9,223.29216a11.55985,11.55985,0,0,1,12.55093,0l8.74319,5.65167a11.55983,11.55983,0,0,0,12.55092,0l9.30982-6.01794" fill="none" stroke="#2f170b" stroke-miterlimit="10" stroke-width="2"/><path d="M107.75,374.45a11.54525,11.54525,0,0,0,12.51-.02l8.74-5.65a11.554,11.554,0,0,1,12.55,0l8.74,5.65a11.57089,11.57089,0,0,0,12.56,0l8.74-5.65a11.554,11.554,0,0,1,12.55,0l8.74,5.65a11.554,11.554,0,0,0,12.55,0l9.31-6.02" fill="none" stroke="#2f170b" stroke-miterlimit="10" stroke-width="2"/><path d="M107.75244,291.45093h84.23535A50.35,50.35,0,0,0,184.458,282.51c-13.46143-12.63378-31.729-15.51171-38.47022-16.23535-12.29931-1.3208-18.84863,1.02539-25.76513-4.58838-1.55567-1.26269-1.37207-1.50146-6.35254-8.11767-2.31006-3.06885-4.313-5.7207-6.11768-8.02979Z" fill="#b3c8f3"/><path d="M219.59429,334.31991s3.1299-53.34972,11.86647-72.57017c0,0,6.98926,3.49463,1.45609,19.9485s3.018,28.79177-1.17177,41.1592c-3.92456,11.58452-12.15079,11.46247-12.15079,11.46247" fill="#8ec14c"/><path d="M214.52543,336.28646s-12.769-18.18584-17.23437-35.46483a40.14211,40.14211,0,0,1,4.46536-30.48093S211.124,284.45077,214.52543,336.28646Z" fill="#8ec14c"/><path d="M201.75647,279.85369c.87305,3.92236,1.60706,7.85254,2.31116,11.78467l2.05908,11.791c.65613,3.93165,1.36218,7.84961,2.06872,11.76709a103.51475,103.51475,0,0,0,2.6858,11.64063,48.45035,48.45035,0,0,1-4.208-11.29639c-1.026-3.88818-1.82227-7.82568-2.51673-11.77441-.64978-3.95606-1.2218-7.92285-1.62817-11.90967C202.11377,287.87176,201.80762,283.87322,201.75647,279.85369Z" fill="#2f170b"/><path d="M209.95044,297.132c1.157,4.6333,2.03186,9.32129,2.79358,14.02539.76965,4.70362,1.37219,9.43262,1.85644,14.17627.44654,4.74707.81836,9.50586.89612,14.2832a92.65563,92.65563,0,0,1-.63525,14.30372c-.18494-4.77-.54273-9.49414-.92334-14.22217-.39331-4.7251-.84766-9.44678-1.32654-14.167l-1.40918-14.17432C210.73376,306.62811,210.28967,301.89324,209.95044,297.132Z" fill="#2f170b"/><path d="M213.79347,351.73642s-17.4246-27.957-28.78215-38.58652c0,0-4.15084,20.23972,11.02944,30.43239S213.79347,351.73642,213.79347,351.73642Z" fill="#8ec14c"/><path d="M216.7542,324.07061s-12.668-46.44943,0-73.3872C216.7542,250.68341,224.32589,277.76678,216.7542,324.07061Z" fill="#8ec14c"/><path d="M216.75415,250.68328c.5741,12.24512.59058,24.47608.53516,36.70508-.06055,6.11426-.12928,12.22754-.25745,18.33984l-.19067,9.16846c-.09156,3.05859-.147,6.10986-.087,9.17383a166.63509,166.63509,0,0,1-1.28308-18.335c-.1897-6.12158-.20618-12.2417-.18054-18.36133.06042-6.11914.17126-12.23682.4082-18.35254Q216.01367,259.84808,216.75415,250.68328Z" fill="#2f170b"/><path d="M219.85522,330.75848a26.88987,26.88987,0,0,1,1.38526-4.38575q.843-2.116,1.87866-4.13232c.68726-1.3457,1.4502-2.65283,2.27124-3.92969a26.578,26.578,0,0,1,2.7699-3.67285,26.57832,26.57832,0,0,1-1.38257,4.3877c-.56311,1.40966-1.18445,2.78955-1.88123,4.13037q-1.036,2.01636-2.27392,3.92871A26.86171,26.86171,0,0,1,219.85522,330.75848Z" fill="#2f170b"/><path d="M220.5957,323.41521a31.52369,31.52369,0,0,1,1.17334-4.84863q.74286-2.35913,1.68579-4.63525c.62549-1.519,1.32947-3.00537,2.09375-4.46631a31.18732,31.18732,0,0,1,2.6117-4.251,31.18834,31.18834,0,0,1-1.17053,4.8501c-.49646,1.57227-1.05335,3.11963-1.6886,4.63428q-.94337,2.27637-2.09656,4.46484A31.51765,31.51765,0,0,1,220.5957,323.41521Z" fill="#2f170b"/><path d="M218.20084,351.90283s6.07652-19.62955,32.48037-38.75293c0,0,2.5239-1.4561,1.4561,3.5917S248.62377,333.67391,218.20084,351.90283Z" fill="#8ec14c"/><path d="M219.85522,350.13494c2.38392-3.15869,4.90186-6.18945,7.463-9.17969,2.55163-2.99853,5.18322-5.92285,7.816-8.84423,2.66223-2.89454,5.33166-5.78174,8.05664-8.61719,2.69824-2.86377,5.50549-5.61182,8.1698-8.52393a78.4521,78.4521,0,0,1-7.00183,9.55908c-2.49524,3.05616-5.10706,6.00586-7.7472,8.92823-2.66626,2.89892-5.36328,5.76855-8.15124,8.55273C225.68127,344.80242,222.84412,347.5407,219.85522,350.13494Z" fill="#2f170b"/><path d="M231.46082,261.74969l-.892,2.78125-.46,1.37744c-.13306.46582-.23389.94287-.35218,1.41357-.43457,1.895-.9718,3.75244-1.28076,5.67481-.35034,1.91015-.792,3.79492-1.08142,5.71631l-.95666,5.74072c-1.14563,7.6792-2.15882,15.37939-3.08558,23.09424-.92968,7.71533-1.77539,15.44287-2.64892,23.17138q-1.26435,11.59791-2.63867,23.20118.20471-11.68727,1.08447-23.34375c.558-7.77,1.3208-15.52491,2.21863-23.26709.96911-7.73389,2.07129-15.457,3.53845-23.12305l1.20911-5.73c.3999-1.90918.94116-3.79395,1.41259-5.68652A66.97747,66.97747,0,0,1,231.46082,261.74969Z" fill="#2f170b"/><polygon points="214.989 403.991 232.23 403.991 241.558 388.022 229.687 351.278 214.989 351.278 200.291 351.278 188.42 388.022 197.748 403.991 214.989 403.991" fill="#7a97dd"/><path d="M200.29139,351.27783s11.30585-.98927,18.65465,6.92483,9.186,22.18772,22.61169,29.81917" fill="none" stroke="#2f170b" stroke-miterlimit="10" stroke-width="2"/><path d="M197.74751,403.99138c8.62076-2.26128,20.49186-21.05715,16.53488-32.64568s-17.74141-8.45844-17.7417-8.45844" fill="none" stroke="#2f170b" stroke-miterlimit="10" stroke-width="2"/><path d="M235.72974,398.00011c-3.81241-5.48113-8.3096-15.54274-10.70682-16.19645-3.10913-.848-2.68506,3.53306-4.09834,8.19669-1.13819,3.75595-6.40024,10.53393-10.62044,13.991" fill="none" stroke="#2f170b" stroke-miterlimit="10" stroke-width="2"/><path d="M381.164,181.03386H107.75228l273.41183,0a50.36363,50.36363,0,0,0-7.52954-8.94116c-13.46142-12.63367-31.729-15.51147-38.47046-16.23535-12.29931-1.32068-18.84863,1.02576-25.76489-4.58826-1.55566-1.26281-1.37231-1.50158-6.35278-8.11767-8.65332-11.49524-13.08765-17.3003-18.353-20.11756-5.31348-2.84289-5.34912-.46545-14.11768-3.52942-8.644-3.02038-14.51465-7.394-21.52929-12.70593-9.25074-7.00513-9.59986-8.85779-14.82349-12.70581-13.27515-9.779-34.11011-14.82239-51.88232-8.47058-10.05884,3.59509-17.002,10.07751-19.7649,12.70581-10.10083,9.608-8.84472,15.1095-18.70581,21.88232-8.468,5.816-17.71069,7.471-21.52929,8.11768a60.30009,60.30009,0,0,1-14.11768.70593l-.47067,52Z" fill="#b3c8f3"/><path d="M212.0716,27.54556h-.00021A104.31911,104.31911,0,0,0,107.75228,131.86468V403.57073H316.3908" fill="none" stroke="#2f170b" stroke-miterlimit="10" stroke-width="2"/></g></svg>