<svg xmlns="http://www.w3.org/2000/svg" viewBox="0 0 1109 792.52"><title>background 6</title><g id="background-15" data-name="background"><path d="M102.86021,343.21191c24.60391-73.002,75.2282-115.92049,97.66-134.46241C281.76026,141.6,343.676,153.192,528.40145,112.32691,757.90782,61.55473,795.65322,14.16676,874.78573,48.47559c77.66216,33.67029,126.01,115.78652,140.27069,184.5523C1053.131,416.60766,873.27873,636.31582,666.6699,715.1484c-133.77766,51.0428-369.33427,77.585-496.63023-68.13982C107.7412,575.68972,65.50764,454.05573,102.86021,343.21191Z" fill="#e0ecfc"/><rect x="856.96438" y="764.59875" width="182.93197" height="27.92125" fill="#6986ed"/><path d="M1015.04949,764.59875H881.81123l59.09191-162.13329a8.22452,8.22452,0,0,1,15.05444,0Z" fill="#6986ed"/><polygon points="908.989 690.033 987.874 690.033 975.346 655.662 921.514 655.662 908.989 690.033" fill="#b3c8f3"/><polygon points="887.917 747.849 1008.946 747.849 996.418 713.478 900.442 713.478 887.917 747.849" fill="#b3c8f3"/><rect x="745.96369" y="103.13856" width="303.7" height="433.54275" rx="25.21664" fill="none" stroke="#2f170b" stroke-miterlimit="10" stroke-width="2"/><rect x="767.97094" y="126.24617" width="258.58514" height="391.72899" rx="11.46211" fill="#e0ecfc"/><rect x="889.0108" y="190.06718" width="118.83913" height="57.21884" fill="#b3c8f3"/><rect x="889.0108" y="291.30052" width="118.83913" height="57.21884" fill="#b3c8f3"/><rect x="889.0108" y="392.53385" width="118.83913" height="57.21884" fill="#b3c8f3"/><circle cx="826.29014" cy="218.6766" r="32.46069" fill="none" stroke="#2f170b" stroke-miterlimit="10" stroke-width="2"/><circle cx="826.29014" cy="319.90994" r="32.46069" fill="#6986ed"/><circle cx="826.29014" cy="421.14327" r="32.46069" fill="none" stroke="#2f170b" stroke-miterlimit="10" stroke-width="2"/><rect x="114.94383" y="391.92581" width="24.81603" height="400.59419" fill="#6986ed"/><rect x="352.13375" y="391.92581" width="24.81603" height="400.59419" fill="#6986ed"/><rect x="59.33754" y="438.7756" width="374.48396" height="59.17869" fill="#b3c8f3"/><polygon points="170.551 438.774 119.78 497.955 59.336 497.955 59.336 495.047 107.579 438.774 170.551 438.774" fill="#6986ed"/><polygon points="300.289 438.774 249.518 497.955 186.546 497.955 237.317 438.774 300.289 438.774" fill="#6986ed"/><polygon points="433.821 438.774 383.05 497.955 320.078 497.955 370.846 438.774 433.821 438.774" fill="#6986ed"/><rect x="59.33754" y="559.40908" width="374.48396" height="59.17869" fill="#b3c8f3"/><polygon points="170.551 559.408 119.78 618.589 59.336 618.589 59.336 615.681 107.579 559.408 170.551 559.408" fill="#6986ed"/><polygon points="300.289 559.408 249.518 618.589 186.546 618.589 237.317 559.408 300.289 559.408" fill="#6986ed"/><polygon points="433.821 559.408 383.05 618.589 320.078 618.589 370.846 559.408 433.821 559.408" fill="#6986ed"/><rect x="114.82154" y="172.33968" width="224.51306" height="112.67384" fill="#b3c8f3"/><line x1="144.45059" y1="197.37832" x2="310.54018" y2="197.37832" fill="none" stroke="#2f170b" stroke-miterlimit="10" stroke-width="2"/><line x1="144.45059" y1="218.24384" x2="310.54018" y2="218.24384" fill="none" stroke="#2f170b" stroke-miterlimit="10" stroke-width="2"/><line x1="144.45059" y1="239.10937" x2="310.54018" y2="239.10937" fill="none" stroke="#2f170b" stroke-miterlimit="10" stroke-width="2"/><line x1="144.45059" y1="259.97489" x2="215.94979" y2="259.97489" fill="none" stroke="#2f170b" stroke-miterlimit="10" stroke-width="2"/><path d="M519.052,154.08713l-16.18848-16.5c7.23926-6.18945,11.64112-14.31884,11.64112-23.22949,0-19.38183-20.78858-35.09424-46.43213-35.09424s-46.43213,15.71241-46.43213,35.09424c0,19.38233,20.78857,35.09473,46.43213,35.09473A58.56257,58.56257,0,0,0,489.512,145.4846Z" fill="#b3c8f3"/><line x1="444.69918" y1="102.32231" x2="491.28742" y2="102.32231" fill="none" stroke="#6986ed" stroke-linecap="round" stroke-miterlimit="10" stroke-width="3"/><line x1="444.69918" y1="112.43996" x2="491.28742" y2="112.43996" fill="none" stroke="#6986ed" stroke-linecap="round" stroke-miterlimit="10" stroke-width="3"/><line x1="444.69918" y1="122.55761" x2="491.28742" y2="122.55761" fill="none" stroke="#6986ed" stroke-linecap="round" stroke-miterlimit="10" stroke-width="3"/></g></svg>