<svg xmlns="http://www.w3.org/2000/svg" viewBox="0 0 1109 792.52"><title>bottom 4</title><g id="bottom-11" data-name="bottom"><path d="M632.85886,792.26822l-96.8.3a4.513,4.513,0,0,1-4.5-3.7l-6.9-35.5a4.53508,4.53508,0,0,1,4.1-5.4c9.6-.8,53,8.1,59.8,4l47.5,22.7a4.50042,4.50042,0,0,1,2.5,4.7l-1.2,8.9A4.45477,4.45477,0,0,1,632.85886,792.26822Z" fill="#4c69de"/><path d="M637.85886,784.86822c-8.9-.3-17.9-.5-26.8-.6l-26.8-.5-26.8-.2c-8.9-.1-17.9-.1-26.8-.1,8.9.3,17.9.5,26.8.6l26.8.5,26.8.2C619.95886,784.86822,628.95886,784.86822,637.85886,784.86822Z" fill="#4c69de"/><path d="M593.25885,765.56824a38.2505,38.2505,0,0,0,3.4-7.4,25.99979,25.99979,0,0,0,1-4,7.2093,7.2093,0,0,0-.3-4.1,10.1879,10.1879,0,0,1-.4,3.9c-.3,1.3-.7,2.6-1.1,3.8C595.05886,760.46823,594.05886,762.96823,593.25885,765.56824Z" fill="#4c69de"/><path d="M588.55886,752.06824l-26.8-29.1-35,12.9,2.1,12.2C528.75886,748.06824,576.95886,758.56824,588.55886,752.06824Z" fill="#ea9d7d"/><path d="M518.55886,792.26822l-96.8.3a4.513,4.513,0,0,1-4.5-3.7l3.4-31.1c-.5-2.7,1.8-9.2,4.6-9.4,9.6-.8,42.3,7.7,49,3.6l47.5,22.7a4.50042,4.50042,0,0,1,2.5,4.7l-1.2,8.9A4.45477,4.45477,0,0,1,518.55886,792.26822Z" fill="#4c69de"/><path d="M523.55886,784.86822c-8.9-.3-17.9-.5-26.8-.6l-26.8-.5-26.8-.2c-8.9-.1-17.9-.1-26.8-.1,8.9.3,17.9.5,26.8.6l26.8.5,26.8.2C505.65886,784.86822,514.65886,784.86822,523.55886,784.86822Z" fill="#4c69de"/><path d="M478.95886,765.56824a38.25046,38.25046,0,0,0,3.4-7.4,25.99979,25.99979,0,0,0,1-4,7.2093,7.2093,0,0,0-.3-4.1,10.18771,10.18771,0,0,1-.4,3.9c-.3,1.3-.7,2.6-1.1,3.8C480.75886,760.46823,479.75886,762.96823,478.95886,765.56824Z" fill="#4c69de"/><path d="M474.25886,752.06824l-26.9-29.1-21.2,7.8-.9,17.7C425.25886,748.36822,462.65886,758.56824,474.25886,752.06824Z" fill="#ea9d7d"/><path d="M536.25886,427.96823s14.3,42.2,8.9,87.3c-5.4,45.2-8.9,66.8-8.9,66.8l-54.5,163.4h-72.4l73.6-225.2v-92.3Z" fill="#63ba08"/><path d="M489.15886,450.56823h-6.2v69.7l-22.6,69.3c16.6,42.6,24.5,63.6,32,95.5,1.3,5.4,2.7,10.9,4.1,16.4l38.3-114.8C521.45886,549.56823,489.15886,450.56823,489.15886,450.56823Z" fill="#2f170b"/><path d="M450.40786,427.96823s-18.149,50,5.851,112,33.5,84.5,42.5,122.5,23,83,23,83h71s-40-153-47-169-50.20009-148.5-50.20009-148.5Z" fill="#63ba08"/><path d="M539.55886,559.66823c.5-3.7,1.1-7.9,1.7-12.5l-29.5-69.9Z" fill="#2f170b"/><path d="M496.28674,430.19849c-2.79925,10.86963-11.04553,35.39087-28.65051,36.47339l.24512,3.99218c17.48065-1.0747,26.54168-20.66015,30.64422-33.61865C497.55664,434.085,496.7948,431.75391,496.28674,430.19849Z" fill="#fff"/></g></svg>