<svg xmlns="http://www.w3.org/2000/svg" viewBox="0 0 1109 792.52"><title>bottom 10</title><g id="bottom-5" data-name="bottom"><path d="M576.24585,721.82s-1.1,33.7,37.7,46.5c0,0,20.6,6.7,20.6,23.9l-96.9.2a4.85,4.85,0,0,1-4.8-4.2c-1.8-14.1-6.9-61.4-3.2-66.4Z" fill="#4c69de"/><path d="M472.94576,727.62s-17.2,27.9,21.7,40.8c0,0,20.6001,6.7,20.6001,23.9l-96.90006.2a4.85,4.85,0,0,1-4.8-4.2c-1.8-14.1,9.9-61.4,13.6-66.4Z" fill="#4c69de"/><path d="M536.25886,430.82s14.3,42.2,8.9,87.3c-5.4,45.2-8.9,66.8-8.9,66.8l-54.5,163.4h-72.4l73.6-225.2v-92.3Z" fill="#ffc929"/><path d="M489.15886,453.42h-6.2v69.7l-22.6,69.3c16.6,42.6,24.5,63.6,32,95.5,1.3,5.4,2.7,10.9,4.1,16.4l38.3-114.8C521.45886,552.42,489.15886,453.42,489.15886,453.42Z" fill="#2f170b"/><path d="M449.94009,431.28157S432.25886,480.82,456.25886,542.82s33.5,84.5,42.5,122.5,23,83,23,83h71s-40-153-47-169-50.20009-148.5-50.20009-148.5Z" fill="#ffc929"/><path d="M479.25885,430.82011s-.69019,2.02978-1.59613,5.779" fill="none" stroke="#fff" stroke-miterlimit="10" stroke-width="4"/><path d="M475.40613,448.15482a185.55671,185.55671,0,0,0,10.85272,94.66529c24,62,33.5,84.5,42.5,122.5,6.21619,26.24585,14.81757,55.8313,19.54388,71.62256" fill="none" stroke="#fff" stroke-miterlimit="10" stroke-width="4" stroke-dasharray="11.77938 11.77938"/><path d="M550.0033,742.58671c1.10723,3.64941,1.75555,5.7334,1.75555,5.7334" fill="none" stroke="#fff" stroke-miterlimit="10" stroke-width="4"/><path d="M539.55886,562.52c.5-3.7,1.1-7.9,1.7-12.5l-29.5-69.9Z" fill="#2f170b"/></g></svg>