<svg xmlns="http://www.w3.org/2000/svg" viewBox="0 0 1109 792.52"><title>bottom 11</title><g id="bottom-4" data-name="bottom"><rect x="383.2999" y="493.75688" width="310.69136" height="298.81136" rx="19" transform="translate(1077.29117 1286.32511) rotate(-180)" fill="#b3c8f3"/><rect x="445.90182" y="553.96506" width="185.48754" height="178.39499" rx="11.34329" transform="translate(1077.29117 1286.32511) rotate(-180)" fill="#e0ecfc"/><path d="M525.20172,415.69761l9.75177,14.34321,81.83857-44.23389c30.08056-16.25859,64.60382,11.7996,56.69193,46.07541l-34.35306,148.824s-41.74233-2.22567-63.14865-24.48238l33.65549-129.89263-32.10948,78.14578s-44.23974-1.73108-48.0453-2.72026l22.114,43.15519a115.68669,115.68669,0,0,1,12.37609,60.58036L554.576,742.99489s-17.12506,20.402-75.99244,0l11.23832-155.05508-42.81265-61.76237s-24.61727-41.17491,7.49221-98.48594C454.50139,427.6915,476.02664,413.71923,525.20172,415.69761Z" fill="#e56c01"/><path d="M587.24366,512.76094s-53.95509-10.01488-57.76074-11.00406l80.15491-75.42553Z" fill="#2f170b"/><line x1="529.88235" y1="501.59765" x2="514.4391" y2="471.6485" fill="none" stroke="#2f170b" stroke-miterlimit="10"/><polygon points="534.953 430.041 524.429 435.193 529.211 421.595 534.953 430.041" fill="#2f170b"/><path d="M485.14954,745.15334c.65765.20508,1.31213.40723,1.95849.60181l1.98328.1936c.60889-6.24414,14.91894-152.98438,15.27392-159.38184a24.34245,24.34245,0,0,0,.00049-2.60254,26.422,26.422,0,0,0-5.62207-14.874c-6.33838-8.16211-22.7456-30.70019-38.167-63.60742-14.12463-30.13818-5.36987-64.645.31549-80.92822a55.44939,55.44939,0,0,0-5.11676,2.40356c-5.83112,17.929-12.69446,50.6189,1.1792,80.22193,15.59229,33.27148,32.20947,56.09472,38.62988,64.36328a22.443,22.443,0,0,1,4.78662,12.62793,20.16572,20.16572,0,0,1,0,2.17382C500.0296,592.50417,485.98,736.63918,485.14954,745.15334Z" fill="#fff"/><path d="M617.83793,577.36426l-.67468,5.69143L580.77253,567.476l1.70866-5.51093C593.22227,570.08936,606.71469,574.73205,617.83793,577.36426Z" fill="#ea9d7d"/><path d="M645.81558,636.18635l-70.64322-27.8598a11.95123,11.95123,0,0,1-6.13215-16.24489L580.77257,567.476l36.39072,15.57969.59462,6.86249c.561,8.38363,8.60555,14.585,16.06843,17.81273l.23249.10055c10.639,4.60137,15.84329,17.15313,11.75675,28.35486Z" fill="#2f170b"/><path d="M531.4051,751.7512l.00121.00013v7.68878h-33.5571V748.643l.02419.00227C512.07729,751.97515,523.0614,752.5251,531.4051,751.7512Z" fill="#ea9d7d"/><path d="M531.40631,759.44011a65.08546,65.08546,0,0,1,5.33246,29.75843l.08635,3.3697h-44.772s-.00141-26.3275,5.79613-33.12813Z" fill="#2f170b"/></g></svg>