<svg xmlns="http://www.w3.org/2000/svg" viewBox="0 0 1109 792.52"><title>bottom 1</title><g id="bottom-14" data-name="bottom"><polygon points="413.449 731.072 480.251 553.855 516.169 622.305 467.629 731.072 413.449 731.072" fill="#ea9d7d"/><path d="M531.487,413.57191s17.15692,42.16339,11.77322,87.32-8.88,66.8-8.88,66.8l-53.28-61.84v-92.28Z" fill="#e23203"/><path d="M483.31924,544.73459l-12.76562,34.72086c11.97692,31.214,19.53172,48.42595,25.94212,75.49193.46509,1.964,1.33232,5.363,1.82158,7.35724L519.904,614.45445Z" fill="#2f170b"/><path d="M537.61779,545.3133c.50562-3.70483,2.608-19.456,3.2145-24.10191L509.819,462.87971Z" fill="#2f170b"/><path d="M528.10541,731.07191S489.65676,589.24119,468.21156,545.3133L522.91189,497.837s23.25958,68.86441,31.365,97.88272,21.301,135.35221,21.301,135.35221Z" fill="#ea9d7d"/><path d="M457.221,413.57191s-26.88076,50-2.88076,112c4.39795,11.36154,17.15808,49.88272,17.15808,49.88272q6.39059-4.16538,12.78119-8.33072a42.248,42.248,0,0,1,12.94857-5.62435l20.9647-5.17282c2.50367-.61776,4.90011-1.58,7.35865-2.35823,10.9751-3.47389,10.9751-5.39389,13.86929-8.65521L493.61052,413.57191Z" fill="#e23203"/><path d="M467.48047,563.41622c.54492,1.624,1.05517,3.148,1.51489,4.52344,2.02612-2.85108,10.657-13.14332,31.11353-15.70093,19.46093-2.43286,32.18383-9.51221,37.25561-12.83863l-1.36181-3.9165c-3.958,2.6936-16.62915,10.31567-36.3899,12.78638C481.18213,550.57344,471.56665,558.75753,467.48047,563.41622Z" fill="#fff"/><path d="M575.57794,731.07191l3.42272,17.93683s20.96043,23.265,58.02019,29.76051c0,0,11.296,5.30163,11.22741,13.52173l-118.79284-.93339.356-42.63575-2.35346-21.33609Z" fill="#ea9d7d"/><path d="M646.4666,786.70988l-115.75923-.90806a2.77824,2.77824,0,0,0-2.80133,2.755l-.00008.00956a2.77823,2.77823,0,0,0,2.75493,2.80133l119.12262.93646S653.0132,788.95649,646.4666,786.70988Z" fill="#e56c01"/><path d="M614.17855,787.83274s-1.00867-5.74464,4.76771-13.63549a11.65643,11.65643,0,0,0-9.82121-3.60783,35.17779,35.17779,0,0,0-3.23312,6.9305c-1.41223,3.85671-2.41592,8.49633-.78149,11.628Z" fill="#e56c01"/><path d="M590.18319,758.687s-12.42244,15.63327-6.87362,29.039l-10.64146-.08885s-2.72433-23.87633,8.83451-36.09558C581.50262,751.54155,588.62793,753.48986,590.18319,758.687Z" fill="#e56c01"/><path d="M467.62928,731.07191l-5.13883,16.85221s4.81852,20.386,38.39079,27.71145a21.08852,21.08852,0,0,1,10.27248,5.57337c2.97543,2.92588,5.98187,6.918,5.9471,11.082L391.308,791.35759l22.1413-60.28568,8.77888-23.28941Z" fill="#ea9d7d"/><path d="M515.31916,786.70988l-122.75923-.90806a2.77824,2.77824,0,0,0-2.80133,2.755l-.00008.00956a2.77823,2.77823,0,0,0,2.75493,2.80133l126.12262.93646S521.86576,788.95649,515.31916,786.70988Z" fill="#e56c01"/><path d="M491.03111,787.83274s-1.00867-5.74464,4.76771-13.63549a11.65643,11.65643,0,0,0-9.82121-3.60783,35.17779,35.17779,0,0,0-3.23312,6.9305c-1.41223,3.85671-2.41592,8.49633-.78149,11.628Z" fill="#e56c01"/><path d="M471.376,760.781s-11.70559,13.2-11.21391,26.945l-10.64146-.08885s3.99926-21.78233,15.5581-34.00158A11.88806,11.88806,0,0,1,471.376,760.781Z" fill="#e56c01"/></g></svg>