<svg xmlns="http://www.w3.org/2000/svg" viewBox="0 0 1109 792.52"><title>bottom 12</title><g id="bottom-3" data-name="bottom"><rect x="424.63039" y="484.97071" width="310.69136" height="244.65442" rx="18" transform="translate(1159.95214 1214.59584) rotate(-180)" fill="#b3c8f3"/><rect x="505.10894" y="548.34368" width="149.73425" height="117.90848" rx="8.6749" transform="translate(1159.95214 1214.59584) rotate(-180)" fill="#e0ecfc"/><path d="M694.33008,678.02H622.54l-11.96-172.2002H570.40991L574.02,513.18c8.63989,15.29.65991,39.88013.65991,39.88013L514.86,678.02H450.39l54.5-144.24s-41.21008-27.25-57.82995-49.8501C430.45,461.3301,455.7,428.10012,455.7,428.10012l15.31006.75976,4.35.22022,57.22184.59006C535.23159,435.76,550.75,442.06008,550.75,442.06008l78.63,3.04A47.94643,47.94643,0,0,1,675.24,488.21Z" fill="#ffc929"/><polygon points="504.89 533.783 518.184 543.088 450.386 678.02 504.89 533.783" fill="#2f170b"/><path d="M644.68994,678.02h-4.02L630.86,514.89992a33.0226,33.0226,0,0,0-23.80994-30.06006l-71.13013-20.52L530.76,462.8301,528.15,460l.55994-1.91992L608.15991,481A37.01577,37.01577,0,0,1,634.86,514.66994Z" fill="#fff"/><path d="M465.27,678.02l69.18-128.25a17.17051,17.17051,0,0,0-4.1-21.53c-16.37-13.49-55.36-45.8-63.93-54.36-7.27-7.28,2.29-31.29,8.94-44.8l-4.35-.22c-6.22,12.82-16.81,38.45-7.41,47.84,8.37,8.38,43.82,37.82,64.2,54.62a13.17415,13.17415,0,0,1,3.14,16.53L460.73,678.02Z" fill="#fff"/><rect x="641.15116" y="678.01958" width="33.23434" height="10.63499" fill="#ea9d7d"/><polygon points="497.981 678.02 493.365 688.655 460.131 688.655 464.746 678.02 497.981 678.02" fill="#ea9d7d"/><path d="M728.64141,729.62513H640.275a6.46224,6.46224,0,0,1-6.46224-6.46224V688.65457h50.01768l2.13982,4.64115a22.98344,22.98344,0,0,0,20.14427,13.34888l.27106.00858a22.98345,22.98345,0,0,1,22.25582,22.97192Z" fill="#2f170b"/><path d="M545.2147,729.62513H458.29032a6.46223,6.46223,0,0,1-6.33331-7.74659l6.73762-33.224h41.7091l2.13981,4.64115a22.98346,22.98346,0,0,0,20.14427,13.34888l.27106.00858A22.98345,22.98345,0,0,1,545.2147,729.6251Z" fill="#2f170b"/><polygon points="610.58 505.82 570.41 505.82 530.76 462.83 528.15 460 535.92 464.32 610.58 505.82" fill="#2f170b"/><polygon points="528.154 460.002 537.853 460.002 530.088 455.392 523.912 460.002 528.154 460.002" fill="#ffc929"/></g></svg>