<svg xmlns="http://www.w3.org/2000/svg" viewBox="0 0 1109 792.52"><title>bottom 13</title><g id="bottom-2" data-name="bottom"><polygon points="452.948 521.799 422.096 501.246 392.771 521.163 408.944 529.116 442.192 557.435 452.948 521.799" fill="#ea9d7d"/><path d="M319.9209,513.96155h99.88478a3.74654,3.74654,0,0,1,3.74654,3.74654v0a3.74653,3.74653,0,0,1-3.74653,3.74653H319.9209a3.74654,3.74654,0,0,1-3.74654-3.74654v0a3.74654,3.74654,0,0,1,3.74654-3.74654Z" transform="matrix(-0.62542, 0.78029, -0.78029, -0.62542, 1005.14469, 552.8941)" fill="#e23203"/><path d="M428.39751,505.44377s-8.896-2.3473-18.27287,7.73726a12.83057,12.83057,0,0,0-1.18111,15.9345h0S361.18615,564.216,340.431,560.41885l64.79361-80.83772S434.76954,501.86986,428.39751,505.44377Z" fill="#4c69de"/><polygon points="364.97 554.041 334.118 533.488 304.793 553.405 320.966 561.357 354.214 589.677 364.97 554.041" fill="#ea9d7d"/><path d="M231.94286,546.20349h99.88479a3.74653,3.74653,0,0,1,3.74653,3.74653v0a3.74654,3.74654,0,0,1-3.74654,3.74654H231.94286a3.74654,3.74654,0,0,1-3.74654-3.74654v0a3.74654,3.74654,0,0,1,3.74654-3.74654Z" transform="translate(887.3013 673.94897) rotate(128.71311)" fill="#e23203"/><path d="M340.41948,537.68571s-8.896-2.34731-18.27287,7.73726a12.83057,12.83057,0,0,0-1.18111,15.9345h0s-47.75739,35.10042-68.5126,31.30332l64.79361-80.83772S346.79151,534.1118,340.41948,537.68571Z" fill="#4c69de"/><path d="M450.59807,430.50493s-44.41969,43.68839-9.2348,151.19777L369.03878,538.699s-36.488,31.927-28.0176,63.20248c0,0,99.69052,70.36978,111.41882,72.3245s25.41131,1.95471,44.3069-34.53332c0,0,37.1396,26.71445,53.4289-19.54716S537,428.68,537,428.68Z" fill="#ffc929"/><path d="M501.95947,457.25248a448.629,448.629,0,0,1,4.75122,45.5918c.91089,15.2666,1.07618,30.574.75293,45.86767-.13891,7.64893-.57715,15.28809-.99316,22.92627-.24732,3.81665-.62354,7.62549-.9292,11.4375l-.48633,5.71582c-.19629,1.90235-.44726,3.79956-.66821,5.699l-1.37964,11.38867-1.80347,11.32935-.94922,5.65307L499.10425,628.48q-1.13049,5.61951-2.35742,11.21265.74378-5.68579,1.57324-11.34449l.81494-5.66015.613-5.68824,1.30688-11.35522,1.0022-11.38428c.16186-1.89721.35376-3.79126.491-5.69018l.3728-5.70044c.23364-3.80078.53833-7.59619.71387-11.39942l.51171-11.41088.13062-2.85254.06274-2.855.12647-5.71021.15991-5.70923c.0459-1.90332.0332-3.80762.05274-5.71142.011-3.80787.07617-7.61621.043-11.42432l-.08813-11.42651-.25317-11.42652-.3899-11.42578-.53027-11.42358C503.116,472.47367,502.56616,464.86674,501.95947,457.25248Z" fill="#2f170b"/><path d="M430.57739,475.47758a17.58956,17.58956,0,0,0,6.38037-1.26782l.75245-.2688.72167-.35205,1.42774-.70362c.44556-.29638.89673-.57422,1.346-.85205a8.77676,8.77676,0,0,0,1.30493-.896,31.57491,31.57491,0,0,0,4.62427-4.32959c.6604-.83643,1.35424-1.64038,2.03125-2.45874l1.76782-2.68213a22.86657,22.86657,0,0,0,1.64111-2.77295c.51807-.94605,1.06665-1.87525,1.56348-2.83667.8855-1.98169,1.87036-3.92407,2.696-5.95044.40161-1.01807.78321-2.04492,1.20435-3.06177.40454-1.022.88452-2.02344,1.19922-3.08057.7334-2.08325,1.45971-4.17773,2.324-6.259-.21216,2.22315-.562,4.43335-.905,6.65454-.39428,2.20752-1.042,4.36328-1.6206,6.54151a24.611,24.611,0,0,1-1.103,3.2l-1.22656,3.16943c-.45972,1.0376-1.02564,2.032-1.5354,3.051a23.9046,23.9046,0,0,1-1.71509,2.96557,29.75815,29.75815,0,0,1-9.65674,9.79322,10.243,10.243,0,0,1-1.53247.83105c-.52417.25415-1.04639.50855-1.57422.74414l-1.65869.53857-.82544.26026-.85376.16528A14.21323,14.21323,0,0,1,430.57739,475.47758Z" fill="#2f170b"/><path d="M520.855,437.70536c2.773,5.97534,5.3584,11.832,8.69019,17.1853a38.89527,38.89527,0,0,0,5.73144,7.32984,19.136,19.136,0,0,0,8.05444,4.751,13.98243,13.98243,0,0,1-9.54907-2.94921,26.4919,26.4919,0,0,1-6.781-7.54395,41.61373,41.61373,0,0,1-4.17652-9.071A38.36788,38.36788,0,0,1,520.855,437.70536Z" fill="#2f170b"/><path d="M505.30591,497.64555c1.001-1.95,2.1206-3.812,3.241-5.67334l1.72485-2.75928,1.78052-2.71777-.241.72949c-.1333-2.90723-.23584-5.81445-.24805-8.72144-.05517-2.90722-.01294-5.81445.07056-8.72168.08569-2.90722.22192-5.81445.43994-8.72143.2207-2.90723.50488-5.81446.9624-8.72168.45777,2.90722.742,5.81445.96265,8.72168.218,2.907.354,5.81421.43994,8.72143.08325,2.90723.12573,5.81446.07056,8.72168-.01245,2.907-.115,5.81421-.24805,8.72144l-.02148.467-.21973.26294-2.08447,2.49243-2.14038,2.45117C508.33887,494.51029,506.88159,496.12187,505.30591,497.64555Z" fill="#2f170b"/></g></svg>