<svg xmlns="http://www.w3.org/2000/svg" viewBox="0 0 1109 792.52"><title>bottom 7</title><g id="bottom-8" data-name="bottom"><path d="M400.32347,720.73412v34.611l20.75435,3.85672L435.862,722.7722S407.8518,703.47838,400.32347,720.73412Z" fill="#ea9d7d"/><polygon points="471.739 720.559 475.037 757.94 509.335 768.494 505.378 750.685 506.697 706.493 471.739 720.559" fill="#ea9d7d"/><path d="M537.44006,431.28157s14.10633,56.78423,1.42817,131.94766-12.67817,167.53293-12.67817,167.53293-19.01726,18.11167-59.76851,9.96142c0,0,6.33908-82.40809,13.58375-116.82026s6.79188-79.23856,6.79188-79.23856-36.90253,160.42915-43.6944,198.16682c0,0-48.90151,2.41992-58.41014-6.40952,0,0,7.47107-80.82332,35.99694-141.271,0,0,6.79188-8.15025,8.15026-32.601s4.62546-98.79955,21.10025-131.26847Z" fill="#e56c01"/><path d="M517.81348,466.78469a10.98861,10.98861,0,0,1-2.74292,2.95605,17.33523,17.33523,0,0,1-3.52295,2.07471,23.53454,23.53454,0,0,1-3.88745,1.3291c-.66578.16333-1.34082.27588-2.01416.41577l-2.03662.27759.85888-.72632c-.55981,3.02271-1.19751,6.0271-1.79248,9.04151l-1.92016,9.01147-2.03516,8.98462-2.134,8.96167q-2.17273,8.95239-4.583,17.84961c-1.63306,5.92529-3.30371,11.8418-5.2063,17.70434.88989-6.09887,2.01147-12.14355,3.17041-18.17944q1.78711-9.04284,3.79346-18.03418l2.05444-8.98,2.15332-8.95727,2.26782-8.93042c.80127-2.96607,1.55982-5.94239,2.396-8.9004l.19629-.69384.66284-.03272,1.94141-.09521c.64013-.07788,1.28906-.12769,1.92822-.2273a24.01254,24.01254,0,0,0,3.78833-.85547,19.16007,19.16007,0,0,0,3.57959-1.54638A11.74346,11.74346,0,0,0,517.81348,466.78469Z" fill="#2f170b"/><path d="M373.31986,787.43354l27.00361-37.28932s14.96926-5.78509,20.75435,9.96322,10.28461,26.1128,10.28461,26.1128Z" fill="#e23203"/><rect x="373.02941" y="785.17617" width="59.4579" height="7.39206" rx="3.69603" fill="#e56c01"/><rect x="466.76073" y="784.98308" width="108.69732" height="7.58515" rx="3.79257" fill="#e56c01"/><path d="M474.36371,750.30553s3.82613,8.62119,17.94594,9.55332a12.90185,12.90185,0,0,0,13.06824-9.17384h0s57.96046,15.50009,68.10149,34.29808h-104.873S467.50659,747.53508,474.36371,750.30553Z" fill="#e23203"/></g></svg>