<svg xmlns="http://www.w3.org/2000/svg" viewBox="0 0 1109 792.61647"><title>head 11</title><g id="head-3" data-name="head"><path d="M477.42147,227.01726a52.37152,52.37152,0,0,0-9.383,24.39815C466.16,266.44824,454.28,292.92531,441.68,298.94677c0,0,4.20671,5.1016,21.6,8.90147s22.05276-1.96014,22.05276-1.96014l5.35033-32.98462-.27612-32.10319Z" fill="#2f170b"/><path d="M540.32,240.65068s1.08,1.90594,0,14.39175a35.24485,35.24485,0,0,1-8.22306,19.96849L526.64,248.54407Z" fill="#2f170b"/><path d="M491.26221,269.33323,485.77694,300.834l-1.32172,10.46412-.43217,1.8285A11.04072,11.04072,0,0,0,491.1647,326.124a39.50782,39.50782,0,0,0,9.99709,1.97578c17.99164,4.22217,18.59128-21.97621,18.59128-21.97621l1.12525-24.77323Z" fill="#ea9d7d"/><path d="M496.79349,275.81822c1.29517,3.33942,3.15994,10.30372,12.01767,15.168,4.123,2.26413,6.85946,1.978,11.53206,2.14442l.53516-11.78027S495.47562,272.31444,496.79349,275.81822Z" fill="#2f170b"/><path d="M534.56428,234.59033s2.808,18.03735,2.17446,30.51743c-.45594,10.11107-4.71135,15.7188-9.74631,18.08389s-14.36256.29445-21.22437-2.11426c-5.80789-2.05078-9.3369-4.5815-10.63214-7.9209-1.31777-3.50379-3.59271-7.88121-3.59271-7.88121L490.407,254.54513l8.96138-28.69472Z" fill="#ea9d7d"/><path d="M477.42152,227.01725a43.18716,43.18716,0,0,0-9.383,24.39816c-1.76687,26.201,20.69173,29.98829,20.69173,29.98829s2.24948-20.23806,6.30474-23.64115c4.5445,1.38662,8.51891-.16315,8.491-7.69574.00123-8.54144-.97453-14.43679.2053-15.60341,1.62795-1.563,4.64789-.30231,15.76119,1.356s18.24949,1.18233,19.12974-.94807c.89617-.79278-3.99572-7.156-10.38961-13.48086-6.76773-6.60851-17.23941-9.69461-25.50378-8.89646-8.6382.51446-16.34841,2.9114-25.30733,14.52324Z" fill="#2f170b"/><ellipse cx="487.67878" cy="263.96289" rx="8.79396" ry="9.45764" transform="matrix(0.99073, -0.13584, 0.13584, 0.99073, -31.33568, 68.6913)" fill="#ea9d7d"/><ellipse cx="504.63817" cy="238.33443" rx="74.73149" ry="17.90994" transform="matrix(0.96593, -0.25882, 0.25882, 0.96593, -44.4904, 138.73126)" fill="#ffc929"/><path d="M530.87608,233.06449a158.06938,158.06938,0,0,1-52.8754,14.16795,5.4076,5.4076,0,0,1-4.41429-.81127,5.20316,5.20316,0,0,1-2.15946-3.93463l-.17205-29.23478a12,12,0,0,1,8.894-11.66172l26.04564-6.97892a12,12,0,0,1,13.53326,5.65236l14.46842,25.40407A5.2294,5.2294,0,0,1,530.87608,233.06449Z" fill="#ffc929"/><path d="M532.6851,222.65711a5.20979,5.20979,0,0,1-3.6487,3.54164A158.06972,158.06972,0,0,1,476.161,240.36669a5.40756,5.40756,0,0,1-4.41429-.81127,5.28675,5.28675,0,0,1-.5164-.43153l.19661,3.36265a5.20316,5.20316,0,0,0,2.15946,3.93463,5.4076,5.4076,0,0,0,4.41429.81127,158.06938,158.06938,0,0,0,52.8754-14.16795,5.2294,5.2294,0,0,0,3.32008-7.39694Z" fill="#2f170b"/><path d="M471.51953,243.20536a36.9062,36.9062,0,0,1-.58166-6.42261,36.48331,36.48331,0,0,1,.4176-6.43542,36.47222,36.47222,0,0,1,.58166,6.42267A36.90633,36.90633,0,0,1,471.51953,243.20536Z" fill="#2f170b"/><path d="M528.07983,214.92832a31.26563,31.26563,0,0,1,3.28382,4.94129,30.90708,30.90708,0,0,1,2.40783,5.42236,30.903,30.903,0,0,1-3.28381-4.94129A31.25708,31.25708,0,0,1,528.07983,214.92832Z" fill="#2f170b"/></g></svg>