<svg xmlns="http://www.w3.org/2000/svg" viewBox="0 0 1109 792.52"><title>head 4</title><g id="head-11" data-name="head"><path d="M491.23174,269.28l-5.4548,31.50576L484.43175,311.28l-.4,1.8a11.08506,11.08506,0,0,0,7.1,13,40.97061,40.97061,0,0,0,10,2c18,4.2,18.6-22,18.6-22l1.1-24.8Z" fill="#ea9d7d"/><path d="M534.53173,234.58s2.8,18,2.2,30.5c-.5,10.1-4.7,15.7-9.7,18.1s-14.4.3-21.2-2.1c-5.8-2.1-9.3-4.6-10.6-7.9a83.98249,83.98249,0,0,0-3.6-7.9l-1.1-10.7,9-28.7Z" fill="#ea9d7d"/><path d="M477.43175,226.98a43.11388,43.11388,0,0,0-9.4,24.4c-1.8,26.2,21.241,30,21.241,30s3.0273-19.68,5.759-23.6c4.5,1.4,8.5-.2,8.5-7.7,0-8.5-1-14.4.2-15.6,1.6-1.6,4.6-.3,15.8,1.4,11.1,1.7,18.2,1.2,19.1-.9.9-.8-4-7.2-10.4-13.5a33.88159,33.88159,0,0,0-25.5-8.9C494.03173,212.98,486.33171,215.38,477.43175,226.98Z" fill="#2f170b"/><path d="M488.89873,273.3c4.815-.66,8.141-5.408,7.428-10.606-.712-5.198-5.193-8.877-10.008-8.217s-8.13995,5.409-7.428,10.607C479.60375,270.282,484.08373,273.96,488.89873,273.3Z" fill="#ea9d7d"/><path d="M537.23174,265.48s-2.9-1.8-14.3-1.8a37.17012,37.17012,0,0,1-19.3-5.6c-4-8.9-9.1.1-9.1.1,2.2,12-4.06445,14.74591-4.06445,14.74591S495.73174,298.78,515.23174,299.58c0,0,19.1.1,21.9-24v-10.1Z" fill="#2f170b"/><path d="M537.23174,274.48a40.78362,40.78362,0,0,1-9.3-1s3,9.1,7.4,10.2a34.68356,34.68356,0,0,0,1.8-8.1v-1.1Z" fill="#ea9d7d"/></g></svg>