<svg xmlns="http://www.w3.org/2000/svg" viewBox="0 0 1109 792.52"><title>head 1 </title><g id="head-14" data-name="head"><path d="M491.25,259.39758l-5.81945,42.40808,1.61218,6.69472a10.35557,10.35557,0,0,0,7.69247,11.58926,37.05625,37.05625,0,0,0,9.49866,1.06418C521.38064,323.69185,520.185,306.46,520.185,306.46l-1.182-30.54491Z" fill="#ea9d7d"/><path d="M496.05854,272.62965c1.472,3.01988,3.76,9.38325,12.41987,13.23637,4.03083,1.79349,6.56618,1.31189,10.94655,1.10165l-.42191-11.05258S494.5525,269.45792,496.05854,272.62965Z" fill="#2f170b"/><path d="M528.13469,231.13854s4.03645,16.63921,4.42119,28.35359c.3653,9.48622-3.17317,15.0607-7.69407,17.6654s-13.40124,1.39947-20.00332-.31478c-5.589-1.46218-9.08556-3.55134-10.55758-6.5712-1.50595-3.17174-3.97491-7.08512-3.97491-7.08512l-1.90193-9.94023,6.12985-27.52162Z" fill="#ea9d7d"/><path d="M521.35248,219.2967a31.76368,31.76368,0,0,0-24.53405-6.31909c-8.03357,1.15711-15.05249,4.001-22.51722,15.55542h.00006a40.50771,40.50771,0,0,0-6.86029,23.53882,35.66588,35.66588,0,0,0,.84156,7.292,94.60857,94.60857,0,0,1-7.86383,8.30738c-16.72559,20.31884-18.22931,25.26367-18.32062,34.697-.03839,3.96313,4.345,20.55749,16.65124,25.42383,5.50946,2.17883,15.16632-1.42252,24.69067-6.13023.19065-3.68838.84642-9.8534,1.66714-16.65,1.881-15.57735,4.62846-34.4725,4.62846-34.4725s1.202-5.28752,2.64356-13.50981a4.72238,4.72238,0,0,1,.7915-1.1383c4.3562.94018,7.94965-.81934,7.33392-7.85767-.66748-7.98352-2.04095-13.41736-1.02948-14.6001,1.39923-1.58838,4.32056-.64648,14.83765.03369s17.14984-.32348,17.80585-2.38354C532.89417,230.27241,527.8238,224.70784,521.35248,219.2967Z" fill="#2f170b"/><ellipse cx="486.61129" cy="262.26227" rx="8.24824" ry="8.87074" transform="translate(-45.47636 112.41309) rotate(-12.59418)" fill="#ea9d7d"/><path d="M484.06761,274.50415l-2.06234,3.11893s-2.71587,1.69546-10.38848-4.75718c-7.02251-5.93658-7.03669-9.69584-6.26184-10.47656l2.711-2.99176s7.17218,11.2509,16.00168,15.10655Z" fill="#e23203"/></g></svg>