<svg xmlns="http://www.w3.org/2000/svg" viewBox="0 0 1109 792.61647"><title>head 5</title><g id="head-10" data-name="head"><path d="M491.23174,269.32825l-5.4548,31.50575-1.34519,10.49425-.4,1.8a11.08506,11.08506,0,0,0,7.1,13,40.97061,40.97061,0,0,0,10,2c18,4.2,18.6-22,18.6-22l1.1-24.8Z" fill="#ea9d7d"/><path d="M534.53173,234.62824s2.8,18,2.2,30.5c-.5,10.1.30826,20.67949-4.69174,23.07948s-19.40824-4.67949-26.20829-7.07948c-5.8-2.1-9.3-4.6-10.6-7.9a83.98174,83.98174,0,0,0-3.6-7.9l-1.1-10.7,9-28.7Z" fill="#ea9d7d"/><path d="M552.74,217.17025c-4.67993-2.838-6.84-1.84205-15.92395-.402s-18.11975-1.45111-18.11975-1.45111l-.00232.00244a33.62673,33.62673,0,0,0-15.96228-2.69135c-8.7.4-16.3999,2.8-25.29993,14.4a43.11443,43.11443,0,0,0-9.4,24.4c-1.8,26.2,21.241,29.99994,21.241,29.99994s3.09474-18.363,5.759-23.6c4.5,1.4,8.5-.2,8.5-7.7,0-8.5-1-14.4.2-15.6,1.6001-1.6,4.6001-.3,15.80005,1.4a70.93178,70.93178,0,0,0,12.91943.9903c.04419-.0008.08618.00036.13062-.00055.09009-.00183.17553-.01014.26513-.01276l.092-.00446C551.023,236.32167,557.38892,219.9894,552.74,217.17025Z" fill="#2f170b"/><path d="M488.89873,273.34824c4.815-.66,8.141-5.408,7.428-10.606-.712-5.198-5.193-8.877-10.008-8.217s-8.13995,5.409-7.428,10.607C479.60375,270.33023,484.08373,274.00824,488.89873,273.34824Z" fill="#ea9d7d"/><path d="M503.49308,251.32894s-1.21308,18.1193-3.85308,17.3993-5.06318-10.44226-5.06318-10.44226l-.51682-6.59774Z" fill="#2f170b"/></g></svg>