<svg xmlns="http://www.w3.org/2000/svg" viewBox="0 0 1109 792.52"><title>head 8</title><g id="head-6" data-name="head"><path d="M491.26221,269.285l-5.5787,31.05849-1.22829,10.9064-.43217,1.82849a11.04072,11.04072,0,0,0,7.14165,12.99737,39.50779,39.50779,0,0,0,9.99709,1.97579c17.99164,4.22216,18.59128-21.97621,18.59128-21.97621l1.12525-24.77324Z" fill="#ea9d7d"/><path d="M496.79349,275.77c1.29517,3.33941,3.15994,10.30371,12.01767,15.168,4.123,2.26413,6.85946,1.978,11.53206,2.14443l.53516-11.78027S495.47562,272.2662,496.79349,275.77Z" fill="#2f170b"/><path d="M534.56428,234.54209s2.808,18.03735,2.17446,30.51744c-.45594,10.11107-4.71135,15.71879-9.74631,18.08388s-14.36256.29446-21.22437-2.11425c-5.80789-2.05078-9.3369-4.5815-10.63214-7.92091-1.31777-3.50379-3.59271-7.88121-3.59271-7.88121L490.407,254.4969l8.96138-28.69473Z" fill="#ea9d7d"/><path d="M528.23267,221.34222c-6.76783-6.60852-17.23951-9.69458-25.50391-8.89642-7.79443.46417-14.83618,2.4856-22.71875,11.40192a19.39876,19.39876,0,1,0-11.09131,21.27752,51.81908,51.81908,0,0,0-.88013,6.242c-1.76684,26.201,21.24322,30.127,21.24322,30.127s2.64821-17.57955,5.75312-23.77991c4.54468,1.3866,8.519-.16314,8.491-7.69574,17.11816,3.16779,31.28906-11.01086,34.438-14.45227a1.74156,1.74156,0,0,0,.6582-.74316C539.51831,234.03033,534.62646,227.66705,528.23267,221.34222Z" fill="#2f170b"/><ellipse cx="487.67878" cy="263.91465" rx="8.79396" ry="9.45764" transform="translate(-31.32913 68.69086) rotate(-7.80701)" fill="#ea9d7d"/></g></svg>