<svg xmlns="http://www.w3.org/2000/svg" viewBox="0 0 1109 792.61647"><title>head 14</title><g id="head"><path d="M491.26221,269.33323l-5.74221,31.175-1.06478,10.78988-.43217,1.8285A11.04072,11.04072,0,0,0,491.1647,326.124a39.50782,39.50782,0,0,0,9.99709,1.97578c17.99164,4.22217,18.59128-21.97621,18.59128-21.97621l1.12525-24.77323Z" fill="#ea9d7d"/><path d="M496.79349,275.81822c1.29517,3.33942,3.15994,10.30372,12.01767,15.168,4.123,2.26413,6.85946,1.978,11.53206,2.14442l.53516-11.78027S495.47562,272.31444,496.79349,275.81822Z" fill="#2f170b"/><path d="M534.56428,234.59033s2.808,18.03735,2.17446,30.51743c-.45594,10.11107-4.71135,15.7188-9.74631,18.08389s-14.36256.29445-21.22437-2.11426c-5.80789-2.05078-9.3369-4.5815-10.63214-7.9209-1.31777-3.50379-3.59271-7.88121-3.59271-7.88121L490.407,254.54513l8.96138-28.69472Z" fill="#ea9d7d"/><path d="M477.42152,227.01725a43.18716,43.18716,0,0,0-9.383,24.39816c-1.76687,26.201,20.97252,30.13968,20.97252,30.13968s2.70871-15.48167,5.74368-23.06736c4.54451,1.38662,8.79918-.88833,8.77125-8.42092.00123-8.54144-.97453-14.43679.2053-15.60341,1.62795-1.563,4.64789-.30231,15.76119,1.356s18.24949,1.18233,19.12974-.94807c.89617-.79278-3.99572-7.156-10.38961-13.48086-6.76773-6.60851-17.23941-9.69461-25.50378-8.89646-8.6382.51446-16.34841,2.9114-25.30733,14.52324Z" fill="#2f170b"/><line x1="484.68" y1="255.56824" x2="503.52" y2="255.56824" fill="none" stroke="#b3c8f3" stroke-miterlimit="10"/><line x1="480.53904" y1="267.98824" x2="498.18" y2="275.81822" fill="none" stroke="#b3c8f3" stroke-miterlimit="10"/><path d="M536.83182,254.51605s5.82281,29.91462-16.08451,29.7184c0,0-17.46616-.80772-25.08673-8.962l6.64052-20.21877Z" fill="#b3c8f3"/><line x1="484.68" y1="255.56824" x2="503.52" y2="255.56824" fill="none" stroke="#b3c8f3" stroke-miterlimit="10"/><line x1="480.53904" y1="267.98824" x2="498.18" y2="275.81822" fill="none" stroke="#b3c8f3" stroke-miterlimit="10"/><ellipse cx="487.67878" cy="263.96289" rx="8.79396" ry="9.45764" transform="translate(-31.33568 68.6913) rotate(-7.80701)" fill="#ea9d7d"/><path d="M536.92627,255.06284l-11.3999,5.02057.80664,1.83008,10.874-4.78888C537.10327,256.21171,536.99927,255.50913,536.92627,255.06284Z" fill="#e0ecfc"/></g></svg>