<svg xmlns="http://www.w3.org/2000/svg" viewBox="0 0 1109 792.61647"><title>head 12</title><g id="head-2" data-name="head"><path d="M469.36155,263.96289S464.28,268.04824,460.68,282.92824s-13.44,26.4-23.28,30-15.28118,47.52,30.03941,26.16,41.37175-64.07732,41.37175-64.07732Z" fill="#2f170b"/><path d="M491.26221,269.33323,485.77694,300.834l-1.32172,10.46412-.43217,1.8285A11.04072,11.04072,0,0,0,491.1647,326.124a39.50782,39.50782,0,0,0,9.99709,1.97578c17.99164,4.22217,18.59128-21.97621,18.59128-21.97621l1.12525-24.77323Z" fill="#ea9d7d"/><path d="M496.79349,275.81822c1.29517,3.33942,3.15994,10.30372,12.01767,15.168,4.123,2.26413,6.85946,1.978,11.53206,2.14442l.53516-11.78027S495.47562,272.31444,496.79349,275.81822Z" fill="#2f170b"/><path d="M534.56428,234.59033s2.808,18.03735,2.17446,30.51743c-.45594,10.11107-4.71135,15.7188-9.74631,18.08389s-14.36256.29445-21.22437-2.11426c-5.80789-2.05078-9.3369-4.5815-10.63214-7.9209-1.31777-3.50379-3.59271-7.88121-3.59271-7.88121L490.407,254.54513l8.96138-28.69472Z" fill="#ea9d7d"/><path d="M477.42152,227.01725a43.18716,43.18716,0,0,0-9.383,24.39816c-1.76687,26.201,21.12185,29.98829,21.12185,29.98829s2.35964-16.95546,5.87462-23.64115c4.5445,1.38662,8.51891-.16315,8.491-7.69574.00123-8.54144-.97453-14.43679.2053-15.60341,1.62795-1.563,4.64789-.30231,15.76119,1.356s16.45912,1.25923,17.33937-.87117c.89617-.79278-2.20535-7.23295-8.59924-13.55776-6.76773-6.60851-17.23941-9.69461-25.50378-8.89646-8.6382.51446-16.34841,2.9114-25.30733,14.52324Z" fill="#2f170b"/><ellipse cx="487.67878" cy="263.96289" rx="8.79396" ry="9.45764" transform="translate(-31.33568 68.6913) rotate(-7.80701)" fill="#ea9d7d"/><path d="M547.87326,247.92026s7.54622,3.9401,10.32966,3.826,0-3.64951,0-3.64951l-9.67577-2.62309Z" fill="#2f170b"/><path d="M488.53144,248.0968l14.195,7.4345a22.83731,22.83731,0,0,0,19.98714.443c9.56031-4.50064,24.38875-10.08717,35.48937-7.8775l-18.68881-8.8957Z" fill="#e23203"/><path d="M528.57413,223.20062a321.59439,321.59439,0,0,1-56.45985,11.82423,4.67169,4.67169,0,0,0-4.1531,4.62678c-.02169,4.47785-.02169,10.05658-.02169,10.05658l20.5918-1.61133,50.98291-8.89575s-3.21089-8.03013-5.19568-13.20392A4.68255,4.68255,0,0,0,528.57413,223.20062Z" fill="#ffc929"/></g></svg>