<svg xmlns="http://www.w3.org/2000/svg" viewBox="0 0 778.43 521"><title>torso-19</title><g id="common"><rect x="-423.58508" width="423.58713" height="158.98493" fill="#877e80"/><polyline points="544.155 41.588 570.075 41.588 570.075 22.42 602.835 22.42" fill="none" stroke="#2f170b" stroke-miterlimit="10" stroke-width="2"/><rect x="184.515" y="245.98" width="106.96799" height="58.32" transform="translate(-7.41061 6.58895) rotate(-1.56181)" fill="#6986ed"/><path d="M226.44406,226.15585c.47851-7.50393,4.7164-99.35257,8.74183-107.49819s31.08568-50.00609,31.08568-50.00609L303.70849,76.57l-35.1798,58.4538-21.97925,93.60586.26833-.02442s14.76517,18.8264,14.584,21.53544-2.18331,7.4127-11.13345-4.373c0,0-1.5296,1.58-1.88637,6.91314s-1.124,25.84168-2.80971,26.18244-5.48957,5.22626-4.229-22.65683c0,0-2.478-1.37517-2.63907,1.03286s-1.54091,25.29436-4.39992,22.83547-2.03552-5.72965-1.11831-23.9605c0,0-1.86591-1.48539-2.22732-.60252s-2.41319,22.51485-4.21922,22.394-4.32531,3.64121-.74631-27.26147c0,0-1.0233-.522-2.13774,2.57815s-5.50222,16.71473-6.91611,12.99194-.63118-4.12395,4.81064-19.93567l4.04754-17.56792Z" fill="#ea9d7d"/><path d="M257.57333,131.72589c9.91712.89146,10.95536,3.29788,10.95536,3.29788l-2.36935,10.09068Z" fill="#2f170b"/><path d="M395.90984,94.10208l17.49722,39.82126,56.41346,8.14526s17.79889-15.98884,20.514-15.98884,7.5419,1.68367-3.62012,11.4005c0,0,1.67854,1.42074,7.02364,1.42074s25.85907-.60335,26.31159,1.05587,5.581,5.12849-22.324,5.73185c0,0-1.20671,2.56424,1.2067,2.56424s25.3408-.15083,23.07823,2.86593-5.581,2.41341-23.83242,2.71508c0,0-1.35754,1.9609-.45251,2.26257s22.62571.905,22.62571,2.71509,3.92179,4.07263-27.15086,2.56425c0,0-.45251,1.05587,2.71509,1.96089s17.04471,4.37431,13.42459,6.03353-4.07263.905-20.21231-3.46928L471.3289,163.0351s-75.79615,1.81006-83.4889-3.62012-23.30448-64.257-23.30448-64.257Z" fill="#ea9d7d"/><polygon points="413.407 133.923 405.036 141.088 409.924 125.997 413.407 133.923" fill="#2f170b"/><path d="M486.71438,137.48026s-.67877,16.73081-16.06425,15.59952" fill="none" stroke="#2f170b" stroke-miterlimit="10" stroke-width="2"/><path d="M372.083,159.63108h-87.5l18-127.5,18.27141-3,.06134.13012a18.58235,18.58235,0,0,0,33.67712-.13008v0l15.21408,4.86545a10.8901,10.8901,0,0,1,8.30134,11.154Z" fill="#92ea6a"/><path d="M401.283,94.38108l-14.35507-45.049a.97935.97935,0,0,0-.12973-.26445C385.977,47.88306,379.29548,38.49072,371.292,34.639a1.00431,1.00431,0,0,0-1.43373.9407l1.90476,58.8014Z" fill="#92ea6a"/><polygon points="293.359 97.465 310.203 71.871 287.725 137.376 293.359 97.465" fill="#2f170b"/><polygon points="375.517 94.381 376.702 71.871 382.215 94.381 375.517 94.381" fill="#2f170b"/><line x1="375.74582" y1="90.03731" x2="399.57847" y2="90.03731" fill="none" stroke="#fff" stroke-miterlimit="10" stroke-width="4"/><line x1="376.23013" y1="80.83543" x2="396.96661" y2="80.83543" fill="none" stroke="#fff" stroke-miterlimit="10" stroke-width="4"/><path d="M248.643,90.23108l30.59815-42.48s9.96185-12.88,23.34185-15.62l7.62,39.74-27.72,42.12Z" fill="#92ea6a"/><line x1="252.57824" y1="84.7677" x2="286.12807" y2="108.45245" fill="none" stroke="#fff" stroke-miterlimit="10" stroke-width="4"/><line x1="258.10605" y1="77.09333" x2="292.11207" y2="99.35988" fill="none" stroke="#fff" stroke-miterlimit="10" stroke-width="4"/><line x1="462.4839" y1="141.0093" x2="462.4839" y2="163.19279" fill="none" stroke="#2f170b" stroke-linecap="round" stroke-linejoin="round" stroke-width="6"/><rect x="486.71438" y="115.50747" width="36.74" height="63.6" rx="2" fill="#6986ed"/><rect x="489.27798" y="118.26747" width="31.61281" height="58.08" rx="1.77287" fill="#ed3773"/><circle cx="505.08438" cy="172.29747" r="2.36" fill="#2f170b"/><line x1="499.77438" y1="121.14747" x2="510.39438" y2="121.14747" fill="none" stroke="#2f170b" stroke-linecap="round" stroke-miterlimit="10" stroke-width="1.5"/><rect x="489.27798" y="118.26747" width="31.61281" height="58.08" rx="1.77287" fill="none" stroke="#2f170b" stroke-miterlimit="10" stroke-width="2"/><path d="M469.82052,142.0686s17.79889-15.98884,20.514-15.98884,7.5419,1.68367-3.62012,11.4005" fill="#ea9d7d"/><polygon points="250.268 245.768 259.047 245.395 268.215 249.94 260.015 260.5 253.995 258.22 250.268 245.768" fill="#6986ed"/><circle cx="505.08438" cy="146.42026" r="10.98" fill="#eae16a"/><path d="M502.02771,140.31188a15.88262,15.88262,0,0,1,2.97759-.26108,5.21748,5.21748,0,0,1,3.46319.91638,2.64754,2.64754,0,0,1,1.04953,2.22829,2.99624,2.99624,0,0,1-2.13561,2.77134v.03786a3.25266,3.25266,0,0,1,2.60294,3.16425,3.40253,3.40253,0,0,1-1.0665,2.52723c-.88114.80542-2.304,1.18007-4.3626,1.18007a18.89934,18.89934,0,0,1-2.52854-.15012Zm1.62913,5.168h1.479c1.72311,0,2.73348-.89811,2.73348-2.116,0-1.479-1.12263-2.0586-2.77134-2.0586a6.9943,6.9943,0,0,0-1.44114.11227Zm0,6.04785a8.68624,8.68624,0,0,0,1.36674.07572c1.68525,0,3.24-.61876,3.24-2.45282,0-1.72311-1.4803-2.43455-3.25824-2.43455h-1.34846Z" fill="#2f170b"/><line x1="504.17605" y1="137.90818" x2="504.17605" y2="140.64657" fill="none" stroke="#2f170b" stroke-miterlimit="10" stroke-width="1.5"/><line x1="500.18342" y1="141.09555" x2="502.92122" y2="141.03829" fill="none" stroke="#2f170b" stroke-miterlimit="10" stroke-width="1.5"/><line x1="500.18342" y1="152.01343" x2="502.92122" y2="151.95616" fill="none" stroke="#2f170b" stroke-miterlimit="10" stroke-width="1.5"/><line x1="506.42174" y1="137.90818" x2="506.42174" y2="140.64657" fill="none" stroke="#2f170b" stroke-miterlimit="10" stroke-width="1.5"/><line x1="504.17605" y1="152.19395" x2="504.17605" y2="154.93235" fill="none" stroke="#2f170b" stroke-miterlimit="10" stroke-width="1.5"/><line x1="506.42174" y1="152.19395" x2="506.42174" y2="154.93235" fill="none" stroke="#2f170b" stroke-miterlimit="10" stroke-width="1.5"/><polyline points="542.715 41.588 561.075 41.588 561.075 33.389 589.515 33.389" fill="none" stroke="#2f170b" stroke-miterlimit="10" stroke-width="2"/><polyline points="462.484 46.723 448.035 46.723 448.035 32.004 425.355 32.004" fill="none" stroke="#2f170b" stroke-miterlimit="10" stroke-width="2"/><polyline points="539.115 76.272 556.035 76.272 556.035 20.045 567.915 20.045" fill="none" stroke="#2f170b" stroke-miterlimit="10" stroke-width="2"/><polyline points="547.181 62.856 564.675 62.856 564.675 83.126 586.515 83.126" fill="none" stroke="#2f170b" stroke-miterlimit="10" stroke-width="2"/><polyline points="532.322 86.916 544.155 86.916 544.155 101.62 577.995 101.62 577.995 53.48" fill="none" stroke="#2f170b" stroke-miterlimit="10" stroke-width="2"/><polyline points="462.484 56.26 435.795 56.26 435.795 17.38" fill="none" stroke="#2f170b" stroke-miterlimit="10" stroke-width="2"/><polyline points="464.595 68.373 449.139 68.373 449.139 83.126 418.155 83.126 418.155 60.22" fill="none" stroke="#2f170b" stroke-miterlimit="10" stroke-width="2"/><polyline points="474.804 84.189 462.484 84.189 462.484 96.61 438.675 96.61 438.675 69.94" fill="none" stroke="#2f170b" stroke-miterlimit="10" stroke-width="2"/><circle cx="435.795" cy="17.38" r="4.2" fill="#2f170b"/><circle cx="425.355" cy="32.00379" r="4.2" fill="#2f170b"/><circle cx="418.155" cy="60.22" r="4.2" fill="#2f170b"/><circle cx="438.675" cy="69.94" r="4.2" fill="#2f170b"/><circle cx="567.915" cy="20.04468" r="4.2" fill="#2f170b"/><circle cx="589.515" cy="33.38856" r="4.2" fill="#2f170b"/><circle cx="577.995" cy="53.48037" r="4.2" fill="#2f170b"/><circle cx="586.515" cy="83.03951" r="4.2" fill="#2f170b"/><circle cx="503.08438" cy="59.48037" r="43.54037" fill="#eae16a"/><circle cx="503.08438" cy="59.48037" r="39.43569" fill="none" stroke="#2f170b" stroke-miterlimit="10"/><path d="M490.96339,35.258a62.98305,62.98305,0,0,1,11.80739-1.03528c6.46016,0,10.61682,1.11293,13.733,3.63384a10.49858,10.49858,0,0,1,4.16184,8.83613c0,4.8296-3.19385,9.05872-8.46861,10.98953v.15011C516.949,59.01774,522.51879,62.957,522.51879,70.38a13.49233,13.49233,0,0,1-4.22913,10.02153c-3.49407,3.19385-9.13636,4.67948-17.29956,4.67948a74.94047,74.94047,0,0,1-10.02671-.59529Zm6.46016,20.49341h5.86487c6.83287,0,10.83941-3.56137,10.83941-8.391,0-5.86487-4.45172-8.1632-10.98952-8.1632a27.73617,27.73617,0,0,0-5.71476.44517Zm0,23.98232a34.45026,34.45026,0,0,0,5.4197.30023c6.68275,0,12.84785-2.45362,12.84785-9.72648,0-6.83286-5.87-9.654-12.92032-9.654h-5.34723Z" fill="#2f170b"/><line x1="499.48247" y1="25.72632" x2="499.48247" y2="36.58523" fill="none" stroke="#2f170b" stroke-miterlimit="10" stroke-width="5"/><line x1="483.64998" y1="37.63956" x2="494.50651" y2="37.41248" fill="none" stroke="#2f170b" stroke-miterlimit="10" stroke-width="5"/><line x1="483.64998" y1="82.48904" x2="494.50651" y2="82.26197" fill="none" stroke="#2f170b" stroke-miterlimit="10" stroke-width="5"/><line x1="508.38755" y1="25.72632" x2="508.38755" y2="36.58523" fill="none" stroke="#2f170b" stroke-miterlimit="10" stroke-width="5"/><line x1="499.48247" y1="82.37551" x2="499.48247" y2="93.23441" fill="none" stroke="#2f170b" stroke-miterlimit="10" stroke-width="5"/><line x1="508.38755" y1="82.37551" x2="508.38755" y2="93.23441" fill="none" stroke="#2f170b" stroke-miterlimit="10" stroke-width="5"/><rect x="778.42796" width="320.96976" height="158.98493" fill="#877e80"/></g></svg>