<svg xmlns="http://www.w3.org/2000/svg" viewBox="0 0 1109 792.52"><title>torso 25</title><g id="torso-6" data-name="torso"><path d="M565.31091,370.62659s17.76531,48.80837,22.89711,59.072,44.29554,81.29852,44.29554,81.29852,24.71367,14.58512,14.58512,20.66225c0,0,6.88741,11.74912-14.18,18.2314s-15.3954-21.47254-20.2571-29.57538S565.07435,459.94917,557.667,445.7692s-30.50042-41.70713-15.51016-75.14261Z" fill="#ea9d7d"/><path d="M585.33429,422.6163s-8.47025,6.06941-11.1712,10.72854l13.256-5.36427Z" fill="#2f170b"/><path d="M637.26392,530.6465a8.08874,8.08874,0,0,1-.98169-.18957,4.7389,4.7389,0,0,0-.86475-.17237.46909.46909,0,0,0-.50586.28809,1.90269,1.90269,0,0,0-.12891.801,13.94,13.94,0,0,0,.844,3.708c.40649,1.23181.87744,2.44879,1.37988,3.6532.49341,1.20648,1.00391,2.41614,1.551,3.59351l.00854.01892a.49653.49653,0,0,1-.8584.49139l-.021-.03027a38.43975,38.43975,0,0,0-4.20166-5.05072,18.10809,18.10809,0,0,0-2.44776-2.06006l-.65478-.411-.6687-.33625a2.85506,2.85506,0,0,0-1.0354-.29412c.01074.00085.09472-.05756.0393.02691a1.56852,1.56852,0,0,0-.061.49634,7.28678,7.28678,0,0,0,.18432,1.45044,29.1365,29.1365,0,0,0,.90577,3.08514c.72485,2.05408,1.55517,4.11609,2.39013,6.13929l.00025.00018a.95589.95589,0,0,1-1.675.905,39.84558,39.84558,0,0,0-3.87573-5.03662,18.21522,18.21522,0,0,0-2.2627-2.13532,9.2015,9.2015,0,0,0-1.24731-.81225,3.41783,3.41783,0,0,0-.64527-.29657l-.31909-.12494c-.07373-.00781-.17017-.04608-.2229-.04462-.12866-.00641-.105.004-.13159-.006a.70627.70627,0,0,0-.148.31927,4.52082,4.52082,0,0,0-.05127,1.38605,19.65483,19.65483,0,0,0,.571,3.10455c.2627,1.04035.57447,2.0763.90943,3.106a10.80281,10.80281,0,0,1,.67187,3.23883,8.247,8.247,0,0,1-1.70141-2.868c-.40259-1.02606-.78345-2.06274-1.11939-3.12305a20.96448,20.96448,0,0,1-.80591-3.29394,5.93226,5.93226,0,0,1-.02124-1.876,2.25523,2.25523,0,0,1,.53955-1.14276,1.808,1.808,0,0,1,1.36915-.51532,3.574,3.574,0,0,1,.583.08844c.16333.04633.29981.1012.45093.15253a4.89581,4.89581,0,0,1,.85278.35748,10.92291,10.92291,0,0,1,1.52588.92273,19.98,19.98,0,0,1,2.57447,2.27161,34.3817,34.3817,0,0,1,4.12353,5.321l-1.67505.905v-.00025a46.83415,46.83415,0,0,1-2.57934-6.29895,23.7126,23.7126,0,0,1-.87134-3.36962,8.97677,8.97677,0,0,1-.14819-1.87555,3.171,3.171,0,0,1,.23925-1.14063,1.862,1.862,0,0,1,.44727-.6441,1.65983,1.65983,0,0,1,.77759-.40619,2.43088,2.43088,0,0,1,1.27978.115c.29663.11926.60718.22412.88745.36249l.80982.4505.73877.51812a19.59521,19.59521,0,0,1,2.54614,2.39112,35.43112,35.43112,0,0,1,3.99829,5.52331l-.87939.46106.00512.01087a54.1362,54.1362,0,0,1-2.90893-7.3974,14.19992,14.19992,0,0,1-.69483-3.998,2.526,2.526,0,0,1,.26075-1.11114,1.13784,1.13784,0,0,1,1.12329-.5929,2.68622,2.68622,0,0,1,1.82544.99121Z" fill="#2f170b"/><path d="M647.50781,531.3268a31.15543,31.15543,0,0,1-5.66479,3.736,21.01468,21.01468,0,0,1-3.18994,1.36566,8.0071,8.0071,0,0,1-1.84839.37866,3.386,3.386,0,0,1-.54981.00068,2.3913,2.3913,0,0,1-.63476-.11322,1.93091,1.93091,0,0,1-.71924-.39429,1.76372,1.76372,0,0,1-.51392-.775,2.52745,2.52745,0,0,1-.00805-1.34307c.092-.31177.16919-.637.28222-.93366l.3772-.86053c.1499-.26483.29321-.53351.45313-.792a16.65819,16.65819,0,0,1,2.2268-2.71838,22.58913,22.58913,0,0,1,5.49048-4.03448c-1.501,1.69842-2.988,3.347-4.31909,5.06591a22.26459,22.26459,0,0,0-1.76685,2.64856c-.10791.23163-.23193.453-.34961.67816l-.27588.68171c-.07885.2265-.11767.45068-.18335.67395a.93767.93767,0,0,0-.0288.3078c-.01953-.0437-.12745-.13831-.05518-.08368a1.30659,1.30659,0,0,0,.47241.04211,8.07056,8.07056,0,0,0,1.43531-.24585c1.01928-.2362,2.04345-.62182,3.08325-.97381C643.28931,532.88838,645.3623,532.06313,647.50781,531.3268Z" fill="#2f170b"/><path d="M620.76465,524.8431a9.99473,9.99473,0,0,0,1.99927,1.27386,16.43887,16.43887,0,0,0,2.10571.89508,24.23088,24.23088,0,0,0,4.427,1.0492c1.50537.25659,3.04663.37414,4.60864.51953.78223.02124,1.572.10089,2.36914.156.79786.04615,1.60083.08612,2.427.21442a23.30215,23.30215,0,0,1-2.34131.76385c-.79737.17646-1.60791.31263-2.42261.42609a18.86823,18.86823,0,0,1-4.957-.10565,13.61532,13.61532,0,0,1-4.7627-1.612c-.36548-.21423-.72339-.4469-1.06836-.68854a12.63947,12.63947,0,0,1-.96362-.83069A5.79659,5.79659,0,0,1,620.76465,524.8431Z" fill="#2f170b"/><line x1="610.50388" y1="517.15918" x2="628.56489" y2="503.84599" fill="none" stroke="#2f170b" stroke-linecap="round" stroke-linejoin="round" stroke-width="6"/><path d="M519.92306,302.44l8.08079,1.12129a32.03977,32.03977,0,0,1,24.96528,17.96884l14.40748,57.3139-25.37874,2.7043s-.92857,21.97606-11.76184,25.3808l7.73254,32.5243s-73.66074,8.64214-87.58923,7.09453l8.97614-65.30916h-35.595l15.50528-58.44039a35.38551,35.38551,0,0,1,34.28343-22.28029l12.05749.437s1.355,12.53481,15.47824,13.90119C515.379,316.23921,519.92306,302.44,519.92306,302.44Z" fill="#ea9d7d"/><path d="M537.38151,436.98407,530.236,406.92914c10.83338-3.40479,11.762-25.38086,11.762-25.38086l-13.99415-77.98694L519.9231,302.44s-4.544,13.7992-18.83822,12.41638c-14.12329-1.36645-15.47823-13.90125-15.47823-13.90125l-18.85942-.68346-7.39172,80.96716-6.54358,47.60986a58.0547,58.0547,0,0,0-2.84644,7.3783c-14.202,46.18567-37.09643,152.03-42.49646,188.75-2.79313,18.99314,40.7662,23.66283,63.55377,23.36307a265.35717,265.35717,0,0,1,64.57875,6.96015c21.6323,5.11466,30.54444,2.51169,36.92266-9.95616,3.98706-7.7937,3.03137-15.71533,2.49561-19.20422C562.716,546.0235,547.07633,454.61664,537.38151,436.98407Z" fill="#e23203"/><path d="M459.35548,381.23884l3.56469-33.103s-5.42182,55.079,12.84,61.26948,54.47588-2.47618,54.47588-2.47618l7.14543,30.0549s-62.833.82659-83.713-14.36777Z" fill="#2f170b"/><path d="M459.6767,377.7203l-3.187,24.36984,27.93711-19.30369s.3869-23.94926,4.10116-25.69033,3.01784,15.0892,3.01784,15.0892,14.85706-27.50877,16.24991-28.08912,3.83034.11607,2.20535,5.91961-6.96425,17.29454-6.96425,17.29454l12.15869-18.85154a3.085,3.085,0,0,1,2.05489-1.41666c.82664-.13409,1.75624.10777,2.17942,1.60346a3.116,3.116,0,0,1-.205,2.14261l-11.42915,24.76316,11.09274-13.81155a7.52285,7.52285,0,0,1,2.49218-2.05858c1.39285-.69085,3.03642-.91371,2.54892,2.28985-.8125,5.33925-13.23207,20.89273-13.23207,20.89273a59.68216,59.68216,0,0,0,8.00888-6.15175c5.152-5.1945,7.42853-5.10711,6.73211-1.85713s-6.84818,10.67851-25.07129,22.982L438.8229,455.90354a17.7454,17.7454,0,0,1-14.7322,4.65335h0a17.40674,17.40674,0,0,1-9.74157-4.75777c-4.99126-4.92394-7.51391-11.58658-5.95913-18.81259l16.304-59.26623Z" fill="#ea9d7d"/><path d="M456.48966,402.09014s-24.37212,10.48781-32.72921,26.04129" fill="none" stroke="#2f170b" stroke-miterlimit="10" stroke-width="2"/><path d="M531.65446,324.43865l21.20294-2.99821,27.822,49.09641s-19.9048,19.39029-38.79324,10.92178L536.117,349.30772,524.46,338.5Z" fill="#e23203"/><path d="M465.72582,324.84835,439.154,321.70871l-28.69634,58.09863s22.6882,13.34125,48.66509,3.12474l4.51881-39.74963L475.14,334.18Z" fill="#e23203"/><path d="M549.41408,383.45732c-.07708-9.06372-7.528-20.29-7.528-20.29,2.18848,7.56006,0,18.29126,0,18.29126A24.23961,24.23961,0,0,0,549.41408,383.45732Z" fill="#2f170b"/></g></svg>