<svg xmlns="http://www.w3.org/2000/svg" viewBox="0 0 1109 792.52"><title>torso 19</title><g id="torso-12" data-name="torso"><path d="M559.8674,367.14409l17.49722,39.82126,56.41345,8.14526s17.7989-15.98884,20.514-15.98884,7.54191,1.68367-3.62011,11.40051c0,0,1.67853,1.42073,7.02363,1.42073s25.11823-.18255,26.31159,1.05587c1.09012,1.13128,5.581,5.12849-22.324,5.73185,0,0-1.20671,2.56424,1.2067,2.56424s24.20838-.73169,23.07823,2.86593c-.96077,3.05846-5.581,2.41341-23.83242,2.71508,0,0-1.35754,1.9609-.45251,2.26258s21.71594,1.15028,22.62572,2.71508c.96844,1.66572,5.2141,4.13409-25.85855,2.62571,0,0-1.74483.99441,1.42277,1.89944s17.04471,4.3743,13.42459,6.03352-4.07263.905-20.2123-3.46928l-17.7989-2.86592s-75.79615,1.81006-83.48889-3.62012S528.49307,368.2,528.49307,368.2Z" fill="#ea9d7d"/><path d="M650.67194,410.52228s-.67877,16.7308-16.06426,15.59951" fill="none" stroke="#2f170b" stroke-miterlimit="10" stroke-width="2"/><line x1="626.98756" y1="414.13016" x2="626.98756" y2="436.22704" fill="none" stroke="#2f170b" stroke-linecap="round" stroke-linejoin="round" stroke-width="6"/><path d="M574.26822,399.91839l-23.25575-77.54847-.12642-.25722c-.81149-1.171-7.49459-10.572-15.50245-14.42883a1.00535,1.00535,0,0,0-1.43959.93782l1.90474,58.8014,1.2575,44.1061a26.92842,26.92842,0,0,0,27.56848,26.1531l57.79351.008V409.51664Z" fill="#e56c01"/><polygon points="581.735 401.405 568.993 414.13 574.268 399.918 581.735 401.405" fill="#2f170b"/><path d="M548.53113,432.78719l-7.74341-87.874-3.58831,68.17725A26.8897,26.8897,0,0,0,548.53113,432.78719Z" fill="#2f170b"/><path d="M539.16,433.21482H449.91652l18-127.5,17.59551-4.00238h0c6.72825,14.272,27.79325,14.57116,34.41105.24756l15.2174,5.62027a10.89011,10.89011,0,0,1,8.30134,11.154Z" fill="#e56c01"/><path d="M476.82057,436.51255h0l-36.80395-39.57776,7.91992-16.8-24.78-23.88L407.33742,382.258c-3.4834,6.44043-6.501,18.27685.4353,25.35369l50.12378,48.18311,22.5-11.34s9.18018,1.08,10.26-.18C491.73659,443.01481,491.06447,439.55027,476.82057,436.51255Z" fill="#ea9d7d"/><path d="M440.01662,396.93479s-8.1601-.6-12.4801,0c0,0,1.97061-2.73611,13.94531-3.108Z" fill="#2f170b"/><path d="M406.82371,412.69822a25.0148,25.0148,0,0,1-3.91223-33.52159l41.66319-57.84181s9.96185-12.88,23.34185-15.62l7.62,39.74-33.495,50.89508,31.7125,36.86492-20.69553,19.56355Z" fill="#e56c01"/><circle cx="502.64792" cy="326.91308" r="5.94347" fill="#fff"/><circle cx="524.23087" cy="371.40199" r="5.94347" fill="#fff"/><circle cx="555.3674" cy="379.2466" r="5.94347" fill="#fff"/><circle cx="565.83685" cy="421.32788" r="5.94347" fill="#fff"/><circle cx="601.30831" cy="419.23513" r="5.94347" fill="#fff"/><circle cx="538.62162" cy="329.2977" r="5.94347" fill="#fff"/><circle cx="459.22056" cy="326.91308" r="5.94347" fill="#fff"/><circle cx="425.74056" cy="367.14409" r="5.94347" fill="#fff"/><circle cx="418.18056" cy="407.02428" r="5.94347" fill="#fff"/><circle cx="450.51814" cy="427.27135" r="5.94347" fill="#fff"/><circle cx="498.72914" cy="405.18417" r="5.94347" fill="#fff"/><circle cx="526.71507" cy="423.80654" r="5.94347" fill="#fff"/><circle cx="472.82077" cy="421.32788" r="5.94347" fill="#fff"/><circle cx="482.22351" cy="365.45852" r="5.94347" fill="#fff"/><polygon points="475.537 345.455 458.693 371.048 453.545 407.512 453.277 409.411 473.754 433.215 456.448 399.32 475.537 345.455" fill="#2f170b"/><polygon points="683.968 448.589 654.597 448.589 649.597 388.109 688.968 388.109 683.968 448.589" fill="#4c69de"/><path d="M633.77807,415.11061s17.7989-15.98884,20.514-15.98884,7.54191,1.68367-3.62011,11.40051" fill="#ea9d7d"/></g></svg>