<svg xmlns="http://www.w3.org/2000/svg" viewBox="0 0 1109 792.52"><title>torso 6</title><g id="torso-25" data-name="torso"><path d="M560.45028,365.92692s12.24,43.37,16.8,52.49,39.36,72.24,39.36,72.24,21.96,12.96,12.96,18.36c0,0,6.12,10.44-12.6,16.2s-13.68-19.08-18-26.28-42.276-53.64-48.858-66.24-27.102-37.06-13.782-66.77Z" fill="#ea9d7d"/><path d="M579.80784,412.12379l-28.31458-91.24932-.12547-.25808c-.8121-1.1715-7.82237-10.54059-15.83271-14.3956-.67621-.32543-1.13384.15467-1.10955.90473l1.90475,58.8014L533.4425,383.8627A59.5223,59.5223,0,0,0,544.69793,429.181l48.51279,64.27946,17.30846-13.86723Z" fill="#4c69de"/><path d="M624.60028,511.42692a34.31153,34.31153,0,0,1,2.91,3.89" fill="none"/><path d="M620.84028,508.11692a5.83409,5.83409,0,0,0-1.25-.54c-3.78-1.08,2,11.11,2,11.11l.00146.00335s-4.14-6.66-7.92-7.74,1.84434,11.037,1.84434,11.037-4.14-6.66-7.92-7.74,1.201,10.585,1.201,10.585" fill="none"/><path d="M629.94271,508.72142s-11.57391,6.67089-10.83142,2.81038,7.01148-8.57164,7.01148-8.57164" fill="none"/><path d="M606.17945,502.96016s3.35552,5.474,15.93818,3.65037" fill="none"/><line x1="597.06187" y1="496.13242" x2="613.11047" y2="484.30263" fill="none"/><path d="M546.90087,432.09986,541.26928,343.417l-3.84979,73.14576a59.48935,59.48935,0,0,0,7.27844,12.61816Z" fill="#2f170b"/><path d="M579.80784,412.1238l-1.04949-3.38208c-2.38569,1.87255-6.45051,5.30566-8.09858,8.14868l9.55732-3.86743Z" fill="#2f170b"/><path d="M537.44006,431.28157l-88.234.24087,18-127.5,18.55345-3.0975h0c6.72826,14.27205,27.54432,14.3236,34.16213,0h0l14.50837,4.963a10.89009,10.89009,0,0,1,8.30134,11.154Z" fill="#4c69de"/><polygon points="484.607 385.699 461.871 381.516 461.871 381.516 474.826 343.763 458.28 367.25 455.342 388.057 455.342 388.057 455.342 388.057 452.348 409.267 459.626 388.057 459.801 388.057 484.607 385.699" fill="#2f170b"/><path d="M423.934,348.98468s-32.536,43.44144-26.59584,58.7639,12.35722,21.57312,89.03748-1.90781c0,0,24.83368,10.80338,32.09773,1.4025a24.70238,24.70238,0,0,0,2.35362-7.67874,28.8756,28.8756,0,0,0,10.45206-2.88033c6.15367-2.81473,15.71019-7.19623,10.904-9.88783s-10.81895,3.2536-16.99818,3.10768a76.07544,76.07544,0,0,1-13.79711-2.04455s11.096-.83605,12.19671-1.95589,2.0187-3.60464-6.73346-4.981-9.82557-.39912-18.77646,1.58567-6.01108,2.842-13.46719,3.19107-42.14592,4.00546-42.14592,4.00546l14.07142-24.14746Z" fill="#ea9d7d"/><path d="M443.86423,319.64244s9.96186-12.88,23.34186-15.62l7.62,39.74-32.36465,45.94235,42.14592-4.00546-.22212,20.74861L423.70462,425.5822c-20.51684,6.46952-39.71223-17.5372-28.88738-36.128Z" fill="#4c69de"/><polygon points="442.461 389.705 429.085 391.645 447.034 383.213 442.461 389.705" fill="#2f170b"/><polygon points="451.272 416.889 484.385 406.448 449.206 431.522 451.272 416.889" fill="#2f170b"/><polygon points="696.609 414.327 597.001 414.327 597.001 325.565 614.819 306.086 696.609 306.086 696.609 414.327" fill="#ffc929"/><polygon points="597.001 325.565 614.819 325.565 614.819 306.086 597.001 325.565" fill="#2f170b"/><circle cx="646.5836" cy="360.15086" r="27.11568" fill="#4c69de"/><polygon points="642.926 374.601 632.582 364.847 637.787 359.327 642.937 364.184 658.486 349.583 663.679 355.113 642.926 374.601" fill="#ffc929"/><rect x="666.56066" y="360.15086" width="46.152" height="11.52483" fill="#e23203"/><rect x="666.56066" y="410.60473" width="46.152" height="11.52483" fill="#e23203"/><polygon points="708.894 371.676 671.134 371.676 671.134 381.795 679.651 391.14 671.134 400.485 671.134 410.605 708.894 410.605 708.894 400.485 699.39 391.14 708.894 381.795 708.894 371.676" fill="#63ba08"/><polygon points="681.502 410.605 689.637 400.88 698.601 410.605 681.502 410.605" fill="#2f170b"/><polygon points="698.601 378.855 690.467 388.58 681.502 378.855 698.601 378.855" fill="#2f170b"/></g></svg>