<svg xmlns="http://www.w3.org/2000/svg" viewBox="0 0 1109 792.52"><title>torso 1</title><g id="torso-30" data-name="torso"><path d="M644.53351,701.50891s16.46412,4.116,43.21831-16.97863,36.01526-32.41373,76.66105-33.44273,73.05952,1.54351,84.3786-12.8626,11.31908-38.58777,19.55114-41.6748,23.66717-6.174,35.50076,3.087,15.43511,9.26106,22.63816,9.26106c6.6028,0-.19651,15.99607-10.49046,18.26578a20.16,20.16,0,0,0-7.65822,3.24042c-5.105,3.73367-12.56473,10.971-13.236,21.71211-1.029,16.46412,7.203,44.24732-18.52214,65.342S846.219,776.62644,847.248,780.228s8.74657,7.97481,4.88779,10.29007-19.03664,2.57252-20.06565-1.54351,3.85878-27.01144,5.40229-36.787,8.23206-38.07327-9.51832-40.64579-50.93586-3.85878-54.79464-.77176-3.60152,11.83359-17.23587,24.69618-21.86641,31.642-16.97862,40.38854,11.06183,12.60534,5.91679,15.17786-19.55114,1.14989-19.55114,1.14989-2.31527-16.32775.25725-29.19034,6.174-33.18549,6.68855-40.90305-10.54733-20.06564-10.03282-44.24731C722.22357,677.84174,676.94724,743.18371,644.53351,701.50891Z" fill="#ffc929"/><ellipse cx="900.41334" cy="608.12649" rx="2.74402" ry="4.20178" fill="#2f170b"/><path d="M926.48147,608.89844c-1.66434,0-3.13469-.00558-4.56038-.11933a6.47955,6.47955,0,0,0-.07048.80531c0,3.12562,2.18842,5.65948,4.88837,5.65948a4.28724,4.28724,0,0,0,1.81438-.41312C929.63222,611.54116,929.16537,608.89844,926.48147,608.89844Z" fill="#2f170b"/><path d="M868.343,596.55015a7.16919,7.16919,0,0,0-3.24216,2.75647c-.0007.0028-4.47525,30.68613,10.61624,31.02947,15.09219.34264,1.02932-22.44184,9.947-31.02947,0,0,.92464-2.82346,8.42014-4.589C884.47847,591.99326,874.43724,594.26473,868.343,596.55015Z" fill="#2f170b"/><path d="M732.25647,722.08883c.51431-7.71742-10.54716-20.0657-10.03285-44.24726,0,0-7.71741,31.042-28.64076,53.68s-23.66725,38.41611-17.8361,46.99117,13.72024,8.57506,13.72024,0-3.43058-16.80679,4.4592-21.952C701.81459,751.41557,730.79868,727.06234,732.25647,722.08883Z" fill="#2f170b"/><path d="M864.48255,730.4336c.02373.03769,8.14659,13.09847,7.46131,16.86611-.686,3.77322-20.92265,21.266-3.08655,18.17943,17.8361-3.08724,18.52208-15.77816,19.5507-21.95266,1.02931-6.17379-11.83328-26.06782-11.83328-26.06782A69.04215,69.04215,0,0,0,864.48255,730.4336Z" fill="#2f170b"/><path d="M848.277,630.33991s16.20331,19.20412,49.39235,28.46519" fill="none" stroke="#2f170b" stroke-linecap="round" stroke-linejoin="round" stroke-width="6"/><path d="M640.66585,515.92375c16.97064-9.26858,63.41462,129.86253,108.82658,148.71259,53.82233,22.34066,108.35067-8.92421,119.62846-15.68907" fill="none" stroke="#2f170b" stroke-linecap="round" stroke-linejoin="round" stroke-width="6"/><path d="M566.00309,370.47618s17.76531,48.80837,22.89711,59.072,44.29554,81.29852,44.29554,81.29852,24.71367,14.58512,14.58511,20.66225c0,0,6.88742,11.74912-14.18,18.2314s-15.3954-21.47253-20.25711-29.57538-47.57724-60.36617-54.98456-74.54615-30.50043-41.70713-15.51017-75.14261Z" fill="#ea9d7d"/><path d="M586.02647,422.46589s-8.47025,6.06941-11.1712,10.72854l13.256-5.36427Z" fill="#2f170b"/><path d="M637.95605,530.49609a8.06383,8.06383,0,0,1-.98144-.18969,4.76639,4.76639,0,0,0-.865-.17237.46937.46937,0,0,0-.50586.28809,1.904,1.904,0,0,0-.12891.801,13.92932,13.92932,0,0,0,.84424,3.708c.4065,1.23194.8772,2.449,1.37964,3.65332.49341,1.20655,1.00391,2.416,1.551,3.59351l.00854.0188a.49655.49655,0,0,1-.8584.49145l-.021-.03027a38.4488,38.4488,0,0,0-4.20166-5.05078,18.1176,18.1176,0,0,0-2.44776-2.06006l-.65454-.41089-.66894-.33618a2.85426,2.85426,0,0,0-1.0354-.29419c.01074.00073.09472-.05762.0393.02685a1.56824,1.56824,0,0,0-.061.49634,7.28468,7.28468,0,0,0,.18432,1.45044,29.13508,29.13508,0,0,0,.90576,3.08521c.72486,2.05395,1.55518,4.116,2.39039,6.13916v.00024a.95588.95588,0,0,1-1.675.905,39.85425,39.85425,0,0,0-3.87574-5.03662,18.22275,18.22275,0,0,0-2.26269-2.13525,9.195,9.195,0,0,0-1.24732-.81226,3.414,3.414,0,0,0-.64526-.29663l-.31909-.125c-.07349-.00781-.17017-.04614-.2229-.04443-.12866-.0066-.105.0039-.13159-.00611a.70556.70556,0,0,0-.148.31934,4.52007,4.52007,0,0,0-.05127,1.386,19.65695,19.65695,0,0,0,.571,3.1045c.2627,1.04028.57471,2.07641.90943,3.10595a10.80512,10.80512,0,0,1,.67187,3.23877,8.24588,8.24588,0,0,1-1.70141-2.86792c-.40235-1.02612-.78345-2.06274-1.11939-3.123a20.96487,20.96487,0,0,1-.80591-3.29395,5.93195,5.93195,0,0,1-.02124-1.876,2.25517,2.25517,0,0,1,.53955-1.14282,1.80785,1.80785,0,0,1,1.36914-.51538,3.58309,3.58309,0,0,1,.583.08838c.16333.04639.29981.10132.45093.15259a4.89345,4.89345,0,0,1,.853.35766,10.889,10.889,0,0,1,1.52563.92261,19.971,19.971,0,0,1,2.57446,2.27173,34.3833,34.3833,0,0,1,4.12354,5.3208l-1.67505.905v-.00024a46.84012,46.84012,0,0,1-2.57934-6.29883,23.75129,23.75129,0,0,1-.87134-3.36963,8.97844,8.97844,0,0,1-.1482-1.87573,3.172,3.172,0,0,1,.23926-1.14063,1.86248,1.86248,0,0,1,.44727-.644,1.659,1.659,0,0,1,.77759-.406,2.42937,2.42937,0,0,1,1.27978.115c.29663.11914.60718.22388.88745.36231l.80982.45044.739.51831a19.63082,19.63082,0,0,1,2.54614,2.39111,35.43578,35.43578,0,0,1,3.99805,5.52319l-.8794.46119.00513.01074a54.13391,54.13391,0,0,1-2.90893-7.39722,14.2,14.2,0,0,1-.69483-3.99805,2.52813,2.52813,0,0,1,.26074-1.11108,1.13767,1.13767,0,0,1,1.1233-.593,2.68679,2.68679,0,0,1,1.82543.99121Z" fill="#2f170b"/><path d="M648.19995,531.17627a31.13834,31.13834,0,0,1-5.66479,3.73608,20.99992,20.99992,0,0,1-3.19,1.36573,8.01751,8.01751,0,0,1-1.84838.37866,3.35439,3.35439,0,0,1-.54981.00049,2.3927,2.3927,0,0,1-.63476-.113,1.9352,1.9352,0,0,1-.71924-.39429,1.76411,1.76411,0,0,1-.51392-.77514,2.52986,2.52986,0,0,1-.00806-1.343c.092-.31177.16919-.637.28223-.9336l.3772-.86059c.1499-.26489.29346-.53345.45312-.792a16.66742,16.66742,0,0,1,2.22681-2.71851,22.59181,22.59181,0,0,1,5.49072-4.03442c-1.50122,1.69848-2.98828,3.34716-4.31933,5.06591a22.29638,22.29638,0,0,0-1.76685,2.64869c-.10766.23144-.23193.45288-.34961.67822l-.27588.68164c-.07885.22632-.11767.45068-.18335.67383a.92233.92233,0,0,0-.02856.30786c-.01978-.0437-.12769-.13843-.05542-.08374a1.30278,1.30278,0,0,0,.47241.04224,8.08209,8.08209,0,0,0,1.4353-.24585c1.01929-.23633,2.04371-.62183,3.08326-.97388C643.98169,532.738,646.05444,531.91284,648.19995,531.17627Z" fill="#2f170b"/><path d="M621.457,524.69263a9.9807,9.9807,0,0,0,1.999,1.27392,16.42245,16.42245,0,0,0,2.106.895,24.22315,24.22315,0,0,0,4.42676,1.04932c1.50537.25659,3.04663.374,4.60864.51953.78223.02124,1.572.10083,2.36914.156.7981.04614,1.60083.08593,2.427.21435a23.31683,23.31683,0,0,1-2.3413.76392c-.79737.17651-1.60791.3125-2.42261.426a18.8629,18.8629,0,0,1-4.957-.10571,13.61056,13.61056,0,0,1-4.7627-1.61206c-.36548-.21411-.72339-.44678-1.06836-.68848a12.667,12.667,0,0,1-.96362-.83056A5.79757,5.79757,0,0,1,621.457,524.69263Z" fill="#2f170b"/><line x1="611.19605" y1="517.00877" x2="629.25706" y2="503.69559" fill="none" stroke="#2f170b" stroke-linecap="round" stroke-linejoin="round" stroke-width="6"/><path d="M519.6873,302.29891l9.00873,1.112a32.03977,32.03977,0,0,1,24.96528,17.96884l14.40748,57.31391L542.69005,381.398s-.92857,21.97606-11.76184,25.38081l7.73254,32.52429S465,447.9452,451.07152,446.39759l8.97614-65.30915h-35.595l15.50529-58.4404a35.38553,35.38553,0,0,1,34.28343-22.28029l12.80072.46386s.61173,12.50793,14.735,13.8743C516.07115,316.08881,519.6873,302.29891,519.6873,302.29891Z" fill="#ea9d7d"/><path d="M519.88631,302.32348l8.80972,1.08744,13.994,77.987s-.92857,21.97606-11.76184,25.38081l7.73254,32.52429S465,447.9452,451.07152,446.39759l8.97614-65.30915,7.39175-80.96718,18.33753.66451s1.87685,12.55377,16.00013,13.92014C516.07115,316.08881,519.88631,302.32348,519.88631,302.32348Z" fill="#e23203"/><path d="M460.04789,381.08844l3.56445-33.103s-5.42187,55.0791,12.83985,61.26953,54.47607-2.47607,54.47607-2.47607c2.27149,3.42041,4.42285,8.57408,7.03174,14.70117,3.99941,9.3928,6.65581,13.04957,6.63579,17.42848-13.14844,1.85937-30.94731,3.6306-45.41655,5.09154-21.53369,2.17431-44.6543,4.00073-50.99951,2.60791Z" fill="#2f170b"/><path d="M460.36888,377.56989l-3.187,24.36984,27.9371-19.30368s.38691-23.94927,4.10117-25.69033,3.01784,15.0892,3.01784,15.0892,14.85706-27.50878,16.24991-28.08913,3.83033.11607,2.20534,5.91961-6.96424,17.29454-6.96424,17.29454l12.15869-18.85154a3.085,3.085,0,0,1,2.05488-1.41666c.82665-.13408,1.75625.10777,2.17942,1.60346a3.116,3.116,0,0,1-.20494,2.14261L508.48786,375.401l11.09274-13.81155a7.52285,7.52285,0,0,1,2.49218-2.05858c1.39285-.69085,3.03641-.91371,2.54892,2.28985-.8125,5.33925-13.23207,20.89274-13.23207,20.89274a59.68375,59.68375,0,0,0,8.00888-6.15175c5.152-5.19451,7.42853-5.10712,6.73211-1.85714s-6.84818,10.67851-25.07129,22.982l-61.54425,58.06657a17.74541,17.74541,0,0,1-14.7322,4.65335h0a17.40675,17.40675,0,0,1-9.74156-4.75777c-4.99126-4.92394-7.51391-11.58658-5.95913-18.81259l16.304-59.26623Z" fill="#ea9d7d"/><path d="M457.18184,401.93973s-24.37212,10.48781-32.72922,26.0413" fill="none" stroke="#2f170b" stroke-miterlimit="10" stroke-width="2"/><path d="M603.5457,570.827a2.99952,2.99952,0,0,1-3-3c0-5.97168,3.69629-26.27832,20.11914-40.76953a2.99738,2.99738,0,0,1,4.23438.26563c1.0957,1.24219,3.88937-.05059,2.64621,1.04609-15.01758,13.251-20.99973,35.16777-20.99973,39.45781A2.99952,2.99952,0,0,1,603.5457,570.827Z" fill="#2f170b"/></g></svg>