<svg xmlns="http://www.w3.org/2000/svg" viewBox="0 0 1109 792.52"><title>torso 8</title><g id="torso-23" data-name="torso"><circle cx="703.0472" cy="377.39633" r="17.12026" fill="#ffc929"/><path d="M709.98363,370.18373a5.67159,5.67159,0,0,0-1.68847-1.38574l.78662-3.68457-2.44531-.52149-.70264,3.29053c-.29541-.0791-.604-.154-.93262-.22412l-.0415-.00855.69824-3.26684-2.44531-.52344-.72217,3.379c-.56934-.06909-1.09766-.11389-1.5625-.13587l-3.38428-.64941-.4707,2.45508,2.79931.53711-3.03417,14.20239-2.8501-.54712-.47071,2.45508,3.35254.64355c.41065.1355.90772.2826,1.477.43531l-.68017,3.18481,2.44531.52148.67285-3.15051q.51049.09467.98975.1593l-.68408,3.2002,2.44531.52344.769-3.59693a6.349,6.349,0,0,0,2.87061-.78637,5.30439,5.30439,0,0,0,2.44922-3.50611,5.07131,5.07131,0,0,0-2.938-5.67285l.01221-.05762a4.67156,4.67156,0,0,0,4.15917-3.53027A4.127,4.127,0,0,0,709.98363,370.18373Zm-2.978,12.4115c-.59766,2.79663-3.16993,3.23364-5.73926,2.68469a13.56279,13.56279,0,0,1-2.05957-.56055l1.56738-7.33691,2.05615.43921C705.54125,378.40077,707.56664,379.96779,707.00561,382.59523Zm1.28369-8.95227c-.397,1.85717-2.23,2.89746-4.85742,2.33618l-2.25538-.48169,1.32373-6.19434a10.8987,10.8987,0,0,1,2.23389.29822C707.24779,370.13832,708.77123,371.38783,708.2893,373.643Z" fill="#2f170b"/><path d="M559.93017,367.82532l17.49722,39.82127,56.41345,8.14525s17.7989-15.98884,20.514-15.98884,7.54191,1.68367-3.62011,11.40051c0,0,1.67854,1.42073,7.02363,1.42073s25.85908-.60335,26.31159,1.05587,5.581,5.1285-22.324,5.73185c0,0-1.2067,2.56425,1.20671,2.56425s25.3408-.15084,23.07823,2.86592-5.581,2.41341-23.83242,2.71509c0,0-1.35755,1.96089-.45252,2.26257s22.62572.905,22.62572,2.71508,3.92179,4.07263-27.15086,2.56425c0,0-.45252,1.05587,2.71508,1.9609s17.04471,4.3743,13.4246,6.03352-4.07263.905-20.21231-3.46928l-17.7989-2.86592s-75.79615,1.81006-83.48889-3.62011-23.94506-65.31291-23.94506-65.31291Z" fill="#ea9d7d"/><path d="M650.73471,411.20351s-.67877,16.7308-16.06426,15.59952" fill="none" stroke="#2f170b" stroke-miterlimit="10" stroke-width="2"/><polygon points="577.456 407.064 569.085 414.229 574.402 400.762 577.456 407.064" fill="#2f170b"/><line x1="625.52286" y1="414.59085" x2="625.52286" y2="436.92942" fill="none" stroke="#2f170b" stroke-linecap="round" stroke-linejoin="round" stroke-width="6"/><path d="M537.54023,433.07532h-87.5l18-127.5,17.717-4.63568c6.72825,14.272,27.67507,15.95932,34.29287,1.63572l0,0,15.21407,4.86546a10.89009,10.89009,0,0,1,8.30134,11.154Z" fill="#ffc929"/><path d="M566.74023,367.82532l-14.35508-45.049a.97874.97874,0,0,0-.12972-.26445c-.82118-1.18456-7.50271-10.57689-15.50623-14.42864a1.00431,1.00431,0,0,0-1.43373.9407l1.90476,58.8014Z" fill="#ffc929"/><polygon points="458.817 370.909 475.66 345.315 453.182 410.82 458.817 370.909" fill="#2f170b"/><polygon points="540.974 367.825 542.159 345.315 547.672 367.825 540.974 367.825" fill="#2f170b"/><path d="M476.94054,436.65205h0l-36.80395-39.57776,7.91992-16.8-24.78-23.88-15.81909,26.00317c-3.4834,6.44043-6.501,18.27686.4353,25.3537l50.12378,48.18311,22.5-11.34s9.18018,1.08,10.26-.18C491.85656,443.15431,491.18444,439.68977,476.94054,436.65205Z" fill="#ea9d7d"/><path d="M440.13659,397.07429s-8.1601-.6-12.4801,0c0,0,1.97061-2.73611,13.94531-3.108Z" fill="#2f170b"/><path d="M414.10023,363.67532l30.59814-42.48s9.96186-12.88,23.34186-15.62l7.62,39.74-27.72,42.12Z" fill="#ffc929"/><rect x="646.87926" y="396.81706" width="88.80542" height="59.6402" rx="4.1713" transform="translate(109.56668 -140.37021) rotate(12.58488)" fill="#4c69de"/><rect x="652.35907" y="401.64298" width="78.16849" height="50.06039" rx="3.58565" transform="translate(109.57841 -140.4045) rotate(12.58488)" fill="#ffc929"/><path d="M633.84084,415.79184s17.7989-15.98884,20.514-15.98884,7.54191,1.68367-3.62011,11.40051" fill="#ea9d7d"/><line x1="420.49304" y1="354.80006" x2="453.32399" y2="379.2548" fill="none" stroke="#fff" stroke-miterlimit="10" stroke-width="4"/><line x1="426.4677" y1="346.50532" x2="458.81669" y2="370.90876" fill="none" stroke="#fff" stroke-miterlimit="10" stroke-width="4"/><polygon points="564.965 362.273 541.375 362.273 541.375 358.273 563.695 358.273 564.965 362.273" fill="#fff"/><polygon points="562.535 354.622 541.835 354.622 541.835 350.622 561.255 350.622 562.535 354.622" fill="#fff"/><circle cx="676.39353" cy="422.98919" r="17.12026" fill="#4c69de"/><polyline points="662.953 421.976 668.48 430.36 689.6 419.031" fill="none" stroke="#fff" stroke-linecap="round" stroke-linejoin="round" stroke-width="3"/><rect x="702.24673" y="419.03071" width="21.43327" height="5.66464" transform="translate(109.04738 -145.20898) rotate(12.58488)" fill="#4c69de"/><rect x="700.2595" y="428.20155" width="21.43327" height="5.66464" transform="translate(110.99783 -144.55565) rotate(12.58488)" fill="#4c69de"/><rect x="698.17244" y="437.28067" width="21.43327" height="5.66464" transform="translate(112.9259 -143.88278) rotate(12.58488)" fill="#4c69de"/></g></svg>