<svg xmlns="http://www.w3.org/2000/svg" viewBox="0 0 1109 792.52"><title>torso 20</title><g id="torso-11" data-name="torso"><path d="M694.09984,671.79175h-110.5a24.689,24.689,0,0,1-24.7-24.7l20-85.2h119.9l20,85.2A24.62541,24.62541,0,0,1,694.09984,671.79175Z" fill="#4c69de"/><path d="M565.29985,370.49164s17.8,48.80009,22.9,59.1001,44.3,81.3,44.3,81.3,24.7,14.6,14.6,20.7c0,0,6.9,11.7-14.2,18.2s-15.4-21.5-20.3-29.6-47.6-60.4-55-74.5c-7.4-14.2-30.5-41.7-15.5-75.1001h23.2Z" fill="#ea9d7d"/><path d="M585.29985,422.39174s-8.5,6.1-11.2,10.7l13.3-5.4Z" fill="#2f170b"/><path d="M637.19984,530.49173a2.95836,2.95836,0,0,1-1-.2,2.91994,2.91994,0,0,0-.9-.2.462.462,0,0,0-.5.3,1.94927,1.94927,0,0,0-.1.8,16.34206,16.34206,0,0,0,.8,3.7c.4,1.2.9,2.4,1.4,3.7.5,1.2,1,2.4,1.6,3.6a.66285.66285,0,0,1-.2.7.481.481,0,0,1-.6-.2,51.73171,51.73171,0,0,0-4.2-5.1,22.52943,22.52943,0,0,0-2.4-2.1l-.7-.4-.7-.3c-.4-.2-1-.4-1-.3h0a4.33189,4.33189,0,0,0-.1.5,10.398,10.398,0,0,0,.2,1.5c.2,1,.6,2.1.9,3.1.7,2.1,1.6,4.1,2.4,6.1a1.02694,1.02694,0,0,1-.5,1.3,1.09661,1.09661,0,0,1-1.2-.3,37.34546,37.34546,0,0,0-3.9-5,15.06679,15.06679,0,0,0-2.3-2.1,8.33961,8.33961,0,0,0-1.2-.8l-.6-.3-.3-.1h-.3a.43794.43794,0,0,0-.1.3,6.15019,6.15019,0,0,0-.1,1.4,16.9613,16.9613,0,0,0,.6,3.1c.3,1,.6,2.1.9,3.1a16.53957,16.53957,0,0,1,.7,3.2,7.67379,7.67379,0,0,1-1.7-2.9c-.4-1-.8-2.1-1.1-3.1a31.84613,31.84613,0,0,1-.8-3.3,6.04557,6.04557,0,0,1,0-1.9,2.70048,2.70048,0,0,1,.5-1.1,1.6427,1.6427,0,0,1,1.4-.5c.2,0,.4.1.6.1s.3.1.5.2a3.55238,3.55238,0,0,1,.9.4c.6.3,1,.6,1.5.9a19.396,19.396,0,0,1,2.6,2.3,30.0296,30.0296,0,0,1,4.1,5.3l-1.7.9a43.84857,43.84857,0,0,1-2.6-6.3,18.87318,18.87318,0,0,1-.9-3.4,5.9183,5.9183,0,0,1-.1-1.9,2.34454,2.34454,0,0,1,.2-1.1c.1-.2.2-.5.4-.6a2.01,2.01,0,0,1,.8-.4,2.65008,2.65008,0,0,1,1.3.1,3.55163,3.55163,0,0,1,.9.4l.8.5.7.5a14.20947,14.20947,0,0,1,2.5,2.4,42.86161,42.86161,0,0,1,4,5.5l-.9.5a59.83422,59.83422,0,0,1-2.9-7.4,13.44289,13.44289,0,0,1-.7-4,2.27923,2.27923,0,0,1,.3-1.1,1.07778,1.07778,0,0,1,1.1-.6,2.93462,2.93462,0,0,1,1,.3C636.79985,529.99173,636.99985,530.19174,637.19984,530.49173Z" fill="#2f170b"/><path d="M647.49985,531.19174a24.2767,24.2767,0,0,1-5.7,3.7,30.89849,30.89849,0,0,1-3.2,1.4,11.627,11.627,0,0,1-1.8.4h-.5a1.26842,1.26842,0,0,1-.6-.1,2.5067,2.5067,0,0,1-.7-.4,2.17746,2.17746,0,0,1-.5-.8,1.91056,1.91056,0,0,1,0-1.3l.3-.9.4-.9a3.50888,3.50888,0,0,1,.5-.8,19.866,19.866,0,0,1,2.2-2.7,21.53181,21.53181,0,0,1,5.5-4c-1.5,1.7-3,3.3-4.3,5.1-.6.9-1.3,1.7-1.8,2.6-.1.2-.2.5-.3.7l-.3.7c-.1.2-.1.5-.2.7s0,.3,0,.3l-.1-.1h.5a7.84442,7.84442,0,0,0,1.4-.2,22.15688,22.15688,0,0,0,3.1-1A48.42566,48.42566,0,0,1,647.49985,531.19174Z" fill="#2f170b"/><path d="M620.69984,524.69174a13.73484,13.73484,0,0,0,2,1.3,18.94467,18.94467,0,0,0,2.1.9,21.62357,21.62357,0,0,0,4.4,1,34.07882,34.07882,0,0,0,4.6.5,498867.59082,498867.59082,0,0,0,4.8.4c-.8.3-1.5.5-2.3.8a20.024,20.024,0,0,1-2.4.4,21.01919,21.01919,0,0,1-5-.1,13.6107,13.6107,0,0,1-4.8-1.6,6.72544,6.72544,0,0,1-1.1-.7c-.3-.3-.7-.5-1-.8A14.79572,14.79572,0,0,1,620.69984,524.69174Z" fill="#2f170b"/><path d="M610.49985,516.99173l18-13.3" fill="none" stroke="#2f170b" stroke-linecap="round" stroke-linejoin="round" stroke-width="6"/><path d="M519.87308,302.24l8.12677,1.15174a31.97968,31.97968,0,0,1,25,18l14.4,57.3-25.4,2.7s-.9,22-11.8,25.4l7.7,32.5s-73.69971,8.6-87.59971,7.1l9-65.3h-35.6l15.5-58.4a35.6132,35.6132,0,0,1,34.3-22.4l12.13377.44655s1.26623,12.55349,15.36623,13.85349C515.39985,316.09174,519.87308,302.24,519.87308,302.24Z" fill="#ea9d7d"/><path d="M537.39986,436.79173l-7.1-30.1c10.8-3.4,11.8-25.4,11.8-25.4l-14-78L519.97308,302.14s-4.47323,13.85174-18.77293,12.45174c-14.1-1.4-15.43845-15.44393-15.43845-15.44393l-19.06155.94393-7.4,81-6.5,47.6a51.03172,51.03172,0,0,0-2.8,7.4c-14.2,46.2-34.7,152-40.1,188.8-5.4,36.7-19.7,128.7-19.7,128.7h203.2997C593.39986,753.59174,555.29985,469.39174,537.39986,436.79173Z" fill="#ffc929"/><path d="M459.30015,381.09164l3.6-33.1s-5.4,55.10011,12.8,61.3001c18.3,6.2,54.4997-2.5,54.4997-2.5l7.1,30.1s-62.7997.8-83.6997-14.4Z" fill="#2f170b"/><path d="M459.70015,377.49174l-3.2,24.4,27.9-19.3s.4-23.9,4.1-25.7c3.7-1.7,3,15.1,3,15.1s14.9-27.5,16.2-28.1c1.3997-.6,3.7997.1,2.1997,5.9s-6.9997,17.3-6.9997,17.3l12.1997-18.9a3.07973,3.07973,0,0,1,2.1-1.4,1.86737,1.86737,0,0,1,2.2,1.6,3.01858,3.01858,0,0,1-.2,2.1l-11.3997,24.9,11.0997-13.8a8.48555,8.48555,0,0,1,2.5-2.1c1.4-.7,3-.9,2.5,2.3-.8,5.3-13.2,20.9-13.2,20.9a56.21714,56.21714,0,0,0,8-6.2c5.2-5.2,7.4-5.1,6.7-1.9s-6.8,10.7-25.0997,23l-61.5,58.1a18.0603,18.0603,0,0,1-14.7,4.7,16.91789,16.91789,0,0,1-9.7-4.8,20.12761,20.12761,0,0,1-6-18.8l16.3-59.3Z" fill="#ea9d7d"/><path d="M456.50015,401.89174s-24.4,10.5-32.7,26" fill="none" stroke="#2f170b" stroke-miterlimit="10" stroke-width="2"/><path d="M647.19984,530.19174h5.7c11.9,0,21.6,19.5,21.6,31.4" fill="none" stroke="#2f170b" stroke-miterlimit="10" stroke-width="3"/><path d="M603.19984,561.59174c0-11.9,9.7-31.4,21.6-31.4h12.8" fill="none" stroke="#2f170b" stroke-miterlimit="10" stroke-width="3"/><path d="M664.69984,587.19174h-51.8v11.5h51.8Z" fill="#e23203"/><path d="M683.39986,561.89172l19.3,16.8-3.9-16.8Z" fill="#e23203"/><path d="M594.39986,561.89172l-19.4,16.8,3.9-16.8Z" fill="#e23203"/></g></svg>