<svg xmlns="http://www.w3.org/2000/svg" viewBox="0 0 1109 792.52"><title>torso 15</title><g id="torso-16" data-name="torso"><polyline points="696.837 698.532 696.183 604.212 841.693 604.212 841.693 698.532" fill="none" stroke="#2f170b" stroke-linecap="round" stroke-linejoin="round" stroke-width="12"/><circle cx="696.83659" cy="745.42391" r="46.89197" fill="#2f170b"/><circle cx="696.83659" cy="745.42391" r="31.26131" fill="#e23203"/><circle cx="696.83659" cy="745.42391" r="12.21145" fill="#2f170b"/><circle cx="841.69286" cy="745.42391" r="46.89197" fill="#2f170b"/><circle cx="841.69286" cy="745.42391" r="31.26131" fill="#e23203"/><circle cx="841.69286" cy="745.42391" r="12.21145" fill="#2f170b"/><path d="M655.97314,654.45324h230.642a28.34409,28.34409,0,0,0,27.95232-23.6478L928.326,548.91417H614.26221l13.75861,81.89127A28.34409,28.34409,0,0,0,655.97314,654.45324Z" fill="#4c69de"/><path d="M771.29412,557.851l154.88149-1.18748q.23535-3.87018.2354-7.7493c0-70.03671-57.63151-127.66822-127.66822-127.66822a127.67208,127.67208,0,0,0-52.36188,11.23194Z" fill="#4c69de"/><line x1="913.69331" y1="493.6749" x2="803.86229" y2="557.60125" fill="none" stroke="#ffc929" stroke-miterlimit="10" stroke-width="8"/><line x1="872.82893" y1="445.21372" x2="790.44435" y2="557.85095" fill="none" stroke="#ffc929" stroke-miterlimit="10" stroke-width="8"/><line x1="812.28421" y1="421.97532" x2="779.59256" y2="557.85095" fill="none" stroke="#ffc929" stroke-miterlimit="10" stroke-width="8"/><path d="M669.46757,548.91417l8.08564-133.12791a2,2,0,0,0-1.66579-2.09374l-29.75493-4.98615" fill="none" stroke="#ffc929" stroke-miterlimit="10" stroke-width="8"/><rect x="604.04875" y="548.91417" width="334.49074" height="17.87355" rx="8.93677" transform="translate(1542.58824 1115.7019) rotate(-180)" fill="#ffc929"/><path d="M638.77913,420.07221s-75.79615,1.81-83.48889-3.62012-23.30449-64.257-23.30449-64.257l31.37433-1.05587,17.49722,39.82126,56.41345,8.14526s21.821-12.59667,22.70324-2.1381c0,0,12.06849-.89416,8.99135,18.44873s-23.15557,3.87408-31.52242,4.57989Z" fill="#ea9d7d"/><polygon points="580.857 390.96 572.486 398.125 577.375 383.035 580.857 390.96" fill="#2f170b"/><line x1="629.93413" y1="398.04641" x2="629.93413" y2="420.2299" fill="none" stroke="#2f170b" stroke-linecap="round" stroke-linejoin="round" stroke-width="6"/><path d="M462.1393,361.129s-24.705,62.01134-25.90824,72.13657-6.824,81.98329-6.824,81.98329,11.22225,22.89682.73557,22.46131c0,0-.62549,12.08539-19.43018,6.60818s-.94133-23.45853-.59292-31.84787-5.83527-68.04751-4.4085-82.1913,8.307-59.446,37.587-97.606Z" fill="#ea9d7d"/><path d="M436.06689,434.764c.061-.58765.11646-1.09668.16407-1.4983a34.21853,34.21853,0,0,1,2.35644-7.531c-1.32275-.7688-4.08179-1.77979-9.78076-2.29224Z" fill="#2f170b"/><path d="M519.89421,302.1233l8.32921,1.02813a32.03975,32.03975,0,0,1,24.96528,17.96884l14.40748,57.3139-25.37874,2.70429s-.92857,21.97607-11.76184,25.38081l7.73254,32.52429s-73.66074,8.64215-87.58923,7.09453l8.97614-65.30915H423.98l15.50529-58.4404a35.38554,35.38554,0,0,1,34.28343-22.28029l11.89012.43087s1.52233,12.54092,15.64561,13.90729C515.59854,315.82931,519.89421,302.1233,519.89421,302.1233Z" fill="#ea9d7d"/><path d="M519.89421,302.1233l8.32921,1.02813,13.994,77.987s-.92857,21.97607-11.76184,25.38081l7.73254,32.52429s-73.66074,8.64215-87.58923,7.09453l8.97614-65.30915,7.39175-80.96717,18.692.67735s1.52233,12.54092,15.64561,13.90729C515.59854,315.82931,519.89421,302.1233,519.89421,302.1233Z" fill="#63ba08"/><path d="M459.57505,380.82894l3.56469-33.103s-5.42182,55.079,12.84,61.26948,54.47588-2.47618,54.47588-2.47618l9.73254,32.52429s-87.686,10.71417-100.37641,7.92847Z" fill="#2f170b"/><path d="M531.98575,324.11848l21.20295-2.99821,27.822,49.09642s-19.9048,19.39029-38.79324,10.92177L519.08,351.13919Z" fill="#63ba08"/><path d="M464.63893,325.36061l-25.15363-2.97207L410.789,380.48718s22.30949,13.31693,48.28638,3.10041l4.06439-35.86162L484.34,342.1Z" fill="#63ba08"/><path d="M549.74538,383.13716c-.07709-9.06372-7.528-20.29-7.528-20.29,2.18848,7.56006,0,18.29126,0,18.29126A24.23987,24.23987,0,0,0,549.74538,383.13716Z" fill="#2f170b"/></g></svg>