<svg xmlns="http://www.w3.org/2000/svg" viewBox="0 0 1109 792.52"><title>torso 14</title><g id="torso-17" data-name="torso"><path d="M398.21964,582.72l28.7-66.1-11.5-3.9-26.8,65.9Z" fill="#ffc929"/><path d="M639.11964,420.02s-75.8,1.8-83.5-3.6-23.3-64.3-23.3-64.3l31.4-1.1,17.5,39.8,56.4,8.1s21.8-12.6,22.7-2.1c0,0,12.1-.9,9,18.4s-23.2,3.9-31.5,4.6Z" fill="#ea9d7d"/><path d="M581.11964,390.92l-8.3,7.2,4.9-15.1Z" fill="#2f170b"/><path d="M630.21961,398.02v22.2" fill="none" stroke="#2f170b" stroke-linecap="round" stroke-linejoin="round" stroke-width="6"/><path d="M288.41963,786.02l-63.2-27.1a20.95311,20.95311,0,0,1-11-27.6l74-173a20.9531,20.9531,0,0,1,27.6-11l82.5,35.3-82.3,192.3A20.9149,20.9149,0,0,1,288.41963,786.02Z" fill="#ffc929"/><path d="M462.41963,361.12s-24.7,62-25.9,72.1-6.8,82-6.8,82,11.2,22.9.7,22.5c0,0-.6,12.1-19.4,6.6s-.9-23.5-.6-31.8c.3-8.4-5.8-68-4.4-82.2s8.3-59.4,37.6-97.6Z" fill="#ea9d7d"/><path d="M436.41963,434.72c.1-.6.1-1.1.2-1.5a34.13372,34.13372,0,0,1,2.4-7.5c-1.3-.8-4.1-1.8-9.8-2.3Z" fill="#2f170b"/><path d="M304.31965,792.52a24.8,24.8,0,1,0-24.8-24.8A24.79958,24.79958,0,0,0,304.31965,792.52Z" fill="#2f170b"/><path d="M304.31965,782.72a15,15,0,1,0-15-15A15.00035,15.00035,0,0,0,304.31965,782.72Z" fill="#4c69de"/><path d="M304.31965,775.22a7.5,7.5,0,1,0-7.5-7.5A7.50019,7.50019,0,0,0,304.31965,775.22Z" fill="#2f170b"/><path d="M255.81965,772.12l88.8-212.3" fill="none" stroke="#fff" stroke-miterlimit="10" stroke-width="4"/><path d="M519.92308,301.78l8.59658,1.34a31.97962,31.97962,0,0,1,25,18l14.4,57.3-25.4,2.7s-.9,22-11.80005,25.4l7.7,32.5s-73.7,6.79294-87.6,5.29294l9-63.493h-35.6l15.5-58.4a35.43553,35.43553,0,0,1,34.3-22.3l11.66385.22348A17.03945,17.03945,0,0,0,501.51966,314.42C515.91963,315.82,519.92308,301.78,519.92308,301.78Z" fill="#ea9d7d"/><path d="M519.92308,301.78l8.59658,1.34,14,78s-.9,22-11.80005,25.4l7.7,32.5s-73.7,6.79294-87.6,5.29294l9-63.493,7.4-81,18.4639.5235A16.98174,16.98174,0,0,0,501.51966,314.32C515.91963,315.82,519.92308,301.78,519.92308,301.78Z" fill="#e23203"/><path d="M459.91963,380.82l3.6-33.1s-5.4,55.1,12.8,61.3c18.3,6.2,54.5-2.5,54.5-2.5l13.08776,32.30447s-90.286,8.74415-102.98595,5.94413Z" fill="#2f170b"/><path d="M532.31965,324.12l21.2-3,27.8,49.1s-19.9,19.4-38.8,10.9L526.4,356.14Z" fill="#e23203"/><path d="M464.91963,325.32l-25.2-3-28.7,58.1s22.3,13.3,48.3,3.1l4.2-35.8L484.04,336.16Z" fill="#e23203"/></g></svg>