<svg xmlns="http://www.w3.org/2000/svg" viewBox="0 0 1109 792.52"><title>torso 27</title><g id="torso-4" data-name="torso"><path d="M639.30215,702.52865s16.46412,4.116,43.21831-16.97862,36.01526-32.41373,76.66105-33.44274,73.05952,1.54351,84.3786-12.86259,11.31908-38.58778,19.55114-41.6748,23.66717-6.174,35.50076,3.087,15.43511,9.26107,22.63816,9.26107c6.6028,0-.19651,15.99606-10.49046,18.26577a20.16,20.16,0,0,0-7.65822,3.24042c-5.105,3.73368-12.56473,10.971-13.236,21.71212-1.029,16.46412,7.203,44.24731-18.52213,65.342s-30.35572,59.16792-29.32671,62.76945,8.74656,7.9748,4.88779,10.29007-19.03664,2.57252-20.06565-1.54351,3.85878-27.01145,5.40229-36.787,8.23206-38.07327-9.51832-40.64579-50.93586-3.85877-54.79464-.77175-3.60153,11.83358-17.23587,24.69617-21.86641,31.642-16.97863,40.38854,11.06183,12.60534,5.9168,15.17786-19.55114,1.14989-19.55114,1.14989-2.31527-16.32775.25725-29.19034,6.174-33.18549,6.68855-40.903-10.54733-20.06564-10.03283-44.24732C716.9922,678.86148,671.71588,744.20345,639.30215,702.52865Z" fill="#ffc929"/><ellipse cx="895.18198" cy="609.14623" rx="2.74402" ry="4.20178" fill="#2f170b"/><path d="M921.25011,609.91818c-1.66435,0-3.1347-.00558-4.56038-.11933a6.47971,6.47971,0,0,0-.07049.80531c0,3.12563,2.18843,5.65949,4.88838,5.65949a4.2871,4.2871,0,0,0,1.81438-.41313C924.40086,612.5609,923.934,609.91818,921.25011,609.91818Z" fill="#2f170b"/><path d="M863.11164,597.5699a7.16913,7.16913,0,0,0-3.24216,2.75647c-.0007.00279-4.47525,30.68613,10.61624,31.02947,15.09219.34264,1.02931-22.44185,9.947-31.02947,0,0,.92463-2.82346,8.42014-4.589C879.24711,593.013,869.20588,595.28447,863.11164,597.5699Z" fill="#2f170b"/><path d="M727.02511,723.10858c.51431-7.71742-10.54716-20.0657-10.03285-44.24727,0,0-7.71742,31.042-28.64076,53.68s-23.66725,38.41611-17.8361,46.99117,13.72024,8.57506,13.72024,0-3.43059-16.80678,4.4592-21.952C696.58322,752.43531,725.56732,728.08208,727.02511,723.10858Z" fill="#2f170b"/><path d="M859.25119,731.45335c.02373.03768,8.14659,13.09846,7.46131,16.8661-.686,3.77322-20.92265,21.266-3.08655,18.17944,17.8361-3.08725,18.52208-15.77817,19.55069-21.95266,1.02932-6.17379-11.83327-26.06782-11.83327-26.06782A69.04185,69.04185,0,0,0,859.25119,731.45335Z" fill="#2f170b"/><path d="M843.04561,631.35966s16.2033,19.20412,49.39235,28.46519" fill="none" stroke="#2f170b" stroke-linecap="round" stroke-linejoin="round" stroke-width="6"/><path d="M648.00723,520.86679c13.2758-.538,50.84188,125.93923,96.25384,144.78929,53.82233,22.34066,108.35066-8.9242,119.62846-15.68907" fill="none" stroke="#2f170b" stroke-linecap="round" stroke-linejoin="round" stroke-width="6"/><path d="M835.53139,695.10769c2.312-3.4917,7.52539-11.36474,12.96-10.07959,5.71142,1.35059,8.8584,12.15235,5.75976,15.83985-1.75732,2.09131-4.30664.44677-10.7998,2.16015-7.519,1.98438-10.40967,5.8545-11.87988,4.67969C829.81752,706.30642,832.51283,699.66677,835.53139,695.10769Z" fill="#2f170b"/><path d="M676.66225,704.74881c4.87988-2.71582,3.41992-12.04541,2.773-16.18262-.03077-.19531-.06788-.395-.10254-.59375a91.94839,91.94839,0,0,1-17.315,10.26611C663.62318,702.722,671.99037,707.3489,676.66225,704.74881Z" fill="#2f170b"/><path d="M725.56947,766.14285c-1.47217,5.38721,6.21582,10.87012,9.625,13.30127.04151.02978.08594.05859.12744.08789-.54052-.833-1.08154-1.71533-1.60839-2.65772-2.26954-4.061-1.707-10.28613.9082-17.07714C730.63,760.49441,726.48061,762.81131,725.56947,766.14285Z" fill="#2f170b"/><path d="M765.67592,714.8489c-2.74854-4.2832-7.39942-6.00048-8.26465-11.8208-1.1709-7.874,6.38769-11.2539,4.31982-16.92041-2.03711-5.58252-11.75732-8.833-19.43994-6.48a18.03127,18.03127,0,0,0-10.08008,8.28028c-3.34326,6.00048-2.01318,12.083-.71972,18,1.29345,5.91552,3.92236,17.9414,14.3999,24.48a31.85419,31.85419,0,0,0,7.42139,3.5C761.55775,725.30642,763.63783,718.78592,765.67592,714.8489Z" fill="#2f170b"/><path d="M795.21107,660.54812c4.05225.67481,5.22364-1.56006,12.96-1.80029,7.49415-.23242,9.7461,1.76074,12.24024,0,2.354-1.66162,3.43066-5.61768,3.08887-9.54932-10.64746,2.0459-24.28516,2.36475-39.92041,2.5459C786.0973,655.92752,790.63637,659.78592,795.21107,660.54812Z" fill="#2f170b"/><path d="M883.77113,686.10769c-1.35058,3.18946-3.08838,9.418-.71972,11.16016.87646.64453,2.227.6001,3.751.09619a61.61038,61.61038,0,0,0,3.5083-20.43457A27.891,27.891,0,0,0,883.77113,686.10769Z" fill="#2f170b"/><path d="M834.45131,769.62771a13.70725,13.70725,0,0,0-3.61279-8.4209c-1.2754,6.96045-2.87452,15.43067-3.66016,21.49366A14.55913,14.55913,0,0,0,834.45131,769.62771Z" fill="#2f170b"/><path d="M565.80724,369.89574s17.8,48.8001,22.9,59.1001,44.3,81.3,44.3,81.3,24.7,14.6,14.6,20.7c0,0,6.9,11.7-14.2,18.2s-15.4-21.5-20.3-29.6-47.6-60.4-55-74.5c-7.4-14.2-30.5-41.7-15.5-75.10011h23.2Z" fill="#ea9d7d"/><path d="M585.80724,421.79584s-8.5,6.1-11.2,10.7l13.3-5.4Z" fill="#2f170b"/><path d="M637.70723,529.89583a2.95856,2.95856,0,0,1-1-.2,2.92,2.92,0,0,0-.9-.2.462.462,0,0,0-.5.3,1.9493,1.9493,0,0,0-.1.8,16.34249,16.34249,0,0,0,.8,3.7c.4,1.2.9,2.4,1.4,3.7.5,1.2,1,2.4,1.6,3.6a.66282.66282,0,0,1-.2.7.481.481,0,0,1-.6-.2,51.73334,51.73334,0,0,0-4.2-5.1,22.53049,22.53049,0,0,0-2.4-2.1l-.7-.4-.7-.3c-.4-.2-1-.4-1-.3h0a4.33234,4.33234,0,0,0-.1.5,10.398,10.398,0,0,0,.2,1.5c.2,1,.6,2.1.9,3.1.7,2.1,1.6,4.1,2.4,6.1a1.02692,1.02692,0,0,1-.5,1.3,1.09663,1.09663,0,0,1-1.2-.3,37.344,37.344,0,0,0-3.9-5,15.0668,15.0668,0,0,0-2.3-2.1,8.33959,8.33959,0,0,0-1.2-.8l-.6-.3-.3-.1h-.3a.438.438,0,0,0-.1.3,6.15006,6.15006,0,0,0-.1,1.4,16.96056,16.96056,0,0,0,.6,3.1c.3,1,.6,2.1.9,3.1a16.54021,16.54021,0,0,1,.7,3.2,7.67338,7.67338,0,0,1-1.7-2.9c-.4-1-.8-2.1-1.1-3.1a31.84656,31.84656,0,0,1-.8-3.3,6.04557,6.04557,0,0,1,0-1.9,2.70023,2.70023,0,0,1,.5-1.1,1.64267,1.64267,0,0,1,1.4-.5c.2,0,.4.1.6.1s.3.1.5.2a3.55288,3.55288,0,0,1,.9.4c.6.3,1,.6,1.5.9a19.39661,19.39661,0,0,1,2.6,2.3,30.03,30.03,0,0,1,4.1,5.3l-1.7.9a43.8494,43.8494,0,0,1-2.6-6.3,18.87377,18.87377,0,0,1-.9-3.4,5.918,5.918,0,0,1-.1-1.9,2.34445,2.34445,0,0,1,.2-1.1c.1-.2.2-.5.4-.6a2.01029,2.01029,0,0,1,.8-.4,2.65,2.65,0,0,1,1.3.1,3.55174,3.55174,0,0,1,.9.4l.8.5.7.5a14.21052,14.21052,0,0,1,2.5,2.4,42.86327,42.86327,0,0,1,4,5.5l-.9.5a59.8336,59.8336,0,0,1-2.9-7.4,13.44252,13.44252,0,0,1-.7-4,2.27936,2.27936,0,0,1,.3-1.1,1.07781,1.07781,0,0,1,1.1-.6,2.93433,2.93433,0,0,1,1,.3C637.30724,529.39583,637.50723,529.59585,637.70723,529.89583Z" fill="#2f170b"/><path d="M648.00723,530.59585a24.2766,24.2766,0,0,1-5.7,3.7,30.90068,30.90068,0,0,1-3.2,1.4,11.62982,11.62982,0,0,1-1.8.4h-.5a1.26829,1.26829,0,0,1-.6-.1,2.50694,2.50694,0,0,1-.7-.4,2.17776,2.17776,0,0,1-.5-.8,1.91062,1.91062,0,0,1,0-1.3l.3-.9.4-.9a3.50858,3.50858,0,0,1,.5-.8,19.86525,19.86525,0,0,1,2.2-2.7,21.53181,21.53181,0,0,1,5.5-4c-1.5,1.7-3,3.3-4.3,5.1-.6.9-1.3,1.7-1.8,2.6-.1.2-.2.5-.3.7l-.3.7c-.1.2-.1.5-.2.7s0,.3,0,.3l-.1-.1h.5a7.84357,7.84357,0,0,0,1.4-.2,22.15635,22.15635,0,0,0,3.1-1A48.42685,48.42685,0,0,1,648.00723,530.59585Z" fill="#2f170b"/><path d="M621.20723,524.09585a13.73425,13.73425,0,0,0,2,1.3,18.94386,18.94386,0,0,0,2.1.9,21.6229,21.6229,0,0,0,4.4,1,34.07559,34.07559,0,0,0,4.6.5,3492062.19845,3492062.19845,0,0,0,4.8.4c-.8.3-1.5.5-2.3.8a20.02214,20.02214,0,0,1-2.4.4,21.01868,21.01868,0,0,1-5-.1,13.6107,13.6107,0,0,1-4.8-1.6,6.72627,6.72627,0,0,1-1.1-.7c-.3-.3-.7-.5-1-.8A14.7968,14.7968,0,0,1,621.20723,524.09585Z" fill="#2f170b"/><path d="M611.00723,516.39583l18-13.3" fill="none" stroke="#2f170b" stroke-linecap="round" stroke-linejoin="round" stroke-width="6"/><path d="M520.247,301.76548l8.26025,1.03032a31.97964,31.97964,0,0,1,25,18l14.4,57.3-25.4,2.7s-.9,22-11.8,25.4l7.7,32.5s-73.6997,8.6-87.59971,7.1l9-65.3h-35.6l15.5-58.4a35.61318,35.61318,0,0,1,34.3-22.4l11.70508.41641s1.69491,12.58363,15.79492,13.88363C515.90724,315.49584,520.247,301.76548,520.247,301.76548Z" fill="#ea9d7d"/><path d="M537.90724,436.19584l-7.1-30.1c10.8-3.4,11.8-25.4,11.8-25.4l-14-78-8.68416-1.34334s-3.91585,14.04334-18.21554,12.64334a17.19539,17.19539,0,0,1-15.79024-14.32007l-18.70976-.17993-7.4,81-6.5,47.6a51.03349,51.03349,0,0,0-2.8,7.4c-14.2,46.2-42.614,152-48.014,188.8-5.4,36.7-19.7,128.7-19.7,128.7H594.00723C593.90724,752.99584,555.80724,468.79584,537.90724,436.19584Z" fill="#4c69de"/><path d="M459.80753,380.49574l3.6-33.1s-5.4,55.1001,12.8,61.3001c18.3,6.2,54.4997-2.5,54.4997-2.5l7.1,30.1s-62.7997.8-83.6997-14.4Z" fill="#2f170b"/><path d="M460.20754,376.89584l-3.2,24.4,27.9-19.3s.4-23.9,4.1-25.7c3.7-1.7,3,15.1,3,15.1s14.9-27.5,16.2-28.1c1.3997-.6,3.79969.1,2.1997,5.9s-6.99971,17.3-6.99971,17.3l12.19971-18.9a3.07974,3.07974,0,0,1,2.1-1.4,1.86739,1.86739,0,0,1,2.2,1.6,3.01861,3.01861,0,0,1-.2,2.1l-11.39971,24.9,11.09971-13.8a8.48555,8.48555,0,0,1,2.5-2.1c1.4-.7,3-.9,2.5,2.3-.8,5.3-13.2,20.9-13.2,20.9a56.2173,56.2173,0,0,0,8-6.2c5.2-5.2,7.4-5.1,6.7-1.9s-6.8,10.7-25.09971,23l-61.5,58.1a18.06033,18.06033,0,0,1-14.7,4.7,16.91783,16.91783,0,0,1-9.7-4.8,20.1276,20.1276,0,0,1-6-18.8l16.3-59.3Z" fill="#ea9d7d"/><path d="M457.00753,401.29584s-24.4,10.5-32.7,26" fill="none" stroke="#2f170b" stroke-miterlimit="10" stroke-width="2"/><path d="M610.55111,572.42615a2.99952,2.99952,0,0,1-3-3c0-5.97168,3.69629-26.27832,20.11914-40.76953a2.99736,2.99736,0,0,1,4.23437.26563c1.09571,1.24218,3.88938-.05059,2.64621,1.04609-15.01757,13.251-20.99972,35.16777-20.99972,39.45781A2.99953,2.99953,0,0,1,610.55111,572.42615Z" fill="#2f170b"/><path d="M464.48655,329.27955l-26.31372-1.40133L417.773,378.57455s3.96-3.24,16.2,3.96,25.258,1.80761,25.258,1.80761l4.08878-35.95366L470.48,341.38Z" fill="#4c69de"/><path d="M533.458,329.72134l21.82913-1.84312,19.32014,45.77386s-6.26592.24247-14.5901,5.28247-17.4099,1.76129-17.4099,1.76129L533.458,362.26Z" fill="#4c69de"/><path d="M542.60724,380.69584s1.71428-9.32129,0-14.36129c0,0,6.20572,8.139,6.20572,15.40949A25.42476,25.42476,0,0,1,542.60724,380.69584Z" fill="#2f170b"/><circle cx="480.77704" cy="334.11686" r="6.23864" fill="#fff"/><circle cx="520.89287" cy="313.47686" r="6.23864" fill="#fff"/><circle cx="527.21933" cy="353.63438" r="6.23864" fill="#fff"/><circle cx="434.4189" cy="366.11166" r="6.23864" fill="#fff"/><circle cx="548.81296" cy="343.12033" r="6.23864" fill="#fff"/><circle cx="519.79515" cy="398.08806" r="6.23864" fill="#fff"/><circle cx="468.91515" cy="445.9715" r="6.23864" fill="#fff"/><circle cx="507.31786" cy="477.50967" r="6.23864" fill="#fff"/><circle cx="519.79515" cy="445.9715" r="6.23864" fill="#fff"/><circle cx="467.25451" cy="492.81183" r="6.23864" fill="#fff"/><circle cx="461.01587" cy="561.86751" r="6.23864" fill="#fff"/><circle cx="434.4189" cy="526.24584" r="6.23864" fill="#fff"/><circle cx="418.03786" cy="597.22495" r="6.23864" fill="#fff"/><circle cx="408.43786" cy="655.78495" r="6.23864" fill="#fff"/><circle cx="397.87786" cy="712.60922" r="6.23864" fill="#fff"/><circle cx="496.11874" cy="600.72152" r="6.23864" fill="#fff"/><circle cx="450.19922" cy="628.08152" r="6.23864" fill="#fff"/><circle cx="486.2013" cy="659.11884" r="6.23864" fill="#fff"/><circle cx="518.88554" cy="633.41835" r="6.23864" fill="#fff"/><circle cx="443.95959" cy="685.09282" r="6.23864" fill="#fff"/><circle cx="482.37661" cy="718.21282" r="6.23864" fill="#fff"/><circle cx="430.84766" cy="742.0302" r="6.23864" fill="#fff"/><circle cx="520.89287" cy="706.37058" r="6.23864" fill="#fff"/><circle cx="563.47379" cy="733.88797" r="6.23864" fill="#fff"/><circle cx="552.18667" cy="673.58483" r="6.23864" fill="#fff"/><circle cx="530.30315" cy="566.18751" r="6.23864" fill="#fff"/><circle cx="556.56372" cy="610.98671" r="6.23864" fill="#fff"/><circle cx="502.29603" cy="532.84751" r="6.23864" fill="#fff"/><circle cx="537.80724" cy="509.33449" r="6.23864" fill="#fff"/></g></svg>