<svg xmlns="http://www.w3.org/2000/svg" viewBox="0 0 1109 792.52"><title>torso 28</title><g id="torso-3" data-name="torso"><path d="M594.58665,279.97468c3.22.13906,6.90082,2.16747,7.0969,4.35072.21536,2.398-3.97076,2.78485-5.38153,6.95861-1.38055,4.08423,1.03319,8.43,1.25275,8.8131,1.792,3.12833,3.88839,3.26179,3.86664,4.96691-.03437,2.696-5.30659,4.84241-8.77026,6.25262-5.37287,2.1875-6.906,1.51423-8.20713,3.30624-2.43764,3.35729,1.63254,7.52692-.6402,11.03561-2.12954,3.28753-8.6104,4.11665-11.30941,1.71537-2.25017-2.00223-.91708-5.401-2.99942-6.73928-1.583-1.01723-3.08137,1.00578-7.77747,1.9789-1.3306.27568-6.78385,1.40583-8.09442-.66547-.85547-1.35166.86943-2.77822-.0431-5-.13765-.33523-.3829-.80411-3.26318-3.20734-2.78978-2.32734-2.87491-2.15056-3.703-3.05645-1.02187-1.11771-2.91979-3.19378-2.547-5.41948.16731-.999.837-1.79971,2.17672-3.40134,1.59516-1.90709,2.11108-1.83666,2.47575-2.81553.55914-1.50087-.33522-2.52172-.92559-4.99225-.32854-1.37484-.9709-4.06259-.20157-6.32216.82518-2.42361,2.48115-2.02529,7.15121-6.38564.79-.7376,2.1303-2.12332,4.81094-4.89468,2.89509-2.9931,3.10534-3.29491,3.93894-3.71082a8.82181,8.82181,0,0,1,8.386.36886c1.51136.9996,1.22836,1.72115,3.26317,3.20735,1.33093.97175,2.936,2.14412,4.72364,2.01806,3.158-.2227,4.53518-4.331,5.84925-3.87413,1.414.49159-.09456,5.27879,1.9686,6.60122C589.26172,282.07462,590.99174,279.81951,594.58665,279.97468Z" fill="#63ba08"/><circle cx="560.47491" cy="281.24612" r="3.33" fill="#e23203"/><circle cx="579.57586" cy="279.38797" r="3.33" fill="#e23203"/><circle cx="593.07112" cy="285.40193" r="3.33" fill="#e23203"/><circle cx="593.17875" cy="302.73729" r="3.33" fill="#e23203"/><circle cx="577.92573" cy="320.43881" r="3.33" fill="#e23203"/><circle cx="550.58458" cy="300.51887" r="3.33" fill="#e23203"/><circle cx="560.9997" cy="317.53409" r="3.33" fill="#e23203"/><circle cx="572.65494" cy="300.45579" r="21.78001" transform="translate(210.76996 836.40972) rotate(-83.65685)" fill="#ffc929"/><path d="M558.44292,297.30256a1.5009,1.5009,0,0,0,0-3,1.5009,1.5009,0,0,0,0,3Z" fill="#fff"/><path d="M572.5986,289.37372a1.5009,1.5009,0,0,0,0-3,1.5009,1.5009,0,0,0,0,3Z" fill="#fff"/><path d="M571.74933,300.32082a1.5009,1.5009,0,0,0,0-3,1.5009,1.5009,0,0,0,0,3Z" fill="#fff"/><path d="M583.16827,297.41535a1.5009,1.5009,0,0,0,0-3,1.5009,1.5009,0,0,0,0,3Z" fill="#fff"/><path d="M563.08731,309.57857a1.5009,1.5009,0,0,0,0-3,1.5009,1.5009,0,0,0,0,3Z" fill="#fff"/><path d="M577.028,313.72929a1.5009,1.5009,0,0,0,0-3,1.5009,1.5009,0,0,0,0,3Z" fill="#fff"/><path d="M587.16443,308.73836a1.5009,1.5009,0,0,0,0-3,1.5009,1.5009,0,0,0,0,3Z" fill="#fff"/><path d="M538.17432,363.86772s5.48485,51.29,33.76184,55.05653,28.77618-22.42986,16.93327-62.91793l-6.10723-28.05859s-1.5446-3.10442,2.95031-10.66694,10.75629-10.343-10.56434-30.73109c0,0-14.82711-6.11806-4.69371,25.06753,0,0-3.99526,3.03031-2.52477,11.6746l-2.89094,34.54474Z" fill="#ea9d7d"/><path d="M566.77817,409.89075s-8.02782-2.00157-1.73942-52.05418l-6.98267,1.56763S552.02675,400.86581,566.77817,409.89075Z" fill="#2f170b"/><path d="M540.65824,431.46926h-91.189l18-127.5,18.27142-3,.06134.13012c6.72826,14.272,27.55268,14.19161,34.17048-.132l14.72072,4.86732a10.8901,10.8901,0,0,1,8.30134,11.154Z" fill="#4c69de"/><path d="M566.16921,366.21926l-14.35507-45.049a.97935.97935,0,0,0-.12973-.26445c-.82118-1.18455-7.50271-10.57689-15.50623-14.42863a1.00431,1.00431,0,0,0-1.43373.9407l1.90476,58.8014Z" fill="#4c69de"/><polygon points="458.246 369.303 475.089 343.709 452.611 409.214 458.246 369.303" fill="#2f170b"/><polygon points="540.403 366.219 541.588 343.709 547.101 366.219 540.403 366.219" fill="#2f170b"/><polygon points="565.279 363.427 564.148 359.876 540.632 359.876 540.632 363.876 565.279 363.876 565.279 363.427" fill="#fff"/><polygon points="561.215 350.673 541.116 350.673 541.116 354.673 562.49 354.673 561.215 350.673" fill="#fff"/><path d="M474.12736,341.2898l-40.804,58.33094s36.55519,6.89442,40.76045,6.78332,26.343.09111,30.35478.2055,6.21754,4.15937,2.5434,5.70464l-4.39869.33659s.6925.78976,5.91246,1.54911,10.80966,3.59729,5.6447,6.31008a44.29638,44.29638,0,0,1-10.99618-.528s11.624,1.84947,7.40054,7.22916-3.08747,5.08208-7.05923,5.49134-8.48318.64914-8.48318.64914,10.51095,5.2003,10.559,5.82868.44988,3.1259-4.8422,1.424-26.71688-11.861-30.18046-13.0708-9.59849-3.83042-56.60333-1.35727h0a22.20056,22.20056,0,0,1-18.86156-34.50858l44.92142-62.09611Z" fill="#ea9d7d"/><path d="M407.50085,400.82416s10.78642-5.4254,25.9513-.89725l3.23916-4.46S419.406,391.20474,407.50085,400.82416Z" fill="#2f170b"/><line x1="509.08899" y1="429.11232" x2="496.29934" y2="426.89658" fill="none" stroke="#2f170b" stroke-miterlimit="10"/><line x1="502.58332" y1="412.65079" x2="493.03006" y2="409.87034" fill="none" stroke="#2f170b" stroke-miterlimit="10"/><path d="M413.52921,362.06926l30.59815-42.48s9.96185-12.88,23.34185-15.62l7.62,39.74-27.72,42.12Z" fill="#4c69de"/><line x1="417.46446" y1="356.60588" x2="451.01429" y2="380.29064" fill="none" stroke="#fff" stroke-miterlimit="10" stroke-width="4"/><line x1="422.99228" y1="348.93151" x2="456.9983" y2="371.19806" fill="none" stroke="#fff" stroke-miterlimit="10" stroke-width="4"/><line x1="567.17667" y1="329.57148" x2="583.54989" y2="331.56664" fill="none" stroke="#2f170b" stroke-linecap="round" stroke-linejoin="round" stroke-width="6"/><ellipse cx="581.49534" cy="330.99418" rx="5.45307" ry="6.69563" fill="#2f170b"/><polygon points="564.069 366.219 564.613 361.336 569.184 365.038 567.485 367.839 564.069 366.219" fill="#ea9d7d"/></g></svg>