<svg xmlns="http://www.w3.org/2000/svg" viewBox="0 0 1109 792.52"><title>torso 2</title><g id="torso-29" data-name="torso"><path d="M456.01809,516.22759l-106.958,2.916,1.589,58.277,106.958-2.917Z" fill="#895237"/><path d="M391.74008,497.88158c.5-7.5,4.7-99.4,8.7-107.5s31.1-50,31.1-50l37.4,7.9-35.1,58.4-22,93.6h.3s14.8,18.8,14.6,21.5-2.2,7.4-11.1-4.4c0,0-1.5,1.6-1.9,6.9s-1.1,25.80005-2.8,26.2c-1.7.3-5.5,5.2-4.2-22.7,0,0-2.5-1.4-2.6,1-.2,2.4-1.5,25.30005-4.4,22.80005s-2-5.7-1.1-24c0,0-1.9-1.5-2.2-.6-.4.9-2.4,22.5-4.2,22.4s-4.3,3.6-.7-27.3c0,0-1-.5-2.1,2.6s-5.5,16.7-6.9,13-.6-4.1,4.8-19.9l4-17.6Z" fill="#ea9d7d"/><path d="M422.94009,403.38158c9.9.9,11,3.3,11,3.3s-3.3,13.9-2.4,10.1Z" fill="#2f170b"/><path d="M561.24011,365.78157l17.5,39.8,56.4,8.1s17.8-16,20.5-16,7.5,1.7-3.6,11.4c0,0,1.7,1.4,7,1.4s25.9-.6,26.3,1.1c.5,1.7,5.6,5.1-22.3,5.7,0,0-1.2,2.6,1.2,2.6s25.3-.2,23.1,2.9c-2.3,3-5.6,2.4-23.8,2.7,0,0-1.4,2-.5,2.3s22.6.9,22.6,2.7,3.9,4.1-27.2,2.6c0,0-.5,1.1,2.7,2s17,4.4,13.4,6c-3.6,1.7-4.1.9-20.2-3.5l-17.8-2.9s-75.8,1.8-83.5-3.6-23.3-64.3-23.3-64.3Z" fill="#ea9d7d"/><path d="M578.74011,405.58156l-8.4,7.2,4.9-15.1Z" fill="#2f170b"/><path d="M652.0401,409.18157s-.7,16.7-16.1,15.6" fill="none" stroke="#2f170b" stroke-miterlimit="10" stroke-width="2"/><path d="M537.44006,431.28157h-87.5l18-127.5,17.83688-2.9958h0c6.7,14.3,27.66312,14.29579,34.26316-.0042l15.2,4.9a10.82566,10.82566,0,0,1,8.3,11.2Z" fill="#63ba08"/><path d="M566.64007,366.08156l-14.4-45c0-.1-.1-.2-.1-.3-.8-1.2-7.5-10.6-15.5-14.4a.96236.96236,0,0,0-1.4.9l1.9,58.8Z" fill="#63ba08"/><path d="M458.74008,369.18157l16.8-25.6-22.5,65.5Z" fill="#2f170b"/><path d="M540.84008,366.08156l1.2-22.5,5.5,22.5Z" fill="#2f170b"/><polygon points="564.592 359.682 541.04 359.682 541.04 363.682 565.872 363.682 564.592 359.682" fill="#fff"/><polygon points="561.648 350.481 541.54 350.481 541.54 354.481 562.928 354.481 561.648 350.481" fill="#fff"/><path d="M413.94009,361.88158l30.6-42.5s10-12.9,23.3-15.6l7.6,39.7-27.6,42.2Z" fill="#63ba08"/><path d="M417.94009,356.48155l33.5,23.7" fill="none" stroke="#fff" stroke-miterlimit="10" stroke-width="4"/><path d="M423.44009,348.78157l34,22.3" fill="none" stroke="#fff" stroke-miterlimit="10" stroke-width="4"/><path d="M627.84008,412.68157v22.2" fill="none" stroke="#2f170b" stroke-linecap="round" stroke-linejoin="round" stroke-width="6"/><path d="M686.84008,450.78157h-32.7a2.00589,2.00589,0,0,1-2-2v-59.6a2.00589,2.00589,0,0,1,2-2h32.7a2.00589,2.00589,0,0,1,2,2v59.6A2.00589,2.00589,0,0,1,686.84008,450.78157Z" fill="#4c69de"/><path d="M684.44006,447.98155h-28.1a1.79248,1.79248,0,0,1-1.8-1.8v-54.5a1.79249,1.79249,0,0,1,1.8-1.8h28.1a1.79255,1.79255,0,0,1,1.8,1.8v54.5A1.73264,1.73264,0,0,1,684.44006,447.98155Z" fill="#e23203"/><path d="M670.44006,446.38158a2.4,2.4,0,1,0-2.4-2.4A2.40064,2.40064,0,0,0,670.44006,446.38158Z" fill="#2f170b"/><path d="M665.14007,392.78157h10.6" fill="none" stroke="#2f170b" stroke-linecap="round" stroke-miterlimit="10" stroke-width="1.5"/><path d="M670.44006,429.08156a11,11,0,1,0-11-11A11.00016,11.00016,0,0,0,670.44006,429.08156Z" fill="#ffc929"/><path d="M667.34008,411.98155a20.03547,20.03547,0,0,1,3-.3,5.636,5.636,0,0,1,3.5.9,2.459,2.459,0,0,1,1,2.2,3.06544,3.06544,0,0,1-2.1,2.8,3.26673,3.26673,0,0,1,2.6,3.2,3.1048,3.1048,0,0,1-1.1,2.5c-.9.8-2.3,1.2-4.4,1.2a13.79854,13.79854,0,0,1-2.5-.2Zm1.7,5.2h1.5c1.7,0,2.7-.9,2.7-2.1,0-1.5-1.1-2.1-2.8-2.1-.7,0-1.2.1-1.4.1Zm0,6a5.313,5.313,0,0,0,1.4.1c1.7,0,3.2-.6,3.2-2.5,0-1.7-1.5-2.4-3.3-2.4h-1.3v4.8Z" fill="#2f170b"/><path d="M669.5401,409.58156v2.7" fill="none" stroke="#2f170b" stroke-miterlimit="10" stroke-width="1.5"/><path d="M665.5401,412.78157l2.7-.1" fill="none" stroke="#2f170b" stroke-miterlimit="10" stroke-width="1.5"/><path d="M665.5401,423.68157h2.7" fill="none" stroke="#2f170b" stroke-miterlimit="10" stroke-width="1.5"/><path d="M671.74011,409.58156v2.7" fill="none" stroke="#2f170b" stroke-miterlimit="10" stroke-width="1.5"/><path d="M669.5401,423.88158v2.7" fill="none" stroke="#2f170b" stroke-miterlimit="10" stroke-width="1.5"/><path d="M671.74011,423.88158v2.7" fill="none" stroke="#2f170b" stroke-miterlimit="10" stroke-width="1.5"/><path d="M768.14014,295.08154v-2H737.183a4.18677,4.18677,0,1,0-8.00988-2.3999h-8.833v21.6001H708.04v2h12.30005v19.2998H712.54v2h7.80005v11.39991H704.43994v2h17.90015V335.58154H729.04v20.2002h13.30005v16.5H710.54v-14.7002h-12.8999v2H708.54v14.7002h35.80005v-18.5h3.464a4.17446,4.17446,0,1,0-.06214-2h-3.40185v-24.5332a4.2,4.2,0,1,0-2,0v24.5332H731.04v-20.2002h-8.69995v-19.2998h14.09985v-8.2002h14.333a4.19972,4.19972,0,1,0,0-2h-14.333v-9Zm-33.7002,17.2002h-7v-6.2002h7Zm-9-8.2002v8.2002h-3.09985v-19.6001h6.833a4.11593,4.11593,0,0,0,5.26684,3.00488v8.395Z" fill="#fff"/><path d="M626.84009,367.28174H605.04v-11.5h10.3999v-14.7002h14.5v-2h-16.5v14.7002H605.04v-8.1333a4.2,4.2,0,1,0-2,0v8.1333h-18.5v-17.833a4.2,4.2,0,1,0-2,0v19.833h20.5v13.5h25.80005v-12.3999h11.3v-2h-13.3Z" fill="#fff"/><path d="M590.74011,307.88184a4.19191,4.19191,0,0,0,4.067-3.2002h5.333v24.29981h27.7v-2h-25.7V304.68164h10.2v14.7002h15.5v-2h-13.5v-14.7002h-12.2v-9.5332a4.2001,4.2001,0,1,0-2,0v9.5332h-5.333a4.1947,4.1947,0,1,0-4.067,5.2002Z" fill="#fff"/><path d="M668.44006,374.68157a43.5,43.5,0,1,0-43.5-43.5A43.50048,43.50048,0,0,0,668.44006,374.68157Z" fill="#ffc929"/><path d="M668.44006,370.58156a39.4,39.4,0,1,0-39.4-39.4A39.4,39.4,0,0,0,668.44006,370.58156Z" fill="none" stroke="#2f170b" stroke-miterlimit="10"/><path d="M656.34008,306.98155a62.51248,62.51248,0,0,1,11.8-1c6.5,0,10.6,1.1,13.7,3.6a10.457,10.457,0,0,1,4.2,8.8c0,4.8-3.2,9.1-8.5,11v.2c4.8,1.2,10.3,5.1,10.3,12.5a13.4316,13.4316,0,0,1-4.2,10c-3.5,3.2-9.1,4.7-17.3,4.7a73.18065,73.18065,0,0,1-10-.6v-49.2Zm6.4,20.5h5.9c6.8,0,10.8-3.6,10.8-8.4,0-5.9-4.5-8.2-11-8.2a29.95961,29.95961,0,0,0-5.7.4v16.2Zm0,23.9a37.54686,37.54686,0,0,0,5.4.3c6.7,0,12.8-2.5,12.8-9.7,0-6.8-5.9-9.7-12.9-9.7h-5.3v19.1Z" fill="#2f170b"/><path d="M664.84008,297.38158v10.9" fill="none" stroke="#2f170b" stroke-miterlimit="10" stroke-width="5"/><path d="M649.0401,309.28157l10.8-.2" fill="none" stroke="#2f170b" stroke-miterlimit="10" stroke-width="5"/><path d="M649.0401,354.18157l10.8-.2" fill="none" stroke="#2f170b" stroke-miterlimit="10" stroke-width="5"/><path d="M673.74011,297.38158v10.9" fill="none" stroke="#2f170b" stroke-miterlimit="10" stroke-width="5"/><path d="M664.84008,354.08156v10.8" fill="none" stroke="#2f170b" stroke-miterlimit="10" stroke-width="5"/><path d="M673.74011,354.08156v10.8" fill="none" stroke="#2f170b" stroke-miterlimit="10" stroke-width="5"/><path d="M684.44006,447.98155h-28.1a1.79248,1.79248,0,0,1-1.8-1.8v-54.5a1.79249,1.79249,0,0,1,1.8-1.8h28.1a1.79255,1.79255,0,0,1,1.8,1.8v54.5A1.73264,1.73264,0,0,1,684.44006,447.98155Z" fill="none" stroke="#2f170b" stroke-miterlimit="10" stroke-width="2"/><path d="M635.14007,413.78157s17.8-16,20.5-16,7.5,1.7-3.6,11.4" fill="#ea9d7d"/><path d="M415.64007,517.48155l8.7-.4,9.2,4.5-8.2,10.6-6-2.3Z" fill="#895237"/></g></svg>