<svg xmlns="http://www.w3.org/2000/svg" viewBox="0 0 1109 792.52"><title>torso 22</title><g id="torso-9" data-name="torso"><path d="M563.05849,364.95705l17.49722,39.82126,56.41345,8.14526s17.7989-15.98884,20.514-15.98884,7.5419,1.68367-3.62012,11.4005c0,0,1.67854,1.42074,7.02363,1.42074s25.85908-.60335,26.31159,1.05587,5.581,5.12849-22.324,5.73184c0,0-1.2067,2.56425,1.20671,2.56425s25.3408-.15084,23.07823,2.86593-5.581,2.4134-23.83242,2.71508c0,0-1.35755,1.9609-.45252,2.26257s22.62572.905,22.62572,2.71509,3.92179,4.07263-27.15086,2.56425c0,0-.45251,1.05586,2.71509,1.96089s17.0447,4.37431,13.42459,6.03353-4.07263.905-20.21231-3.46928l-17.7989-2.86592s-75.79615,1.81005-83.48889-3.62012-23.30449-64.257-23.30449-64.257Z" fill="#ea9d7d"/><path d="M653.863,408.33523s-.67877,16.73081-16.06426,15.59952" fill="none" stroke="#2f170b" stroke-miterlimit="10" stroke-width="2"/><polygon points="580.585 404.196 572.213 411.361 577.148 397.023 580.585 404.196" fill="#2f170b"/><line x1="630.54228" y1="411.99562" x2="630.54228" y2="434.03465" fill="none" stroke="#2f170b" stroke-linecap="round" stroke-linejoin="round" stroke-width="6"/><path d="M537.17338,431.20705h-87.5l18-127.5,17.95791-2.94853h0c6.72826,14.27205,27.67387,14.19762,34.29167-.126h0l14.97437,4.94a10.8901,10.8901,0,0,1,8.30134,11.154Z" fill="#ffc929"/><path d="M566.37338,365.95705,552.0183,320.908a.97961.97961,0,0,0-.12972-.26445c-.82118-1.18455-7.50272-10.57689-15.50624-14.42863a1.00431,1.00431,0,0,0-1.43373.9407l1.90477,58.8014Z" fill="#ffc929"/><polygon points="458.45 369.04 475.293 343.447 452.815 408.952 458.45 369.04" fill="#2f170b"/><polygon points="540.608 365.957 541.792 343.447 547.305 365.957 540.608 365.957" fill="#2f170b"/><circle cx="464.05434" cy="420.83871" r="5.94347" fill="#fff"/><circle cx="478.58153" cy="384.87249" r="5.94347" fill="#fff"/><circle cx="428.32255" cy="356.524" r="5.94347" fill="#fff"/><rect x="423.5949" y="358.87977" width="72.90486" height="86.04" transform="translate(218.813 -159.32476) rotate(25.59961)" fill="#6986ed"/><rect x="451.06783" y="379.17496" width="32.29412" height="15.52941" transform="translate(213.05264 -163.89026) rotate(25.59961)" fill="#e23203"/><path d="M474.32778,341.30659l-40.804,58.33093s36.55519,6.89443,40.76045,6.78333,26.343.09111,30.35478.2055,6.21754,4.15936,2.5434,5.70464l-4.39869.33659s.6925.78976,5.91246,1.54911,10.80966,3.59729,5.6447,6.31008a44.29638,44.29638,0,0,1-10.99618-.528s11.624,1.84947,7.40054,7.22916-3.08747,5.08207-7.05922,5.49134-8.48319.64913-8.48319.64913,10.51095,5.20031,10.559,5.82869.44988,3.1259-4.8422,1.424-26.71688-11.861-30.18046-13.0708-9.59848-3.83043-56.60333-1.35727h0a22.20056,22.20056,0,0,1-18.86156-34.50857l44.92142-62.09611Z" fill="#ea9d7d"/><path d="M407.70127,400.841s10.78642-5.4254,25.9513-.89725l3.23917-4.46S419.60647,391.22153,407.70127,400.841Z" fill="#2f170b"/><line x1="509.28941" y1="429.1291" x2="496.49976" y2="426.91337" fill="none" stroke="#2f170b" stroke-miterlimit="10"/><line x1="502.78374" y1="412.66758" x2="493.23049" y2="409.88713" fill="none" stroke="#2f170b" stroke-miterlimit="10"/><path d="M413.73338,361.80705l30.59814-42.48s9.96186-12.88,23.34186-15.62l7.62,39.74-27.72,42.12Z" fill="#ffc929"/><rect x="651.82303" y="385.74706" width="36.74" height="63.6" rx="2" transform="translate(130.00849 -158.39123) rotate(14.91084)" fill="#4c69de"/><rect x="654.38663" y="388.50706" width="31.61281" height="58.08" rx="1.77287" transform="translate(130.00849 -158.39123) rotate(14.91084)" fill="#63ba08"/><circle cx="663.76271" cy="441.69558" r="2.36" fill="#2f170b"/><line x1="671.79321" y1="390.90159" x2="682.05561" y2="393.63428" fill="none" stroke="#2f170b" stroke-linecap="round" stroke-miterlimit="10" stroke-width="1.5"/><rect x="654.38663" y="388.50706" width="31.61281" height="58.08" rx="1.77287" transform="translate(130.00849 -158.39123) rotate(14.91084)" fill="none" stroke="#2f170b" stroke-miterlimit="10" stroke-width="2"/><path d="M636.96916,412.92357s17.7989-15.98884,20.514-15.98884,7.5419,1.68367-3.62012,11.4005" fill="#ea9d7d"/></g></svg>