<svg xmlns="http://www.w3.org/2000/svg" viewBox="0 0 1109 792.52"><title>torso 26</title><g id="torso-5" data-name="torso"><path d="M693.91714,671.90173h-110.5a24.689,24.689,0,0,1-24.7-24.7l20-85.2h119.9l20,85.2A24.62541,24.62541,0,0,1,693.91714,671.90173Z" fill="#e23203"/><path d="M565.11716,370.60162s17.8,48.8001,22.9,59.1001,44.3,81.3,44.3,81.3,24.7,14.6,14.6,20.7c0,0,6.9,11.7-14.2,18.2s-15.4-21.5-20.3-29.6-47.6-60.4-55-74.5c-7.4-14.2-30.5-41.7-15.5-75.10011h23.2Z" fill="#ea9d7d"/><path d="M585.11716,422.50172s-8.5,6.1-11.2,10.7l13.3-5.4Z" fill="#2f170b"/><path d="M637.01715,530.60171a2.95856,2.95856,0,0,1-1-.2,2.92,2.92,0,0,0-.9-.2.462.462,0,0,0-.5.3,1.9493,1.9493,0,0,0-.1.8,16.34249,16.34249,0,0,0,.8,3.7c.4,1.2.9,2.4,1.4,3.7.5,1.2,1,2.4,1.6,3.6a.66282.66282,0,0,1-.2.7.481.481,0,0,1-.6-.2,51.73334,51.73334,0,0,0-4.2-5.1,22.53049,22.53049,0,0,0-2.4-2.1l-.7-.4-.7-.3c-.4-.2-1-.4-1-.3h0a4.33234,4.33234,0,0,0-.1.5,10.398,10.398,0,0,0,.2,1.5c.2,1,.6,2.1.9,3.1.7,2.1,1.6,4.1,2.4,6.1a1.02692,1.02692,0,0,1-.5,1.3,1.09663,1.09663,0,0,1-1.2-.3,37.344,37.344,0,0,0-3.9-5,15.0668,15.0668,0,0,0-2.3-2.1,8.33959,8.33959,0,0,0-1.2-.8l-.6-.3-.3-.1h-.3a.438.438,0,0,0-.1.3,6.15006,6.15006,0,0,0-.1,1.4,16.96056,16.96056,0,0,0,.6,3.1c.3,1,.6,2.1.9,3.1a16.54021,16.54021,0,0,1,.7,3.2,7.67338,7.67338,0,0,1-1.7-2.9c-.4-1-.8-2.1-1.1-3.1a31.84656,31.84656,0,0,1-.8-3.3,6.04557,6.04557,0,0,1,0-1.9,2.70023,2.70023,0,0,1,.5-1.1,1.64267,1.64267,0,0,1,1.4-.5c.2,0,.4.1.6.1s.3.1.5.2a3.55288,3.55288,0,0,1,.9.4c.6.3,1,.6,1.5.9a19.39661,19.39661,0,0,1,2.6,2.3,30.03,30.03,0,0,1,4.1,5.3l-1.7.9a43.8494,43.8494,0,0,1-2.6-6.3,18.87377,18.87377,0,0,1-.9-3.4,5.918,5.918,0,0,1-.1-1.9,2.34445,2.34445,0,0,1,.2-1.1c.1-.2.2-.5.4-.6a2.01029,2.01029,0,0,1,.8-.4,2.65,2.65,0,0,1,1.3.1,3.55174,3.55174,0,0,1,.9.4l.8.5.7.5a14.21052,14.21052,0,0,1,2.5,2.4,42.86327,42.86327,0,0,1,4,5.5l-.9.5a59.8336,59.8336,0,0,1-2.9-7.4,13.44252,13.44252,0,0,1-.7-4,2.27936,2.27936,0,0,1,.3-1.1,1.07781,1.07781,0,0,1,1.1-.6,2.93433,2.93433,0,0,1,1,.3C636.61716,530.10171,636.81715,530.30173,637.01715,530.60171Z" fill="#2f170b"/><path d="M647.31715,531.30173a24.2766,24.2766,0,0,1-5.7,3.7,30.90068,30.90068,0,0,1-3.2,1.4,11.62982,11.62982,0,0,1-1.8.4h-.5a1.26829,1.26829,0,0,1-.6-.1,2.50694,2.50694,0,0,1-.7-.4,2.17776,2.17776,0,0,1-.5-.8,1.91062,1.91062,0,0,1,0-1.3l.3-.9.4-.9a3.50858,3.50858,0,0,1,.5-.8,19.86525,19.86525,0,0,1,2.2-2.7,21.53181,21.53181,0,0,1,5.5-4c-1.5,1.7-3,3.3-4.3,5.1-.6.9-1.3,1.7-1.8,2.6-.1.2-.2.5-.3.7l-.3.7c-.1.2-.1.5-.2.7s0,.3,0,.3l-.1-.1h.5a7.84357,7.84357,0,0,0,1.4-.2,22.15635,22.15635,0,0,0,3.1-1A48.42685,48.42685,0,0,1,647.31715,531.30173Z" fill="#2f170b"/><path d="M620.51715,524.80173a13.73425,13.73425,0,0,0,2,1.3,18.94386,18.94386,0,0,0,2.1.9,21.6229,21.6229,0,0,0,4.4,1,34.07559,34.07559,0,0,0,4.6.5,3492062.19841,3492062.19841,0,0,0,4.8.4c-.8.3-1.5.5-2.3.8a20.02214,20.02214,0,0,1-2.4.4,21.01868,21.01868,0,0,1-5-.1,13.6107,13.6107,0,0,1-4.8-1.6,6.72627,6.72627,0,0,1-1.1-.7c-.3-.3-.7-.5-1-.8A14.7968,14.7968,0,0,1,620.51715,524.80173Z" fill="#2f170b"/><path d="M610.31715,517.10171l18-13.3" fill="none" stroke="#2f170b" stroke-linecap="round" stroke-linejoin="round" stroke-width="6"/><path d="M519.87308,302.42l7.94407,1.08172a31.97964,31.97964,0,0,1,25,18l14.4,57.3-25.4,2.7s-.9,22-11.8,25.4l7.7,32.5s-73.6997,8.6-87.59971,7.1l3.8858-72.97-37.06962-.00218L434.038,326.0536c5.6-14,24.27943-26.15192,39.27944-25.65192l12.25165.39428s1.14834,12.60576,15.24835,13.90576C515.21715,316.20172,519.87308,302.42,519.87308,302.42Z" fill="#ea9d7d"/><path d="M537.21716,436.90172l-7.1-30.1c10.8-3.4,11.8-25.4,11.8-25.4l-14-78-7.64152-1.04052s-4.95849,13.74052-19.25818,12.34052c-14.1-1.4-15.39109-13.904-15.39109-13.904l-19.10891-.596-12.51421,73.33L451.17454,426.651c-1.1,2.4-.65708,7.05068-1.35709,9.55068-14.2,46.2-46.849,151.21771-52.249,188.0177-5.4,36.7-19.7,128.7-19.7,128.7l215.44873.78229C593.21716,753.70172,555.11716,469.50172,537.21716,436.90172Z" fill="#63ba08"/><path d="M647.01715,530.30173h5.7c11.9,0,21.6,19.5,21.6,31.4" fill="none" stroke="#2f170b" stroke-miterlimit="10" stroke-width="3"/><path d="M603.01715,561.70172c0-11.9,9.7-31.4,21.6-31.4h12.8" fill="none" stroke="#2f170b" stroke-miterlimit="10" stroke-width="3"/><path d="M664.51715,587.30173h-51.8v11.5h51.8Z" fill="#4c69de"/><path d="M683.21716,562.00171l19.3,16.8-3.9-16.8Z" fill="#4c69de"/><path d="M594.21716,562.00171l-19.4,16.8,3.9-16.8Z" fill="#4c69de"/><path d="M262.79514,554.91077H352.5789a0,0,0,0,1,0,0V764.04937a21,21,0,0,1-21,21H262.79514a21,21,0,0,1-21-21V575.91077a21,21,0,0,1,21-21Z" transform="translate(287.4626 -62.89022) rotate(23.16071)" fill="#e23203"/><polygon points="393.373 585.971 422.033 519.822 410.513 515.932 383.774 581.865 393.373 585.971" fill="#e23203"/><path d="M457.58992,364.33765s-24.705,62.01134-25.90825,72.13657-6.824,81.9833-6.824,81.9833,11.22224,22.89681.73557,22.4613c0,0-.6255,12.08539-19.43018,6.60818s-.94133-23.45853-.59292-31.84787-5.83527-68.04751-4.4085-82.1913,8.307-59.446,37.587-97.606Z" fill="#ea9d7d"/><path d="M431.51751,437.97258c.061-.58765.11646-1.09668.16406-1.49829a34.21856,34.21856,0,0,1,2.35645-7.531c-1.32275-.7688-4.08179-1.77978-9.78076-2.29224Z" fill="#2f170b"/><circle cx="299.47279" cy="767.96841" r="24.84" fill="#2f170b"/><circle cx="299.47279" cy="767.96841" r="15.04898" fill="#4c69de"/><circle cx="299.47279" cy="767.96841" r="7.48898" fill="#2f170b"/><line x1="250.98517" y1="775.37166" x2="339.75774" y2="563.03512" fill="none" stroke="#fff" stroke-miterlimit="10" stroke-width="4"/><path d="M454.00325,373.53173l4.3398-25.43011s-1.0256,55.1001,17.17441,61.3001c18.3,6.2,54.4997-2.5,54.4997-2.5l7.1,30.1s-64.80858.45439-85.70858-14.74561Z" fill="#2f170b"/></g></svg>