<svg xmlns="http://www.w3.org/2000/svg" viewBox="0 0 168.97297 363.17333"><title>Asset 7</title><g id="Layer_2" data-name="Layer 2"><g id="Layer_1-2" data-name="Layer 1"><path d="M115.87,311.71861l1.61956,8.0747-43.771-.80412-.54486-6.35757C87.40364,304.46994,103.378,313.65489,115.87,311.71861Z" fill="#ea9d7d"/><path d="M168.973,362.29107l-83.977.88156A13.2171,13.2171,0,0,1,71.94746,349.084l1.77117-30.09483,43.771.80412,3.46747,6.78286c4.06665,8.35526,14.89109,11.35789,23.88109,11.55628l.28007.00618c12.816.28282,23.37571,10.9743,23.85474,24.15242Z" fill="#2f170b"/><path d="M43.52015,309.18564l.00134.00014V317.689H6.41005V305.74827l.02676.0025C22.14516,309.43332,34.2927,310.04151,43.52015,309.18564Z" fill="#ea9d7d"/><path d="M43.52149,317.689s6.88367,22.64733,5.89727,41.75776l.09549,3.72662H0S-.00155,325.2099,6.41005,317.689Z" fill="#2f170b"/><path d="M1.00925,312.63162H51.17374l15.129-243.65606,5.57383,243.65606h48.572L114.07841,53.05033s1.4261-26.7737-8.129-53.05033L22.55118,1.29333s-4.555,27.60373-7.74006,49.89906S1.00925,312.63162,1.00925,312.63162Z" fill="#eae16a"/><path d="M48.9619,1.29333s-13.271,27.60373-16.45608,49.89906S18.704,312.63162,18.704,312.63162" fill="none" stroke="#fff" stroke-miterlimit="10" stroke-width="4"/><polygon points="66.303 68.976 71.611 36.329 71.877 312.632 66.303 68.976" fill="#2f170b"/></g></g></svg>