<svg xmlns="http://www.w3.org/2000/svg" viewBox="0 0 236.19937 225.43532"><title>Asset 4</title><g id="Layer_2" data-name="Layer 2"><g id="Layer_1-2" data-name="Layer 1"><path d="M164.91361,65.28665s12.24,43.37,16.8,52.49,39.36,72.24,39.36,72.24,21.96,12.96,12.96,18.36c0,0,6.12,10.44-12.6,16.2s-13.68-19.08-18-26.28-42.276-53.64-48.858-66.24-27.102-37.06-13.782-66.77Z" fill="#ea9d7d"/><path d="M184.27116,111.48351,155.95658,20.2342l-.12547-.25808c-.8121-1.17151-7.49821-10.57656-15.50855-14.43156a1.0043,1.0043,0,0,0-1.43371.94068l1.90476,58.80141-2.88779,17.93577a59.52237,59.52237,0,0,0,11.25543,45.31832L197.674,192.8202,214.9825,178.953Z" fill="#ed3773"/><path d="M229.06361,210.78665a34.31153,34.31153,0,0,1,2.91,3.89" fill="none" stroke="#2f170b" stroke-miterlimit="10"/><path d="M225.30361,207.47667a5.951,5.951,0,0,1-.88282-.14184,4.52215,4.52215,0,0,0-.75908-.14478.38011.38011,0,0,0-.41516.239,1.66545,1.66545,0,0,0-.10719.69458,12.38745,12.38745,0,0,0,.75839,3.27856c.733,2.18091,1.66913,4.32031,2.60534,6.43091l.0085.01855a.4964.4964,0,0,1-.85686.49317l-.02249-.03223a34.38075,34.38075,0,0,0-3.74488-4.46143,15.99014,15.99014,0,0,0-2.16952-1.81225l-.5771-.35913-.58641-.29248a2.6745,2.6745,0,0,0-.85707-.251c.04275-.00439.1489-.08984.10548-.0332a1.36426,1.36426,0,0,0-.04434.405,6.423,6.423,0,0,0,.16581,1.26513,26.38236,26.38236,0,0,0,.80668,2.72559c.64349,1.81909,1.38386,3.64868,2.11344,5.44629l.00008.00024.00644.01587a.95592.95592,0,0,1-1.68145.88916,35.82867,35.82867,0,0,0-3.43009-4.45971,16.0998,16.0998,0,0,0-1.99325-1.88965,8.07259,8.07259,0,0,0-1.0928-.71558,2.96909,2.96909,0,0,0-.56174-.26025l-.27623-.10938c-.05864-.00561-.14039-.03882-.178-.03711-.09817-.00415-.0436-.00342-.048-.03467a.51439.51439,0,0,0-.10967.238,3.90481,3.90481,0,0,0-.04952,1.2041,17.35693,17.35693,0,0,0,.49429,2.74829c.22935.92334.50265,1.84375.7965,2.759a8.48787,8.48787,0,0,1,.53955,2.89843,6.68594,6.68594,0,0,1-1.5692-2.52783c-.36136-.91137-.7037-1.83276-1.00628-2.77588a18.65249,18.65249,0,0,1-.72922-2.9375,5.32783,5.32783,0,0,1-.023-1.69433,2.08451,2.08451,0,0,1,.50127-1.06128,1.69927,1.69927,0,0,1,1.28558-.48706,3.25248,3.25248,0,0,1,.53812.08105c.14876.042.27111.09082.40792.13721a4.4211,4.4211,0,0,1,.7695.321,9.82172,9.82172,0,0,1,1.37131.82593,17.87165,17.87165,0,0,1,2.305,2.02613,30.34521,30.34521,0,0,1,3.67785,4.74389l-1.675.905-.0001-.00024a39.96688,39.96688,0,0,1-2.30243-5.606,20.91084,20.91084,0,0,1-.77244-3.01,8.09278,8.09278,0,0,1-.12955-1.69019,2.91991,2.91991,0,0,1,.22246-1.04956,1.7563,1.7563,0,0,1,.42193-.60546,1.57306,1.57306,0,0,1,.73687-.38477,2.251,2.251,0,0,1,1.18822.10571c.26783.10791.54835.20362.80068.32886l.72739.40674.66126.46631a17.485,17.485,0,0,1,2.2679,2.14306,31.33206,31.33206,0,0,1,3.54128,4.93433l-.87932.46094.00533.01123a46.63643,46.63643,0,0,1-2.58369-6.58155,12.65152,12.65152,0,0,1-.60894-3.5686,2.28666,2.28666,0,0,1,.23893-1.00464,1.0487,1.0487,0,0,1,1.03263-.5437,2.19412,2.19412,0,0,1,.92737.29566A2.10724,2.10724,0,0,1,225.30361,207.47667Z" fill="#2f170b"/><path d="M234.406,208.08116a26.01888,26.01888,0,0,1-4.99891,3.39917,18.25609,18.25609,0,0,1-2.84046,1.23536,7.30363,7.30363,0,0,1-1.6649.35376,2.87336,2.87336,0,0,1-1.09472-.10816,1.83351,1.83351,0,0,1-.67888-.37573,1.67851,1.67851,0,0,1-.487-.73877,2.37,2.37,0,0,1-.01434-1.25244c.08159-.28247.14954-.57837.25165-.84644l.34693-.77295.4122-.70825a14.599,14.599,0,0,1,2.00437-2.41943,19.20067,19.20067,0,0,1,4.94409-3.52735c-1.305,1.54541-2.60694,3.02613-3.7728,4.55884a20.23492,20.23492,0,0,0-1.54422,2.34961c-.09379.20386-.19975.39966-.301.59815l-.23354.59741c-.06835.19678-.10349.38916-.162.582-.04689.17944-.01558.25537-.03254.2146a.43861.43861,0,0,0-.11942-.1499,1.138,1.138,0,0,0,.37774.02929,6.79505,6.79505,0,0,0,1.253-.20092c.89962-.20191,1.8081-.54126,2.73363-.84351C230.62571,209.40612,232.47712,208.69518,234.406,208.08116Z" fill="#2f170b"/><path d="M210.64277,202.31993a9.26941,9.26941,0,0,0,1.8086,1.08789,15.365,15.365,0,0,0,1.8753.76075,22.95632,22.95632,0,0,0,3.915.90088c1.32937.22607,2.6917.33935,4.07556.48462.69339.02661,1.39391.10937,2.10231.17114a20.086,20.086,0,0,1,2.16139.24511,18.58323,18.58323,0,0,1-2.07574.73316c-.70856.16968-1.42984.30273-2.15559.41113a16.17288,16.17288,0,0,1-4.42414-.0708,11.85681,11.85681,0,0,1-4.25081-1.46387c-.325-.1958-.64412-.40625-.94935-.62744a11.14383,11.14383,0,0,1-.852-.75732A5.052,5.052,0,0,1,210.64277,202.31993Z" fill="#2f170b"/><line x1="201.52519" y1="195.49215" x2="217.57379" y2="183.66236" fill="none" stroke="#2f170b" stroke-linecap="round" stroke-linejoin="round" stroke-width="6"/><path d="M151.36419,131.45958,145.7326,42.77672l-3.84979,73.14575a59.48917,59.48917,0,0,0,7.27844,12.61817Z" fill="#2f170b"/><path d="M184.27117,111.48352l-1.0495-3.38208c-2.38569,1.87256-6.4505,5.30567-8.09858,8.14868l9.55732-3.86743Z" fill="#2f170b"/><path d="M141.35267,130.5h-87.5l18-127.5L90.12408,0l.06134.13012A18.58234,18.58234,0,0,0,123.86253,0l0,0,15.21407,4.86545a10.8901,10.8901,0,0,1,8.30134,11.154Z" fill="#ed3773"/><polygon points="62.629 68.333 79.473 42.74 56.995 108.245 62.629 68.333" fill="#2f170b"/><path d="M50.96083,84.56648l-5.73,9.67517L99.55043,123.3891s24.00384-9.66493,26.76318-8.66052,7.042,4.50114-7.89659,10.24708c0,0,1.18031,2.06485,6.61252,4.0422s26.50371,8.95306,26.34979,10.80672,3.77474,7.2767-24.80829-2.43324c0,0-2.175,2.15963.27776,3.05244s25.80959,9.22122,22.39413,11.45014-6.56477.38812-25.22523-6.05717c0,0-2.10508,1.49064-1.2969,2.132s22.65965,9.28988,21.99,11.12944,2.47909,5.58982-28.542-7.43809c0,0-.85049.90568,2.03393,2.99727s15.70427,10.75107,11.41135,11.09811-4.47381-.58684-19.2583-11.0031L93.3271,145.25531S20.59265,120.56378,6.3286,102.01108c-10.27413-13.36318,13.32-41.10485,13.32-41.10485Z" fill="#ea9d7d"/><path d="M17.91267,61.1,48.51081,18.62S58.47267,5.74,71.85267,3l7.62,39.74L47.01236,92.0628l51.09477,29.44075-7.68,23.41835L14.56145,114.57134A23.15282,23.15282,0,0,1,4.49766,79.37366Z" fill="#ed3773"/><line x1="118.41702" y1="124.97566" x2="109.4686" y2="128.34054" fill="none" stroke="#2f170b" stroke-miterlimit="10" stroke-width="2"/><polygon points="47.012 92.063 32.317 96.184 51.189 85.717 47.012 92.063" fill="#2f170b"/><polygon points="98.107 121.504 60.175 85.717 58.356 98.599 98.107 121.504" fill="#2f170b"/><circle cx="108.50853" cy="22.35089" r="5.94347" fill="#fff"/><circle cx="42.72929" cy="64.93667" r="5.94347" fill="#fff"/><circle cx="102.56506" cy="104.70583" r="5.94347" fill="#fff"/><circle cx="130.09148" cy="66.8398" r="5.94347" fill="#fff"/><circle cx="9.68082" cy="99.13272" r="5.94347" fill="#fff"/><circle cx="56.99459" cy="116.24101" r="5.94347" fill="#fff"/><circle cx="162.7928" cy="83.6398" r="5.94347" fill="#fff"/><circle cx="162.7928" cy="126.6581" r="5.94347" fill="#fff"/><circle cx="192.2378" cy="159.86956" r="5.94347" fill="#fff"/><circle cx="140.28045" cy="20.0398" r="5.94347" fill="#fff"/><circle cx="62.55726" cy="17.06704" r="5.94347" fill="#fff"/><circle cx="88.08412" cy="60.89633" r="5.94347" fill="#fff"/></g></g></svg>