<svg xmlns="http://www.w3.org/2000/svg" viewBox="0 0 778.43 521"><title>torso-14</title><g id="common"><rect x="-0.00408" width="320.96976" height="158.98493" fill="#877e80"/><rect x="354.84287" width="423.58713" height="158.98493" fill="#877e80"/><path d="M429.7381,8.12314c3.22.13907,6.90081,2.16748,7.09689,4.35072.21536,2.398-3.97075,2.78486-5.38153,6.95862-1.38054,4.08422,1.0332,8.43,1.25276,8.8131,1.792,3.12833,3.88839,3.26179,3.86663,4.96691-.03437,2.696-5.30658,4.84241-8.77025,6.25262-5.37288,2.1875-6.906,1.51423-8.20714,3.30624-2.43764,3.35729,1.63254,7.52692-.6402,11.03561-2.12953,3.28753-8.6104,4.11664-11.30941,1.71536-2.25016-2.00223-.91708-5.401-2.99941-6.73928-1.583-1.01723-3.08137,1.00579-7.77748,1.97891-1.3306.27568-6.78385,1.40583-8.09442-.66547-.85547-1.35167.86944-2.77822-.0431-5-.13765-.33523-.38289-.80411-3.26317-3.20734-2.78979-2.32734-2.87492-2.15056-3.703-3.05645-1.02187-1.11771-2.91979-3.19378-2.547-5.41949.16732-.999.837-1.7997,2.17672-3.40134,1.59517-1.90708,2.11109-1.83666,2.47575-2.81552.55914-1.50087-.33521-2.52173-.92559-4.99225-.32853-1.37484-.9709-4.06259-.20157-6.32216.82518-2.42361,2.48115-2.02529,7.15121-6.38564.79-.7376,2.1303-2.12332,4.81094-4.89469,2.8951-2.99309,3.10534-3.2949,3.93894-3.71082a8.82184,8.82184,0,0,1,8.386.36887c1.51137.9996,1.22837,1.72115,3.26317,3.20735,1.33093.97175,2.936,2.14412,4.72364,2.01806,3.15795-.2227,4.53519-4.33095,5.84925-3.87414,1.414.4916-.09456,5.2788,1.96861,6.60123C424.41316,10.22308,426.14318,7.968,429.7381,8.12314Z" fill="#92ea6a"/><circle cx="395.62636" cy="9.39459" r="3.33" fill="#ed3773"/><circle cx="414.7273" cy="7.53644" r="3.33" fill="#ed3773"/><circle cx="428.22257" cy="13.5504" r="3.33" fill="#ed3773"/><circle cx="428.33019" cy="30.88575" r="3.33" fill="#ed3773"/><circle cx="413.07717" cy="48.58728" r="3.33" fill="#ed3773"/><circle cx="385.73603" cy="28.66734" r="3.33" fill="#ed3773"/><circle cx="396.15114" cy="45.68255" r="3.33" fill="#ed3773"/><circle cx="407.80638" cy="28.60425" r="21.78001" transform="translate(334.32161 430.75377) rotate(-83.65685)" fill="#eae16a"/><path d="M393.59436,25.451a1.5009,1.5009,0,0,0,0-3,1.5009,1.5009,0,0,0,0,3Z" fill="#fff"/><path d="M407.75005,17.52219a1.5009,1.5009,0,0,0,0-3,1.5009,1.5009,0,0,0,0,3Z" fill="#fff"/><path d="M406.90077,28.46929a1.5009,1.5009,0,0,0,0-3,1.5009,1.5009,0,0,0,0,3Z" fill="#fff"/><path d="M418.31971,25.56382a1.5009,1.5009,0,0,0,0-3,1.5009,1.5009,0,0,0,0,3Z" fill="#fff"/><path d="M398.23876,37.727a1.5009,1.5009,0,0,0,0-3,1.5009,1.5009,0,0,0,0,3Z" fill="#fff"/><path d="M412.17947,41.87776a1.5009,1.5009,0,0,0,0-3,1.5009,1.5009,0,0,0,0,3Z" fill="#fff"/><path d="M422.31587,36.88683a1.5009,1.5009,0,0,0,0-3,1.5009,1.5009,0,0,0,0,3Z" fill="#fff"/><path d="M373.32576,92.01618s5.48485,51.29,33.76185,55.05654,28.77617-22.42986,16.93326-62.91793L417.91364,56.0962s-1.5446-3.10442,2.95032-10.66694,10.75628-10.343-10.56434-30.73109c0,0-14.82711-6.11806-4.69371,25.06753,0,0-3.99526,3.03031-2.52478,11.67459L400.19019,85.985Z" fill="#ea9d7d"/><path d="M401.92961,138.03921s-8.02782-2.00156-1.73942-52.05418l-6.98267,1.56763S387.1782,129.01428,401.92961,138.03921Z" fill="#2f170b"/><path d="M372.12066,159.61773h-87.5l18-127.5,18.27141-3,.06134.13012a18.58234,18.58234,0,0,0,33.67711-.13009l0,0,15.21407,4.86545a10.89009,10.89009,0,0,1,8.30134,11.154Z" fill="#6986ed"/><path d="M401.32066,94.36773l-14.35508-45.049a.979.979,0,0,0-.12972-.26445c-.82118-1.18456-7.50271-10.57689-15.50623-14.42864a1.00432,1.00432,0,0,0-1.43373.9407l1.90476,58.80141Z" fill="#6986ed"/><polygon points="293.397 97.451 310.241 71.858 287.763 137.362 293.397 97.451" fill="#2f170b"/><polygon points="375.555 94.368 376.74 71.858 382.252 94.368 375.555 94.368" fill="#2f170b"/><line x1="375.78349" y1="90.02396" x2="399.61614" y2="90.02396" fill="none" stroke="#fff" stroke-miterlimit="10" stroke-width="4"/><line x1="376.2678" y1="80.82208" x2="397.00427" y2="80.82208" fill="none" stroke="#fff" stroke-miterlimit="10" stroke-width="4"/><path d="M309.2788,69.43827l-40.804,58.33093s36.55519,6.89443,40.76045,6.78333,26.343.09111,30.35478.2055,6.21754,4.15936,2.5434,5.70464l-4.39869.33659s.6925.78976,5.91246,1.54911,10.80966,3.59729,5.6447,6.31008a44.2963,44.2963,0,0,1-10.99617-.528s11.624,1.84947,7.40053,7.22916-3.08747,5.08207-7.05922,5.49134-8.48319.64913-8.48319.64913,10.511,5.20031,10.559,5.82869.44989,3.1259-4.8422,1.424-26.71688-11.861-30.18046-13.0708-9.59848-3.83042-56.60333-1.35727h0a22.20056,22.20056,0,0,1-18.86156-34.50857L275.14673,57.72Z" fill="#ea9d7d"/><path d="M242.6523,128.97263s10.78642-5.4254,25.95129-.89725l3.23917-4.46S254.55749,119.35321,242.6523,128.97263Z" fill="#2f170b"/><line x1="344.24043" y1="157.26079" x2="331.45078" y2="155.04505" fill="none" stroke="#2f170b" stroke-miterlimit="10"/><line x1="337.73476" y1="140.79926" x2="328.18151" y2="138.01881" fill="none" stroke="#2f170b" stroke-miterlimit="10"/><path d="M248.68066,90.21773l30.59814-42.48s9.96186-12.88,23.34186-15.62l7.62,39.74-27.72,42.12Z" fill="#6986ed"/><line x1="252.61591" y1="84.75435" x2="286.16574" y2="108.4391" fill="none" stroke="#fff" stroke-miterlimit="10" stroke-width="4"/><line x1="258.14372" y1="77.07998" x2="292.14974" y2="99.34652" fill="none" stroke="#fff" stroke-miterlimit="10" stroke-width="4"/><line x1="402.32811" y1="57.71995" x2="418.70133" y2="59.7151" fill="none" stroke="#2f170b" stroke-linecap="round" stroke-linejoin="round" stroke-width="6"/><ellipse cx="416.64678" cy="59.14264" rx="5.45307" ry="6.69563" fill="#2f170b"/><rect x="-423.58508" width="423.58713" height="158.99661" fill="#877e80"/><rect x="778.42796" width="320.96976" height="158.98493" fill="#877e80"/></g></svg>