<svg xmlns="http://www.w3.org/2000/svg" viewBox="0 0 223.08 362.52381"><title>Asset 6</title><g id="Layer_2" data-name="Layer 2"><g id="Layer_1-2" data-name="Layer 1"><path d="M126.8.64381s14.3037,42.16339,8.92,87.32-8.88,66.8-8.88,66.8l-54.48,163.38H0l73.56-225.22V.64381Z" fill="#ed3773"/><path d="M79.71992,23.22376H73.56v69.7L50.92866,162.21461c16.552,42.6159,24.46363,63.6,32.021,95.50915,1.27612,5.38831,2.65307,10.91736,4.07617,16.43891l38.27075-114.76984C112.01484,122.20692,79.71992,23.22376,79.71992,23.22376Z" fill="#2f170b"/><path d="M223.08,362.52381H127.36a7,7,0,0,1-7-7v-37.38h54.18l2.31788,5.02736a24.89605,24.89605,0,0,0,21.82062,14.45974l.29361.0093A24.896,24.896,0,0,1,223.08,362.52378Z" fill="#2f170b"/><path d="M108.62907,362.52381h-95.72a7,7,0,0,1-7-7v-37.38h54.18l2.31788,5.02736a24.89605,24.89605,0,0,0,21.82062,14.45974l.29362.0093a24.896,24.896,0,0,1,24.10788,24.88357Z" fill="#2f170b"/><path d="M39.8.64381s-17,50,7,112,33.5,84.5,42.5,122.5,23,83,23,83h71s-40-153-47-169S86.07025.64381,86.07025.64381Z" fill="#ed3773"/><path d="M69.8.64381s-17,50,7,112,33.5,84.5,42.5,122.5,23,83,23,83" fill="none" stroke="#fff" stroke-miterlimit="10" stroke-width="4"/><path d="M80.8.64381s-17,50,7,112,33.5,84.5,42.5,122.5,23,83,23,83" fill="none" stroke="#fff" stroke-miterlimit="10" stroke-width="4"/><path d="M130.07759,132.3852q.75842-5.55724,1.66968-12.519L102.27876,49.95161Z" fill="#2f170b"/></g></g></svg>